%TF.GenerationSoftware,KiCad,Pcbnew,(5.1.9)-1*%
%TF.CreationDate,2021-11-05T10:50:43-04:00*%
%TF.ProjectId,raindrop,7261696e-6472-46f7-902e-6b696361645f,rev?*%
%TF.SameCoordinates,Original*%
%TF.FileFunction,Legend,Bot*%
%TF.FilePolarity,Positive*%
%FSLAX46Y46*%
G04 Gerber Fmt 4.6, Leading zero omitted, Abs format (unit mm)*
G04 Created by KiCad (PCBNEW (5.1.9)-1) date 2021-11-05 10:50:43*
%MOMM*%
%LPD*%
G01*
G04 APERTURE LIST*
%ADD10C,0.120000*%
%ADD11C,0.150000*%
G04 APERTURE END LIST*
D10*
%TO.C,J1*%
X156210000Y-83820000D02*
X156210000Y-66040000D01*
X156210000Y-66040000D02*
X132080000Y-66040000D01*
X132080000Y-66040000D02*
X132080000Y-83820000D01*
X132080000Y-83820000D02*
X156210000Y-83820000D01*
%TO.C,U2*%
X140970000Y-103325000D02*
X144830000Y-103325000D01*
X144830000Y-103325000D02*
X144830000Y-103580000D01*
X140970000Y-103325000D02*
X137110000Y-103325000D01*
X137110000Y-103325000D02*
X137110000Y-103580000D01*
X140970000Y-113845000D02*
X144830000Y-113845000D01*
X144830000Y-113845000D02*
X144830000Y-113590000D01*
X140970000Y-113845000D02*
X137110000Y-113845000D01*
X137110000Y-113845000D02*
X137110000Y-113590000D01*
X137110000Y-113590000D02*
X135295000Y-113590000D01*
%TO.C,U1*%
X130170000Y-123400000D02*
X130170000Y-122140000D01*
X130170000Y-116580000D02*
X130170000Y-117840000D01*
X133930000Y-123400000D02*
X130170000Y-123400000D01*
X136180000Y-116580000D02*
X130170000Y-116580000D01*
%TO.C,R3*%
X139349564Y-91800000D02*
X137895436Y-91800000D01*
X139349564Y-93620000D02*
X137895436Y-93620000D01*
%TO.C,R2*%
X137510436Y-97430000D02*
X138964564Y-97430000D01*
X137510436Y-95610000D02*
X138964564Y-95610000D01*
%TO.C,R1*%
X137510436Y-89810000D02*
X138964564Y-89810000D01*
X137510436Y-87990000D02*
X138964564Y-87990000D01*
%TO.C,C4*%
X138988748Y-122830000D02*
X140411252Y-122830000D01*
X138988748Y-121010000D02*
X140411252Y-121010000D01*
%TO.C,C3*%
X154030000Y-101953748D02*
X154030000Y-103376252D01*
X155850000Y-101953748D02*
X155850000Y-103376252D01*
%TO.C,C2*%
X140616252Y-115930000D02*
X139193748Y-115930000D01*
X140616252Y-117750000D02*
X139193748Y-117750000D01*
%TO.C,BT1*%
X149225000Y-129540000D02*
X149225000Y-128905000D01*
X153035000Y-129540000D02*
X149225000Y-129540000D01*
X153035000Y-128905000D02*
X153035000Y-129540000D01*
X149225000Y-109220000D02*
X149225000Y-109855000D01*
X153035000Y-109220000D02*
X149225000Y-109220000D01*
X153035000Y-109855000D02*
X153035000Y-109220000D01*
X149225000Y-128905000D02*
X149225000Y-125095000D01*
X153035000Y-125095000D02*
X153035000Y-128905000D01*
X149225000Y-109855000D02*
X149225000Y-113665000D01*
X153035000Y-113665000D02*
X153035000Y-109855000D01*
X156845000Y-113665000D02*
X148590000Y-113665000D01*
X151130000Y-125095000D02*
X148590000Y-125095000D01*
X145415000Y-121920000D02*
X148590000Y-125095000D01*
X145415000Y-116840000D02*
X148590000Y-113665000D01*
X145415000Y-121920000D02*
X145415000Y-116840000D01*
X145415000Y-119380000D02*
X145415000Y-121920000D01*
X156845000Y-125095000D02*
X156845000Y-123825000D01*
X156845000Y-113665000D02*
X156845000Y-114935000D01*
X151130000Y-125095000D02*
X156845000Y-125095000D01*
X156845001Y-114935001D02*
G75*
G03*
X156845001Y-123824999I4444999J-4444999D01*
G01*
%TO.C,J1*%
D11*
X142573333Y-63722380D02*
X142573333Y-64436666D01*
X142620952Y-64579523D01*
X142716190Y-64674761D01*
X142859047Y-64722380D01*
X142954285Y-64722380D01*
X141573333Y-64722380D02*
X142144761Y-64722380D01*
X141859047Y-64722380D02*
X141859047Y-63722380D01*
X141954285Y-63865238D01*
X142049523Y-63960476D01*
X142144761Y-64008095D01*
X151432380Y-80584523D02*
X150646190Y-80584523D01*
X151069523Y-81068333D01*
X150888095Y-81068333D01*
X150767142Y-81128809D01*
X150706666Y-81189285D01*
X150646190Y-81310238D01*
X150646190Y-81612619D01*
X150706666Y-81733571D01*
X150767142Y-81794047D01*
X150888095Y-81854523D01*
X151250952Y-81854523D01*
X151371904Y-81794047D01*
X151432380Y-81733571D01*
X150283333Y-80584523D02*
X149860000Y-81854523D01*
X149436666Y-80584523D01*
X149134285Y-80584523D02*
X148348095Y-80584523D01*
X148771428Y-81068333D01*
X148590000Y-81068333D01*
X148469047Y-81128809D01*
X148408571Y-81189285D01*
X148348095Y-81310238D01*
X148348095Y-81612619D01*
X148408571Y-81733571D01*
X148469047Y-81794047D01*
X148590000Y-81854523D01*
X148952857Y-81854523D01*
X149073809Y-81794047D01*
X149134285Y-81733571D01*
X150071666Y-79193571D02*
X150132142Y-79254047D01*
X150313571Y-79314523D01*
X150434523Y-79314523D01*
X150615952Y-79254047D01*
X150736904Y-79133095D01*
X150797380Y-79012142D01*
X150857857Y-78770238D01*
X150857857Y-78588809D01*
X150797380Y-78346904D01*
X150736904Y-78225952D01*
X150615952Y-78105000D01*
X150434523Y-78044523D01*
X150313571Y-78044523D01*
X150132142Y-78105000D01*
X150071666Y-78165476D01*
X149587857Y-79254047D02*
X149406428Y-79314523D01*
X149104047Y-79314523D01*
X148983095Y-79254047D01*
X148922619Y-79193571D01*
X148862142Y-79072619D01*
X148862142Y-78951666D01*
X148922619Y-78830714D01*
X148983095Y-78770238D01*
X149104047Y-78709761D01*
X149345952Y-78649285D01*
X149466904Y-78588809D01*
X149527380Y-78528333D01*
X149587857Y-78407380D01*
X149587857Y-78286428D01*
X149527380Y-78165476D01*
X149466904Y-78105000D01*
X149345952Y-78044523D01*
X149043571Y-78044523D01*
X148862142Y-78105000D01*
X151855714Y-76774523D02*
X151855714Y-75504523D01*
X151432380Y-76411666D01*
X151009047Y-75504523D01*
X151009047Y-76774523D01*
X150162380Y-75504523D02*
X149920476Y-75504523D01*
X149799523Y-75565000D01*
X149678571Y-75685952D01*
X149618095Y-75927857D01*
X149618095Y-76351190D01*
X149678571Y-76593095D01*
X149799523Y-76714047D01*
X149920476Y-76774523D01*
X150162380Y-76774523D01*
X150283333Y-76714047D01*
X150404285Y-76593095D01*
X150464761Y-76351190D01*
X150464761Y-75927857D01*
X150404285Y-75685952D01*
X150283333Y-75565000D01*
X150162380Y-75504523D01*
X149134285Y-76714047D02*
X148952857Y-76774523D01*
X148650476Y-76774523D01*
X148529523Y-76714047D01*
X148469047Y-76653571D01*
X148408571Y-76532619D01*
X148408571Y-76411666D01*
X148469047Y-76290714D01*
X148529523Y-76230238D01*
X148650476Y-76169761D01*
X148892380Y-76109285D01*
X149013333Y-76048809D01*
X149073809Y-75988333D01*
X149134285Y-75867380D01*
X149134285Y-75746428D01*
X149073809Y-75625476D01*
X149013333Y-75565000D01*
X148892380Y-75504523D01*
X148590000Y-75504523D01*
X148408571Y-75565000D01*
X147864285Y-76774523D02*
X147864285Y-75504523D01*
X151099761Y-74113571D02*
X151160238Y-74174047D01*
X151341666Y-74234523D01*
X151462619Y-74234523D01*
X151644047Y-74174047D01*
X151765000Y-74053095D01*
X151825476Y-73932142D01*
X151885952Y-73690238D01*
X151885952Y-73508809D01*
X151825476Y-73266904D01*
X151765000Y-73145952D01*
X151644047Y-73025000D01*
X151462619Y-72964523D01*
X151341666Y-72964523D01*
X151160238Y-73025000D01*
X151099761Y-73085476D01*
X149950714Y-74234523D02*
X150555476Y-74234523D01*
X150555476Y-72964523D01*
X149527380Y-74234523D02*
X149527380Y-72964523D01*
X148801666Y-74234523D02*
X149345952Y-73508809D01*
X148801666Y-72964523D02*
X149527380Y-73690238D01*
X152339523Y-71694523D02*
X152339523Y-70424523D01*
X151916190Y-71331666D01*
X151492857Y-70424523D01*
X151492857Y-71694523D01*
X150888095Y-71694523D02*
X150888095Y-70424523D01*
X150343809Y-71634047D02*
X150162380Y-71694523D01*
X149860000Y-71694523D01*
X149739047Y-71634047D01*
X149678571Y-71573571D01*
X149618095Y-71452619D01*
X149618095Y-71331666D01*
X149678571Y-71210714D01*
X149739047Y-71150238D01*
X149860000Y-71089761D01*
X150101904Y-71029285D01*
X150222857Y-70968809D01*
X150283333Y-70908333D01*
X150343809Y-70787380D01*
X150343809Y-70666428D01*
X150283333Y-70545476D01*
X150222857Y-70485000D01*
X150101904Y-70424523D01*
X149799523Y-70424523D01*
X149618095Y-70485000D01*
X148831904Y-70424523D02*
X148590000Y-70424523D01*
X148469047Y-70485000D01*
X148348095Y-70605952D01*
X148287619Y-70847857D01*
X148287619Y-71271190D01*
X148348095Y-71513095D01*
X148469047Y-71634047D01*
X148590000Y-71694523D01*
X148831904Y-71694523D01*
X148952857Y-71634047D01*
X149073809Y-71513095D01*
X149134285Y-71271190D01*
X149134285Y-70847857D01*
X149073809Y-70605952D01*
X148952857Y-70485000D01*
X148831904Y-70424523D01*
X150827619Y-67945000D02*
X150948571Y-67884523D01*
X151130000Y-67884523D01*
X151311428Y-67945000D01*
X151432380Y-68065952D01*
X151492857Y-68186904D01*
X151553333Y-68428809D01*
X151553333Y-68610238D01*
X151492857Y-68852142D01*
X151432380Y-68973095D01*
X151311428Y-69094047D01*
X151130000Y-69154523D01*
X151009047Y-69154523D01*
X150827619Y-69094047D01*
X150767142Y-69033571D01*
X150767142Y-68610238D01*
X151009047Y-68610238D01*
X150222857Y-69154523D02*
X150222857Y-67884523D01*
X149497142Y-69154523D01*
X149497142Y-67884523D01*
X148892380Y-69154523D02*
X148892380Y-67884523D01*
X148590000Y-67884523D01*
X148408571Y-67945000D01*
X148287619Y-68065952D01*
X148227142Y-68186904D01*
X148166666Y-68428809D01*
X148166666Y-68610238D01*
X148227142Y-68852142D01*
X148287619Y-68973095D01*
X148408571Y-69094047D01*
X148590000Y-69154523D01*
X148892380Y-69154523D01*
X149700476Y-65222380D02*
X149700476Y-64555714D01*
X149700476Y-64650952D02*
X149652857Y-64603333D01*
X149557619Y-64555714D01*
X149414761Y-64555714D01*
X149319523Y-64603333D01*
X149271904Y-64698571D01*
X149271904Y-65222380D01*
X149271904Y-64698571D02*
X149224285Y-64603333D01*
X149129047Y-64555714D01*
X148986190Y-64555714D01*
X148890952Y-64603333D01*
X148843333Y-64698571D01*
X148843333Y-65222380D01*
X148367142Y-65222380D02*
X148367142Y-64555714D01*
X148367142Y-64222380D02*
X148414761Y-64270000D01*
X148367142Y-64317619D01*
X148319523Y-64270000D01*
X148367142Y-64222380D01*
X148367142Y-64317619D01*
X147462380Y-65174761D02*
X147557619Y-65222380D01*
X147748095Y-65222380D01*
X147843333Y-65174761D01*
X147890952Y-65127142D01*
X147938571Y-65031904D01*
X147938571Y-64746190D01*
X147890952Y-64650952D01*
X147843333Y-64603333D01*
X147748095Y-64555714D01*
X147557619Y-64555714D01*
X147462380Y-64603333D01*
X147033809Y-65222380D02*
X147033809Y-64555714D01*
X147033809Y-64746190D02*
X146986190Y-64650952D01*
X146938571Y-64603333D01*
X146843333Y-64555714D01*
X146748095Y-64555714D01*
X146271904Y-65222380D02*
X146367142Y-65174761D01*
X146414761Y-65127142D01*
X146462380Y-65031904D01*
X146462380Y-64746190D01*
X146414761Y-64650952D01*
X146367142Y-64603333D01*
X146271904Y-64555714D01*
X146129047Y-64555714D01*
X146033809Y-64603333D01*
X145986190Y-64650952D01*
X145938571Y-64746190D01*
X145938571Y-65031904D01*
X145986190Y-65127142D01*
X146033809Y-65174761D01*
X146129047Y-65222380D01*
X146271904Y-65222380D01*
X144795714Y-65174761D02*
X144700476Y-65222380D01*
X144510000Y-65222380D01*
X144414761Y-65174761D01*
X144367142Y-65079523D01*
X144367142Y-65031904D01*
X144414761Y-64936666D01*
X144510000Y-64889047D01*
X144652857Y-64889047D01*
X144748095Y-64841428D01*
X144795714Y-64746190D01*
X144795714Y-64698571D01*
X144748095Y-64603333D01*
X144652857Y-64555714D01*
X144510000Y-64555714D01*
X144414761Y-64603333D01*
X143510000Y-65222380D02*
X143510000Y-64222380D01*
X143510000Y-65174761D02*
X143605238Y-65222380D01*
X143795714Y-65222380D01*
X143890952Y-65174761D01*
X143938571Y-65127142D01*
X143986190Y-65031904D01*
X143986190Y-64746190D01*
X143938571Y-64650952D01*
X143890952Y-64603333D01*
X143795714Y-64555714D01*
X143605238Y-64555714D01*
X143510000Y-64603333D01*
X142271904Y-65222380D02*
X142271904Y-64555714D01*
X142271904Y-64650952D02*
X142224285Y-64603333D01*
X142129047Y-64555714D01*
X141986190Y-64555714D01*
X141890952Y-64603333D01*
X141843333Y-64698571D01*
X141843333Y-65222380D01*
X141843333Y-64698571D02*
X141795714Y-64603333D01*
X141700476Y-64555714D01*
X141557619Y-64555714D01*
X141462380Y-64603333D01*
X141414761Y-64698571D01*
X141414761Y-65222380D01*
X140795714Y-65222380D02*
X140890952Y-65174761D01*
X140938571Y-65127142D01*
X140986190Y-65031904D01*
X140986190Y-64746190D01*
X140938571Y-64650952D01*
X140890952Y-64603333D01*
X140795714Y-64555714D01*
X140652857Y-64555714D01*
X140557619Y-64603333D01*
X140510000Y-64650952D01*
X140462380Y-64746190D01*
X140462380Y-65031904D01*
X140510000Y-65127142D01*
X140557619Y-65174761D01*
X140652857Y-65222380D01*
X140795714Y-65222380D01*
X139605238Y-65222380D02*
X139605238Y-64222380D01*
X139605238Y-65174761D02*
X139700476Y-65222380D01*
X139890952Y-65222380D01*
X139986190Y-65174761D01*
X140033809Y-65127142D01*
X140081428Y-65031904D01*
X140081428Y-64746190D01*
X140033809Y-64650952D01*
X139986190Y-64603333D01*
X139890952Y-64555714D01*
X139700476Y-64555714D01*
X139605238Y-64603333D01*
X138700476Y-64555714D02*
X138700476Y-65222380D01*
X139129047Y-64555714D02*
X139129047Y-65079523D01*
X139081428Y-65174761D01*
X138986190Y-65222380D01*
X138843333Y-65222380D01*
X138748095Y-65174761D01*
X138700476Y-65127142D01*
X138081428Y-65222380D02*
X138176666Y-65174761D01*
X138224285Y-65079523D01*
X138224285Y-64222380D01*
X137319523Y-65174761D02*
X137414761Y-65222380D01*
X137605238Y-65222380D01*
X137700476Y-65174761D01*
X137748095Y-65079523D01*
X137748095Y-64698571D01*
X137700476Y-64603333D01*
X137605238Y-64555714D01*
X137414761Y-64555714D01*
X137319523Y-64603333D01*
X137271904Y-64698571D01*
X137271904Y-64793809D01*
X137748095Y-64889047D01*
%TO.C,U2*%
X141731904Y-114137380D02*
X141731904Y-114946904D01*
X141684285Y-115042142D01*
X141636666Y-115089761D01*
X141541428Y-115137380D01*
X141350952Y-115137380D01*
X141255714Y-115089761D01*
X141208095Y-115042142D01*
X141160476Y-114946904D01*
X141160476Y-114137380D01*
X140731904Y-114232619D02*
X140684285Y-114185000D01*
X140589047Y-114137380D01*
X140350952Y-114137380D01*
X140255714Y-114185000D01*
X140208095Y-114232619D01*
X140160476Y-114327857D01*
X140160476Y-114423095D01*
X140208095Y-114565952D01*
X140779523Y-115137380D01*
X140160476Y-115137380D01*
%TO.C,U1*%
X132841904Y-114942380D02*
X132841904Y-115751904D01*
X132794285Y-115847142D01*
X132746666Y-115894761D01*
X132651428Y-115942380D01*
X132460952Y-115942380D01*
X132365714Y-115894761D01*
X132318095Y-115847142D01*
X132270476Y-115751904D01*
X132270476Y-114942380D01*
X131270476Y-115942380D02*
X131841904Y-115942380D01*
X131556190Y-115942380D02*
X131556190Y-114942380D01*
X131651428Y-115085238D01*
X131746666Y-115180476D01*
X131841904Y-115228095D01*
%TO.C,R3*%
X138789166Y-91342380D02*
X139122500Y-90866190D01*
X139360595Y-91342380D02*
X139360595Y-90342380D01*
X138979642Y-90342380D01*
X138884404Y-90390000D01*
X138836785Y-90437619D01*
X138789166Y-90532857D01*
X138789166Y-90675714D01*
X138836785Y-90770952D01*
X138884404Y-90818571D01*
X138979642Y-90866190D01*
X139360595Y-90866190D01*
X138455833Y-90342380D02*
X137836785Y-90342380D01*
X138170119Y-90723333D01*
X138027261Y-90723333D01*
X137932023Y-90770952D01*
X137884404Y-90818571D01*
X137836785Y-90913809D01*
X137836785Y-91151904D01*
X137884404Y-91247142D01*
X137932023Y-91294761D01*
X138027261Y-91342380D01*
X138312976Y-91342380D01*
X138408214Y-91294761D01*
X138455833Y-91247142D01*
%TO.C,R2*%
X138404166Y-98792380D02*
X138737500Y-98316190D01*
X138975595Y-98792380D02*
X138975595Y-97792380D01*
X138594642Y-97792380D01*
X138499404Y-97840000D01*
X138451785Y-97887619D01*
X138404166Y-97982857D01*
X138404166Y-98125714D01*
X138451785Y-98220952D01*
X138499404Y-98268571D01*
X138594642Y-98316190D01*
X138975595Y-98316190D01*
X138023214Y-97887619D02*
X137975595Y-97840000D01*
X137880357Y-97792380D01*
X137642261Y-97792380D01*
X137547023Y-97840000D01*
X137499404Y-97887619D01*
X137451785Y-97982857D01*
X137451785Y-98078095D01*
X137499404Y-98220952D01*
X138070833Y-98792380D01*
X137451785Y-98792380D01*
%TO.C,R1*%
X138404166Y-91172380D02*
X138737500Y-90696190D01*
X138975595Y-91172380D02*
X138975595Y-90172380D01*
X138594642Y-90172380D01*
X138499404Y-90220000D01*
X138451785Y-90267619D01*
X138404166Y-90362857D01*
X138404166Y-90505714D01*
X138451785Y-90600952D01*
X138499404Y-90648571D01*
X138594642Y-90696190D01*
X138975595Y-90696190D01*
X137451785Y-91172380D02*
X138023214Y-91172380D01*
X137737500Y-91172380D02*
X137737500Y-90172380D01*
X137832738Y-90315238D01*
X137927976Y-90410476D01*
X138023214Y-90458095D01*
%TO.C,C4*%
X139866666Y-124127142D02*
X139914285Y-124174761D01*
X140057142Y-124222380D01*
X140152380Y-124222380D01*
X140295238Y-124174761D01*
X140390476Y-124079523D01*
X140438095Y-123984285D01*
X140485714Y-123793809D01*
X140485714Y-123650952D01*
X140438095Y-123460476D01*
X140390476Y-123365238D01*
X140295238Y-123270000D01*
X140152380Y-123222380D01*
X140057142Y-123222380D01*
X139914285Y-123270000D01*
X139866666Y-123317619D01*
X139009523Y-123555714D02*
X139009523Y-124222380D01*
X139247619Y-123174761D02*
X139485714Y-123889047D01*
X138866666Y-123889047D01*
%TO.C,C3*%
X153447142Y-102498333D02*
X153494761Y-102450714D01*
X153542380Y-102307857D01*
X153542380Y-102212619D01*
X153494761Y-102069761D01*
X153399523Y-101974523D01*
X153304285Y-101926904D01*
X153113809Y-101879285D01*
X152970952Y-101879285D01*
X152780476Y-101926904D01*
X152685238Y-101974523D01*
X152590000Y-102069761D01*
X152542380Y-102212619D01*
X152542380Y-102307857D01*
X152590000Y-102450714D01*
X152637619Y-102498333D01*
X152542380Y-102831666D02*
X152542380Y-103450714D01*
X152923333Y-103117380D01*
X152923333Y-103260238D01*
X152970952Y-103355476D01*
X153018571Y-103403095D01*
X153113809Y-103450714D01*
X153351904Y-103450714D01*
X153447142Y-103403095D01*
X153494761Y-103355476D01*
X153542380Y-103260238D01*
X153542380Y-102974523D01*
X153494761Y-102879285D01*
X153447142Y-102831666D01*
%TO.C,C2*%
X140071666Y-115347142D02*
X140119285Y-115394761D01*
X140262142Y-115442380D01*
X140357380Y-115442380D01*
X140500238Y-115394761D01*
X140595476Y-115299523D01*
X140643095Y-115204285D01*
X140690714Y-115013809D01*
X140690714Y-114870952D01*
X140643095Y-114680476D01*
X140595476Y-114585238D01*
X140500238Y-114490000D01*
X140357380Y-114442380D01*
X140262142Y-114442380D01*
X140119285Y-114490000D01*
X140071666Y-114537619D01*
X139690714Y-114537619D02*
X139643095Y-114490000D01*
X139547857Y-114442380D01*
X139309761Y-114442380D01*
X139214523Y-114490000D01*
X139166904Y-114537619D01*
X139119285Y-114632857D01*
X139119285Y-114728095D01*
X139166904Y-114870952D01*
X139738333Y-115442380D01*
X139119285Y-115442380D01*
%TO.C,BT1*%
X156281428Y-120165714D02*
X156233809Y-120022857D01*
X156186190Y-119975238D01*
X156090952Y-119927619D01*
X155948095Y-119927619D01*
X155852857Y-119975238D01*
X155805238Y-120022857D01*
X155757619Y-120118095D01*
X155757619Y-120499047D01*
X156757619Y-120499047D01*
X156757619Y-120165714D01*
X156710000Y-120070476D01*
X156662380Y-120022857D01*
X156567142Y-119975238D01*
X156471904Y-119975238D01*
X156376666Y-120022857D01*
X156329047Y-120070476D01*
X156281428Y-120165714D01*
X156281428Y-120499047D01*
X156757619Y-119641904D02*
X156757619Y-119070476D01*
X155757619Y-119356190D02*
X156757619Y-119356190D01*
X155757619Y-118213333D02*
X155757619Y-118784761D01*
X155757619Y-118499047D02*
X156757619Y-118499047D01*
X156614761Y-118594285D01*
X156519523Y-118689523D01*
X156471904Y-118784761D01*
%TD*%
M02*
