%TF.GenerationSoftware,KiCad,Pcbnew,(5.1.9)-1*%
%TF.CreationDate,2021-11-05T10:50:43-04:00*%
%TF.ProjectId,raindrop,7261696e-6472-46f7-902e-6b696361645f,rev?*%
%TF.SameCoordinates,Original*%
%TF.FileFunction,Legend,Top*%
%TF.FilePolarity,Positive*%
%FSLAX46Y46*%
G04 Gerber Fmt 4.6, Leading zero omitted, Abs format (unit mm)*
G04 Created by KiCad (PCBNEW (5.1.9)-1) date 2021-11-05 10:50:43*
%MOMM*%
%LPD*%
G01*
G04 APERTURE LIST*
%ADD10C,0.150000*%
%ADD11C,0.010000*%
%ADD12C,0.120000*%
G04 APERTURE END LIST*
D10*
X129834285Y-127897380D02*
X129500952Y-127421190D01*
X129262857Y-127897380D02*
X129262857Y-126897380D01*
X129643809Y-126897380D01*
X129739047Y-126945000D01*
X129786666Y-126992619D01*
X129834285Y-127087857D01*
X129834285Y-127230714D01*
X129786666Y-127325952D01*
X129739047Y-127373571D01*
X129643809Y-127421190D01*
X129262857Y-127421190D01*
X130691428Y-127897380D02*
X130691428Y-127373571D01*
X130643809Y-127278333D01*
X130548571Y-127230714D01*
X130358095Y-127230714D01*
X130262857Y-127278333D01*
X130691428Y-127849761D02*
X130596190Y-127897380D01*
X130358095Y-127897380D01*
X130262857Y-127849761D01*
X130215238Y-127754523D01*
X130215238Y-127659285D01*
X130262857Y-127564047D01*
X130358095Y-127516428D01*
X130596190Y-127516428D01*
X130691428Y-127468809D01*
X131167619Y-127897380D02*
X131167619Y-127230714D01*
X131167619Y-126897380D02*
X131120000Y-126945000D01*
X131167619Y-126992619D01*
X131215238Y-126945000D01*
X131167619Y-126897380D01*
X131167619Y-126992619D01*
X131643809Y-127230714D02*
X131643809Y-127897380D01*
X131643809Y-127325952D02*
X131691428Y-127278333D01*
X131786666Y-127230714D01*
X131929523Y-127230714D01*
X132024761Y-127278333D01*
X132072380Y-127373571D01*
X132072380Y-127897380D01*
X133834285Y-126945000D02*
X133739047Y-126897380D01*
X133596190Y-126897380D01*
X133453333Y-126945000D01*
X133358095Y-127040238D01*
X133310476Y-127135476D01*
X133262857Y-127325952D01*
X133262857Y-127468809D01*
X133310476Y-127659285D01*
X133358095Y-127754523D01*
X133453333Y-127849761D01*
X133596190Y-127897380D01*
X133691428Y-127897380D01*
X133834285Y-127849761D01*
X133881904Y-127802142D01*
X133881904Y-127468809D01*
X133691428Y-127468809D01*
X134739047Y-127897380D02*
X134739047Y-127373571D01*
X134691428Y-127278333D01*
X134596190Y-127230714D01*
X134405714Y-127230714D01*
X134310476Y-127278333D01*
X134739047Y-127849761D02*
X134643809Y-127897380D01*
X134405714Y-127897380D01*
X134310476Y-127849761D01*
X134262857Y-127754523D01*
X134262857Y-127659285D01*
X134310476Y-127564047D01*
X134405714Y-127516428D01*
X134643809Y-127516428D01*
X134739047Y-127468809D01*
X135643809Y-127230714D02*
X135643809Y-127897380D01*
X135215238Y-127230714D02*
X135215238Y-127754523D01*
X135262857Y-127849761D01*
X135358095Y-127897380D01*
X135500952Y-127897380D01*
X135596190Y-127849761D01*
X135643809Y-127802142D01*
X136548571Y-127230714D02*
X136548571Y-128040238D01*
X136500952Y-128135476D01*
X136453333Y-128183095D01*
X136358095Y-128230714D01*
X136215238Y-128230714D01*
X136120000Y-128183095D01*
X136548571Y-127849761D02*
X136453333Y-127897380D01*
X136262857Y-127897380D01*
X136167619Y-127849761D01*
X136120000Y-127802142D01*
X136072380Y-127706904D01*
X136072380Y-127421190D01*
X136120000Y-127325952D01*
X136167619Y-127278333D01*
X136262857Y-127230714D01*
X136453333Y-127230714D01*
X136548571Y-127278333D01*
X137405714Y-127849761D02*
X137310476Y-127897380D01*
X137120000Y-127897380D01*
X137024761Y-127849761D01*
X136977142Y-127754523D01*
X136977142Y-127373571D01*
X137024761Y-127278333D01*
X137120000Y-127230714D01*
X137310476Y-127230714D01*
X137405714Y-127278333D01*
X137453333Y-127373571D01*
X137453333Y-127468809D01*
X136977142Y-127564047D01*
X138500952Y-126897380D02*
X138834285Y-127897380D01*
X139167619Y-126897380D01*
X140024761Y-127897380D02*
X139453333Y-127897380D01*
X139739047Y-127897380D02*
X139739047Y-126897380D01*
X139643809Y-127040238D01*
X139548571Y-127135476D01*
X139453333Y-127183095D01*
X132239047Y-128547380D02*
X132239047Y-129356904D01*
X132286666Y-129452142D01*
X132334285Y-129499761D01*
X132429523Y-129547380D01*
X132620000Y-129547380D01*
X132715238Y-129499761D01*
X132762857Y-129452142D01*
X132810476Y-129356904D01*
X132810476Y-128547380D01*
X133429523Y-129547380D02*
X133334285Y-129499761D01*
X133286666Y-129452142D01*
X133239047Y-129356904D01*
X133239047Y-129071190D01*
X133286666Y-128975952D01*
X133334285Y-128928333D01*
X133429523Y-128880714D01*
X133572380Y-128880714D01*
X133667619Y-128928333D01*
X133715238Y-128975952D01*
X133762857Y-129071190D01*
X133762857Y-129356904D01*
X133715238Y-129452142D01*
X133667619Y-129499761D01*
X133572380Y-129547380D01*
X133429523Y-129547380D01*
X134048571Y-128880714D02*
X134429523Y-128880714D01*
X134191428Y-129547380D02*
X134191428Y-128690238D01*
X134239047Y-128595000D01*
X134334285Y-128547380D01*
X134429523Y-128547380D01*
X134715238Y-129499761D02*
X134858095Y-129547380D01*
X135096190Y-129547380D01*
X135191428Y-129499761D01*
X135239047Y-129452142D01*
X135286666Y-129356904D01*
X135286666Y-129261666D01*
X135239047Y-129166428D01*
X135191428Y-129118809D01*
X135096190Y-129071190D01*
X134905714Y-129023571D01*
X134810476Y-128975952D01*
X134762857Y-128928333D01*
X134715238Y-128833095D01*
X134715238Y-128737857D01*
X134762857Y-128642619D01*
X134810476Y-128595000D01*
X134905714Y-128547380D01*
X135143809Y-128547380D01*
X135286666Y-128595000D01*
X136286666Y-129452142D02*
X136239047Y-129499761D01*
X136096190Y-129547380D01*
X136000952Y-129547380D01*
X135858095Y-129499761D01*
X135762857Y-129404523D01*
X135715238Y-129309285D01*
X135667619Y-129118809D01*
X135667619Y-128975952D01*
X135715238Y-128785476D01*
X135762857Y-128690238D01*
X135858095Y-128595000D01*
X136000952Y-128547380D01*
X136096190Y-128547380D01*
X136239047Y-128595000D01*
X136286666Y-128642619D01*
D11*
%TO.C,G\u002A\u002A\u002A*%
G36*
X145208086Y-114833547D02*
G01*
X145194188Y-114925646D01*
X145125614Y-115057086D01*
X145009208Y-115209823D01*
X145001160Y-115218924D01*
X144902156Y-115344310D01*
X144840754Y-115449616D01*
X144830902Y-115486158D01*
X144810059Y-115556038D01*
X144764085Y-115546829D01*
X144717813Y-115468144D01*
X144709183Y-115439043D01*
X144653543Y-115324154D01*
X144554180Y-115193253D01*
X144525508Y-115162998D01*
X144435524Y-115047709D01*
X144381179Y-114930262D01*
X144370760Y-114838164D01*
X144412553Y-114798920D01*
X144415798Y-114798837D01*
X144495787Y-114843264D01*
X144591743Y-114961669D01*
X144686593Y-115131735D01*
X144709308Y-115182464D01*
X144795204Y-115384208D01*
X144833538Y-115246333D01*
X144893012Y-115101032D01*
X144980962Y-114958221D01*
X145075640Y-114847670D01*
X145155296Y-114799148D01*
X145160464Y-114798837D01*
X145208086Y-114833547D01*
G37*
X145208086Y-114833547D02*
X145194188Y-114925646D01*
X145125614Y-115057086D01*
X145009208Y-115209823D01*
X145001160Y-115218924D01*
X144902156Y-115344310D01*
X144840754Y-115449616D01*
X144830902Y-115486158D01*
X144810059Y-115556038D01*
X144764085Y-115546829D01*
X144717813Y-115468144D01*
X144709183Y-115439043D01*
X144653543Y-115324154D01*
X144554180Y-115193253D01*
X144525508Y-115162998D01*
X144435524Y-115047709D01*
X144381179Y-114930262D01*
X144370760Y-114838164D01*
X144412553Y-114798920D01*
X144415798Y-114798837D01*
X144495787Y-114843264D01*
X144591743Y-114961669D01*
X144686593Y-115131735D01*
X144709308Y-115182464D01*
X144795204Y-115384208D01*
X144833538Y-115246333D01*
X144893012Y-115101032D01*
X144980962Y-114958221D01*
X145075640Y-114847670D01*
X145155296Y-114799148D01*
X145160464Y-114798837D01*
X145208086Y-114833547D01*
G36*
X145730733Y-114994301D02*
G01*
X145747134Y-115098730D01*
X145724387Y-115216228D01*
X145641202Y-115272161D01*
X145626020Y-115276315D01*
X145502192Y-115337675D01*
X145343371Y-115456826D01*
X145175419Y-115609945D01*
X145024196Y-115773210D01*
X144915565Y-115922798D01*
X144906294Y-115939301D01*
X144828377Y-116070372D01*
X144773793Y-116112317D01*
X144725263Y-116069362D01*
X144686557Y-115993053D01*
X144599235Y-115854089D01*
X144461375Y-115688422D01*
X144300020Y-115523656D01*
X144142212Y-115387395D01*
X144014993Y-115307243D01*
X144014531Y-115307051D01*
X143902730Y-115236938D01*
X143864917Y-115131880D01*
X143863767Y-115098073D01*
X143872059Y-114995875D01*
X143908706Y-114960509D01*
X143991370Y-114990554D01*
X144126444Y-115076917D01*
X144237030Y-115173966D01*
X144367802Y-115320240D01*
X144500575Y-115490932D01*
X144617165Y-115661233D01*
X144699384Y-115806335D01*
X144729098Y-115899026D01*
X144745935Y-115965037D01*
X144792980Y-115940464D01*
X144865037Y-115830170D01*
X144920433Y-115719939D01*
X145008234Y-115573482D01*
X145136845Y-115407300D01*
X145286504Y-115241709D01*
X145437453Y-115097027D01*
X145569932Y-114993571D01*
X145664182Y-114951659D01*
X145667734Y-114951543D01*
X145730733Y-114994301D01*
G37*
X145730733Y-114994301D02*
X145747134Y-115098730D01*
X145724387Y-115216228D01*
X145641202Y-115272161D01*
X145626020Y-115276315D01*
X145502192Y-115337675D01*
X145343371Y-115456826D01*
X145175419Y-115609945D01*
X145024196Y-115773210D01*
X144915565Y-115922798D01*
X144906294Y-115939301D01*
X144828377Y-116070372D01*
X144773793Y-116112317D01*
X144725263Y-116069362D01*
X144686557Y-115993053D01*
X144599235Y-115854089D01*
X144461375Y-115688422D01*
X144300020Y-115523656D01*
X144142212Y-115387395D01*
X144014993Y-115307243D01*
X144014531Y-115307051D01*
X143902730Y-115236938D01*
X143864917Y-115131880D01*
X143863767Y-115098073D01*
X143872059Y-114995875D01*
X143908706Y-114960509D01*
X143991370Y-114990554D01*
X144126444Y-115076917D01*
X144237030Y-115173966D01*
X144367802Y-115320240D01*
X144500575Y-115490932D01*
X144617165Y-115661233D01*
X144699384Y-115806335D01*
X144729098Y-115899026D01*
X144745935Y-115965037D01*
X144792980Y-115940464D01*
X144865037Y-115830170D01*
X144920433Y-115719939D01*
X145008234Y-115573482D01*
X145136845Y-115407300D01*
X145286504Y-115241709D01*
X145437453Y-115097027D01*
X145569932Y-114993571D01*
X145664182Y-114951659D01*
X145667734Y-114951543D01*
X145730733Y-114994301D01*
G36*
X146204847Y-115420396D02*
G01*
X146249411Y-115469823D01*
X146256152Y-115555807D01*
X146248115Y-115643657D01*
X146206672Y-115692402D01*
X146105824Y-115720506D01*
X146003069Y-115735527D01*
X145736350Y-115802105D01*
X145457097Y-115923220D01*
X145200110Y-116079979D01*
X145000187Y-116253488D01*
X144959447Y-116302142D01*
X144803406Y-116506725D01*
X144549919Y-116248525D01*
X144225630Y-115980194D01*
X143871551Y-115807619D01*
X143564326Y-115736508D01*
X143411497Y-115712128D01*
X143334277Y-115679524D01*
X143306991Y-115620233D01*
X143303847Y-115549187D01*
X143309524Y-115454621D01*
X143345236Y-115414489D01*
X143439007Y-115412345D01*
X143522225Y-115421033D01*
X143718089Y-115461259D01*
X143915266Y-115528062D01*
X143942165Y-115540053D01*
X144083547Y-115627298D01*
X144251028Y-115760981D01*
X144420863Y-115918228D01*
X144569310Y-116076160D01*
X144672625Y-116211903D01*
X144703065Y-116273157D01*
X144739304Y-116353180D01*
X144784640Y-116362224D01*
X144851932Y-116293797D01*
X144949375Y-116148797D01*
X145136688Y-115914107D01*
X145374843Y-115706440D01*
X145638035Y-115542482D01*
X145900458Y-115438920D01*
X146090721Y-115410777D01*
X146204847Y-115420396D01*
G37*
X146204847Y-115420396D02*
X146249411Y-115469823D01*
X146256152Y-115555807D01*
X146248115Y-115643657D01*
X146206672Y-115692402D01*
X146105824Y-115720506D01*
X146003069Y-115735527D01*
X145736350Y-115802105D01*
X145457097Y-115923220D01*
X145200110Y-116079979D01*
X145000187Y-116253488D01*
X144959447Y-116302142D01*
X144803406Y-116506725D01*
X144549919Y-116248525D01*
X144225630Y-115980194D01*
X143871551Y-115807619D01*
X143564326Y-115736508D01*
X143411497Y-115712128D01*
X143334277Y-115679524D01*
X143306991Y-115620233D01*
X143303847Y-115549187D01*
X143309524Y-115454621D01*
X143345236Y-115414489D01*
X143439007Y-115412345D01*
X143522225Y-115421033D01*
X143718089Y-115461259D01*
X143915266Y-115528062D01*
X143942165Y-115540053D01*
X144083547Y-115627298D01*
X144251028Y-115760981D01*
X144420863Y-115918228D01*
X144569310Y-116076160D01*
X144672625Y-116211903D01*
X144703065Y-116273157D01*
X144739304Y-116353180D01*
X144784640Y-116362224D01*
X144851932Y-116293797D01*
X144949375Y-116148797D01*
X145136688Y-115914107D01*
X145374843Y-115706440D01*
X145638035Y-115542482D01*
X145900458Y-115438920D01*
X146090721Y-115410777D01*
X146204847Y-115420396D01*
G36*
X146402495Y-116052294D02*
G01*
X146510793Y-116086477D01*
X146554354Y-116153720D01*
X146561563Y-116261347D01*
X146553345Y-116377775D01*
X146519727Y-116414664D01*
X146472485Y-116404170D01*
X146249779Y-116343393D01*
X145998166Y-116312022D01*
X145771217Y-116315812D01*
X145721683Y-116323499D01*
X145493403Y-116380266D01*
X145303683Y-116460776D01*
X145107193Y-116586195D01*
X145019674Y-116651290D01*
X144889253Y-116748943D01*
X144795550Y-116815539D01*
X144762981Y-116834909D01*
X144720949Y-116801961D01*
X144640743Y-116721941D01*
X144634105Y-116714905D01*
X144419127Y-116545940D01*
X144141970Y-116413991D01*
X143839795Y-116333808D01*
X143630147Y-116316392D01*
X143443809Y-116325913D01*
X143286820Y-116348711D01*
X143209201Y-116372963D01*
X143084805Y-116422065D01*
X143019746Y-116393195D01*
X142998734Y-116277625D01*
X142998437Y-116252658D01*
X143004829Y-116145143D01*
X143042043Y-116088369D01*
X143137141Y-116058032D01*
X143232378Y-116042539D01*
X143632092Y-116028300D01*
X143997973Y-116109905D01*
X144328129Y-116286685D01*
X144588562Y-116521500D01*
X144770372Y-116722742D01*
X145045857Y-116455914D01*
X145360935Y-116211558D01*
X145701122Y-116065710D01*
X146069061Y-116017582D01*
X146402495Y-116052294D01*
G37*
X146402495Y-116052294D02*
X146510793Y-116086477D01*
X146554354Y-116153720D01*
X146561563Y-116261347D01*
X146553345Y-116377775D01*
X146519727Y-116414664D01*
X146472485Y-116404170D01*
X146249779Y-116343393D01*
X145998166Y-116312022D01*
X145771217Y-116315812D01*
X145721683Y-116323499D01*
X145493403Y-116380266D01*
X145303683Y-116460776D01*
X145107193Y-116586195D01*
X145019674Y-116651290D01*
X144889253Y-116748943D01*
X144795550Y-116815539D01*
X144762981Y-116834909D01*
X144720949Y-116801961D01*
X144640743Y-116721941D01*
X144634105Y-116714905D01*
X144419127Y-116545940D01*
X144141970Y-116413991D01*
X143839795Y-116333808D01*
X143630147Y-116316392D01*
X143443809Y-116325913D01*
X143286820Y-116348711D01*
X143209201Y-116372963D01*
X143084805Y-116422065D01*
X143019746Y-116393195D01*
X142998734Y-116277625D01*
X142998437Y-116252658D01*
X143004829Y-116145143D01*
X143042043Y-116088369D01*
X143137141Y-116058032D01*
X143232378Y-116042539D01*
X143632092Y-116028300D01*
X143997973Y-116109905D01*
X144328129Y-116286685D01*
X144588562Y-116521500D01*
X144770372Y-116722742D01*
X145045857Y-116455914D01*
X145360935Y-116211558D01*
X145701122Y-116065710D01*
X146069061Y-116017582D01*
X146402495Y-116052294D01*
G36*
X144169274Y-116631327D02*
G01*
X144481688Y-116767913D01*
X144590410Y-116843902D01*
X144782585Y-116994489D01*
X144931987Y-116868775D01*
X145218349Y-116691872D01*
X145544906Y-116601444D01*
X145896535Y-116598509D01*
X146258111Y-116684081D01*
X146450888Y-116766805D01*
X146608843Y-116849878D01*
X146697014Y-116916444D01*
X146737847Y-116993096D01*
X146753787Y-117106431D01*
X146755371Y-117127595D01*
X146755469Y-117278405D01*
X146721895Y-117334354D01*
X146647107Y-117298655D01*
X146557710Y-117211829D01*
X146328966Y-117023312D01*
X146042529Y-116870640D01*
X145781771Y-116785870D01*
X145464381Y-116764698D01*
X145161936Y-116842496D01*
X144944225Y-116970366D01*
X144777588Y-117096439D01*
X144630764Y-116972894D01*
X144392978Y-116834608D01*
X144109412Y-116767458D01*
X143813599Y-116778759D01*
X143775776Y-116786420D01*
X143476677Y-116888337D01*
X143196565Y-117046707D01*
X143002289Y-117211829D01*
X142890982Y-117315267D01*
X142826643Y-117329553D01*
X142801772Y-117251540D01*
X142804628Y-117128925D01*
X142819161Y-117007982D01*
X142855937Y-116927218D01*
X142937492Y-116859615D01*
X143086360Y-116778159D01*
X143105286Y-116768482D01*
X143467965Y-116630945D01*
X143826997Y-116585449D01*
X144169274Y-116631327D01*
G37*
X144169274Y-116631327D02*
X144481688Y-116767913D01*
X144590410Y-116843902D01*
X144782585Y-116994489D01*
X144931987Y-116868775D01*
X145218349Y-116691872D01*
X145544906Y-116601444D01*
X145896535Y-116598509D01*
X146258111Y-116684081D01*
X146450888Y-116766805D01*
X146608843Y-116849878D01*
X146697014Y-116916444D01*
X146737847Y-116993096D01*
X146753787Y-117106431D01*
X146755371Y-117127595D01*
X146755469Y-117278405D01*
X146721895Y-117334354D01*
X146647107Y-117298655D01*
X146557710Y-117211829D01*
X146328966Y-117023312D01*
X146042529Y-116870640D01*
X145781771Y-116785870D01*
X145464381Y-116764698D01*
X145161936Y-116842496D01*
X144944225Y-116970366D01*
X144777588Y-117096439D01*
X144630764Y-116972894D01*
X144392978Y-116834608D01*
X144109412Y-116767458D01*
X143813599Y-116778759D01*
X143775776Y-116786420D01*
X143476677Y-116888337D01*
X143196565Y-117046707D01*
X143002289Y-117211829D01*
X142890982Y-117315267D01*
X142826643Y-117329553D01*
X142801772Y-117251540D01*
X142804628Y-117128925D01*
X142819161Y-117007982D01*
X142855937Y-116927218D01*
X142937492Y-116859615D01*
X143086360Y-116778159D01*
X143105286Y-116768482D01*
X143467965Y-116630945D01*
X143826997Y-116585449D01*
X144169274Y-116631327D01*
G36*
X144284555Y-117014140D02*
G01*
X144446506Y-117065148D01*
X144610142Y-117141011D01*
X144614569Y-117143536D01*
X144722418Y-117200190D01*
X144800386Y-117209855D01*
X144894355Y-117170358D01*
X144969765Y-117126727D01*
X145199316Y-117041177D01*
X145468764Y-117015401D01*
X145735115Y-117050065D01*
X145899839Y-117112296D01*
X146139637Y-117251331D01*
X146295355Y-117375804D01*
X146380520Y-117500089D01*
X146408659Y-117638558D01*
X146408857Y-117653199D01*
X146408857Y-117848584D01*
X146174832Y-117598392D01*
X145926437Y-117378374D01*
X145663926Y-117225865D01*
X145403397Y-117145366D01*
X145160946Y-117141379D01*
X144952672Y-117218407D01*
X144914119Y-117245818D01*
X144780000Y-117351316D01*
X144645881Y-117245818D01*
X144447002Y-117150886D01*
X144210506Y-117137930D01*
X143952488Y-117202449D01*
X143689048Y-117339941D01*
X143436282Y-117545904D01*
X143385168Y-117598392D01*
X143151142Y-117848584D01*
X143151142Y-117676575D01*
X143167848Y-117556558D01*
X143231200Y-117450292D01*
X143361050Y-117324902D01*
X143366108Y-117320563D01*
X143583504Y-117173958D01*
X143833252Y-117066541D01*
X144080669Y-117009882D01*
X144284555Y-117014140D01*
G37*
X144284555Y-117014140D02*
X144446506Y-117065148D01*
X144610142Y-117141011D01*
X144614569Y-117143536D01*
X144722418Y-117200190D01*
X144800386Y-117209855D01*
X144894355Y-117170358D01*
X144969765Y-117126727D01*
X145199316Y-117041177D01*
X145468764Y-117015401D01*
X145735115Y-117050065D01*
X145899839Y-117112296D01*
X146139637Y-117251331D01*
X146295355Y-117375804D01*
X146380520Y-117500089D01*
X146408659Y-117638558D01*
X146408857Y-117653199D01*
X146408857Y-117848584D01*
X146174832Y-117598392D01*
X145926437Y-117378374D01*
X145663926Y-117225865D01*
X145403397Y-117145366D01*
X145160946Y-117141379D01*
X144952672Y-117218407D01*
X144914119Y-117245818D01*
X144780000Y-117351316D01*
X144645881Y-117245818D01*
X144447002Y-117150886D01*
X144210506Y-117137930D01*
X143952488Y-117202449D01*
X143689048Y-117339941D01*
X143436282Y-117545904D01*
X143385168Y-117598392D01*
X143151142Y-117848584D01*
X143151142Y-117676575D01*
X143167848Y-117556558D01*
X143231200Y-117450292D01*
X143361050Y-117324902D01*
X143366108Y-117320563D01*
X143583504Y-117173958D01*
X143833252Y-117066541D01*
X144080669Y-117009882D01*
X144284555Y-117014140D01*
G36*
X145525888Y-117376653D02*
G01*
X145719211Y-117462979D01*
X145863493Y-117589483D01*
X145937985Y-117740510D01*
X145941831Y-117827220D01*
X145925290Y-117963204D01*
X145832648Y-117805109D01*
X145692599Y-117630704D01*
X145491223Y-117496086D01*
X145301281Y-117416357D01*
X145110861Y-117348396D01*
X145304271Y-117346162D01*
X145525888Y-117376653D01*
G37*
X145525888Y-117376653D02*
X145719211Y-117462979D01*
X145863493Y-117589483D01*
X145937985Y-117740510D01*
X145941831Y-117827220D01*
X145925290Y-117963204D01*
X145832648Y-117805109D01*
X145692599Y-117630704D01*
X145491223Y-117496086D01*
X145301281Y-117416357D01*
X145110861Y-117348396D01*
X145304271Y-117346162D01*
X145525888Y-117376653D01*
G36*
X144449138Y-117348396D02*
G01*
X144266982Y-117413517D01*
X144015433Y-117532028D01*
X143820642Y-117698473D01*
X143733526Y-117806092D01*
X143609258Y-117974527D01*
X143609258Y-117820806D01*
X143656402Y-117650813D01*
X143783451Y-117504803D01*
X143968832Y-117398637D01*
X144190970Y-117348174D01*
X144254910Y-117346162D01*
X144449138Y-117348396D01*
G37*
X144449138Y-117348396D02*
X144266982Y-117413517D01*
X144015433Y-117532028D01*
X143820642Y-117698473D01*
X143733526Y-117806092D01*
X143609258Y-117974527D01*
X143609258Y-117820806D01*
X143656402Y-117650813D01*
X143783451Y-117504803D01*
X143968832Y-117398637D01*
X144190970Y-117348174D01*
X144254910Y-117346162D01*
X144449138Y-117348396D01*
G36*
X146068302Y-118161491D02*
G01*
X146179835Y-118173463D01*
X146225094Y-118198124D01*
X146223658Y-118234709D01*
X146174775Y-118280366D01*
X146060319Y-118304468D01*
X145877426Y-118311062D01*
X145706122Y-118305985D01*
X145578156Y-118292777D01*
X145526560Y-118277127D01*
X145493852Y-118220371D01*
X145536940Y-118183623D01*
X145664413Y-118163937D01*
X145872791Y-118158356D01*
X146068302Y-118161491D01*
G37*
X146068302Y-118161491D02*
X146179835Y-118173463D01*
X146225094Y-118198124D01*
X146223658Y-118234709D01*
X146174775Y-118280366D01*
X146060319Y-118304468D01*
X145877426Y-118311062D01*
X145706122Y-118305985D01*
X145578156Y-118292777D01*
X145526560Y-118277127D01*
X145493852Y-118220371D01*
X145536940Y-118183623D01*
X145664413Y-118163937D01*
X145872791Y-118158356D01*
X146068302Y-118161491D01*
G36*
X143913417Y-118163561D02*
G01*
X144022914Y-118180765D01*
X144056524Y-118212356D01*
X144054834Y-118221984D01*
X143991059Y-118262233D01*
X143837589Y-118290214D01*
X143694280Y-118300662D01*
X143508884Y-118304832D01*
X143404384Y-118294183D01*
X143360468Y-118264906D01*
X143354749Y-118237035D01*
X143373806Y-118194761D01*
X143443843Y-118170440D01*
X143584155Y-118159861D01*
X143715304Y-118158356D01*
X143913417Y-118163561D01*
G37*
X143913417Y-118163561D02*
X144022914Y-118180765D01*
X144056524Y-118212356D01*
X144054834Y-118221984D01*
X143991059Y-118262233D01*
X143837589Y-118290214D01*
X143694280Y-118300662D01*
X143508884Y-118304832D01*
X143404384Y-118294183D01*
X143360468Y-118264906D01*
X143354749Y-118237035D01*
X143373806Y-118194761D01*
X143443843Y-118170440D01*
X143584155Y-118159861D01*
X143715304Y-118158356D01*
X143913417Y-118163561D01*
G36*
X147868043Y-119702378D02*
G01*
X147874134Y-119762786D01*
X147868043Y-119770247D01*
X147837781Y-119763260D01*
X147834108Y-119736312D01*
X147852732Y-119694414D01*
X147868043Y-119702378D01*
G37*
X147868043Y-119702378D02*
X147874134Y-119762786D01*
X147868043Y-119770247D01*
X147837781Y-119763260D01*
X147834108Y-119736312D01*
X147852732Y-119694414D01*
X147868043Y-119702378D01*
G36*
X147766239Y-119702378D02*
G01*
X147772331Y-119762786D01*
X147766239Y-119770247D01*
X147735978Y-119763260D01*
X147732304Y-119736312D01*
X147750929Y-119694414D01*
X147766239Y-119702378D01*
G37*
X147766239Y-119702378D02*
X147772331Y-119762786D01*
X147766239Y-119770247D01*
X147735978Y-119763260D01*
X147732304Y-119736312D01*
X147750929Y-119694414D01*
X147766239Y-119702378D01*
G36*
X147614371Y-119675866D02*
G01*
X147620439Y-119755420D01*
X147610352Y-119773428D01*
X147587217Y-119758247D01*
X147583618Y-119706620D01*
X147596049Y-119652306D01*
X147614371Y-119675866D01*
G37*
X147614371Y-119675866D02*
X147620439Y-119755420D01*
X147610352Y-119773428D01*
X147587217Y-119758247D01*
X147583618Y-119706620D01*
X147596049Y-119652306D01*
X147614371Y-119675866D01*
G36*
X146205250Y-118743727D02*
G01*
X146207482Y-118921584D01*
X146220073Y-119020648D01*
X146251871Y-119063920D01*
X146311721Y-119074398D01*
X146332505Y-119074589D01*
X146411031Y-119065095D01*
X146448236Y-119018428D01*
X146459273Y-118907313D01*
X146459759Y-118845531D01*
X146469752Y-118694556D01*
X146503728Y-118625786D01*
X146536112Y-118616473D01*
X146586437Y-118646450D01*
X146609360Y-118748378D01*
X146612465Y-118845531D01*
X146617739Y-118986878D01*
X146643665Y-119053847D01*
X146705396Y-119073714D01*
X146739719Y-119074589D01*
X146830664Y-119058153D01*
X146863935Y-118988289D01*
X146866974Y-118921883D01*
X146889738Y-118800650D01*
X146943326Y-118769178D01*
X147003943Y-118814706D01*
X147019679Y-118921883D01*
X147033375Y-119031018D01*
X147091596Y-119070942D01*
X147146934Y-119074589D01*
X147242594Y-119057165D01*
X147274188Y-119023687D01*
X147312923Y-118974264D01*
X147325090Y-118972785D01*
X147350298Y-119020410D01*
X147368012Y-119150432D01*
X147375822Y-119343571D01*
X147375992Y-119380000D01*
X147370039Y-119581662D01*
X147353786Y-119723375D01*
X147329644Y-119785857D01*
X147325090Y-119787214D01*
X147297977Y-119740850D01*
X147279595Y-119619730D01*
X147274188Y-119481803D01*
X147271494Y-119312541D01*
X147256770Y-119221156D01*
X147220057Y-119183744D01*
X147151394Y-119176399D01*
X147146934Y-119176392D01*
X147076408Y-119182859D01*
X147038331Y-119218196D01*
X147022742Y-119306307D01*
X147019682Y-119471098D01*
X147019679Y-119481803D01*
X147013815Y-119659141D01*
X146993029Y-119754354D01*
X146952526Y-119786612D01*
X146943326Y-119787214D01*
X146898992Y-119763759D01*
X146875189Y-119680612D01*
X146867124Y-119518602D01*
X146866974Y-119481803D01*
X146864279Y-119312541D01*
X146849556Y-119221156D01*
X146812843Y-119183744D01*
X146744180Y-119176399D01*
X146739719Y-119176392D01*
X146669193Y-119182859D01*
X146631116Y-119218196D01*
X146615528Y-119306307D01*
X146612468Y-119471098D01*
X146612465Y-119481803D01*
X146606601Y-119659141D01*
X146585814Y-119754354D01*
X146545312Y-119786612D01*
X146536112Y-119787214D01*
X146491777Y-119763759D01*
X146467974Y-119680612D01*
X146459910Y-119518602D01*
X146459759Y-119481803D01*
X146457065Y-119312541D01*
X146442341Y-119221156D01*
X146405628Y-119183744D01*
X146336965Y-119176399D01*
X146332505Y-119176392D01*
X146261979Y-119182859D01*
X146223902Y-119218196D01*
X146208313Y-119306307D01*
X146205253Y-119471098D01*
X146205250Y-119481803D01*
X146199387Y-119659141D01*
X146178600Y-119754354D01*
X146138097Y-119786612D01*
X146128898Y-119787214D01*
X146096554Y-119772195D01*
X146074584Y-119716931D01*
X146061151Y-119606110D01*
X146054417Y-119424423D01*
X146052545Y-119156559D01*
X146052545Y-118514669D01*
X145696232Y-118514669D01*
X145696232Y-119150942D01*
X145694430Y-119420471D01*
X145687798Y-119603553D01*
X145674500Y-119715495D01*
X145652697Y-119771611D01*
X145620554Y-119787210D01*
X145619880Y-119787214D01*
X145588596Y-119772717D01*
X145566974Y-119719349D01*
X145553366Y-119612293D01*
X145546127Y-119436732D01*
X145543611Y-119177848D01*
X145543527Y-119100040D01*
X145543527Y-118412865D01*
X146205250Y-118412865D01*
X146205250Y-118743727D01*
G37*
X146205250Y-118743727D02*
X146207482Y-118921584D01*
X146220073Y-119020648D01*
X146251871Y-119063920D01*
X146311721Y-119074398D01*
X146332505Y-119074589D01*
X146411031Y-119065095D01*
X146448236Y-119018428D01*
X146459273Y-118907313D01*
X146459759Y-118845531D01*
X146469752Y-118694556D01*
X146503728Y-118625786D01*
X146536112Y-118616473D01*
X146586437Y-118646450D01*
X146609360Y-118748378D01*
X146612465Y-118845531D01*
X146617739Y-118986878D01*
X146643665Y-119053847D01*
X146705396Y-119073714D01*
X146739719Y-119074589D01*
X146830664Y-119058153D01*
X146863935Y-118988289D01*
X146866974Y-118921883D01*
X146889738Y-118800650D01*
X146943326Y-118769178D01*
X147003943Y-118814706D01*
X147019679Y-118921883D01*
X147033375Y-119031018D01*
X147091596Y-119070942D01*
X147146934Y-119074589D01*
X147242594Y-119057165D01*
X147274188Y-119023687D01*
X147312923Y-118974264D01*
X147325090Y-118972785D01*
X147350298Y-119020410D01*
X147368012Y-119150432D01*
X147375822Y-119343571D01*
X147375992Y-119380000D01*
X147370039Y-119581662D01*
X147353786Y-119723375D01*
X147329644Y-119785857D01*
X147325090Y-119787214D01*
X147297977Y-119740850D01*
X147279595Y-119619730D01*
X147274188Y-119481803D01*
X147271494Y-119312541D01*
X147256770Y-119221156D01*
X147220057Y-119183744D01*
X147151394Y-119176399D01*
X147146934Y-119176392D01*
X147076408Y-119182859D01*
X147038331Y-119218196D01*
X147022742Y-119306307D01*
X147019682Y-119471098D01*
X147019679Y-119481803D01*
X147013815Y-119659141D01*
X146993029Y-119754354D01*
X146952526Y-119786612D01*
X146943326Y-119787214D01*
X146898992Y-119763759D01*
X146875189Y-119680612D01*
X146867124Y-119518602D01*
X146866974Y-119481803D01*
X146864279Y-119312541D01*
X146849556Y-119221156D01*
X146812843Y-119183744D01*
X146744180Y-119176399D01*
X146739719Y-119176392D01*
X146669193Y-119182859D01*
X146631116Y-119218196D01*
X146615528Y-119306307D01*
X146612468Y-119471098D01*
X146612465Y-119481803D01*
X146606601Y-119659141D01*
X146585814Y-119754354D01*
X146545312Y-119786612D01*
X146536112Y-119787214D01*
X146491777Y-119763759D01*
X146467974Y-119680612D01*
X146459910Y-119518602D01*
X146459759Y-119481803D01*
X146457065Y-119312541D01*
X146442341Y-119221156D01*
X146405628Y-119183744D01*
X146336965Y-119176399D01*
X146332505Y-119176392D01*
X146261979Y-119182859D01*
X146223902Y-119218196D01*
X146208313Y-119306307D01*
X146205253Y-119471098D01*
X146205250Y-119481803D01*
X146199387Y-119659141D01*
X146178600Y-119754354D01*
X146138097Y-119786612D01*
X146128898Y-119787214D01*
X146096554Y-119772195D01*
X146074584Y-119716931D01*
X146061151Y-119606110D01*
X146054417Y-119424423D01*
X146052545Y-119156559D01*
X146052545Y-118514669D01*
X145696232Y-118514669D01*
X145696232Y-119150942D01*
X145694430Y-119420471D01*
X145687798Y-119603553D01*
X145674500Y-119715495D01*
X145652697Y-119771611D01*
X145620554Y-119787210D01*
X145619880Y-119787214D01*
X145588596Y-119772717D01*
X145566974Y-119719349D01*
X145553366Y-119612293D01*
X145546127Y-119436732D01*
X145543611Y-119177848D01*
X145543527Y-119100040D01*
X145543527Y-118412865D01*
X146205250Y-118412865D01*
X146205250Y-118743727D01*
G36*
X145309408Y-117631198D02*
G01*
X145448202Y-117714456D01*
X145532025Y-117825674D01*
X145543527Y-117883328D01*
X145539993Y-117955452D01*
X145517626Y-117970095D01*
X145458774Y-117921330D01*
X145364709Y-117823297D01*
X145257340Y-117722736D01*
X145175975Y-117670508D01*
X145149190Y-117670395D01*
X145127771Y-117737219D01*
X145109035Y-117874005D01*
X145098627Y-118021804D01*
X145089377Y-118215453D01*
X145076305Y-118468492D01*
X145061620Y-118738683D01*
X145054866Y-118858256D01*
X145024969Y-119380000D01*
X145182444Y-119380000D01*
X145291708Y-119394331D01*
X145339812Y-119429010D01*
X145339920Y-119430901D01*
X145296186Y-119468540D01*
X145206811Y-119481803D01*
X145116746Y-119487588D01*
X145105930Y-119523648D01*
X145155909Y-119607267D01*
X145222875Y-119720284D01*
X145228890Y-119773499D01*
X145175852Y-119787201D01*
X145172738Y-119787214D01*
X145104500Y-119747212D01*
X145026386Y-119649858D01*
X145020033Y-119639380D01*
X144977540Y-119541509D01*
X144950657Y-119406785D01*
X144936631Y-119213438D01*
X144932705Y-118948860D01*
X144938183Y-118700476D01*
X144953161Y-118490716D01*
X144975453Y-118344028D01*
X144990906Y-118297423D01*
X145022636Y-118204903D01*
X144993456Y-118170123D01*
X144963215Y-118112013D01*
X144983607Y-118031102D01*
X145002702Y-117925766D01*
X144976971Y-117893152D01*
X144950078Y-117843283D01*
X144976753Y-117756328D01*
X145037496Y-117666086D01*
X145112806Y-117606358D01*
X145147011Y-117598437D01*
X145309408Y-117631198D01*
G37*
X145309408Y-117631198D02*
X145448202Y-117714456D01*
X145532025Y-117825674D01*
X145543527Y-117883328D01*
X145539993Y-117955452D01*
X145517626Y-117970095D01*
X145458774Y-117921330D01*
X145364709Y-117823297D01*
X145257340Y-117722736D01*
X145175975Y-117670508D01*
X145149190Y-117670395D01*
X145127771Y-117737219D01*
X145109035Y-117874005D01*
X145098627Y-118021804D01*
X145089377Y-118215453D01*
X145076305Y-118468492D01*
X145061620Y-118738683D01*
X145054866Y-118858256D01*
X145024969Y-119380000D01*
X145182444Y-119380000D01*
X145291708Y-119394331D01*
X145339812Y-119429010D01*
X145339920Y-119430901D01*
X145296186Y-119468540D01*
X145206811Y-119481803D01*
X145116746Y-119487588D01*
X145105930Y-119523648D01*
X145155909Y-119607267D01*
X145222875Y-119720284D01*
X145228890Y-119773499D01*
X145175852Y-119787201D01*
X145172738Y-119787214D01*
X145104500Y-119747212D01*
X145026386Y-119649858D01*
X145020033Y-119639380D01*
X144977540Y-119541509D01*
X144950657Y-119406785D01*
X144936631Y-119213438D01*
X144932705Y-118948860D01*
X144938183Y-118700476D01*
X144953161Y-118490716D01*
X144975453Y-118344028D01*
X144990906Y-118297423D01*
X145022636Y-118204903D01*
X144993456Y-118170123D01*
X144963215Y-118112013D01*
X144983607Y-118031102D01*
X145002702Y-117925766D01*
X144976971Y-117893152D01*
X144950078Y-117843283D01*
X144976753Y-117756328D01*
X145037496Y-117666086D01*
X145112806Y-117606358D01*
X145147011Y-117598437D01*
X145309408Y-117631198D01*
G36*
X144502200Y-117633068D02*
G01*
X144570872Y-117714163D01*
X144610213Y-117807520D01*
X144602002Y-117878938D01*
X144579975Y-117894170D01*
X144553300Y-117941980D01*
X144582055Y-118016231D01*
X144611590Y-118110245D01*
X144576393Y-118158356D01*
X144540795Y-118215075D01*
X144571137Y-118301242D01*
X144594493Y-118394340D01*
X144613097Y-118562622D01*
X144624644Y-118779495D01*
X144627294Y-118948860D01*
X144623121Y-119219989D01*
X144608764Y-119411354D01*
X144581473Y-119544721D01*
X144539967Y-119639380D01*
X144456410Y-119750176D01*
X144389744Y-119792152D01*
X144358274Y-119765938D01*
X144380309Y-119672162D01*
X144398236Y-119634509D01*
X144447046Y-119531247D01*
X144438945Y-119489737D01*
X144364791Y-119481831D01*
X144348642Y-119481803D01*
X144252358Y-119464540D01*
X144220080Y-119430901D01*
X144264388Y-119395462D01*
X144371469Y-119380023D01*
X144376166Y-119380000D01*
X144532252Y-119380000D01*
X144506266Y-118858256D01*
X144493137Y-118594535D01*
X144479904Y-118328487D01*
X144468665Y-118102312D01*
X144464709Y-118022617D01*
X144450819Y-117851404D01*
X144430416Y-117722905D01*
X144411624Y-117671208D01*
X144359041Y-117683342D01*
X144264932Y-117755100D01*
X144195291Y-117823297D01*
X144090584Y-117931759D01*
X144037646Y-117971682D01*
X144018827Y-117948992D01*
X144016473Y-117883328D01*
X144062306Y-117765662D01*
X144179612Y-117666383D01*
X144338102Y-117606746D01*
X144422419Y-117598437D01*
X144502200Y-117633068D01*
G37*
X144502200Y-117633068D02*
X144570872Y-117714163D01*
X144610213Y-117807520D01*
X144602002Y-117878938D01*
X144579975Y-117894170D01*
X144553300Y-117941980D01*
X144582055Y-118016231D01*
X144611590Y-118110245D01*
X144576393Y-118158356D01*
X144540795Y-118215075D01*
X144571137Y-118301242D01*
X144594493Y-118394340D01*
X144613097Y-118562622D01*
X144624644Y-118779495D01*
X144627294Y-118948860D01*
X144623121Y-119219989D01*
X144608764Y-119411354D01*
X144581473Y-119544721D01*
X144539967Y-119639380D01*
X144456410Y-119750176D01*
X144389744Y-119792152D01*
X144358274Y-119765938D01*
X144380309Y-119672162D01*
X144398236Y-119634509D01*
X144447046Y-119531247D01*
X144438945Y-119489737D01*
X144364791Y-119481831D01*
X144348642Y-119481803D01*
X144252358Y-119464540D01*
X144220080Y-119430901D01*
X144264388Y-119395462D01*
X144371469Y-119380023D01*
X144376166Y-119380000D01*
X144532252Y-119380000D01*
X144506266Y-118858256D01*
X144493137Y-118594535D01*
X144479904Y-118328487D01*
X144468665Y-118102312D01*
X144464709Y-118022617D01*
X144450819Y-117851404D01*
X144430416Y-117722905D01*
X144411624Y-117671208D01*
X144359041Y-117683342D01*
X144264932Y-117755100D01*
X144195291Y-117823297D01*
X144090584Y-117931759D01*
X144037646Y-117971682D01*
X144018827Y-117948992D01*
X144016473Y-117883328D01*
X144062306Y-117765662D01*
X144179612Y-117666383D01*
X144338102Y-117606746D01*
X144422419Y-117598437D01*
X144502200Y-117633068D01*
G36*
X144016473Y-119100040D02*
G01*
X144011727Y-119410705D01*
X143999161Y-119628879D01*
X143981287Y-119753149D01*
X143960613Y-119782101D01*
X143939649Y-119714320D01*
X143920905Y-119548394D01*
X143906892Y-119282909D01*
X143903510Y-119163667D01*
X143889218Y-118540120D01*
X143532906Y-118540120D01*
X143518613Y-119163667D01*
X143509039Y-119415253D01*
X143493934Y-119614105D01*
X143474996Y-119743594D01*
X143454986Y-119787214D01*
X143428968Y-119740977D01*
X143411091Y-119620797D01*
X143405651Y-119481803D01*
X143405651Y-119176392D01*
X143100240Y-119176392D01*
X143100240Y-119481803D01*
X143094376Y-119659141D01*
X143073590Y-119754354D01*
X143033087Y-119786612D01*
X143023888Y-119787214D01*
X142979553Y-119763759D01*
X142955750Y-119680612D01*
X142947685Y-119518602D01*
X142947535Y-119481803D01*
X142944840Y-119312541D01*
X142930117Y-119221156D01*
X142893404Y-119183744D01*
X142824741Y-119176399D01*
X142820280Y-119176392D01*
X142749754Y-119182859D01*
X142711677Y-119218196D01*
X142696089Y-119306307D01*
X142693029Y-119471098D01*
X142693026Y-119481803D01*
X142685298Y-119644483D01*
X142665112Y-119754773D01*
X142642124Y-119787214D01*
X142615011Y-119740850D01*
X142596629Y-119619730D01*
X142591222Y-119481803D01*
X142591222Y-119176392D01*
X142285811Y-119176392D01*
X142285811Y-119481803D01*
X142278084Y-119644483D01*
X142257897Y-119754773D01*
X142234910Y-119787214D01*
X142209702Y-119739589D01*
X142191988Y-119609567D01*
X142184177Y-119416428D01*
X142184008Y-119380000D01*
X142189961Y-119178337D01*
X142206214Y-119036625D01*
X142230356Y-118974143D01*
X142234910Y-118972785D01*
X142284332Y-119011520D01*
X142285811Y-119023687D01*
X142330043Y-119059427D01*
X142436617Y-119074585D01*
X142438517Y-119074589D01*
X142546678Y-119061976D01*
X142586544Y-119002481D01*
X142591222Y-118921883D01*
X142605966Y-118814664D01*
X142641491Y-118769190D01*
X142642124Y-118769178D01*
X142677864Y-118813410D01*
X142693022Y-118919984D01*
X142693026Y-118921883D01*
X142706722Y-119031018D01*
X142764942Y-119070942D01*
X142820280Y-119074589D01*
X142898806Y-119065095D01*
X142936011Y-119018428D01*
X142947049Y-118907313D01*
X142947535Y-118845531D01*
X142957527Y-118694556D01*
X142991503Y-118625786D01*
X143023888Y-118616473D01*
X143074213Y-118646450D01*
X143097136Y-118748378D01*
X143100240Y-118845531D01*
X143105515Y-118986878D01*
X143131440Y-119053847D01*
X143193171Y-119073714D01*
X143227495Y-119074589D01*
X143314687Y-119060602D01*
X143349515Y-118998478D01*
X143354749Y-118902795D01*
X143364987Y-118725635D01*
X143386563Y-118571933D01*
X143409228Y-118483119D01*
X143449637Y-118435622D01*
X143534676Y-118416517D01*
X143691235Y-118412877D01*
X143717425Y-118412865D01*
X144016473Y-118412865D01*
X144016473Y-119100040D01*
G37*
X144016473Y-119100040D02*
X144011727Y-119410705D01*
X143999161Y-119628879D01*
X143981287Y-119753149D01*
X143960613Y-119782101D01*
X143939649Y-119714320D01*
X143920905Y-119548394D01*
X143906892Y-119282909D01*
X143903510Y-119163667D01*
X143889218Y-118540120D01*
X143532906Y-118540120D01*
X143518613Y-119163667D01*
X143509039Y-119415253D01*
X143493934Y-119614105D01*
X143474996Y-119743594D01*
X143454986Y-119787214D01*
X143428968Y-119740977D01*
X143411091Y-119620797D01*
X143405651Y-119481803D01*
X143405651Y-119176392D01*
X143100240Y-119176392D01*
X143100240Y-119481803D01*
X143094376Y-119659141D01*
X143073590Y-119754354D01*
X143033087Y-119786612D01*
X143023888Y-119787214D01*
X142979553Y-119763759D01*
X142955750Y-119680612D01*
X142947685Y-119518602D01*
X142947535Y-119481803D01*
X142944840Y-119312541D01*
X142930117Y-119221156D01*
X142893404Y-119183744D01*
X142824741Y-119176399D01*
X142820280Y-119176392D01*
X142749754Y-119182859D01*
X142711677Y-119218196D01*
X142696089Y-119306307D01*
X142693029Y-119471098D01*
X142693026Y-119481803D01*
X142685298Y-119644483D01*
X142665112Y-119754773D01*
X142642124Y-119787214D01*
X142615011Y-119740850D01*
X142596629Y-119619730D01*
X142591222Y-119481803D01*
X142591222Y-119176392D01*
X142285811Y-119176392D01*
X142285811Y-119481803D01*
X142278084Y-119644483D01*
X142257897Y-119754773D01*
X142234910Y-119787214D01*
X142209702Y-119739589D01*
X142191988Y-119609567D01*
X142184177Y-119416428D01*
X142184008Y-119380000D01*
X142189961Y-119178337D01*
X142206214Y-119036625D01*
X142230356Y-118974143D01*
X142234910Y-118972785D01*
X142284332Y-119011520D01*
X142285811Y-119023687D01*
X142330043Y-119059427D01*
X142436617Y-119074585D01*
X142438517Y-119074589D01*
X142546678Y-119061976D01*
X142586544Y-119002481D01*
X142591222Y-118921883D01*
X142605966Y-118814664D01*
X142641491Y-118769190D01*
X142642124Y-118769178D01*
X142677864Y-118813410D01*
X142693022Y-118919984D01*
X142693026Y-118921883D01*
X142706722Y-119031018D01*
X142764942Y-119070942D01*
X142820280Y-119074589D01*
X142898806Y-119065095D01*
X142936011Y-119018428D01*
X142947049Y-118907313D01*
X142947535Y-118845531D01*
X142957527Y-118694556D01*
X142991503Y-118625786D01*
X143023888Y-118616473D01*
X143074213Y-118646450D01*
X143097136Y-118748378D01*
X143100240Y-118845531D01*
X143105515Y-118986878D01*
X143131440Y-119053847D01*
X143193171Y-119073714D01*
X143227495Y-119074589D01*
X143314687Y-119060602D01*
X143349515Y-118998478D01*
X143354749Y-118902795D01*
X143364987Y-118725635D01*
X143386563Y-118571933D01*
X143409228Y-118483119D01*
X143449637Y-118435622D01*
X143534676Y-118416517D01*
X143691235Y-118412877D01*
X143717425Y-118412865D01*
X144016473Y-118412865D01*
X144016473Y-119100040D01*
G36*
X150207203Y-120623396D02*
G01*
X150222606Y-120706289D01*
X150222474Y-120710726D01*
X150211103Y-120778480D01*
X150192781Y-120767074D01*
X150129412Y-120724071D01*
X150008844Y-120703700D01*
X149993193Y-120703447D01*
X149875368Y-120712502D01*
X149827791Y-120757906D01*
X149819278Y-120856152D01*
X149835912Y-120968744D01*
X149896146Y-121007744D01*
X149916840Y-121008857D01*
X150010415Y-120979764D01*
X150040076Y-120945230D01*
X150057605Y-120945806D01*
X150068683Y-121027362D01*
X150069769Y-121056763D01*
X150068468Y-121167648D01*
X150050258Y-121190123D01*
X150005157Y-121138064D01*
X149929848Y-121078571D01*
X149877902Y-121080438D01*
X149826456Y-121163357D01*
X149827494Y-121281423D01*
X149876497Y-121385438D01*
X149908356Y-121411995D01*
X149950534Y-121446345D01*
X149911358Y-121461915D01*
X149819278Y-121465426D01*
X149641122Y-121466974D01*
X149641122Y-120652545D01*
X149853292Y-120652545D01*
X150007455Y-120645378D01*
X150126590Y-120627574D01*
X150145977Y-120621648D01*
X150207203Y-120623396D01*
G37*
X150207203Y-120623396D02*
X150222606Y-120706289D01*
X150222474Y-120710726D01*
X150211103Y-120778480D01*
X150192781Y-120767074D01*
X150129412Y-120724071D01*
X150008844Y-120703700D01*
X149993193Y-120703447D01*
X149875368Y-120712502D01*
X149827791Y-120757906D01*
X149819278Y-120856152D01*
X149835912Y-120968744D01*
X149896146Y-121007744D01*
X149916840Y-121008857D01*
X150010415Y-120979764D01*
X150040076Y-120945230D01*
X150057605Y-120945806D01*
X150068683Y-121027362D01*
X150069769Y-121056763D01*
X150068468Y-121167648D01*
X150050258Y-121190123D01*
X150005157Y-121138064D01*
X149929848Y-121078571D01*
X149877902Y-121080438D01*
X149826456Y-121163357D01*
X149827494Y-121281423D01*
X149876497Y-121385438D01*
X149908356Y-121411995D01*
X149950534Y-121446345D01*
X149911358Y-121461915D01*
X149819278Y-121465426D01*
X149641122Y-121466974D01*
X149641122Y-120652545D01*
X149853292Y-120652545D01*
X150007455Y-120645378D01*
X150126590Y-120627574D01*
X150145977Y-120621648D01*
X150207203Y-120623396D01*
G36*
X149219717Y-120664706D02*
G01*
X149281070Y-120720530D01*
X149385197Y-120888048D01*
X149410708Y-121081404D01*
X149355082Y-121264584D01*
X149322466Y-121311836D01*
X149181745Y-121413229D01*
X148997542Y-121455490D01*
X148812177Y-121434278D01*
X148699809Y-121375705D01*
X148610325Y-121271886D01*
X148576491Y-121130616D01*
X148574498Y-121065450D01*
X148581549Y-121027755D01*
X148750340Y-121027755D01*
X148779510Y-121212422D01*
X148855196Y-121343059D01*
X148959666Y-121408314D01*
X149075188Y-121396832D01*
X149180119Y-121302942D01*
X149245031Y-121146009D01*
X149245833Y-120979585D01*
X149191636Y-120831906D01*
X149091550Y-120731210D01*
X148986693Y-120703447D01*
X148850454Y-120737340D01*
X148773730Y-120844662D01*
X148750340Y-121027755D01*
X148581549Y-121027755D01*
X148613922Y-120854716D01*
X148732231Y-120708322D01*
X148929483Y-120626205D01*
X148965976Y-120619412D01*
X149110758Y-120612873D01*
X149219717Y-120664706D01*
G37*
X149219717Y-120664706D02*
X149281070Y-120720530D01*
X149385197Y-120888048D01*
X149410708Y-121081404D01*
X149355082Y-121264584D01*
X149322466Y-121311836D01*
X149181745Y-121413229D01*
X148997542Y-121455490D01*
X148812177Y-121434278D01*
X148699809Y-121375705D01*
X148610325Y-121271886D01*
X148576491Y-121130616D01*
X148574498Y-121065450D01*
X148581549Y-121027755D01*
X148750340Y-121027755D01*
X148779510Y-121212422D01*
X148855196Y-121343059D01*
X148959666Y-121408314D01*
X149075188Y-121396832D01*
X149180119Y-121302942D01*
X149245031Y-121146009D01*
X149245833Y-120979585D01*
X149191636Y-120831906D01*
X149091550Y-120731210D01*
X148986693Y-120703447D01*
X148850454Y-120737340D01*
X148773730Y-120844662D01*
X148750340Y-121027755D01*
X148581549Y-121027755D01*
X148613922Y-120854716D01*
X148732231Y-120708322D01*
X148929483Y-120626205D01*
X148965976Y-120619412D01*
X149110758Y-120612873D01*
X149219717Y-120664706D01*
G36*
X147428138Y-120635194D02*
G01*
X147444807Y-120679283D01*
X147453413Y-120760727D01*
X147505594Y-120880356D01*
X147518656Y-120902779D01*
X147616518Y-121063700D01*
X147686349Y-120896299D01*
X147730190Y-120770192D01*
X147745344Y-120682449D01*
X147744516Y-120676178D01*
X147776763Y-120633670D01*
X147834381Y-120623458D01*
X147917107Y-120628849D01*
X147935912Y-120636234D01*
X147911023Y-120682449D01*
X147846767Y-120788410D01*
X147783206Y-120889801D01*
X147678879Y-121089790D01*
X147634230Y-121257924D01*
X147651142Y-121378153D01*
X147719579Y-121431886D01*
X147728780Y-121445644D01*
X147653520Y-121454942D01*
X147579599Y-121457050D01*
X147458311Y-121453325D01*
X147406134Y-121441729D01*
X147414168Y-121433262D01*
X147466339Y-121362784D01*
X147473465Y-121232258D01*
X147438339Y-121071499D01*
X147365434Y-120913062D01*
X147286849Y-120794962D01*
X147225499Y-120721210D01*
X147212729Y-120711930D01*
X147170192Y-120672255D01*
X147214145Y-120637976D01*
X147320718Y-120621901D01*
X147428138Y-120635194D01*
G37*
X147428138Y-120635194D02*
X147444807Y-120679283D01*
X147453413Y-120760727D01*
X147505594Y-120880356D01*
X147518656Y-120902779D01*
X147616518Y-121063700D01*
X147686349Y-120896299D01*
X147730190Y-120770192D01*
X147745344Y-120682449D01*
X147744516Y-120676178D01*
X147776763Y-120633670D01*
X147834381Y-120623458D01*
X147917107Y-120628849D01*
X147935912Y-120636234D01*
X147911023Y-120682449D01*
X147846767Y-120788410D01*
X147783206Y-120889801D01*
X147678879Y-121089790D01*
X147634230Y-121257924D01*
X147651142Y-121378153D01*
X147719579Y-121431886D01*
X147728780Y-121445644D01*
X147653520Y-121454942D01*
X147579599Y-121457050D01*
X147458311Y-121453325D01*
X147406134Y-121441729D01*
X147414168Y-121433262D01*
X147466339Y-121362784D01*
X147473465Y-121232258D01*
X147438339Y-121071499D01*
X147365434Y-120913062D01*
X147286849Y-120794962D01*
X147225499Y-120721210D01*
X147212729Y-120711930D01*
X147170192Y-120672255D01*
X147214145Y-120637976D01*
X147320718Y-120621901D01*
X147428138Y-120635194D01*
G36*
X146909808Y-120641625D02*
G01*
X146955654Y-120669365D01*
X146967160Y-120723992D01*
X146967190Y-120754348D01*
X146960527Y-120840415D01*
X146932041Y-120834674D01*
X146897920Y-120792525D01*
X146816258Y-120710469D01*
X146760104Y-120717544D01*
X146727008Y-120817260D01*
X146714518Y-121013126D01*
X146714268Y-121055517D01*
X146723979Y-121280190D01*
X146753023Y-121406099D01*
X146777896Y-121433262D01*
X146771868Y-121448663D01*
X146685252Y-121459103D01*
X146612465Y-121461407D01*
X146480071Y-121458378D01*
X146437944Y-121442754D01*
X146472485Y-121411995D01*
X146524531Y-121337107D01*
X146557167Y-121204538D01*
X146570155Y-121044666D01*
X146563252Y-120887872D01*
X146536219Y-120764534D01*
X146488814Y-120705033D01*
X146478096Y-120703447D01*
X146381049Y-120740485D01*
X146323894Y-120792525D01*
X146272366Y-120849014D01*
X146261821Y-120817958D01*
X146267381Y-120762853D01*
X146282947Y-120699475D01*
X146326224Y-120662853D01*
X146420661Y-120644647D01*
X146589704Y-120636520D01*
X146625221Y-120635598D01*
X146807153Y-120632970D01*
X146909808Y-120641625D01*
G37*
X146909808Y-120641625D02*
X146955654Y-120669365D01*
X146967160Y-120723992D01*
X146967190Y-120754348D01*
X146960527Y-120840415D01*
X146932041Y-120834674D01*
X146897920Y-120792525D01*
X146816258Y-120710469D01*
X146760104Y-120717544D01*
X146727008Y-120817260D01*
X146714518Y-121013126D01*
X146714268Y-121055517D01*
X146723979Y-121280190D01*
X146753023Y-121406099D01*
X146777896Y-121433262D01*
X146771868Y-121448663D01*
X146685252Y-121459103D01*
X146612465Y-121461407D01*
X146480071Y-121458378D01*
X146437944Y-121442754D01*
X146472485Y-121411995D01*
X146524531Y-121337107D01*
X146557167Y-121204538D01*
X146570155Y-121044666D01*
X146563252Y-120887872D01*
X146536219Y-120764534D01*
X146488814Y-120705033D01*
X146478096Y-120703447D01*
X146381049Y-120740485D01*
X146323894Y-120792525D01*
X146272366Y-120849014D01*
X146261821Y-120817958D01*
X146267381Y-120762853D01*
X146282947Y-120699475D01*
X146326224Y-120662853D01*
X146420661Y-120644647D01*
X146589704Y-120636520D01*
X146625221Y-120635598D01*
X146807153Y-120632970D01*
X146909808Y-120641625D01*
G36*
X145887114Y-120639819D02*
G01*
X145956798Y-120653816D01*
X145998388Y-120685152D01*
X146019134Y-120755783D01*
X146026287Y-120887660D01*
X146027094Y-121063669D01*
X146027094Y-121466974D01*
X145876934Y-121466974D01*
X145779371Y-121458451D01*
X145769783Y-121427010D01*
X145787855Y-121405891D01*
X145818912Y-121330200D01*
X145839086Y-121196545D01*
X145847927Y-121036016D01*
X145844985Y-120879701D01*
X145829809Y-120758689D01*
X145801948Y-120704067D01*
X145798036Y-120703447D01*
X145748552Y-120671213D01*
X145747134Y-120661361D01*
X145790289Y-120637371D01*
X145887114Y-120639819D01*
G37*
X145887114Y-120639819D02*
X145956798Y-120653816D01*
X145998388Y-120685152D01*
X146019134Y-120755783D01*
X146026287Y-120887660D01*
X146027094Y-121063669D01*
X146027094Y-121466974D01*
X145876934Y-121466974D01*
X145779371Y-121458451D01*
X145769783Y-121427010D01*
X145787855Y-121405891D01*
X145818912Y-121330200D01*
X145839086Y-121196545D01*
X145847927Y-121036016D01*
X145844985Y-120879701D01*
X145829809Y-120758689D01*
X145801948Y-120704067D01*
X145798036Y-120703447D01*
X145748552Y-120671213D01*
X145747134Y-120661361D01*
X145790289Y-120637371D01*
X145887114Y-120639819D01*
G36*
X145380326Y-120624700D02*
G01*
X145468986Y-120688040D01*
X145491077Y-120768044D01*
X145484595Y-120844496D01*
X145458226Y-120826357D01*
X145437646Y-120792525D01*
X145362365Y-120728412D01*
X145260444Y-120704309D01*
X145171819Y-120721986D01*
X145136312Y-120779161D01*
X145176277Y-120849306D01*
X145277524Y-120940359D01*
X145339920Y-120983406D01*
X145490011Y-121107676D01*
X145539555Y-121226635D01*
X145488209Y-121338740D01*
X145430397Y-121387735D01*
X145304552Y-121444006D01*
X145161117Y-121466729D01*
X145045492Y-121450921D01*
X145017542Y-121433039D01*
X144989342Y-121358996D01*
X144983607Y-121296186D01*
X144988469Y-121229812D01*
X145017914Y-121234298D01*
X145090040Y-121307511D01*
X145206736Y-121391163D01*
X145308639Y-121393533D01*
X145372806Y-121316703D01*
X145380911Y-121281109D01*
X145365571Y-121194770D01*
X145278817Y-121118806D01*
X145202754Y-121078021D01*
X145050332Y-120972956D01*
X144991450Y-120858510D01*
X145028582Y-120745116D01*
X145107372Y-120675601D01*
X145250242Y-120618253D01*
X145380326Y-120624700D01*
G37*
X145380326Y-120624700D02*
X145468986Y-120688040D01*
X145491077Y-120768044D01*
X145484595Y-120844496D01*
X145458226Y-120826357D01*
X145437646Y-120792525D01*
X145362365Y-120728412D01*
X145260444Y-120704309D01*
X145171819Y-120721986D01*
X145136312Y-120779161D01*
X145176277Y-120849306D01*
X145277524Y-120940359D01*
X145339920Y-120983406D01*
X145490011Y-121107676D01*
X145539555Y-121226635D01*
X145488209Y-121338740D01*
X145430397Y-121387735D01*
X145304552Y-121444006D01*
X145161117Y-121466729D01*
X145045492Y-121450921D01*
X145017542Y-121433039D01*
X144989342Y-121358996D01*
X144983607Y-121296186D01*
X144988469Y-121229812D01*
X145017914Y-121234298D01*
X145090040Y-121307511D01*
X145206736Y-121391163D01*
X145308639Y-121393533D01*
X145372806Y-121316703D01*
X145380911Y-121281109D01*
X145365571Y-121194770D01*
X145278817Y-121118806D01*
X145202754Y-121078021D01*
X145050332Y-120972956D01*
X144991450Y-120858510D01*
X145028582Y-120745116D01*
X145107372Y-120675601D01*
X145250242Y-120618253D01*
X145380326Y-120624700D01*
G36*
X144316345Y-120640886D02*
G01*
X144460736Y-120659809D01*
X144571756Y-120688371D01*
X144605485Y-120706469D01*
X144672946Y-120811512D01*
X144640854Y-120926525D01*
X144579183Y-120992828D01*
X144523383Y-121047670D01*
X144515258Y-121099156D01*
X144560719Y-121177231D01*
X144634362Y-121272290D01*
X144721835Y-121388104D01*
X144748407Y-121446080D01*
X144719538Y-121465586D01*
X144689238Y-121466974D01*
X144595388Y-121423534D01*
X144485940Y-121307090D01*
X144455180Y-121263366D01*
X144370709Y-121144352D01*
X144307663Y-121071025D01*
X144290364Y-121059759D01*
X144275862Y-121104638D01*
X144276066Y-121216834D01*
X144279706Y-121263366D01*
X144287061Y-121393462D01*
X144263063Y-121451519D01*
X144188906Y-121466527D01*
X144147617Y-121466974D01*
X144049300Y-121458520D01*
X144038925Y-121427354D01*
X144057194Y-121405891D01*
X144088250Y-121330200D01*
X144108424Y-121196545D01*
X144117266Y-121036016D01*
X144114323Y-120879701D01*
X144111370Y-120856152D01*
X144270982Y-120856152D01*
X144298244Y-120975804D01*
X144368118Y-121008078D01*
X144462735Y-120946198D01*
X144474051Y-120933153D01*
X144514046Y-120826704D01*
X144473235Y-120738048D01*
X144374383Y-120703447D01*
X144298877Y-120726759D01*
X144272163Y-120814348D01*
X144270982Y-120856152D01*
X144111370Y-120856152D01*
X144099147Y-120758689D01*
X144071287Y-120704067D01*
X144067375Y-120703447D01*
X144017832Y-120674130D01*
X144016429Y-120665270D01*
X144060844Y-120641284D01*
X144171931Y-120633933D01*
X144316345Y-120640886D01*
G37*
X144316345Y-120640886D02*
X144460736Y-120659809D01*
X144571756Y-120688371D01*
X144605485Y-120706469D01*
X144672946Y-120811512D01*
X144640854Y-120926525D01*
X144579183Y-120992828D01*
X144523383Y-121047670D01*
X144515258Y-121099156D01*
X144560719Y-121177231D01*
X144634362Y-121272290D01*
X144721835Y-121388104D01*
X144748407Y-121446080D01*
X144719538Y-121465586D01*
X144689238Y-121466974D01*
X144595388Y-121423534D01*
X144485940Y-121307090D01*
X144455180Y-121263366D01*
X144370709Y-121144352D01*
X144307663Y-121071025D01*
X144290364Y-121059759D01*
X144275862Y-121104638D01*
X144276066Y-121216834D01*
X144279706Y-121263366D01*
X144287061Y-121393462D01*
X144263063Y-121451519D01*
X144188906Y-121466527D01*
X144147617Y-121466974D01*
X144049300Y-121458520D01*
X144038925Y-121427354D01*
X144057194Y-121405891D01*
X144088250Y-121330200D01*
X144108424Y-121196545D01*
X144117266Y-121036016D01*
X144114323Y-120879701D01*
X144111370Y-120856152D01*
X144270982Y-120856152D01*
X144298244Y-120975804D01*
X144368118Y-121008078D01*
X144462735Y-120946198D01*
X144474051Y-120933153D01*
X144514046Y-120826704D01*
X144473235Y-120738048D01*
X144374383Y-120703447D01*
X144298877Y-120726759D01*
X144272163Y-120814348D01*
X144270982Y-120856152D01*
X144111370Y-120856152D01*
X144099147Y-120758689D01*
X144071287Y-120704067D01*
X144067375Y-120703447D01*
X144017832Y-120674130D01*
X144016429Y-120665270D01*
X144060844Y-120641284D01*
X144171931Y-120633933D01*
X144316345Y-120640886D01*
G36*
X143733662Y-120625400D02*
G01*
X143775639Y-120699343D01*
X143779688Y-120782668D01*
X143757198Y-120805250D01*
X143712371Y-120766375D01*
X143711062Y-120754348D01*
X143666315Y-120720704D01*
X143556286Y-120703886D01*
X143532906Y-120703447D01*
X143412268Y-120713113D01*
X143362912Y-120755949D01*
X143354749Y-120827697D01*
X143380663Y-120948249D01*
X143444357Y-120992951D01*
X143524760Y-120950143D01*
X143540628Y-120930552D01*
X143585969Y-120878358D01*
X143604002Y-120901487D01*
X143605240Y-121011854D01*
X143596541Y-121109793D01*
X143580058Y-121131763D01*
X143575547Y-121123386D01*
X143509541Y-121070593D01*
X143449086Y-121059759D01*
X143380486Y-121077814D01*
X143360070Y-121150692D01*
X143364250Y-121225190D01*
X143391249Y-121344420D01*
X143459003Y-121395817D01*
X143515258Y-121406252D01*
X143653623Y-121382255D01*
X143735084Y-121304449D01*
X143819852Y-121187014D01*
X143803633Y-121314268D01*
X143786176Y-121385509D01*
X143740089Y-121425688D01*
X143640201Y-121445924D01*
X143482004Y-121456347D01*
X143176593Y-121471171D01*
X143176593Y-120652545D01*
X143354749Y-120651850D01*
X143510358Y-120643066D01*
X143638346Y-120622845D01*
X143640425Y-120622295D01*
X143733662Y-120625400D01*
G37*
X143733662Y-120625400D02*
X143775639Y-120699343D01*
X143779688Y-120782668D01*
X143757198Y-120805250D01*
X143712371Y-120766375D01*
X143711062Y-120754348D01*
X143666315Y-120720704D01*
X143556286Y-120703886D01*
X143532906Y-120703447D01*
X143412268Y-120713113D01*
X143362912Y-120755949D01*
X143354749Y-120827697D01*
X143380663Y-120948249D01*
X143444357Y-120992951D01*
X143524760Y-120950143D01*
X143540628Y-120930552D01*
X143585969Y-120878358D01*
X143604002Y-120901487D01*
X143605240Y-121011854D01*
X143596541Y-121109793D01*
X143580058Y-121131763D01*
X143575547Y-121123386D01*
X143509541Y-121070593D01*
X143449086Y-121059759D01*
X143380486Y-121077814D01*
X143360070Y-121150692D01*
X143364250Y-121225190D01*
X143391249Y-121344420D01*
X143459003Y-121395817D01*
X143515258Y-121406252D01*
X143653623Y-121382255D01*
X143735084Y-121304449D01*
X143819852Y-121187014D01*
X143803633Y-121314268D01*
X143786176Y-121385509D01*
X143740089Y-121425688D01*
X143640201Y-121445924D01*
X143482004Y-121456347D01*
X143176593Y-121471171D01*
X143176593Y-120652545D01*
X143354749Y-120651850D01*
X143510358Y-120643066D01*
X143638346Y-120622845D01*
X143640425Y-120622295D01*
X143733662Y-120625400D01*
G36*
X142249859Y-120638079D02*
G01*
X142342453Y-120680212D01*
X142370648Y-120729103D01*
X142387896Y-120813764D01*
X142431804Y-120953236D01*
X142462565Y-121037721D01*
X142554483Y-121278404D01*
X142649442Y-121029101D01*
X142699210Y-120875696D01*
X142722554Y-120756234D01*
X142720311Y-120716172D01*
X142739792Y-120663320D01*
X142788868Y-120652545D01*
X142830492Y-120660858D01*
X142843618Y-120697900D01*
X142825329Y-120781823D01*
X142772707Y-120930780D01*
X142723643Y-121058404D01*
X142646499Y-121242269D01*
X142576739Y-121383041D01*
X142525767Y-121458603D01*
X142513659Y-121465619D01*
X142472801Y-121422020D01*
X142409524Y-121304754D01*
X142335365Y-121136123D01*
X142310272Y-121072485D01*
X142238899Y-120887212D01*
X142181673Y-120740242D01*
X142148162Y-120656095D01*
X142144034Y-120646492D01*
X142174146Y-120630714D01*
X142249859Y-120638079D01*
G37*
X142249859Y-120638079D02*
X142342453Y-120680212D01*
X142370648Y-120729103D01*
X142387896Y-120813764D01*
X142431804Y-120953236D01*
X142462565Y-121037721D01*
X142554483Y-121278404D01*
X142649442Y-121029101D01*
X142699210Y-120875696D01*
X142722554Y-120756234D01*
X142720311Y-120716172D01*
X142739792Y-120663320D01*
X142788868Y-120652545D01*
X142830492Y-120660858D01*
X142843618Y-120697900D01*
X142825329Y-120781823D01*
X142772707Y-120930780D01*
X142723643Y-121058404D01*
X142646499Y-121242269D01*
X142576739Y-121383041D01*
X142525767Y-121458603D01*
X142513659Y-121465619D01*
X142472801Y-121422020D01*
X142409524Y-121304754D01*
X142335365Y-121136123D01*
X142310272Y-121072485D01*
X142238899Y-120887212D01*
X142181673Y-120740242D01*
X142148162Y-120656095D01*
X142144034Y-120646492D01*
X142174146Y-120630714D01*
X142249859Y-120638079D01*
G36*
X141825241Y-120666595D02*
G01*
X141849102Y-120681517D01*
X141840421Y-120686256D01*
X141804491Y-120748544D01*
X141783142Y-120878478D01*
X141776491Y-121042929D01*
X141784656Y-121208772D01*
X141807753Y-121342881D01*
X141837876Y-121405891D01*
X141858135Y-121447326D01*
X141798268Y-121464858D01*
X141725892Y-121466974D01*
X141615967Y-121459500D01*
X141593610Y-121432183D01*
X141613908Y-121405891D01*
X141649322Y-121322449D01*
X141669708Y-121180141D01*
X141675183Y-121012095D01*
X141665863Y-120851436D01*
X141641867Y-120731291D01*
X141611363Y-120686256D01*
X141612286Y-120669791D01*
X141694100Y-120661023D01*
X141725892Y-120660582D01*
X141825241Y-120666595D01*
G37*
X141825241Y-120666595D02*
X141849102Y-120681517D01*
X141840421Y-120686256D01*
X141804491Y-120748544D01*
X141783142Y-120878478D01*
X141776491Y-121042929D01*
X141784656Y-121208772D01*
X141807753Y-121342881D01*
X141837876Y-121405891D01*
X141858135Y-121447326D01*
X141798268Y-121464858D01*
X141725892Y-121466974D01*
X141615967Y-121459500D01*
X141593610Y-121432183D01*
X141613908Y-121405891D01*
X141649322Y-121322449D01*
X141669708Y-121180141D01*
X141675183Y-121012095D01*
X141665863Y-120851436D01*
X141641867Y-120731291D01*
X141611363Y-120686256D01*
X141612286Y-120669791D01*
X141694100Y-120661023D01*
X141725892Y-120660582D01*
X141825241Y-120666595D01*
G36*
X140744133Y-120656426D02*
G01*
X140847907Y-120759446D01*
X140947168Y-120893498D01*
X141059473Y-121043308D01*
X141130396Y-121100758D01*
X141164452Y-121064360D01*
X141166157Y-120932626D01*
X141155618Y-120824764D01*
X141153536Y-120702559D01*
X141191165Y-120655274D01*
X141214369Y-120652425D01*
X141253666Y-120667771D01*
X141275251Y-120726678D01*
X141282042Y-120848226D01*
X141276954Y-121051495D01*
X141276625Y-121059640D01*
X141264353Y-121248781D01*
X141246421Y-121391220D01*
X141226154Y-121462873D01*
X141220373Y-121466974D01*
X141174215Y-121428220D01*
X141088094Y-121325669D01*
X140979033Y-121179882D01*
X140957014Y-121148837D01*
X140733306Y-120830701D01*
X140717647Y-121105843D01*
X140719646Y-121304433D01*
X140754104Y-121410309D01*
X140768548Y-121423200D01*
X140788248Y-121455127D01*
X140710390Y-121466175D01*
X140707855Y-121466194D01*
X140644584Y-121462230D01*
X140606777Y-121435515D01*
X140587880Y-121365254D01*
X140581340Y-121230649D01*
X140580601Y-121062368D01*
X140583999Y-120854664D01*
X140596986Y-120727948D01*
X140623753Y-120661546D01*
X140667208Y-120635115D01*
X140744133Y-120656426D01*
G37*
X140744133Y-120656426D02*
X140847907Y-120759446D01*
X140947168Y-120893498D01*
X141059473Y-121043308D01*
X141130396Y-121100758D01*
X141164452Y-121064360D01*
X141166157Y-120932626D01*
X141155618Y-120824764D01*
X141153536Y-120702559D01*
X141191165Y-120655274D01*
X141214369Y-120652425D01*
X141253666Y-120667771D01*
X141275251Y-120726678D01*
X141282042Y-120848226D01*
X141276954Y-121051495D01*
X141276625Y-121059640D01*
X141264353Y-121248781D01*
X141246421Y-121391220D01*
X141226154Y-121462873D01*
X141220373Y-121466974D01*
X141174215Y-121428220D01*
X141088094Y-121325669D01*
X140979033Y-121179882D01*
X140957014Y-121148837D01*
X140733306Y-120830701D01*
X140717647Y-121105843D01*
X140719646Y-121304433D01*
X140754104Y-121410309D01*
X140768548Y-121423200D01*
X140788248Y-121455127D01*
X140710390Y-121466175D01*
X140707855Y-121466194D01*
X140644584Y-121462230D01*
X140606777Y-121435515D01*
X140587880Y-121365254D01*
X140581340Y-121230649D01*
X140580601Y-121062368D01*
X140583999Y-120854664D01*
X140596986Y-120727948D01*
X140623753Y-120661546D01*
X140667208Y-120635115D01*
X140744133Y-120656426D01*
G36*
X140161510Y-120637816D02*
G01*
X140222877Y-120656379D01*
X140254490Y-120698385D01*
X140262356Y-120788183D01*
X140252483Y-120950121D01*
X140248989Y-120992342D01*
X140222323Y-121200230D01*
X140180484Y-121328997D01*
X140123883Y-121395893D01*
X139978442Y-121456601D01*
X139821514Y-121456820D01*
X139697325Y-121397799D01*
X139683883Y-121383467D01*
X139642992Y-121290109D01*
X139607178Y-121132495D01*
X139587754Y-120980283D01*
X139575002Y-120806280D01*
X139579309Y-120708863D01*
X139608996Y-120663187D01*
X139672382Y-120644410D01*
X139701727Y-120639939D01*
X139802952Y-120637989D01*
X139842525Y-120661361D01*
X139803540Y-120702274D01*
X139791623Y-120703447D01*
X139761999Y-120748565D01*
X139745346Y-120862168D01*
X139742818Y-121011621D01*
X139755566Y-121164294D01*
X139772363Y-121248955D01*
X139842358Y-121356457D01*
X139954133Y-121401082D01*
X140068097Y-121367845D01*
X140074026Y-121363143D01*
X140111498Y-121288500D01*
X140136809Y-121157416D01*
X140148853Y-121001640D01*
X140146522Y-120852922D01*
X140128708Y-120743010D01*
X140097034Y-120703447D01*
X140047561Y-120669908D01*
X140046132Y-120659603D01*
X140088063Y-120633872D01*
X140161510Y-120637816D01*
G37*
X140161510Y-120637816D02*
X140222877Y-120656379D01*
X140254490Y-120698385D01*
X140262356Y-120788183D01*
X140252483Y-120950121D01*
X140248989Y-120992342D01*
X140222323Y-121200230D01*
X140180484Y-121328997D01*
X140123883Y-121395893D01*
X139978442Y-121456601D01*
X139821514Y-121456820D01*
X139697325Y-121397799D01*
X139683883Y-121383467D01*
X139642992Y-121290109D01*
X139607178Y-121132495D01*
X139587754Y-120980283D01*
X139575002Y-120806280D01*
X139579309Y-120708863D01*
X139608996Y-120663187D01*
X139672382Y-120644410D01*
X139701727Y-120639939D01*
X139802952Y-120637989D01*
X139842525Y-120661361D01*
X139803540Y-120702274D01*
X139791623Y-120703447D01*
X139761999Y-120748565D01*
X139745346Y-120862168D01*
X139742818Y-121011621D01*
X139755566Y-121164294D01*
X139772363Y-121248955D01*
X139842358Y-121356457D01*
X139954133Y-121401082D01*
X140068097Y-121367845D01*
X140074026Y-121363143D01*
X140111498Y-121288500D01*
X140136809Y-121157416D01*
X140148853Y-121001640D01*
X140146522Y-120852922D01*
X140128708Y-120743010D01*
X140097034Y-120703447D01*
X140047561Y-120669908D01*
X140046132Y-120659603D01*
X140088063Y-120633872D01*
X140161510Y-120637816D01*
G36*
X150869593Y-121964665D02*
G01*
X150888216Y-122076100D01*
X150861860Y-122194533D01*
X150773687Y-122249320D01*
X150658131Y-122276307D01*
X150599280Y-122272660D01*
X150565838Y-122247468D01*
X150540560Y-122175919D01*
X150531904Y-122075246D01*
X150556623Y-121963433D01*
X150644661Y-121915424D01*
X150648354Y-121914697D01*
X150794684Y-121907653D01*
X150869593Y-121964665D01*
G37*
X150869593Y-121964665D02*
X150888216Y-122076100D01*
X150861860Y-122194533D01*
X150773687Y-122249320D01*
X150658131Y-122276307D01*
X150599280Y-122272660D01*
X150565838Y-122247468D01*
X150540560Y-122175919D01*
X150531904Y-122075246D01*
X150556623Y-121963433D01*
X150644661Y-121915424D01*
X150648354Y-121914697D01*
X150794684Y-121907653D01*
X150869593Y-121964665D01*
G36*
X152427265Y-122465608D02*
G01*
X152534732Y-122549060D01*
X152544839Y-122559049D01*
X152598939Y-122619272D01*
X152634672Y-122685132D01*
X152655825Y-122778055D01*
X152666186Y-122919466D01*
X152669543Y-123130791D01*
X152669779Y-123265737D01*
X152671056Y-123517430D01*
X152676902Y-123685424D01*
X152690348Y-123787813D01*
X152714420Y-123842690D01*
X152752145Y-123868148D01*
X152771583Y-123874107D01*
X152854198Y-123918948D01*
X152873387Y-123956397D01*
X152825007Y-123988632D01*
X152688787Y-124007722D01*
X152542525Y-124012064D01*
X152356939Y-124006966D01*
X152253790Y-123988753D01*
X152214086Y-123953039D01*
X152211663Y-123935711D01*
X152239149Y-123867973D01*
X152262565Y-123859358D01*
X152285888Y-123810828D01*
X152302848Y-123674473D01*
X152312121Y-123464148D01*
X152313467Y-123326680D01*
X152311419Y-123083910D01*
X152303167Y-122923310D01*
X152285547Y-122825294D01*
X152255396Y-122770273D01*
X152219306Y-122743609D01*
X152116256Y-122724281D01*
X151978237Y-122772299D01*
X151952072Y-122785892D01*
X151778998Y-122878569D01*
X151764236Y-123353075D01*
X151760145Y-123585791D01*
X151766889Y-123736345D01*
X151786833Y-123824024D01*
X151822347Y-123868118D01*
X151827863Y-123871450D01*
X151902063Y-123932953D01*
X151877888Y-123977695D01*
X151757577Y-124004427D01*
X151575391Y-124012064D01*
X151383797Y-124003924D01*
X151270334Y-123981005D01*
X151244529Y-123956397D01*
X151287024Y-123900109D01*
X151346332Y-123874107D01*
X151390393Y-123855266D01*
X151419544Y-123814129D01*
X151436830Y-123732565D01*
X151445298Y-123592442D01*
X151447992Y-123375629D01*
X151448136Y-123268051D01*
X151446954Y-123017812D01*
X151441447Y-122852106D01*
X151428671Y-122753674D01*
X151405684Y-122705253D01*
X151369541Y-122689584D01*
X151349337Y-122688617D01*
X151253101Y-122667011D01*
X151221343Y-122641380D01*
X151222494Y-122602646D01*
X151288116Y-122568069D01*
X151432366Y-122532095D01*
X151562665Y-122507510D01*
X151686818Y-122491017D01*
X151740681Y-122511478D01*
X151753383Y-122583943D01*
X151753547Y-122606129D01*
X151753547Y-122738578D01*
X152000960Y-122586343D01*
X152186567Y-122482935D01*
X152319939Y-122443128D01*
X152427265Y-122465608D01*
G37*
X152427265Y-122465608D02*
X152534732Y-122549060D01*
X152544839Y-122559049D01*
X152598939Y-122619272D01*
X152634672Y-122685132D01*
X152655825Y-122778055D01*
X152666186Y-122919466D01*
X152669543Y-123130791D01*
X152669779Y-123265737D01*
X152671056Y-123517430D01*
X152676902Y-123685424D01*
X152690348Y-123787813D01*
X152714420Y-123842690D01*
X152752145Y-123868148D01*
X152771583Y-123874107D01*
X152854198Y-123918948D01*
X152873387Y-123956397D01*
X152825007Y-123988632D01*
X152688787Y-124007722D01*
X152542525Y-124012064D01*
X152356939Y-124006966D01*
X152253790Y-123988753D01*
X152214086Y-123953039D01*
X152211663Y-123935711D01*
X152239149Y-123867973D01*
X152262565Y-123859358D01*
X152285888Y-123810828D01*
X152302848Y-123674473D01*
X152312121Y-123464148D01*
X152313467Y-123326680D01*
X152311419Y-123083910D01*
X152303167Y-122923310D01*
X152285547Y-122825294D01*
X152255396Y-122770273D01*
X152219306Y-122743609D01*
X152116256Y-122724281D01*
X151978237Y-122772299D01*
X151952072Y-122785892D01*
X151778998Y-122878569D01*
X151764236Y-123353075D01*
X151760145Y-123585791D01*
X151766889Y-123736345D01*
X151786833Y-123824024D01*
X151822347Y-123868118D01*
X151827863Y-123871450D01*
X151902063Y-123932953D01*
X151877888Y-123977695D01*
X151757577Y-124004427D01*
X151575391Y-124012064D01*
X151383797Y-124003924D01*
X151270334Y-123981005D01*
X151244529Y-123956397D01*
X151287024Y-123900109D01*
X151346332Y-123874107D01*
X151390393Y-123855266D01*
X151419544Y-123814129D01*
X151436830Y-123732565D01*
X151445298Y-123592442D01*
X151447992Y-123375629D01*
X151448136Y-123268051D01*
X151446954Y-123017812D01*
X151441447Y-122852106D01*
X151428671Y-122753674D01*
X151405684Y-122705253D01*
X151369541Y-122689584D01*
X151349337Y-122688617D01*
X151253101Y-122667011D01*
X151221343Y-122641380D01*
X151222494Y-122602646D01*
X151288116Y-122568069D01*
X151432366Y-122532095D01*
X151562665Y-122507510D01*
X151686818Y-122491017D01*
X151740681Y-122511478D01*
X151753383Y-122583943D01*
X151753547Y-122606129D01*
X151753547Y-122738578D01*
X152000960Y-122586343D01*
X152186567Y-122482935D01*
X152319939Y-122443128D01*
X152427265Y-122465608D01*
G36*
X150829928Y-122505197D02*
G01*
X150866881Y-122577697D01*
X150883663Y-122714369D01*
X150888161Y-122928627D01*
X150888216Y-123166247D01*
X150889050Y-123441396D01*
X150893232Y-123631458D01*
X150903282Y-123753147D01*
X150921720Y-123823175D01*
X150951065Y-123858256D01*
X150993838Y-123875104D01*
X150995141Y-123875446D01*
X151065932Y-123917653D01*
X151068490Y-123957736D01*
X151005064Y-123986592D01*
X150877515Y-124004634D01*
X150716374Y-124011920D01*
X150552173Y-124008503D01*
X150415444Y-123994440D01*
X150336720Y-123969784D01*
X150328296Y-123956397D01*
X150370791Y-123900109D01*
X150430100Y-123874107D01*
X150474161Y-123855266D01*
X150503311Y-123814129D01*
X150520598Y-123732565D01*
X150529065Y-123592442D01*
X150531760Y-123375629D01*
X150531904Y-123268051D01*
X150530804Y-123018037D01*
X150525476Y-122852511D01*
X150512880Y-122754164D01*
X150489974Y-122705688D01*
X150453718Y-122689773D01*
X150430100Y-122688617D01*
X150341424Y-122671484D01*
X150338212Y-122629682D01*
X150411919Y-122577604D01*
X150519178Y-122538588D01*
X150663964Y-122499056D01*
X150764918Y-122483454D01*
X150829928Y-122505197D01*
G37*
X150829928Y-122505197D02*
X150866881Y-122577697D01*
X150883663Y-122714369D01*
X150888161Y-122928627D01*
X150888216Y-123166247D01*
X150889050Y-123441396D01*
X150893232Y-123631458D01*
X150903282Y-123753147D01*
X150921720Y-123823175D01*
X150951065Y-123858256D01*
X150993838Y-123875104D01*
X150995141Y-123875446D01*
X151065932Y-123917653D01*
X151068490Y-123957736D01*
X151005064Y-123986592D01*
X150877515Y-124004634D01*
X150716374Y-124011920D01*
X150552173Y-124008503D01*
X150415444Y-123994440D01*
X150336720Y-123969784D01*
X150328296Y-123956397D01*
X150370791Y-123900109D01*
X150430100Y-123874107D01*
X150474161Y-123855266D01*
X150503311Y-123814129D01*
X150520598Y-123732565D01*
X150529065Y-123592442D01*
X150531760Y-123375629D01*
X150531904Y-123268051D01*
X150530804Y-123018037D01*
X150525476Y-122852511D01*
X150512880Y-122754164D01*
X150489974Y-122705688D01*
X150453718Y-122689773D01*
X150430100Y-122688617D01*
X150341424Y-122671484D01*
X150338212Y-122629682D01*
X150411919Y-122577604D01*
X150519178Y-122538588D01*
X150663964Y-122499056D01*
X150764918Y-122483454D01*
X150829928Y-122505197D01*
G36*
X149883843Y-121884332D02*
G01*
X149928772Y-121929355D01*
X149955246Y-122026915D01*
X149968077Y-122188496D01*
X149972076Y-122425580D01*
X149972055Y-122749651D01*
X149971984Y-122860836D01*
X149972463Y-123201022D01*
X149974817Y-123453096D01*
X149980423Y-123630751D01*
X149990654Y-123747679D01*
X150006888Y-123817569D01*
X150030499Y-123854115D01*
X150062864Y-123871007D01*
X150073787Y-123874107D01*
X150156402Y-123918948D01*
X150175591Y-123956397D01*
X150126840Y-123988106D01*
X149988011Y-124007137D01*
X149819278Y-124012064D01*
X149629504Y-124005049D01*
X149504452Y-123985879D01*
X149462966Y-123959564D01*
X149503643Y-123897579D01*
X149539318Y-123877766D01*
X149567636Y-123852122D01*
X149588189Y-123791111D01*
X149602123Y-123681106D01*
X149610581Y-123508480D01*
X149614710Y-123259607D01*
X149615671Y-122969068D01*
X149615270Y-122650918D01*
X149612839Y-122419840D01*
X149606535Y-122261103D01*
X149594516Y-122159977D01*
X149574938Y-122101728D01*
X149545959Y-122071628D01*
X149505737Y-122054944D01*
X149501142Y-122053483D01*
X149439768Y-122027759D01*
X149451879Y-122002023D01*
X149548171Y-121963806D01*
X149590220Y-121949654D01*
X149719379Y-121905965D01*
X149815649Y-121880363D01*
X149883843Y-121884332D01*
G37*
X149883843Y-121884332D02*
X149928772Y-121929355D01*
X149955246Y-122026915D01*
X149968077Y-122188496D01*
X149972076Y-122425580D01*
X149972055Y-122749651D01*
X149971984Y-122860836D01*
X149972463Y-123201022D01*
X149974817Y-123453096D01*
X149980423Y-123630751D01*
X149990654Y-123747679D01*
X150006888Y-123817569D01*
X150030499Y-123854115D01*
X150062864Y-123871007D01*
X150073787Y-123874107D01*
X150156402Y-123918948D01*
X150175591Y-123956397D01*
X150126840Y-123988106D01*
X149988011Y-124007137D01*
X149819278Y-124012064D01*
X149629504Y-124005049D01*
X149504452Y-123985879D01*
X149462966Y-123959564D01*
X149503643Y-123897579D01*
X149539318Y-123877766D01*
X149567636Y-123852122D01*
X149588189Y-123791111D01*
X149602123Y-123681106D01*
X149610581Y-123508480D01*
X149614710Y-123259607D01*
X149615671Y-122969068D01*
X149615270Y-122650918D01*
X149612839Y-122419840D01*
X149606535Y-122261103D01*
X149594516Y-122159977D01*
X149574938Y-122101728D01*
X149545959Y-122071628D01*
X149505737Y-122054944D01*
X149501142Y-122053483D01*
X149439768Y-122027759D01*
X149451879Y-122002023D01*
X149548171Y-121963806D01*
X149590220Y-121949654D01*
X149719379Y-121905965D01*
X149815649Y-121880363D01*
X149883843Y-121884332D01*
G36*
X147954884Y-122507532D02*
G01*
X147986813Y-122557199D01*
X147954137Y-122707789D01*
X147861133Y-122783388D01*
X147808594Y-122790420D01*
X147698828Y-122824056D01*
X147568983Y-122907809D01*
X147534080Y-122938097D01*
X147452991Y-123020568D01*
X147405733Y-123099573D01*
X147383224Y-123205632D01*
X147376380Y-123369268D01*
X147375992Y-123469341D01*
X147375992Y-123852908D01*
X147541423Y-123868859D01*
X147673458Y-123891171D01*
X147713597Y-123919971D01*
X147671114Y-123950427D01*
X147555286Y-123977708D01*
X147375388Y-123996986D01*
X147286914Y-124001397D01*
X147052980Y-124003647D01*
X146914697Y-123990100D01*
X146867066Y-123960246D01*
X146866974Y-123958455D01*
X146909492Y-123900482D01*
X146968777Y-123874107D01*
X147012838Y-123855266D01*
X147041989Y-123814129D01*
X147059275Y-123732565D01*
X147067743Y-123592442D01*
X147070437Y-123375629D01*
X147070581Y-123268051D01*
X147069481Y-123018037D01*
X147064153Y-122852511D01*
X147051557Y-122754164D01*
X147028652Y-122705688D01*
X146992395Y-122689773D01*
X146968777Y-122688617D01*
X146880101Y-122671484D01*
X146876889Y-122629682D01*
X146950596Y-122577604D01*
X147057855Y-122538588D01*
X147226187Y-122497438D01*
X147321198Y-122499695D01*
X147366176Y-122556664D01*
X147384411Y-122679651D01*
X147385790Y-122697780D01*
X147401443Y-122910550D01*
X147548345Y-122697780D01*
X147657776Y-122560929D01*
X147756032Y-122497219D01*
X147841031Y-122485010D01*
X147954884Y-122507532D01*
G37*
X147954884Y-122507532D02*
X147986813Y-122557199D01*
X147954137Y-122707789D01*
X147861133Y-122783388D01*
X147808594Y-122790420D01*
X147698828Y-122824056D01*
X147568983Y-122907809D01*
X147534080Y-122938097D01*
X147452991Y-123020568D01*
X147405733Y-123099573D01*
X147383224Y-123205632D01*
X147376380Y-123369268D01*
X147375992Y-123469341D01*
X147375992Y-123852908D01*
X147541423Y-123868859D01*
X147673458Y-123891171D01*
X147713597Y-123919971D01*
X147671114Y-123950427D01*
X147555286Y-123977708D01*
X147375388Y-123996986D01*
X147286914Y-124001397D01*
X147052980Y-124003647D01*
X146914697Y-123990100D01*
X146867066Y-123960246D01*
X146866974Y-123958455D01*
X146909492Y-123900482D01*
X146968777Y-123874107D01*
X147012838Y-123855266D01*
X147041989Y-123814129D01*
X147059275Y-123732565D01*
X147067743Y-123592442D01*
X147070437Y-123375629D01*
X147070581Y-123268051D01*
X147069481Y-123018037D01*
X147064153Y-122852511D01*
X147051557Y-122754164D01*
X147028652Y-122705688D01*
X146992395Y-122689773D01*
X146968777Y-122688617D01*
X146880101Y-122671484D01*
X146876889Y-122629682D01*
X146950596Y-122577604D01*
X147057855Y-122538588D01*
X147226187Y-122497438D01*
X147321198Y-122499695D01*
X147366176Y-122556664D01*
X147384411Y-122679651D01*
X147385790Y-122697780D01*
X147401443Y-122910550D01*
X147548345Y-122697780D01*
X147657776Y-122560929D01*
X147756032Y-122497219D01*
X147841031Y-122485010D01*
X147954884Y-122507532D01*
G36*
X141569025Y-121898085D02*
G01*
X141575797Y-121901253D01*
X141599143Y-121963196D01*
X141616285Y-122099242D01*
X141623956Y-122281735D01*
X141624088Y-122309857D01*
X141627363Y-122491553D01*
X141636021Y-122625651D01*
X141648311Y-122687173D01*
X141650630Y-122688617D01*
X141705147Y-122662922D01*
X141813128Y-122597767D01*
X141876603Y-122556640D01*
X142065745Y-122469722D01*
X142241841Y-122456897D01*
X142381785Y-122516893D01*
X142438940Y-122587604D01*
X142459192Y-122674690D01*
X142475569Y-122838845D01*
X142486229Y-123055355D01*
X142489419Y-123264704D01*
X142490690Y-123516654D01*
X142496519Y-123684889D01*
X142509925Y-123787483D01*
X142533926Y-123842515D01*
X142571544Y-123868059D01*
X142591222Y-123874107D01*
X142673837Y-123918948D01*
X142693026Y-123956397D01*
X142644646Y-123988632D01*
X142508426Y-124007722D01*
X142362164Y-124012064D01*
X142174265Y-124001967D01*
X142058645Y-123974888D01*
X142024437Y-123935649D01*
X142080778Y-123889069D01*
X142107655Y-123877766D01*
X142144244Y-123842960D01*
X142167488Y-123760814D01*
X142179893Y-123613974D01*
X142183961Y-123385082D01*
X142184008Y-123348530D01*
X142177874Y-123066926D01*
X142155238Y-122875728D01*
X142109745Y-122764046D01*
X142035041Y-122720988D01*
X141924773Y-122735665D01*
X141843884Y-122765559D01*
X141723147Y-122814126D01*
X141650030Y-122840009D01*
X141643323Y-122841322D01*
X141635248Y-122888631D01*
X141628843Y-123016190D01*
X141624921Y-123202451D01*
X141624088Y-123350340D01*
X141628927Y-123586805D01*
X141642468Y-123757765D01*
X141663242Y-123848554D01*
X141674990Y-123859358D01*
X141720149Y-123900587D01*
X141725892Y-123935711D01*
X141703803Y-123978538D01*
X141624876Y-124002342D01*
X141470119Y-124011505D01*
X141395030Y-124012064D01*
X141203436Y-124003924D01*
X141089974Y-123981005D01*
X141064168Y-123956397D01*
X141106663Y-123900109D01*
X141165972Y-123874107D01*
X141202756Y-123859412D01*
X141229428Y-123827827D01*
X141247607Y-123764857D01*
X141258912Y-123656006D01*
X141264961Y-123486779D01*
X141267374Y-123242680D01*
X141267775Y-122962640D01*
X141267262Y-122643320D01*
X141264645Y-122411740D01*
X141258306Y-122253840D01*
X141246627Y-122155558D01*
X141227990Y-122102832D01*
X141200777Y-122081600D01*
X141165972Y-122077795D01*
X141083220Y-122058986D01*
X141064168Y-122032936D01*
X141108587Y-121994871D01*
X141217619Y-121953001D01*
X141354927Y-121916678D01*
X141484175Y-121895255D01*
X141569025Y-121898085D01*
G37*
X141569025Y-121898085D02*
X141575797Y-121901253D01*
X141599143Y-121963196D01*
X141616285Y-122099242D01*
X141623956Y-122281735D01*
X141624088Y-122309857D01*
X141627363Y-122491553D01*
X141636021Y-122625651D01*
X141648311Y-122687173D01*
X141650630Y-122688617D01*
X141705147Y-122662922D01*
X141813128Y-122597767D01*
X141876603Y-122556640D01*
X142065745Y-122469722D01*
X142241841Y-122456897D01*
X142381785Y-122516893D01*
X142438940Y-122587604D01*
X142459192Y-122674690D01*
X142475569Y-122838845D01*
X142486229Y-123055355D01*
X142489419Y-123264704D01*
X142490690Y-123516654D01*
X142496519Y-123684889D01*
X142509925Y-123787483D01*
X142533926Y-123842515D01*
X142571544Y-123868059D01*
X142591222Y-123874107D01*
X142673837Y-123918948D01*
X142693026Y-123956397D01*
X142644646Y-123988632D01*
X142508426Y-124007722D01*
X142362164Y-124012064D01*
X142174265Y-124001967D01*
X142058645Y-123974888D01*
X142024437Y-123935649D01*
X142080778Y-123889069D01*
X142107655Y-123877766D01*
X142144244Y-123842960D01*
X142167488Y-123760814D01*
X142179893Y-123613974D01*
X142183961Y-123385082D01*
X142184008Y-123348530D01*
X142177874Y-123066926D01*
X142155238Y-122875728D01*
X142109745Y-122764046D01*
X142035041Y-122720988D01*
X141924773Y-122735665D01*
X141843884Y-122765559D01*
X141723147Y-122814126D01*
X141650030Y-122840009D01*
X141643323Y-122841322D01*
X141635248Y-122888631D01*
X141628843Y-123016190D01*
X141624921Y-123202451D01*
X141624088Y-123350340D01*
X141628927Y-123586805D01*
X141642468Y-123757765D01*
X141663242Y-123848554D01*
X141674990Y-123859358D01*
X141720149Y-123900587D01*
X141725892Y-123935711D01*
X141703803Y-123978538D01*
X141624876Y-124002342D01*
X141470119Y-124011505D01*
X141395030Y-124012064D01*
X141203436Y-124003924D01*
X141089974Y-123981005D01*
X141064168Y-123956397D01*
X141106663Y-123900109D01*
X141165972Y-123874107D01*
X141202756Y-123859412D01*
X141229428Y-123827827D01*
X141247607Y-123764857D01*
X141258912Y-123656006D01*
X141264961Y-123486779D01*
X141267374Y-123242680D01*
X141267775Y-122962640D01*
X141267262Y-122643320D01*
X141264645Y-122411740D01*
X141258306Y-122253840D01*
X141246627Y-122155558D01*
X141227990Y-122102832D01*
X141200777Y-122081600D01*
X141165972Y-122077795D01*
X141083220Y-122058986D01*
X141064168Y-122032936D01*
X141108587Y-121994871D01*
X141217619Y-121953001D01*
X141354927Y-121916678D01*
X141484175Y-121895255D01*
X141569025Y-121898085D01*
G36*
X153746940Y-122453691D02*
G01*
X153801315Y-122466531D01*
X153917296Y-122516105D01*
X153999045Y-122597988D01*
X154052010Y-122727991D01*
X154081640Y-122921928D01*
X154093382Y-123195612D01*
X154094279Y-123316929D01*
X154096030Y-123561141D01*
X154102686Y-123722166D01*
X154117545Y-123818607D01*
X154143905Y-123869068D01*
X154185063Y-123892153D01*
X154196833Y-123895511D01*
X154286046Y-123941344D01*
X154281928Y-123989367D01*
X154187396Y-124012724D01*
X154184108Y-124012759D01*
X154035767Y-124027258D01*
X153957358Y-124043543D01*
X153868563Y-124045905D01*
X153821135Y-123974075D01*
X153811860Y-123941044D01*
X153782725Y-123847226D01*
X153742746Y-123818173D01*
X153667916Y-123853385D01*
X153556036Y-123935711D01*
X153432254Y-124024180D01*
X153346837Y-124055199D01*
X153259044Y-124035399D01*
X153178797Y-123997098D01*
X153030862Y-123876213D01*
X152958638Y-123716106D01*
X152970631Y-123574487D01*
X153280601Y-123574487D01*
X153314716Y-123726972D01*
X153409461Y-123801769D01*
X153553436Y-123793133D01*
X153640260Y-123755764D01*
X153699036Y-123684038D01*
X153734432Y-123567017D01*
X153743734Y-123440249D01*
X153724227Y-123339285D01*
X153675090Y-123299629D01*
X153575043Y-123328299D01*
X153452936Y-123397428D01*
X153344116Y-123482388D01*
X153283928Y-123558553D01*
X153280601Y-123574487D01*
X152970631Y-123574487D01*
X152973190Y-123544274D01*
X152985138Y-123515771D01*
X153049240Y-123426285D01*
X153160338Y-123353460D01*
X153343098Y-123281980D01*
X153382405Y-123269074D01*
X153713266Y-123162356D01*
X153713266Y-122663166D01*
X153537405Y-122663166D01*
X153411812Y-122676641D01*
X153351044Y-122731528D01*
X153331797Y-122790420D01*
X153282720Y-122887032D01*
X153175303Y-122929084D01*
X153138621Y-122933625D01*
X153025632Y-122934779D01*
X152981507Y-122893889D01*
X152975190Y-122824824D01*
X152989521Y-122751687D01*
X153045713Y-122689685D01*
X153163563Y-122622931D01*
X153305669Y-122559616D01*
X153499368Y-122483819D01*
X153635739Y-122450524D01*
X153746940Y-122453691D01*
G37*
X153746940Y-122453691D02*
X153801315Y-122466531D01*
X153917296Y-122516105D01*
X153999045Y-122597988D01*
X154052010Y-122727991D01*
X154081640Y-122921928D01*
X154093382Y-123195612D01*
X154094279Y-123316929D01*
X154096030Y-123561141D01*
X154102686Y-123722166D01*
X154117545Y-123818607D01*
X154143905Y-123869068D01*
X154185063Y-123892153D01*
X154196833Y-123895511D01*
X154286046Y-123941344D01*
X154281928Y-123989367D01*
X154187396Y-124012724D01*
X154184108Y-124012759D01*
X154035767Y-124027258D01*
X153957358Y-124043543D01*
X153868563Y-124045905D01*
X153821135Y-123974075D01*
X153811860Y-123941044D01*
X153782725Y-123847226D01*
X153742746Y-123818173D01*
X153667916Y-123853385D01*
X153556036Y-123935711D01*
X153432254Y-124024180D01*
X153346837Y-124055199D01*
X153259044Y-124035399D01*
X153178797Y-123997098D01*
X153030862Y-123876213D01*
X152958638Y-123716106D01*
X152970631Y-123574487D01*
X153280601Y-123574487D01*
X153314716Y-123726972D01*
X153409461Y-123801769D01*
X153553436Y-123793133D01*
X153640260Y-123755764D01*
X153699036Y-123684038D01*
X153734432Y-123567017D01*
X153743734Y-123440249D01*
X153724227Y-123339285D01*
X153675090Y-123299629D01*
X153575043Y-123328299D01*
X153452936Y-123397428D01*
X153344116Y-123482388D01*
X153283928Y-123558553D01*
X153280601Y-123574487D01*
X152970631Y-123574487D01*
X152973190Y-123544274D01*
X152985138Y-123515771D01*
X153049240Y-123426285D01*
X153160338Y-123353460D01*
X153343098Y-123281980D01*
X153382405Y-123269074D01*
X153713266Y-123162356D01*
X153713266Y-122663166D01*
X153537405Y-122663166D01*
X153411812Y-122676641D01*
X153351044Y-122731528D01*
X153331797Y-122790420D01*
X153282720Y-122887032D01*
X153175303Y-122929084D01*
X153138621Y-122933625D01*
X153025632Y-122934779D01*
X152981507Y-122893889D01*
X152975190Y-122824824D01*
X152989521Y-122751687D01*
X153045713Y-122689685D01*
X153163563Y-122622931D01*
X153305669Y-122559616D01*
X153499368Y-122483819D01*
X153635739Y-122450524D01*
X153746940Y-122453691D01*
G36*
X148873892Y-122454699D02*
G01*
X148981367Y-122500662D01*
X149015169Y-122519948D01*
X149157607Y-122630323D01*
X149287324Y-122772724D01*
X149301867Y-122793173D01*
X149372759Y-122918647D01*
X149403344Y-123047586D01*
X149402977Y-123224436D01*
X149400546Y-123261946D01*
X149351697Y-123533331D01*
X149241195Y-123735051D01*
X149057500Y-123886060D01*
X149001964Y-123916491D01*
X148787406Y-124009691D01*
X148618176Y-124038319D01*
X148463448Y-124005364D01*
X148397646Y-123975058D01*
X148182175Y-123810753D01*
X148044549Y-123586890D01*
X147989737Y-123315000D01*
X147994834Y-123249155D01*
X148344140Y-123249155D01*
X148380982Y-123475677D01*
X148420019Y-123588542D01*
X148529616Y-123783964D01*
X148652686Y-123884978D01*
X148783700Y-123889021D01*
X148900207Y-123811296D01*
X148994933Y-123658749D01*
X149043348Y-123456334D01*
X149048743Y-123229953D01*
X149014410Y-123005507D01*
X148943642Y-122808896D01*
X148839730Y-122666022D01*
X148747709Y-122611429D01*
X148609190Y-122611667D01*
X148493404Y-122693956D01*
X148406520Y-122839898D01*
X148354709Y-123031097D01*
X148344140Y-123249155D01*
X147994834Y-123249155D01*
X148008513Y-123072474D01*
X148093120Y-122870734D01*
X148254274Y-122686606D01*
X148466929Y-122544284D01*
X148614021Y-122487548D01*
X148767562Y-122451629D01*
X148873892Y-122454699D01*
G37*
X148873892Y-122454699D02*
X148981367Y-122500662D01*
X149015169Y-122519948D01*
X149157607Y-122630323D01*
X149287324Y-122772724D01*
X149301867Y-122793173D01*
X149372759Y-122918647D01*
X149403344Y-123047586D01*
X149402977Y-123224436D01*
X149400546Y-123261946D01*
X149351697Y-123533331D01*
X149241195Y-123735051D01*
X149057500Y-123886060D01*
X149001964Y-123916491D01*
X148787406Y-124009691D01*
X148618176Y-124038319D01*
X148463448Y-124005364D01*
X148397646Y-123975058D01*
X148182175Y-123810753D01*
X148044549Y-123586890D01*
X147989737Y-123315000D01*
X147994834Y-123249155D01*
X148344140Y-123249155D01*
X148380982Y-123475677D01*
X148420019Y-123588542D01*
X148529616Y-123783964D01*
X148652686Y-123884978D01*
X148783700Y-123889021D01*
X148900207Y-123811296D01*
X148994933Y-123658749D01*
X149043348Y-123456334D01*
X149048743Y-123229953D01*
X149014410Y-123005507D01*
X148943642Y-122808896D01*
X148839730Y-122666022D01*
X148747709Y-122611429D01*
X148609190Y-122611667D01*
X148493404Y-122693956D01*
X148406520Y-122839898D01*
X148354709Y-123031097D01*
X148344140Y-123249155D01*
X147994834Y-123249155D01*
X148008513Y-123072474D01*
X148093120Y-122870734D01*
X148254274Y-122686606D01*
X148466929Y-122544284D01*
X148614021Y-122487548D01*
X148767562Y-122451629D01*
X148873892Y-122454699D01*
G36*
X146241964Y-122458522D02*
G01*
X146367009Y-122495449D01*
X146455338Y-122562400D01*
X146512919Y-122674908D01*
X146545721Y-122848503D01*
X146559713Y-123098715D01*
X146561563Y-123290079D01*
X146562851Y-123541039D01*
X146568751Y-123708350D01*
X146582312Y-123810154D01*
X146606584Y-123864591D01*
X146644620Y-123889806D01*
X146663367Y-123895511D01*
X146752890Y-123935430D01*
X146746301Y-123977204D01*
X146648843Y-124013168D01*
X146574288Y-124025734D01*
X146399479Y-124018195D01*
X146286978Y-123935619D01*
X146241994Y-123842336D01*
X146195840Y-123837606D01*
X146099492Y-123887077D01*
X146044472Y-123925907D01*
X145916373Y-124016863D01*
X145828182Y-124052150D01*
X145742687Y-124042554D01*
X145696232Y-124026854D01*
X145535034Y-123922097D01*
X145451056Y-123764728D01*
X145442503Y-123686038D01*
X145453324Y-123581238D01*
X145767178Y-123581238D01*
X145777605Y-123700175D01*
X145800063Y-123734547D01*
X145911469Y-123802956D01*
X146058893Y-123778752D01*
X146106793Y-123755764D01*
X146178202Y-123680713D01*
X146204487Y-123541898D01*
X146205250Y-123501255D01*
X146202066Y-123367485D01*
X146175857Y-123312548D01*
X146101634Y-123322047D01*
X145979462Y-123371144D01*
X145838396Y-123463596D01*
X145767178Y-123581238D01*
X145453324Y-123581238D01*
X145457226Y-123543459D01*
X145512298Y-123441499D01*
X145626584Y-123361350D01*
X145818946Y-123284206D01*
X145859258Y-123270542D01*
X146179799Y-123163516D01*
X146179799Y-122663166D01*
X146001643Y-122663166D01*
X145879488Y-122673634D01*
X145824935Y-122721074D01*
X145807380Y-122803146D01*
X145778154Y-122904687D01*
X145700257Y-122940517D01*
X145641949Y-122943126D01*
X145534419Y-122928721D01*
X145495783Y-122867845D01*
X145492625Y-122815230D01*
X145508036Y-122736195D01*
X145568152Y-122670435D01*
X145693798Y-122599622D01*
X145785310Y-122557652D01*
X146010076Y-122474665D01*
X146182266Y-122451963D01*
X146241964Y-122458522D01*
G37*
X146241964Y-122458522D02*
X146367009Y-122495449D01*
X146455338Y-122562400D01*
X146512919Y-122674908D01*
X146545721Y-122848503D01*
X146559713Y-123098715D01*
X146561563Y-123290079D01*
X146562851Y-123541039D01*
X146568751Y-123708350D01*
X146582312Y-123810154D01*
X146606584Y-123864591D01*
X146644620Y-123889806D01*
X146663367Y-123895511D01*
X146752890Y-123935430D01*
X146746301Y-123977204D01*
X146648843Y-124013168D01*
X146574288Y-124025734D01*
X146399479Y-124018195D01*
X146286978Y-123935619D01*
X146241994Y-123842336D01*
X146195840Y-123837606D01*
X146099492Y-123887077D01*
X146044472Y-123925907D01*
X145916373Y-124016863D01*
X145828182Y-124052150D01*
X145742687Y-124042554D01*
X145696232Y-124026854D01*
X145535034Y-123922097D01*
X145451056Y-123764728D01*
X145442503Y-123686038D01*
X145453324Y-123581238D01*
X145767178Y-123581238D01*
X145777605Y-123700175D01*
X145800063Y-123734547D01*
X145911469Y-123802956D01*
X146058893Y-123778752D01*
X146106793Y-123755764D01*
X146178202Y-123680713D01*
X146204487Y-123541898D01*
X146205250Y-123501255D01*
X146202066Y-123367485D01*
X146175857Y-123312548D01*
X146101634Y-123322047D01*
X145979462Y-123371144D01*
X145838396Y-123463596D01*
X145767178Y-123581238D01*
X145453324Y-123581238D01*
X145457226Y-123543459D01*
X145512298Y-123441499D01*
X145626584Y-123361350D01*
X145818946Y-123284206D01*
X145859258Y-123270542D01*
X146179799Y-123163516D01*
X146179799Y-122663166D01*
X146001643Y-122663166D01*
X145879488Y-122673634D01*
X145824935Y-122721074D01*
X145807380Y-122803146D01*
X145778154Y-122904687D01*
X145700257Y-122940517D01*
X145641949Y-122943126D01*
X145534419Y-122928721D01*
X145495783Y-122867845D01*
X145492625Y-122815230D01*
X145508036Y-122736195D01*
X145568152Y-122670435D01*
X145693798Y-122599622D01*
X145785310Y-122557652D01*
X146010076Y-122474665D01*
X146182266Y-122451963D01*
X146241964Y-122458522D01*
G36*
X144810924Y-121874155D02*
G01*
X145047234Y-121947164D01*
X145167266Y-122013662D01*
X145222430Y-122086677D01*
X145237627Y-122207248D01*
X145238116Y-122261751D01*
X145230618Y-122403511D01*
X145200833Y-122469466D01*
X145141831Y-122485010D01*
X145051513Y-122438980D01*
X145013960Y-122359164D01*
X144921864Y-122177923D01*
X144757664Y-122065595D01*
X144528267Y-122026894D01*
X144527219Y-122026893D01*
X144291405Y-122061042D01*
X144115840Y-122166730D01*
X143997116Y-122348821D01*
X143931827Y-122612179D01*
X143915787Y-122899917D01*
X143945512Y-123256721D01*
X144031542Y-123532567D01*
X144172712Y-123725697D01*
X144367860Y-123834355D01*
X144550942Y-123859358D01*
X144776471Y-123823601D01*
X144935792Y-123712677D01*
X145034561Y-123528339D01*
X145103899Y-123392623D01*
X145191763Y-123350340D01*
X145251858Y-123362384D01*
X145272603Y-123416284D01*
X145262175Y-123538696D01*
X145258122Y-123566673D01*
X145219917Y-123725581D01*
X145147101Y-123834954D01*
X145017528Y-123915615D01*
X144809822Y-123988157D01*
X144593173Y-124042451D01*
X144425775Y-124054181D01*
X144264834Y-124024277D01*
X144194629Y-124001550D01*
X143914499Y-123853458D01*
X143701911Y-123634143D01*
X143564103Y-123354401D01*
X143508309Y-123025026D01*
X143507455Y-122976322D01*
X143519894Y-122780983D01*
X143551702Y-122600360D01*
X143576681Y-122521551D01*
X143731974Y-122274888D01*
X143955714Y-122077962D01*
X144225232Y-121939629D01*
X144517858Y-121868741D01*
X144810924Y-121874155D01*
G37*
X144810924Y-121874155D02*
X145047234Y-121947164D01*
X145167266Y-122013662D01*
X145222430Y-122086677D01*
X145237627Y-122207248D01*
X145238116Y-122261751D01*
X145230618Y-122403511D01*
X145200833Y-122469466D01*
X145141831Y-122485010D01*
X145051513Y-122438980D01*
X145013960Y-122359164D01*
X144921864Y-122177923D01*
X144757664Y-122065595D01*
X144528267Y-122026894D01*
X144527219Y-122026893D01*
X144291405Y-122061042D01*
X144115840Y-122166730D01*
X143997116Y-122348821D01*
X143931827Y-122612179D01*
X143915787Y-122899917D01*
X143945512Y-123256721D01*
X144031542Y-123532567D01*
X144172712Y-123725697D01*
X144367860Y-123834355D01*
X144550942Y-123859358D01*
X144776471Y-123823601D01*
X144935792Y-123712677D01*
X145034561Y-123528339D01*
X145103899Y-123392623D01*
X145191763Y-123350340D01*
X145251858Y-123362384D01*
X145272603Y-123416284D01*
X145262175Y-123538696D01*
X145258122Y-123566673D01*
X145219917Y-123725581D01*
X145147101Y-123834954D01*
X145017528Y-123915615D01*
X144809822Y-123988157D01*
X144593173Y-124042451D01*
X144425775Y-124054181D01*
X144264834Y-124024277D01*
X144194629Y-124001550D01*
X143914499Y-123853458D01*
X143701911Y-123634143D01*
X143564103Y-123354401D01*
X143508309Y-123025026D01*
X143507455Y-122976322D01*
X143519894Y-122780983D01*
X143551702Y-122600360D01*
X143576681Y-122521551D01*
X143731974Y-122274888D01*
X143955714Y-122077962D01*
X144225232Y-121939629D01*
X144517858Y-121868741D01*
X144810924Y-121874155D01*
G36*
X140587181Y-122174066D02*
G01*
X140605800Y-122289389D01*
X140606052Y-122306853D01*
X140613932Y-122426259D01*
X140658388Y-122475229D01*
X140770648Y-122484987D01*
X140784208Y-122485010D01*
X140915976Y-122501567D01*
X140962042Y-122554408D01*
X140962365Y-122561362D01*
X140923731Y-122617834D01*
X140800434Y-122637577D01*
X140784208Y-122637715D01*
X140606052Y-122637715D01*
X140606052Y-123165951D01*
X140612193Y-123446238D01*
X140633903Y-123637446D01*
X140676108Y-123751741D01*
X140743734Y-123801292D01*
X140841710Y-123798266D01*
X140860290Y-123793779D01*
X140944665Y-123793532D01*
X140960869Y-123840581D01*
X140914615Y-123912185D01*
X140812187Y-123985306D01*
X140685800Y-124044503D01*
X140597880Y-124055302D01*
X140498249Y-124019369D01*
X140453609Y-123997215D01*
X140378604Y-123943877D01*
X140325294Y-123861088D01*
X140289929Y-123732488D01*
X140268757Y-123541713D01*
X140258030Y-123272404D01*
X140255762Y-123134008D01*
X140251470Y-122905669D01*
X140242597Y-122760501D01*
X140225095Y-122679874D01*
X140194916Y-122645156D01*
X140148013Y-122637715D01*
X140147936Y-122637715D01*
X140061228Y-122615262D01*
X140058238Y-122562559D01*
X140135301Y-122501589D01*
X140173387Y-122485010D01*
X140268052Y-122425765D01*
X140300641Y-122366904D01*
X140339922Y-122275905D01*
X140429619Y-122183602D01*
X140527512Y-122130911D01*
X140546433Y-122128697D01*
X140587181Y-122174066D01*
G37*
X140587181Y-122174066D02*
X140605800Y-122289389D01*
X140606052Y-122306853D01*
X140613932Y-122426259D01*
X140658388Y-122475229D01*
X140770648Y-122484987D01*
X140784208Y-122485010D01*
X140915976Y-122501567D01*
X140962042Y-122554408D01*
X140962365Y-122561362D01*
X140923731Y-122617834D01*
X140800434Y-122637577D01*
X140784208Y-122637715D01*
X140606052Y-122637715D01*
X140606052Y-123165951D01*
X140612193Y-123446238D01*
X140633903Y-123637446D01*
X140676108Y-123751741D01*
X140743734Y-123801292D01*
X140841710Y-123798266D01*
X140860290Y-123793779D01*
X140944665Y-123793532D01*
X140960869Y-123840581D01*
X140914615Y-123912185D01*
X140812187Y-123985306D01*
X140685800Y-124044503D01*
X140597880Y-124055302D01*
X140498249Y-124019369D01*
X140453609Y-123997215D01*
X140378604Y-123943877D01*
X140325294Y-123861088D01*
X140289929Y-123732488D01*
X140268757Y-123541713D01*
X140258030Y-123272404D01*
X140255762Y-123134008D01*
X140251470Y-122905669D01*
X140242597Y-122760501D01*
X140225095Y-122679874D01*
X140194916Y-122645156D01*
X140148013Y-122637715D01*
X140147936Y-122637715D01*
X140061228Y-122615262D01*
X140058238Y-122562559D01*
X140135301Y-122501589D01*
X140173387Y-122485010D01*
X140268052Y-122425765D01*
X140300641Y-122366904D01*
X140339922Y-122275905D01*
X140429619Y-122183602D01*
X140527512Y-122130911D01*
X140546433Y-122128697D01*
X140587181Y-122174066D01*
G36*
X139842525Y-123112986D02*
G01*
X139843754Y-123380459D01*
X139849192Y-123564092D01*
X139861468Y-123681834D01*
X139883209Y-123751636D01*
X139917042Y-123791449D01*
X139944328Y-123808457D01*
X140032642Y-123875384D01*
X140021632Y-123929739D01*
X139910438Y-123972944D01*
X139836226Y-123987677D01*
X139679832Y-123999716D01*
X139587018Y-123959008D01*
X139526959Y-123850904D01*
X139522538Y-123838599D01*
X139474181Y-123835925D01*
X139367197Y-123878392D01*
X139275455Y-123927677D01*
X139125182Y-124012047D01*
X139026261Y-124049700D01*
X138943449Y-124047447D01*
X138841503Y-124012096D01*
X138840542Y-124011708D01*
X138749093Y-123957239D01*
X138686107Y-123869045D01*
X138646878Y-123730310D01*
X138626705Y-123524222D01*
X138620884Y-123233965D01*
X138620882Y-123226432D01*
X138619620Y-122987121D01*
X138613570Y-122831660D01*
X138599335Y-122742103D01*
X138573518Y-122700506D01*
X138532724Y-122688926D01*
X138519078Y-122688617D01*
X138434458Y-122662409D01*
X138420352Y-122605749D01*
X138455451Y-122569323D01*
X138524899Y-122548406D01*
X138657390Y-122522196D01*
X138733799Y-122509879D01*
X138973972Y-122473934D01*
X138988308Y-123103019D01*
X138994955Y-123364990D01*
X139003183Y-123542357D01*
X139016620Y-123652295D01*
X139038891Y-123711983D01*
X139073623Y-123738598D01*
X139124444Y-123749319D01*
X139124771Y-123749365D01*
X139265383Y-123738666D01*
X139366554Y-123702587D01*
X139422723Y-123665799D01*
X139457892Y-123613877D01*
X139476941Y-123524834D01*
X139484754Y-123376682D01*
X139486212Y-123163583D01*
X139483402Y-122935423D01*
X139473129Y-122791781D01*
X139452633Y-122715479D01*
X139419152Y-122689341D01*
X139409859Y-122688617D01*
X139341271Y-122656326D01*
X139347929Y-122591609D01*
X139376538Y-122566226D01*
X139450411Y-122542067D01*
X139582608Y-122514062D01*
X139631047Y-122505815D01*
X139842525Y-122471998D01*
X139842525Y-123112986D01*
G37*
X139842525Y-123112986D02*
X139843754Y-123380459D01*
X139849192Y-123564092D01*
X139861468Y-123681834D01*
X139883209Y-123751636D01*
X139917042Y-123791449D01*
X139944328Y-123808457D01*
X140032642Y-123875384D01*
X140021632Y-123929739D01*
X139910438Y-123972944D01*
X139836226Y-123987677D01*
X139679832Y-123999716D01*
X139587018Y-123959008D01*
X139526959Y-123850904D01*
X139522538Y-123838599D01*
X139474181Y-123835925D01*
X139367197Y-123878392D01*
X139275455Y-123927677D01*
X139125182Y-124012047D01*
X139026261Y-124049700D01*
X138943449Y-124047447D01*
X138841503Y-124012096D01*
X138840542Y-124011708D01*
X138749093Y-123957239D01*
X138686107Y-123869045D01*
X138646878Y-123730310D01*
X138626705Y-123524222D01*
X138620884Y-123233965D01*
X138620882Y-123226432D01*
X138619620Y-122987121D01*
X138613570Y-122831660D01*
X138599335Y-122742103D01*
X138573518Y-122700506D01*
X138532724Y-122688926D01*
X138519078Y-122688617D01*
X138434458Y-122662409D01*
X138420352Y-122605749D01*
X138455451Y-122569323D01*
X138524899Y-122548406D01*
X138657390Y-122522196D01*
X138733799Y-122509879D01*
X138973972Y-122473934D01*
X138988308Y-123103019D01*
X138994955Y-123364990D01*
X139003183Y-123542357D01*
X139016620Y-123652295D01*
X139038891Y-123711983D01*
X139073623Y-123738598D01*
X139124444Y-123749319D01*
X139124771Y-123749365D01*
X139265383Y-123738666D01*
X139366554Y-123702587D01*
X139422723Y-123665799D01*
X139457892Y-123613877D01*
X139476941Y-123524834D01*
X139484754Y-123376682D01*
X139486212Y-123163583D01*
X139483402Y-122935423D01*
X139473129Y-122791781D01*
X139452633Y-122715479D01*
X139419152Y-122689341D01*
X139409859Y-122688617D01*
X139341271Y-122656326D01*
X139347929Y-122591609D01*
X139376538Y-122566226D01*
X139450411Y-122542067D01*
X139582608Y-122514062D01*
X139631047Y-122505815D01*
X139842525Y-122471998D01*
X139842525Y-123112986D01*
G36*
X138003955Y-122546116D02*
G01*
X138178256Y-122717029D01*
X138251843Y-122839382D01*
X138344863Y-123084151D01*
X138354372Y-123307191D01*
X138280831Y-123544325D01*
X138261489Y-123585760D01*
X138162372Y-123743348D01*
X138023564Y-123861188D01*
X137895182Y-123932693D01*
X137709568Y-124018401D01*
X137576534Y-124054201D01*
X137461198Y-124042279D01*
X137328677Y-123984821D01*
X137300573Y-123969954D01*
X137112027Y-123813357D01*
X136989491Y-123588990D01*
X136941495Y-123313108D01*
X136941122Y-123284979D01*
X136960096Y-123155233D01*
X137297435Y-123155233D01*
X137319224Y-123417178D01*
X137378690Y-123633782D01*
X137466980Y-123793976D01*
X137575240Y-123886691D01*
X137694617Y-123900860D01*
X137816258Y-123825415D01*
X137825556Y-123815470D01*
X137935081Y-123626182D01*
X137986607Y-123386983D01*
X137980235Y-123131561D01*
X137916067Y-122893602D01*
X137822311Y-122737401D01*
X137683483Y-122621315D01*
X137552393Y-122599128D01*
X137438941Y-122662957D01*
X137353029Y-122804921D01*
X137304558Y-123017138D01*
X137297435Y-123155233D01*
X136960096Y-123155233D01*
X136983982Y-122991903D01*
X137110509Y-122756093D01*
X137317626Y-122581528D01*
X137561574Y-122482416D01*
X137795377Y-122466351D01*
X138003955Y-122546116D01*
G37*
X138003955Y-122546116D02*
X138178256Y-122717029D01*
X138251843Y-122839382D01*
X138344863Y-123084151D01*
X138354372Y-123307191D01*
X138280831Y-123544325D01*
X138261489Y-123585760D01*
X138162372Y-123743348D01*
X138023564Y-123861188D01*
X137895182Y-123932693D01*
X137709568Y-124018401D01*
X137576534Y-124054201D01*
X137461198Y-124042279D01*
X137328677Y-123984821D01*
X137300573Y-123969954D01*
X137112027Y-123813357D01*
X136989491Y-123588990D01*
X136941495Y-123313108D01*
X136941122Y-123284979D01*
X136960096Y-123155233D01*
X137297435Y-123155233D01*
X137319224Y-123417178D01*
X137378690Y-123633782D01*
X137466980Y-123793976D01*
X137575240Y-123886691D01*
X137694617Y-123900860D01*
X137816258Y-123825415D01*
X137825556Y-123815470D01*
X137935081Y-123626182D01*
X137986607Y-123386983D01*
X137980235Y-123131561D01*
X137916067Y-122893602D01*
X137822311Y-122737401D01*
X137683483Y-122621315D01*
X137552393Y-122599128D01*
X137438941Y-122662957D01*
X137353029Y-122804921D01*
X137304558Y-123017138D01*
X137297435Y-123155233D01*
X136960096Y-123155233D01*
X136983982Y-122991903D01*
X137110509Y-122756093D01*
X137317626Y-122581528D01*
X137561574Y-122482416D01*
X137795377Y-122466351D01*
X138003955Y-122546116D01*
G36*
X136470280Y-121919753D02*
G01*
X136574558Y-121973343D01*
X136622449Y-122043538D01*
X136635413Y-122168147D01*
X136635711Y-122211225D01*
X136616705Y-122358781D01*
X136570444Y-122433998D01*
X136513063Y-122428550D01*
X136460698Y-122334110D01*
X136452708Y-122305666D01*
X136373039Y-122165226D01*
X136234578Y-122068490D01*
X136067748Y-122022606D01*
X135902969Y-122034723D01*
X135770662Y-122111990D01*
X135747816Y-122140023D01*
X135681467Y-122282979D01*
X135697805Y-122413665D01*
X135801783Y-122539004D01*
X135998350Y-122665916D01*
X136189447Y-122757536D01*
X136445587Y-122887737D01*
X136613634Y-123020150D01*
X136706562Y-123169181D01*
X136737348Y-123349238D01*
X136737515Y-123366045D01*
X136714336Y-123557268D01*
X136634678Y-123700097D01*
X136617254Y-123719747D01*
X136385998Y-123903287D01*
X136115267Y-124011821D01*
X135831577Y-124038302D01*
X135598576Y-123990488D01*
X135444947Y-123927139D01*
X135360451Y-123859709D01*
X135316991Y-123753940D01*
X135292720Y-123617575D01*
X135276729Y-123482521D01*
X135291227Y-123419916D01*
X135348417Y-123402060D01*
X135388015Y-123401242D01*
X135492118Y-123428674D01*
X135515872Y-123481510D01*
X135549761Y-123566253D01*
X135634148Y-123678346D01*
X135664661Y-123710568D01*
X135832662Y-123826921D01*
X136009843Y-123867935D01*
X136173943Y-123839510D01*
X136302699Y-123747548D01*
X136373850Y-123597949D01*
X136381202Y-123520636D01*
X136346916Y-123372947D01*
X136237461Y-123239534D01*
X136042940Y-123110820D01*
X135871671Y-123027569D01*
X135608907Y-122885192D01*
X135441158Y-122731408D01*
X135361720Y-122559008D01*
X135352986Y-122469750D01*
X135376544Y-122277593D01*
X135458999Y-122134570D01*
X135618023Y-122015646D01*
X135705891Y-121969770D01*
X136005070Y-121868791D01*
X136287717Y-121866553D01*
X136470280Y-121919753D01*
G37*
X136470280Y-121919753D02*
X136574558Y-121973343D01*
X136622449Y-122043538D01*
X136635413Y-122168147D01*
X136635711Y-122211225D01*
X136616705Y-122358781D01*
X136570444Y-122433998D01*
X136513063Y-122428550D01*
X136460698Y-122334110D01*
X136452708Y-122305666D01*
X136373039Y-122165226D01*
X136234578Y-122068490D01*
X136067748Y-122022606D01*
X135902969Y-122034723D01*
X135770662Y-122111990D01*
X135747816Y-122140023D01*
X135681467Y-122282979D01*
X135697805Y-122413665D01*
X135801783Y-122539004D01*
X135998350Y-122665916D01*
X136189447Y-122757536D01*
X136445587Y-122887737D01*
X136613634Y-123020150D01*
X136706562Y-123169181D01*
X136737348Y-123349238D01*
X136737515Y-123366045D01*
X136714336Y-123557268D01*
X136634678Y-123700097D01*
X136617254Y-123719747D01*
X136385998Y-123903287D01*
X136115267Y-124011821D01*
X135831577Y-124038302D01*
X135598576Y-123990488D01*
X135444947Y-123927139D01*
X135360451Y-123859709D01*
X135316991Y-123753940D01*
X135292720Y-123617575D01*
X135276729Y-123482521D01*
X135291227Y-123419916D01*
X135348417Y-123402060D01*
X135388015Y-123401242D01*
X135492118Y-123428674D01*
X135515872Y-123481510D01*
X135549761Y-123566253D01*
X135634148Y-123678346D01*
X135664661Y-123710568D01*
X135832662Y-123826921D01*
X136009843Y-123867935D01*
X136173943Y-123839510D01*
X136302699Y-123747548D01*
X136373850Y-123597949D01*
X136381202Y-123520636D01*
X136346916Y-123372947D01*
X136237461Y-123239534D01*
X136042940Y-123110820D01*
X135871671Y-123027569D01*
X135608907Y-122885192D01*
X135441158Y-122731408D01*
X135361720Y-122559008D01*
X135352986Y-122469750D01*
X135376544Y-122277593D01*
X135458999Y-122134570D01*
X135618023Y-122015646D01*
X135705891Y-121969770D01*
X136005070Y-121868791D01*
X136287717Y-121866553D01*
X136470280Y-121919753D01*
D12*
%TO.C,C1*%
X128630000Y-86006252D02*
X128630000Y-84583748D01*
X130450000Y-86006252D02*
X130450000Y-84583748D01*
%TO.C,A1*%
X131950000Y-109350000D02*
X149990000Y-109350000D01*
X131950000Y-65910000D02*
X131950000Y-109350000D01*
X149990000Y-65910000D02*
X131950000Y-65910000D01*
X147320000Y-68580000D02*
X149990000Y-68580000D01*
X147320000Y-104140000D02*
X147320000Y-68580000D01*
X147320000Y-104140000D02*
X149990000Y-104140000D01*
X134620000Y-68580000D02*
X131950000Y-68580000D01*
X134620000Y-106680000D02*
X134620000Y-68580000D01*
X134620000Y-106680000D02*
X131950000Y-106680000D01*
X149990000Y-109350000D02*
X149990000Y-106680000D01*
X149990000Y-104140000D02*
X149990000Y-65910000D01*
X147320000Y-106680000D02*
X149990000Y-106680000D01*
X147320000Y-104140000D02*
X147320000Y-106680000D01*
%TO.C,J4*%
X152781000Y-97790000D02*
X157226000Y-97790000D01*
X152781000Y-86868000D02*
X157226000Y-86868000D01*
X157226000Y-97790000D02*
X157226000Y-86868000D01*
X152781000Y-97790000D02*
X152781000Y-86868000D01*
%TO.C,J2*%
D10*
X128992380Y-95583333D02*
X129706666Y-95583333D01*
X129849523Y-95630952D01*
X129944761Y-95726190D01*
X129992380Y-95869047D01*
X129992380Y-95964285D01*
X129087619Y-95154761D02*
X129040000Y-95107142D01*
X128992380Y-95011904D01*
X128992380Y-94773809D01*
X129040000Y-94678571D01*
X129087619Y-94630952D01*
X129182857Y-94583333D01*
X129278095Y-94583333D01*
X129420952Y-94630952D01*
X129992380Y-95202380D01*
X129992380Y-94583333D01*
X129611428Y-101980952D02*
X129611428Y-101219047D01*
X129992380Y-101600000D02*
X129230476Y-101600000D01*
X129611428Y-89280952D02*
X129611428Y-88519047D01*
X132532380Y-99869047D02*
X131532380Y-99869047D01*
X131913333Y-99869047D02*
X131865714Y-99773809D01*
X131865714Y-99583333D01*
X131913333Y-99488095D01*
X131960952Y-99440476D01*
X132056190Y-99392857D01*
X132341904Y-99392857D01*
X132437142Y-99440476D01*
X132484761Y-99488095D01*
X132532380Y-99583333D01*
X132532380Y-99773809D01*
X132484761Y-99869047D01*
X132532380Y-98535714D02*
X132008571Y-98535714D01*
X131913333Y-98583333D01*
X131865714Y-98678571D01*
X131865714Y-98869047D01*
X131913333Y-98964285D01*
X132484761Y-98535714D02*
X132532380Y-98630952D01*
X132532380Y-98869047D01*
X132484761Y-98964285D01*
X132389523Y-99011904D01*
X132294285Y-99011904D01*
X132199047Y-98964285D01*
X132151428Y-98869047D01*
X132151428Y-98630952D01*
X132103809Y-98535714D01*
X131865714Y-98202380D02*
X131865714Y-97821428D01*
X131532380Y-98059523D02*
X132389523Y-98059523D01*
X132484761Y-98011904D01*
X132532380Y-97916666D01*
X132532380Y-97821428D01*
X131865714Y-97630952D02*
X131865714Y-97250000D01*
X131532380Y-97488095D02*
X132389523Y-97488095D01*
X132484761Y-97440476D01*
X132532380Y-97345238D01*
X132532380Y-97250000D01*
X132484761Y-96535714D02*
X132532380Y-96630952D01*
X132532380Y-96821428D01*
X132484761Y-96916666D01*
X132389523Y-96964285D01*
X132008571Y-96964285D01*
X131913333Y-96916666D01*
X131865714Y-96821428D01*
X131865714Y-96630952D01*
X131913333Y-96535714D01*
X132008571Y-96488095D01*
X132103809Y-96488095D01*
X132199047Y-96964285D01*
X132532380Y-96059523D02*
X131865714Y-96059523D01*
X132056190Y-96059523D02*
X131960952Y-96011904D01*
X131913333Y-95964285D01*
X131865714Y-95869047D01*
X131865714Y-95773809D01*
X131865714Y-95535714D02*
X132532380Y-95297619D01*
X131865714Y-95059523D02*
X132532380Y-95297619D01*
X132770476Y-95392857D01*
X132818095Y-95440476D01*
X132865714Y-95535714D01*
X132532380Y-93916666D02*
X131865714Y-93916666D01*
X131532380Y-93916666D02*
X131580000Y-93964285D01*
X131627619Y-93916666D01*
X131580000Y-93869047D01*
X131532380Y-93916666D01*
X131627619Y-93916666D01*
X131865714Y-93440476D02*
X132532380Y-93440476D01*
X131960952Y-93440476D02*
X131913333Y-93392857D01*
X131865714Y-93297619D01*
X131865714Y-93154761D01*
X131913333Y-93059523D01*
X132008571Y-93011904D01*
X132532380Y-93011904D01*
X131865714Y-92535714D02*
X132865714Y-92535714D01*
X131913333Y-92535714D02*
X131865714Y-92440476D01*
X131865714Y-92250000D01*
X131913333Y-92154761D01*
X131960952Y-92107142D01*
X132056190Y-92059523D01*
X132341904Y-92059523D01*
X132437142Y-92107142D01*
X132484761Y-92154761D01*
X132532380Y-92250000D01*
X132532380Y-92440476D01*
X132484761Y-92535714D01*
X131865714Y-91202380D02*
X132532380Y-91202380D01*
X131865714Y-91630952D02*
X132389523Y-91630952D01*
X132484761Y-91583333D01*
X132532380Y-91488095D01*
X132532380Y-91345238D01*
X132484761Y-91250000D01*
X132437142Y-91202380D01*
X131865714Y-90869047D02*
X131865714Y-90488095D01*
X131532380Y-90726190D02*
X132389523Y-90726190D01*
X132484761Y-90678571D01*
X132532380Y-90583333D01*
X132532380Y-90488095D01*
%TO.C,C1*%
X128047142Y-85461666D02*
X128094761Y-85509285D01*
X128142380Y-85652142D01*
X128142380Y-85747380D01*
X128094761Y-85890238D01*
X127999523Y-85985476D01*
X127904285Y-86033095D01*
X127713809Y-86080714D01*
X127570952Y-86080714D01*
X127380476Y-86033095D01*
X127285238Y-85985476D01*
X127190000Y-85890238D01*
X127142380Y-85747380D01*
X127142380Y-85652142D01*
X127190000Y-85509285D01*
X127237619Y-85461666D01*
X128142380Y-84509285D02*
X128142380Y-85080714D01*
X128142380Y-84795000D02*
X127142380Y-84795000D01*
X127285238Y-84890238D01*
X127380476Y-84985476D01*
X127428095Y-85080714D01*
%TO.C,A1*%
X140255714Y-110656666D02*
X140731904Y-110656666D01*
X140160476Y-110942380D02*
X140493809Y-109942380D01*
X140827142Y-110942380D01*
X141684285Y-110942380D02*
X141112857Y-110942380D01*
X141398571Y-110942380D02*
X141398571Y-109942380D01*
X141303333Y-110085238D01*
X141208095Y-110180476D01*
X141112857Y-110228095D01*
%TO.C,J4*%
X144232380Y-92662333D02*
X144946666Y-92662333D01*
X145089523Y-92709952D01*
X145184761Y-92805190D01*
X145232380Y-92948047D01*
X145232380Y-93043285D01*
X144565714Y-91757571D02*
X145232380Y-91757571D01*
X144184761Y-91995666D02*
X144899047Y-92233761D01*
X144899047Y-91614714D01*
X156549285Y-94654714D02*
X156549285Y-95083285D01*
X156549285Y-94869000D02*
X155799285Y-94869000D01*
X155906428Y-94940428D01*
X155977857Y-95011857D01*
X156013571Y-95083285D01*
X155870714Y-92543285D02*
X155835000Y-92507571D01*
X155799285Y-92436142D01*
X155799285Y-92257571D01*
X155835000Y-92186142D01*
X155870714Y-92150428D01*
X155942142Y-92114714D01*
X156013571Y-92114714D01*
X156120714Y-92150428D01*
X156549285Y-92579000D01*
X156549285Y-92114714D01*
X155799285Y-90039000D02*
X155799285Y-89574714D01*
X156085000Y-89824714D01*
X156085000Y-89717571D01*
X156120714Y-89646142D01*
X156156428Y-89610428D01*
X156227857Y-89574714D01*
X156406428Y-89574714D01*
X156477857Y-89610428D01*
X156513571Y-89646142D01*
X156549285Y-89717571D01*
X156549285Y-89931857D01*
X156513571Y-90003285D01*
X156477857Y-90039000D01*
X151644047Y-95050428D02*
X151704523Y-94929476D01*
X151704523Y-94687571D01*
X151644047Y-94566619D01*
X151523095Y-94506142D01*
X151462619Y-94506142D01*
X151341666Y-94566619D01*
X151281190Y-94687571D01*
X151281190Y-94869000D01*
X151220714Y-94989952D01*
X151099761Y-95050428D01*
X151039285Y-95050428D01*
X150918333Y-94989952D01*
X150857857Y-94869000D01*
X150857857Y-94687571D01*
X150918333Y-94566619D01*
X150857857Y-94082809D02*
X151704523Y-93840904D01*
X151099761Y-93599000D01*
X151704523Y-93357095D01*
X150857857Y-93115190D01*
X151704523Y-92631380D02*
X150857857Y-92631380D01*
X150434523Y-92631380D02*
X150495000Y-92691857D01*
X150555476Y-92631380D01*
X150495000Y-92570904D01*
X150434523Y-92631380D01*
X150555476Y-92631380D01*
X150857857Y-92208047D02*
X150857857Y-91724238D01*
X150434523Y-92026619D02*
X151523095Y-92026619D01*
X151644047Y-91966142D01*
X151704523Y-91845190D01*
X151704523Y-91724238D01*
X151644047Y-90756619D02*
X151704523Y-90877571D01*
X151704523Y-91119476D01*
X151644047Y-91240428D01*
X151583571Y-91300904D01*
X151462619Y-91361380D01*
X151099761Y-91361380D01*
X150978809Y-91300904D01*
X150918333Y-91240428D01*
X150857857Y-91119476D01*
X150857857Y-90877571D01*
X150918333Y-90756619D01*
X151704523Y-90212333D02*
X150434523Y-90212333D01*
X151704523Y-89668047D02*
X151039285Y-89668047D01*
X150918333Y-89728523D01*
X150857857Y-89849476D01*
X150857857Y-90030904D01*
X150918333Y-90151857D01*
X150978809Y-90212333D01*
%TO.C,J3*%
X128992380Y-108283333D02*
X129706666Y-108283333D01*
X129849523Y-108330952D01*
X129944761Y-108426190D01*
X129992380Y-108569047D01*
X129992380Y-108664285D01*
X128992380Y-107902380D02*
X128992380Y-107283333D01*
X129373333Y-107616666D01*
X129373333Y-107473809D01*
X129420952Y-107378571D01*
X129468571Y-107330952D01*
X129563809Y-107283333D01*
X129801904Y-107283333D01*
X129897142Y-107330952D01*
X129944761Y-107378571D01*
X129992380Y-107473809D01*
X129992380Y-107759523D01*
X129944761Y-107854761D01*
X129897142Y-107902380D01*
X129611428Y-101980952D02*
X129611428Y-101219047D01*
X129992380Y-101600000D02*
X129230476Y-101600000D01*
X129611428Y-114680952D02*
X129611428Y-113919047D01*
X128722380Y-112569047D02*
X127722380Y-112569047D01*
X128103333Y-112569047D02*
X128055714Y-112473809D01*
X128055714Y-112283333D01*
X128103333Y-112188095D01*
X128150952Y-112140476D01*
X128246190Y-112092857D01*
X128531904Y-112092857D01*
X128627142Y-112140476D01*
X128674761Y-112188095D01*
X128722380Y-112283333D01*
X128722380Y-112473809D01*
X128674761Y-112569047D01*
X128722380Y-111235714D02*
X128198571Y-111235714D01*
X128103333Y-111283333D01*
X128055714Y-111378571D01*
X128055714Y-111569047D01*
X128103333Y-111664285D01*
X128674761Y-111235714D02*
X128722380Y-111330952D01*
X128722380Y-111569047D01*
X128674761Y-111664285D01*
X128579523Y-111711904D01*
X128484285Y-111711904D01*
X128389047Y-111664285D01*
X128341428Y-111569047D01*
X128341428Y-111330952D01*
X128293809Y-111235714D01*
X128055714Y-110902380D02*
X128055714Y-110521428D01*
X127722380Y-110759523D02*
X128579523Y-110759523D01*
X128674761Y-110711904D01*
X128722380Y-110616666D01*
X128722380Y-110521428D01*
X128055714Y-110330952D02*
X128055714Y-109950000D01*
X127722380Y-110188095D02*
X128579523Y-110188095D01*
X128674761Y-110140476D01*
X128722380Y-110045238D01*
X128722380Y-109950000D01*
X128674761Y-109235714D02*
X128722380Y-109330952D01*
X128722380Y-109521428D01*
X128674761Y-109616666D01*
X128579523Y-109664285D01*
X128198571Y-109664285D01*
X128103333Y-109616666D01*
X128055714Y-109521428D01*
X128055714Y-109330952D01*
X128103333Y-109235714D01*
X128198571Y-109188095D01*
X128293809Y-109188095D01*
X128389047Y-109664285D01*
X128722380Y-108759523D02*
X128055714Y-108759523D01*
X128246190Y-108759523D02*
X128150952Y-108711904D01*
X128103333Y-108664285D01*
X128055714Y-108569047D01*
X128055714Y-108473809D01*
X128055714Y-108235714D02*
X128722380Y-107997619D01*
X128055714Y-107759523D02*
X128722380Y-107997619D01*
X128960476Y-108092857D01*
X129008095Y-108140476D01*
X129055714Y-108235714D01*
X128722380Y-106616666D02*
X128055714Y-106616666D01*
X127722380Y-106616666D02*
X127770000Y-106664285D01*
X127817619Y-106616666D01*
X127770000Y-106569047D01*
X127722380Y-106616666D01*
X127817619Y-106616666D01*
X128055714Y-106140476D02*
X128722380Y-106140476D01*
X128150952Y-106140476D02*
X128103333Y-106092857D01*
X128055714Y-105997619D01*
X128055714Y-105854761D01*
X128103333Y-105759523D01*
X128198571Y-105711904D01*
X128722380Y-105711904D01*
X128055714Y-105235714D02*
X129055714Y-105235714D01*
X128103333Y-105235714D02*
X128055714Y-105140476D01*
X128055714Y-104950000D01*
X128103333Y-104854761D01*
X128150952Y-104807142D01*
X128246190Y-104759523D01*
X128531904Y-104759523D01*
X128627142Y-104807142D01*
X128674761Y-104854761D01*
X128722380Y-104950000D01*
X128722380Y-105140476D01*
X128674761Y-105235714D01*
X128055714Y-103902380D02*
X128722380Y-103902380D01*
X128055714Y-104330952D02*
X128579523Y-104330952D01*
X128674761Y-104283333D01*
X128722380Y-104188095D01*
X128722380Y-104045238D01*
X128674761Y-103950000D01*
X128627142Y-103902380D01*
X128055714Y-103569047D02*
X128055714Y-103188095D01*
X127722380Y-103426190D02*
X128579523Y-103426190D01*
X128674761Y-103378571D01*
X128722380Y-103283333D01*
X128722380Y-103188095D01*
%TD*%
M02*
