700 0 2 0           
30 Autodesk Translation Framework 20 ASM 228.6.0.65535 NT 24 Wed Feb  8 16:00:39 2023 
1 9.999999999999999547e-07 1.000000000000000036e-10 
body $2 -1 $-1 $3 $-1 $4 #
body $5 -1 $-1 $6 $-1 $7 #
rgb_color-st-attrib $-1 -1 $8 $-1 $0 0.627450980392156854 0.627450980392156854 0.627450980392156854 #
lump $-1 -1 $-1 $-1 $9 $0 #
transform $-1 -1 1 0 0 0 1 0 0 0 1 0 0 0 1 no_rotate no_reflect no_shear #
rgb_color-st-attrib $-1 -1 $10 $-1 $1 0.627450980392156854 0.627450980392156854 0.627450980392156854 #
lump $-1 -1 $-1 $-1 $11 $1 #
transform $-1 -1 1 0 0 0 1 0 0 0 1 0 0 0 1 no_rotate no_reflect no_shear #
ATTRIB_CUSTOM-attrib $-1 -1 $-1 $2 $0 @20 Timestamp_attrib_def 1 1645564470718525 #
shell $-1 -1 $-1 $-1 $-1 $12 $-1 $3 #
ATTRIB_CUSTOM-attrib $-1 -1 $-1 $5 $1 @20 Timestamp_attrib_def 1 1645564439559113 #
shell $-1 -1 $-1 $-1 $-1 $13 $-1 $6 #
face $14 -1 $-1 $15 $16 $9 $-1 $17 forward single #
face $18 -1 $-1 $19 $20 $11 $-1 $21 reversed single #
DXID-attrib $-1 -1 $-1 $-1 $12 @10 ASM ENTITY @1 0 #
face $22 -1 $-1 $23 $24 $9 $-1 $25 forward single #
loop $-1 -1 $-1 $26 $27 $12 #
torus-surface $-1 -1 $-1 0 0 74.00000065565109253 0 0 1 32.58156362465298628 2.418436375347015055 1 0 0 forward_v I I I I #
DXID-attrib $-1 -1 $-1 $-1 $13 @10 ASM ENTITY @1 0 #
face $28 -1 $-1 $29 $30 $11 $-1 $21 reversed single #
loop $-1 -1 $-1 $31 $32 $13 #
cone-surface $-1 -1 $-1 -5.044932489087522877e-16 0.7490000000000007763 15.99068641662597656 -6.123233995736766036e-17 1 0 0 0 -1.25 1 I I 0 1 1.25 forward I I I I #
DXID-attrib $-1 -1 $-1 $-1 $15 @10 ASM ENTITY @1 1 #
face $33 -1 $-1 $34 $35 $9 $-1 $36 forward single #
loop $-1 -1 $-1 $37 $38 $15 #
torus-surface $-1 -1 $-1 0 0 77.80171839986776661 0 0 1 23.15054880583348407 -7.750000000000230038 1 0 0 forward_v I I I I #
loop $-1 -1 $-1 $-1 $39 $12 #
coedge $-1 -1 $-1 $27 $27 $40 $41 forward $16 $-1 #
DXID-attrib $-1 -1 $-1 $-1 $19 @10 ASM ENTITY @1 1 #
face $42 -1 $-1 $43 $44 $11 $-1 $45 forward single #
loop $-1 -1 $-1 $46 $47 $19 #
loop $-1 -1 $-1 $-1 $48 $13 #
coedge $-1 -1 $-1 $32 $32 $49 $50 reversed $20 $-1 #
DXID-attrib $-1 -1 $-1 $-1 $23 @10 ASM ENTITY @1 2 #
face $51 -1 $-1 $52 $53 $9 $-1 $54 forward single #
loop $-1 -1 $-1 $55 $56 $23 #
cone-surface $-1 -1 $-1 0 0 58.30000335200644912 0 0 1 15.94775978694545415 0 0 1 I I -0.6711886905168815698 -0.7412865449488704739 15.94775978694545415 forward I I I I #
loop $-1 -1 $-1 $-1 $57 $15 #
coedge $-1 -1 $-1 $38 $38 $39 $58 forward $24 $-1 #
coedge $-1 -1 $-1 $39 $39 $38 $58 reversed $26 $-1 #
coedge $-1 -1 $-1 $40 $40 $27 $41 reversed $59 $-1 #
edge $-1 -1 $-1 $60 0 $60 6.283185307179586232 $40 $61 forward @7 tangent #
DXID-attrib $-1 -1 $-1 $-1 $29 @10 ASM ENTITY @1 2 #
face $62 -1 $-1 $63 $64 $11 $-1 $65 forward single #
loop $-1 -1 $-1 $66 $67 $29 #
cone-surface $-1 -1 $-1 0 0 39.50000032782554626 0 0 1 2 0 0 1 I I -0.2169304427589369422 -0.9761870635305569532 2 forward I I I I #
loop $-1 -1 $-1 $-1 $68 $19 #
coedge $-1 -1 $-1 $47 $47 $69 $70 reversed $30 $-1 #
coedge $-1 -1 $-1 $71 $71 $72 $73 reversed $31 $-1 #
coedge $-1 -1 $-1 $49 $49 $32 $50 forward $74 $-1 #
edge $-1 -1 $-1 $75 0 $75 0.7632389735736477832 $49 $76 forward @7 unknown #
DXID-attrib $-1 -1 $-1 $-1 $34 @10 ASM ENTITY @1 3 #
face $77 -1 $-1 $78 $79 $9 $-1 $80 forward single #
loop $-1 -1 $-1 $81 $82 $34 #
plane-surface $-1 -1 $-1 7.509999999999999787 0 44.00000065565109253 -0 -0 -1 -10 0 0 forward_v I I I I #
loop $-1 -1 $-1 $-1 $83 $23 #
coedge $-1 -1 $-1 $56 $56 $57 $84 forward $35 $-1 #
coedge $-1 -1 $-1 $57 $57 $56 $84 reversed $37 $-1 #
edge $-1 -1 $-1 $85 0 $85 6.283185307179586232 $38 $86 forward @7 tangent #
loop $-1 -1 $-1 $-1 $40 $87 #
vertex $-1 -1 $-1 $41 $88 #
ellipse-curve $-1 -1 $-1 0 0 74.00000065565109253 0 0 1 35.00000000000000711 0 0 1 I I #
DXID-attrib $-1 -1 $-1 $-1 $43 @10 ASM ENTITY @1 3 #
face $89 -1 $-1 $90 $91 $11 $-1 $92 forward single #
loop $-1 -1 $-1 $-1 $93 $43 #
spline-surface $-1 -1 $-1 forward { rotsur 
	intcurve reversed { exactcur full nurbs 2 open 2 
	0 2 0.5024300662850926802 2 
	1 0 35 1 
	0.2803542636626155105 0 31.76159395056350832 3 
	1.000000014901161194 0 30.10000000000000142 1 
	0 
	
	null_surface 
	null_surface 
	nullbs 
	nullbs 
	I I 
	0 
	0 
	0 
	F 1 F 0 } F -0.5024300662850926802 F -0 
	0 0 44.0000003708736287 0 0 1 
	full nurbs 2 2 both open periodic none none 2 5 
	-0.5024300662850926802 2 -0 2 
	0 2 1.570796326794896558 2 3.141592653589793116 2 4.712388980384689674 2 6.283185307179586232 2 
	1.000000014901161194 0 30.10000000000000142 1 
	0.2803542636626150664 0 31.76159395056350832 3 
	1 0 35 1 
	1.000000014901160972 1.000000014901160972 30.10000000000000142 0.7071067811865475727 
	0.2803542636626150109 0.2803542636626150109 31.76159395056350832 2.121320343559642829 
	0.999999999999999778 0.999999999999999778 35 0.7071067811865475727 
	0 1.000000014901161194 30.10000000000000142 1 
	0 0.2803542636626150664 31.76159395056350832 3 
	0 1 35 1 
	-1.000000014901160972 1.000000014901160972 30.10000000000000142 0.7071067811865475727 
	-0.2803542636626150109 0.2803542636626150109 31.76159395056350832 2.121320343559642829 
	-0.999999999999999778 0.999999999999999778 35 0.7071067811865475727 
	-1.000000014901161194 0 30.10000000000000142 1 
	-0.2803542636626150664 0 31.76159395056350832 3 
	-1 0 35 1 
	-1.000000014901160972 -1.000000014901160972 30.10000000000000142 0.7071067811865475727 
	-0.2803542636626150109 -0.2803542636626150109 31.76159395056350832 2.121320343559642829 
	-0.999999999999999778 -0.999999999999999778 35 0.7071067811865475727 
	0 -1.000000014901161194 30.10000000000000142 1 
	0 -0.2803542636626150664 31.76159395056350832 3 
	0 -1 35 1 
	1.000000014901160972 -1.000000014901160972 30.10000000000000142 0.7071067811865475727 
	0.2803542636626150109 -0.2803542636626150109 31.76159395056350832 2.121320343559642829 
	0.999999999999999778 -0.999999999999999778 35 0.7071067811865475727 
	1.000000014901161194 0 30.10000000000000142 1 
	0.2803542636626150664 0 31.76159395056350832 3 
	1 0 35 1 
	9.999999999999999124e-06 
	
	0 
	0 
	0 
	0 
	0 
	0 
	} I I I I #
loop $-1 -1 $-1 $-1 $94 $29 #
coedge $-1 -1 $-1 $67 $67 $95 $96 forward $44 $-1 #
coedge $-1 -1 $-1 $68 $68 $97 $98 reversed $46 $-1 #
coedge $-1 -1 $-1 $69 $69 $47 $70 forward $99 $-1 #
edge $-1 -1 $-1 $100 0 $100 0.7632389735736477832 $69 $101 forward @7 unknown #
coedge $-1 -1 $-1 $48 $48 $102 $103 reversed $31 $-1 #
coedge $-1 -1 $-1 $102 $102 $48 $73 forward $104 $-1 #
edge $-1 -1 $-1 $105 0.188723319068407086 $106 0.5661699572052212304 $72 $107 forward @7 unknown #
loop $-1 -1 $-1 $108 $49 $90 #
vertex $-1 -1 $-1 $50 $109 #
intcurve-curve $-1 -1 $-1 forward { surfintcur full nubs 3 periodic 17 
	0 3 0.04772926702026888263 2 0.09545853404053776525 2 0.1431341387169748625 2 0.1908097433934119458 2 
	0.2384853480698490014 2 0.2861609527462860569 2 0.3338902197665549743 2 0.3816194867868238361 2 0.4293487538070926979 2 
	0.4770780208273616152 2 0.5247536255037987818 2 0.5724292301802358374 2 0.6201048348566728929 2 0.6677804395331100595 2 
	0.7155097065533788658 2 0.7632389735736477832 3 
	-1.250000000000000222 -2.782085548648701057 15.99068641662597656 
	-1.250000000000000222 -2.782085548648701057 15.83158885989174536 
	-1.217818954468446346 -2.797177897586898609 15.66338552090635439 
	-1.089725258930883012 -2.849523768271983837 15.35609350156973818 
	-0.9938892863614885442 -2.885809217673202198 15.21680875002109623 
	-0.7740013468950200926 -2.952389367981704815 14.99692081055462545 
	-0.6346702013083211913 -2.987295020278524671 14.90099128752126134 
	-0.3271955984658272976 -3.036392735841028756 14.77282565621796273 
	-0.1589186822547905553 -3.049999999999990941 14.74068641662597656 
	0.1589186822547899725 -3.049999999999990941 14.74068641662597656 
	0.3271955984658266869 -3.036392735841028756 14.77282565621796273 
	0.6346702013083214133 -2.987295020278524671 14.90099128752126134 
	0.7740013468950193154 -2.952389367981704815 14.99692081055462722 
	0.9938892863614878781 -2.885809217673202198 15.21680875002109623 
	1.089725258930882346 -2.849523768271983837 15.35609350156973818 
	1.217818954468445902 -2.797177897586898609 15.66338552090635439 
	1.249999999999999556 -2.782085548648701945 15.83158885989174536 
	1.249999999999999556 -2.782085548648701945 16.14978397336020421 
	1.217818954468446124 -2.797177897586898165 16.31798731234559341 
	1.089725258930884566 -2.849523768271982505 16.62527933168221139 
	0.9938892863614878781 -2.885809217673202198 16.76456408323085512 
	0.7740013468950190934 -2.952389367981704815 16.9844520226973259 
	0.6346702013083203031 -2.987295020278524671 17.08038154573069178 
	0.3271955984658264094 -3.036392735841028756 17.20854717703399217 
	0.1589186822547899725 -3.049999999999990941 17.24068641662597656 
	-0.1589186822547902778 -3.049999999999990941 17.24068641662597656 
	-0.327195598465826909 -3.036392735841028756 17.20854717703399217 
	-0.6346702013083209692 -2.987295020278524671 17.08038154573069178 
	-0.7740013468950197595 -2.952389367981704815 16.9844520226973259 
	-0.9938892863614884332 -2.885809217673202198 16.76456408323085867 
	-1.089725258930883012 -2.849523768271983393 16.62527933168221494 
	-1.217818954468446346 -2.797177897586898165 16.31798731234560051 
	-1.250000000000000222 -2.782085548648701057 16.14978397336020777 
	-1.250000000000000222 -2.782085548648701057 15.99068641662597656 
	0.001400852728239285671 
	
	cone -5.044932489087522877e-16 0.7490000000000007763 15.99068641662597656 -6.123233995736766036e-17 1 0 0 0 -1.25 1 I I 0 1 1.25 forward I I I I 
	cone 0 0 17.56125026774597586 0 0 1 3.049999999999990941 0 0 1 I I 0 -1 3.049999999999990941 forward I I I I 
	nullbs 
	nullbs 
	I I 
	0 
	0 
	0 
	} I I #
DXID-attrib $-1 -1 $-1 $-1 $52 @10 ASM ENTITY @1 4 #
face $110 -1 $-1 $111 $112 $9 $-1 $113 forward single #
loop $-1 -1 $-1 $114 $115 $52 #
cone-surface $-1 -1 $-1 0 0 40.68569769153302218 0 0 1 7.509999999999999787 0 0 1 I I 0 -1 7.509999999999999787 forward I I I I #
loop $-1 -1 $-1 $-1 $116 $34 #
coedge $-1 -1 $-1 $82 $82 $83 $117 forward $53 $-1 #
coedge $-1 -1 $-1 $83 $83 $82 $117 reversed $55 $-1 #
edge $-1 -1 $-1 $118 0 $118 6.283185307179586232 $56 $119 forward @7 tangent #
vertex $-1 -1 $-1 $58 $120 #
ellipse-curve $-1 -1 $-1 0 0 74.90419203198763398 0 0 1 30.33851381322207885 0 0 1 I I #
face $121 -1 $-1 $-1 $122 $9 $-1 $123 forward single #
point $-1 -1 $-1 35.00000000000000711 0 74.00000065565109253 #
DXID-attrib $-1 -1 $-1 $-1 $63 @10 ASM ENTITY @1 4 #
face $124 -1 $-1 $125 $99 $11 $-1 $126 forward single #
loop $-1 -1 $-1 $127 $128 $63 #
cone-surface $-1 -1 $-1 0 0 32.61125026774597302 0 0 1 2.025000007450571626 0 0 1 I I 0.3778969605349333238 0.9258476587530256596 2.025000007450571626 forward I I I I #
coedge $129 -1 $-1 $130 $131 $132 $133 reversed $64 $134 #
coedge $-1 -1 $-1 $94 $94 $130 $135 reversed $66 $-1 #
coedge $-1 -1 $-1 $95 $95 $67 $96 reversed $136 $-1 #
edge $-1 -1 $-1 $137 0 $137 6.283185307179586232 $95 $138 forward @7 unknown #
coedge $-1 -1 $-1 $97 $97 $68 $98 forward $139 $-1 #
edge $-1 -1 $-1 $140 0 $140 0.7548932762736284552 $97 $141 forward @7 unknown #
loop $-1 -1 $-1 $74 $69 $90 #
vertex $-1 -1 $-1 $70 $142 #
intcurve-curve $-1 -1 $-1 forward { surfintcur full nubs 3 periodic 17 
	0 3 0.04772926702026890344 2 0.09545853404053780689 2 0.1431341387169748902 2 0.1908097433934119735 2 
	0.2384853480698490569 2 0.2861609527462861124 2 0.3338902197665549743 2 0.3816194867868238916 2 0.4293487538070928089 2 
	0.4770780208273616707 2 0.5247536255037987818 2 0.5724292301802358374 2 0.6201048348566728929 2 0.6677804395331099485 2 
	0.7155097065533788658 2 0.7632389735736477832 3 
	-1.250000000000000888 2.782085548648701057 15.99068641662597656 
	-1.250000000000000888 2.782085548648701057 16.14978397336020777 
	-1.217818954468447012 2.797177897586898609 16.31798731234560051 
	-1.089725258930883456 2.849523768271983837 16.62527933168221494 
	-0.9938892863614887663 2.885809217673202198 16.76456408323085867 
	-0.7740013468950202036 2.952389367981704815 16.9844520226973259 
	-0.6346702013083221905 2.987295020278524671 17.08038154573069178 
	-0.3271955984658275196 3.036392735841028756 17.20854717703399217 
	-0.1589186822547907774 3.049999999999990941 17.24068641662597656 
	0.1589186822547897782 3.049999999999990941 17.24068641662597656 
	0.3271955984658265759 3.036392735841028756 17.20854717703399217 
	0.6346702013083210803 2.987295020278524671 17.08038154573069178 
	0.7740013468950190934 2.952389367981704815 16.9844520226973259 
	0.993889286361487323 2.885809217673202198 16.76456408323085512 
	1.089725258930884344 2.849523768271983393 16.62527933168221139 
	1.217818954468445902 2.797177897586898609 16.31798731234559341 
	1.249999999999999112 2.782085548648701945 16.14978397336020421 
	1.249999999999999112 2.782085548648701945 15.83158885989174536 
	1.217818954468445458 2.797177897586898609 15.66338552090635439 
	1.089725258930881902 2.849523768271983837 15.35609350156973818 
	0.993889286361487323 2.885809217673202642 15.21680875002109623 
	0.7740013468950188713 2.952389367981704815 14.99692081055462545 
	0.6346702013083200811 2.987295020278524671 14.90099128752126134 
	0.3271955984658263539 3.036392735841028756 14.77282565621796273 
	0.1589186822547895839 3.049999999999990941 14.74068641662597656 
	-0.1589186822547908884 3.049999999999990941 14.74068641662597656 
	-0.3271955984658275751 3.036392735841028756 14.77282565621796273 
	-0.6346702013083221905 2.987295020278524671 14.90099128752126134 
	-0.7740013468950203146 2.952389367981704815 14.99692081055462722 
	-0.9938892863614888773 2.885809217673202198 15.21680875002109623 
	-1.089725258930883456 2.849523768271983837 15.35609350156973818 
	-1.217818954468447012 2.797177897586898609 15.66338552090635439 
	-1.250000000000000888 2.782085548648701057 15.83158885989174536 
	-1.250000000000000888 2.782085548648701057 15.99068641662597656 
	0.001400852728239397561 
	
	cone -5.044932489087522877e-16 0.7490000000000007763 15.99068641662597656 -6.123233995736766036e-17 1 0 0 0 -1.25 1 I I 0 1 1.25 forward I I I I 
	cone 0 0 17.56125026774597586 0 0 1 3.049999999999990941 0 0 1 I I 0 -1 3.049999999999990941 forward I I I I 
	nullbs 
	nullbs 
	I I 
	0 
	0 
	0 
	} I I #
coedge $-1 -1 $-1 $72 $72 $71 $103 forward $104 $-1 #
edge $-1 -1 $-1 $106 0.5661699572052212304 $105 0.9436165953420353469 $102 $143 forward @7 unknown #
loop $-1 -1 $-1 $144 $72 $145 #
vertex $-1 -1 $-1 $73 $146 #
vertex $-1 -1 $-1 $73 $147 #
intcurve-curve $-1 -1 $-1 forward { surfintcur full nubs 3 open 9 
	0.188723319068407086 3 0.2359035153367695647 2 0.2830837116051320157 2 0.3302651748709730661 2 0.3774466381368141166 2 
	0.424628101402655167 2 0.4718095646684962174 2 0.5189897609368587794 2 0.5661699572052212304 3 
	-1.214306433183764966e-16 -7.490000000000001101 17.24068641662597656 
	0.1572673208945414847 -7.490000000000001101 17.24068641662597656 
	0.3248178852863201072 -7.484543369735084717 17.20919634752201688 
	0.6327067394387247967 -7.46482272361633914 17.08153713167616061 
	0.7730692474290936644 -7.450833319538152644 16.98538412216325355 
	0.9947006813907027789 -7.424494894614619867 16.76375268820164166 
	1.090851356742781553 -7.410419460876541464 16.62339145771123938 
	1.218508877802504164 -7.390501297883743881 16.31550699248314373 
	1.249999999999999778 -7.384957684374366949 16.14795796084544577 
	1.249999999999999778 -7.384957684374366949 15.83341487240650558 
	1.218508877802504164 -7.390501297883743881 15.66586584076881117 
	1.090851356742781553 -7.410419460876541464 15.35798137554071374 
	0.9947006813907027789 -7.424494894614619867 15.21762014505030969 
	0.7730692474290939975 -7.450833319538152644 14.99598871108870135 
	0.6327067394387253518 -7.46482272361633914 14.89983570157579251 
	0.3248178852863206068 -7.484543369735084717 14.77217648572993802 
	0.1572673208945417067 -7.490000000000001101 14.74068641662597656 
	1.908195823574487804e-16 -7.490000000000001101 14.74068641662597656 
	0.001321069149498803981 
	
	cone -5.044932489087522877e-16 0.7490000000000007763 15.99068641662597656 -6.123233995736766036e-17 1 0 0 0 -1.25 1 I I 0 1 1.25 forward I I I I 
	cone 0 0 22 0 0 1 7.490000000000001101 0 0 1 I I 0 1 7.490000000000001101 forward I I I I 
	nullbs 
	nullbs 
	I I 
	0 
	0 
	0 
	} I I #
loop $-1 -1 $-1 $148 $149 $90 #
point $-1 -1 $-1 -1.250000000000000444 -2.782085548648701057 15.99068641662597656 #
DXID-attrib $-1 -1 $-1 $-1 $78 @10 ASM ENTITY @1 5 #
face $150 -1 $-1 $151 $152 $9 $-1 $153 forward single #
loop $-1 -1 $-1 $154 $155 $78 #
cone-surface $-1 -1 $-1 0 0 48.25790865223073922 0 0 1 16.4897154831869841 0 0 1 I I 0.6363130236914192883 0.7714309663739739031 16.4897154831869841 forward I I I I #
loop $-1 -1 $-1 $-1 $156 $52 #
coedge $-1 -1 $-1 $115 $115 $116 $157 forward $79 $-1 #
coedge $-1 -1 $-1 $116 $116 $115 $157 reversed $81 $-1 #
edge $-1 -1 $-1 $158 0 $158 6.283185307179586232 $82 $159 forward @7 unknown #
vertex $-1 -1 $-1 $84 $160 #
ellipse-curve $-1 -1 $-1 0 0 72.60000604836180571 0 0 1 28.89551952918742472 0 0 1 I I #
point $-1 -1 $-1 30.33851381322207885 0 74.90419203198763398 #
DXID-attrib $-1 -1 $-1 $-1 $87 @10 ASM ENTITY @2 13 #
loop $-1 -1 $-1 $59 $161 $87 #
cone-surface $-1 -1 $-1 0 0 67.00000076740980148 0 0 1 35 0 0 1 I I 0 1 35 forward I I I I #
DXID-attrib $-1 -1 $-1 $-1 $90 @10 ASM ENTITY @1 5 #
face $162 -1 $-1 $145 $163 $11 $-1 $164 forward single #
cone-surface $-1 -1 $-1 0 0 17.56125026774597586 0 0 1 3.049999999999990941 0 0 1 I I 0 -1 3.049999999999990941 forward I I I I #
loop $-1 -1 $-1 $-1 $165 $63 #
coedge $-1 -1 $-1 $128 $128 $131 $166 forward $91 $-1 #
ATTRIB_CUSTOM-attrib $-1 -1 $-1 $-1 $93 @17 sketch_attrib_def 1 1 3 @13 131 0 1 0 1 1 #
coedge $-1 -1 $-1 $132 $93 $94 $135 forward $64 $167 #
coedge $-1 -1 $-1 $93 $132 $128 $166 reversed $64 $168 #
coedge $169 -1 $-1 $131 $130 $93 $133 forward $64 $170 #
edge $-1 -1 $-1 $171 0 $172 0.5024300662850926802 $93 $173 forward @7 tangent #
pcurve $-1 -1 $-1 0 forward { exppc nubs 1 open 2 
	-0.5024300662850926802 1 -0 1 
	-0.5024300662850926802 0 
	0 0 
	0 
	spline forward { ref 0 } I I I I 
	} 0 0 #
edge $-1 -1 $-1 $171 0 $171 6.283185307179586232 $130 $174 forward @7 tangent #
loop $-1 -1 $-1 $-1 $95 $175 #
vertex $-1 -1 $-1 $96 $176 #
ellipse-curve $-1 -1 $-1 0 0 44.00000065565109253 0 0 1 3.000000000000000444 0 0 1 I I #
loop $-1 -1 $-1 $104 $97 $145 #
vertex $-1 -1 $-1 $98 $177 #
intcurve-curve $-1 -1 $-1 forward { surfintcur full nubs 3 periodic 17 
	0 3 0.04718146326584107819 2 0.09436292653168215638 2 0.1415431228000446351 2 0.1887233190684071138 2 
	0.2359035153367695925 2 0.2830837116051320712 2 0.3302651748709731216 2 0.3774466381368141721 2 0.424628101402655278 2 
	0.4718095646684963285 2 0.5189897609368587794 2 0.5661699572052213414 2 0.6133501534735839034 2 0.6605303497419463543 2 
	0.7077118130077874048 2 0.7548932762736284552 3 
	-1.25000000000000111 7.384957684374366949 15.99068641662597656 
	-1.25000000000000111 7.384957684374366949 15.83341487240650558 
	-1.218508877802505275 7.390501297883743881 15.66586584076881117 
	-1.090851356742782663 7.410419460876541464 15.35798137554071374 
	-0.9947006813907035561 7.424494894614619867 15.21762014505030969 
	-0.7730692474290947747 7.450833319538152644 14.99598871108870135 
	-0.6327067394387259069 7.46482272361633914 14.89983570157579251 
	-0.3248178852863208288 7.484543369735084717 14.77217648572993802 
	-0.1572673208945422063 7.490000000000001101 14.74068641662597656 
	0.1572673208945409851 7.490000000000001101 14.74068641662597656 
	0.3248178852863193855 7.484543369735084717 14.77217648572993802 
	0.6327067394387241306 7.46482272361633914 14.89983570157579251 
	0.7730692474290932203 7.450833319538152644 14.99598871108870135 
	0.9947006813907021128 7.424494894614619867 15.21762014505030969 
	1.090851356742780887 7.410419460876541464 15.35798137554071374 
	1.218508877802503276 7.390501297883743881 15.66586584076881117 
	1.249999999999999112 7.384957684374366949 15.83341487240650558 
	1.249999999999999112 7.384957684374366949 16.14795796084544577 
	1.218508877802504164 7.390501297883743881 16.31550699248313663 
	1.090851356742782885 7.410419460876541464 16.62339145771123583 
	0.9947006813907017797 7.424494894614619867 16.76375268820164166 
	0.7730692474290932203 7.450833319538153532 16.98538412216325355 
	0.6327067394387226873 7.46482272361633914 17.08153713167616417 
	0.3248178852863177202 7.484543369735084717 17.20919634752201688 
	0.1572673208945407908 7.490000000000001101 17.24068641662597656 
	-0.1572673208945428447 7.490000000000001101 17.24068641662597656 
	-0.3248178852863189414 7.484543369735084717 17.20919634752201688 
	-0.6327067394387246857 7.46482272361633914 17.08153713167616417 
	-0.7730692474290951077 7.450833319538152644 16.98538412216325355 
	-0.9947006813907038891 7.424494894614619867 16.76375268820164166 
	-1.090851356742782663 7.410419460876541464 16.62339145771123938 
	-1.218508877802505275 7.390501297883743881 16.31550699248314373 
	-1.25000000000000111 7.384957684374366949 16.14795796084544577 
	-1.25000000000000111 7.384957684374366949 15.99068641662597656 
	0.001321069149498721364 
	
	cone -5.044932489087522877e-16 0.7490000000000007763 15.99068641662597656 -6.123233995736766036e-17 1 0 0 0 -1.25 1 I I 0 1 1.25 forward I I I I 
	cone 0 0 22 0 0 1 7.490000000000001101 0 0 1 I I 0 1 7.490000000000001101 forward I I I I 
	nullbs 
	nullbs 
	I I 
	0 
	0 
	0 
	} I I #
point $-1 -1 $-1 -1.250000000000000888 2.782085548648700613 15.99068641662597656 #
intcurve-curve $-1 -1 $-1 forward { surfintcur full nubs 3 open 9 
	0.5661699572052212304 3 0.6133501534735836813 2 0.6605303497419461323 2 0.7077118130077871827 2 0.7548932762736282331 3 
	0.8020747395394692836 2 0.849256202805310334 2 0.896436399073672785 2 0.9436165953420353469 3 
	1.908195823574487804e-16 -7.490000000000001101 14.74068641662597656 
	-0.1572673208945413181 -7.490000000000001101 14.74068641662597656 
	-0.3248178852863198296 -7.484543369735084717 14.77217648572993802 
	-0.6327067394387249077 -7.46482272361633914 14.89983570157579251 
	-0.7730692474290939975 -7.450833319538152644 14.99598871108870135 
	-0.9947006813907027789 -7.424494894614619867 15.21762014505030969 
	-1.090851356742781553 -7.410419460876541464 15.35798137554071374 
	-1.218508877802504164 -7.390501297883743881 15.66586584076881117 
	-1.25 -7.384957684374366949 15.83341487240650558 
	-1.25 -7.384957684374366949 15.99068641662597656 
	-1.25 -7.384957684374366949 16.14795796084544577 
	-1.218508877802504164 -7.390501297883743881 16.31550699248314373 
	-1.090851356742781553 -7.410419460876541464 16.62339145771123938 
	-0.994700681390703112 -7.424494894614619867 16.76375268820164166 
	-0.7730692474290943306 -7.450833319538152644 16.98538412216325355 
	-0.6327067394387249077 -7.46482272361633914 17.08153713167616061 
	-0.3248178852863199406 -7.484543369735084717 17.20919634752201688 
	-0.1572673208945417345 -7.490000000000001101 17.24068641662597656 
	-1.214306433183764966e-16 -7.490000000000001101 17.24068641662597656 
	0.001321069149498803981 
	
	cone -5.044932489087522877e-16 0.7490000000000007763 15.99068641662597656 -6.123233995736766036e-17 1 0 0 0 -1.25 1 I I 0 1 1.25 forward I I I I 
	cone 0 0 22 0 0 1 7.490000000000001101 0 0 1 I I 0 1 7.490000000000001101 forward I I I I 
	nullbs 
	nullbs 
	I I 
	0 
	0 
	0 
	} I I #
loop $-1 -1 $-1 $178 $179 $145 #
face $180 -1 $-1 $175 $139 $11 $-1 $181 forward single #
point $-1 -1 $-1 4.586302262806857804e-16 -7.490000000000001101 17.24068641662597656 #
point $-1 -1 $-1 0 -7.490000000000001101 14.74068641662597656 #
loop $-1 -1 $-1 $-1 $182 $90 #
coedge $-1 -1 $-1 $149 $149 $165 $183 forward $108 $-1 #
DXID-attrib $-1 -1 $-1 $-1 $111 @10 ASM ENTITY @1 6 #
face $184 -1 $-1 $185 $186 $9 $-1 $187 forward single #
loop $-1 -1 $-1 $188 $189 $111 #
torus-surface $-1 -1 $-1 0 0 59.78073560073796955 0 0 1 24.69799999999994355 1.00000000000005862 1 0 0 forward_v I I I I #
loop $-1 -1 $-1 $-1 $190 $78 #
coedge $-1 -1 $-1 $155 $155 $156 $191 forward $112 $-1 #
coedge $-1 -1 $-1 $156 $156 $155 $191 reversed $114 $-1 #
edge $-1 -1 $-1 $192 0 $192 6.283185307179586232 $115 $193 forward @7 unknown #
vertex $-1 -1 $-1 $117 $194 #
ellipse-curve $-1 -1 $-1 0 0 44.00000065565109253 0 0 1 3.000000044703483582 0 0 1 I I #
point $-1 -1 $-1 28.89551952918742472 0 72.60000604836180571 #
coedge $-1 -1 $-1 $161 $161 $195 $196 forward $122 $-1 #
DXID-attrib $-1 -1 $-1 $-1 $125 @10 ASM ENTITY @1 6 #
loop $-1 -1 $-1 $197 $198 $125 #
plane-surface $-1 -1 $-1 7.490000000000001101 0 0 -0 -0 -1 -10 0 0 forward_v I I I I #
coedge $-1 -1 $-1 $165 $165 $149 $183 reversed $127 $-1 #
edge $-1 -1 $-1 $172 0 $172 6.283185307179586232 $128 $199 forward @7 unknown #
pcurve $-1 -1 $-1 0 forward { exppc nubs 1 periodic 2 
	0 1 6.283185307179586232 1 
	-0 0 
	-0 6.283185307179586232 
	0 
	spline forward { ref 0 } I I I I 
	} 0 0 #
pcurve $-1 -1 $-1 0 forward { exppc nubs 1 periodic 2 
	-6.283185307179586232 1 -0 1 
	-0.5024300662850926802 6.283185307179586232 
	-0.5024300662850926802 0 
	0 
	spline forward { ref 0 } I I I I 
	} 0 0 #
ATTRIB_CUSTOM-attrib $-1 -1 $-1 $-1 $132 @17 sketch_attrib_def 1 1 3 @13 131 0 1 0 1 1 #
pcurve $-1 -1 $-1 0 forward { exppc nubs 1 open 2 
	0 1 0.5024300662850926802 1 
	0 6.283185307179586232 
	-0.5024300662850926802 6.283185307179586232 
	0 
	spline forward { ref 0 } I I I I 
	} 0 0 #
vertex $-1 -1 $-1 $135 $200 #
vertex $-1 -1 $-1 $133 $201 #
intcurve-curve $-1 -1 $-1 forward { ref 1 } F 0 F 0.5024300662850926802 #
ellipse-curve $-1 -1 $-1 0 0 35 0 0 1 1 0 0 1 I I #
face $202 -1 $-1 $-1 $203 $11 $-1 $204 forward single #
point $-1 -1 $-1 3.000000000000000444 0 44.00000065565109253 #
point $-1 -1 $-1 -1.250000000000000888 7.384957684374366949 15.99068641662597479 #
loop $-1 -1 $-1 $-1 $205 $145 #
coedge $-1 -1 $-1 $179 $179 $206 $207 forward $144 $-1 #
DXID-attrib $-1 -1 $-1 $-1 $145 @10 ASM ENTITY @1 7 #
cone-surface $-1 -1 $-1 0 0 22 0 0 1 7.490000000000001101 0 0 1 I I 0 1 7.490000000000001101 forward I I I I #
coedge $-1 -1 $-1 $182 $182 $198 $208 reversed $148 $-1 #
edge $-1 -1 $-1 $209 0 $209 6.283185307179586232 $149 $210 forward @7 unknown #
DXID-attrib $-1 -1 $-1 $-1 $151 @10 ASM ENTITY @1 7 #
face $211 -1 $-1 $212 $213 $9 $-1 $214 forward single #
loop $-1 -1 $-1 $215 $216 $151 #
cone-surface $-1 -1 $-1 0 0 62.39036834426136124 0 0 1 25.69800000000000395 0 0 1 I I 0 1 25.69800000000000395 forward I I I I #
loop $-1 -1 $-1 $-1 $217 $111 #
coedge $-1 -1 $-1 $189 $189 $190 $218 forward $152 $-1 #
coedge $-1 -1 $-1 $190 $190 $189 $218 reversed $154 $-1 #
edge $-1 -1 $-1 $219 0 $219 6.283185307179586232 $155 $220 forward @7 unknown #
vertex $-1 -1 $-1 $157 $221 #
ellipse-curve $-1 -1 $-1 0 0 44.00000065565109253 0 0 1 7.509999999999999787 0 0 1 I I #
point $-1 -1 $-1 3.000000044703483582 0 44.00000065565109253 #
coedge $-1 -1 $-1 $195 $195 $161 $196 reversed $222 $-1 #
edge $-1 -1 $-1 $223 0 $223 6.283185307179586232 $161 $224 forward @7 tangent #
loop $-1 -1 $-1 $-1 $206 $125 #
coedge $-1 -1 $-1 $198 $198 $182 $208 forward $163 $-1 #
ellipse-curve $-1 -1 $-1 0 0 30.10000000000000142 0 0 1 1.000000014901161194 0 0 1 I I #
point $-1 -1 $-1 1 0 35 #
point $-1 -1 $-1 1.000000014901161194 0 30.10000000000000142 #
DXID-attrib $-1 -1 $-1 $-1 $175 @10 ASM ENTITY @1 8 #
loop $-1 -1 $-1 $136 $225 $175 #
plane-surface $-1 -1 $-1 3.000000000000000444 0 44.00000065565109253 0 0 1 10 0 0 forward_v I I I I #
tcoedge-coedge $-1 -1 $-1 $205 $205 $225 $226 reversed $178 $227 -6.283185307179586232 -0 #
coedge $-1 -1 $-1 $206 $206 $179 $207 reversed $197 $-1 #
edge $-1 -1 $-1 $228 0 $228 6.283185307179586232 $179 $229 forward @7 unknown #
edge $-1 -1 $-1 $230 0 $230 6.283185307179586232 $198 $231 forward @7 unknown #
vertex $-1 -1 $-1 $183 $232 #
ellipse-curve $-1 -1 $-1 0 0 35.12250053549194462 0 0 1 3.049999999999982059 0 0 1 I I #
DXID-attrib $-1 -1 $-1 $-1 $185 @10 ASM ENTITY @1 8 #
face $233 -1 $-1 $234 $235 $9 $-1 $236 forward single #
loop $-1 -1 $-1 $237 $238 $185 #
plane-surface $-1 -1 $-1 30.58600000000000207 0 65.00000108778476715 -0 -0 -1 -10 0 0 forward_v I I I I #
loop $-1 -1 $-1 $-1 $239 $151 #
coedge $-1 -1 $-1 $216 $216 $217 $240 forward $186 $-1 #
coedge $-1 -1 $-1 $217 $217 $216 $240 reversed $188 $-1 #
edge $-1 -1 $-1 $241 0 $241 6.283185307179586232 $189 $242 forward @7 tangent #
vertex $-1 -1 $-1 $191 $243 #
ellipse-curve $-1 -1 $-1 0 0 37.37139472741495183 0 0 1 7.509999999999998899 0 0 1 I I #
point $-1 -1 $-1 7.509999999999999787 0 44.00000065565109253 #
loop $-1 -1 $-1 $-1 $195 $244 #
vertex $-1 -1 $-1 $196 $245 #
ellipse-curve $-1 -1 $-1 0 0 60.00000087916851044 0 0 1 35 0 0 1 I I #
tcoedge-coedge $-1 -1 $-1 $225 $225 $205 $226 forward $203 $246 0 6.283185307179586232 #
tedge-edge $-1 -1 $-1 $247 0 $247 6.283185307179586232 $225 $248 forward @7 unknown 6.55651092529296875e-07 #
pcurve $-1 -1 $-1 0 forward { exppc nubs 1 periodic 2 
	-6.283185307179586232 1 -0 1 
	2.93724966622162853 6.283185307179586232 
	2.93724966622162853 -2.449293598294706414e-16 
	0 
	cone 0 0 22 0 0 1 7.490000000000001101 0 0 1 I I 0 1 7.490000000000001101 forward I I I I 
	} 0 0 #
vertex $-1 -1 $-1 $207 $249 #
ellipse-curve $-1 -1 $-1 0 0 0 0 0 1 7.490000000000001101 0 0 1 I I #
vertex $-1 -1 $-1 $208 $250 #
ellipse-curve $-1 -1 $-1 0 0 0 0 0 1 3.049999999999999822 0 0 1 I I #
point $-1 -1 $-1 3.049999999999982059 0 35.12250053549194462 #
DXID-attrib $-1 -1 $-1 $-1 $212 @10 ASM ENTITY @1 9 #
face $251 -1 $-1 $252 $253 $9 $-1 $254 forward single #
loop $-1 -1 $-1 $255 $256 $212 #
cone-surface $-1 -1 $-1 0 0 62.50000098347663879 0 0 1 30.58600000000000207 0 0 1 I I 0 -1 30.58600000000000207 forward I I I I #
loop $-1 -1 $-1 $-1 $257 $185 #
coedge $-1 -1 $-1 $238 $238 $239 $258 forward $213 $-1 #
coedge $-1 -1 $-1 $239 $239 $238 $258 reversed $215 $-1 #
edge $-1 -1 $-1 $259 0 $259 6.283185307179586232 $216 $260 forward @7 tangent #
vertex $-1 -1 $-1 $218 $261 #
ellipse-curve $-1 -1 $-1 0 0 59.14442257704652661 0 0 1 25.46943096637397019 0 0 1 I I #
point $-1 -1 $-1 7.509999999999998899 0 37.37139472741495183 #
face $262 -1 $-1 $87 $263 $9 $-1 $264 forward single #
point $-1 -1 $-1 35 0 60.00000087916851044 #
pcurve $-1 -1 $-1 0 forward { exppc nurbs 2 periodic 5 
	0 2 1.570796326794896558 2 3.141592653589793116 2 4.712388980384689674 2 6.283185307179586232 2 
	0.4490000000000000657 0 1 
	0.4490000000000000657 0.7490000000000001101 0.7071067811865479058 
	-0.2999999999999999889 0.7490000000000001101 1 
	-1.049000000000000155 0.7490000000000002212 0.7071067811865475727 
	-1.049000000000000155 9.172604525613676165e-17 1 
	-1.049000000000000377 -0.7489999999999999991 0.7071067811865481278 
	-0.3000000000000001554 -0.7490000000000001101 1 
	0.4489999999999999547 -0.7490000000000003322 0.7071067811865475727 
	0.4490000000000000657 -1.834520905122735233e-16 1 
	0 
	plane 3.000000000000000444 0 44.00000065565109253 0 0 1 10 0 0 forward_v I I I I 
	} 0 0 #
tvertex-vertex $-1 -1 $-1 $226 $265 6.556610925292968334e-07 #
ellipse-curve $-1 -1 $-1 0 0 44 0 0 1 7.490000000000001101 0 0 1 I I #
point $-1 -1 $-1 7.490000000000001101 0 0 #
point $-1 -1 $-1 3.049999999999999822 0 -1.087486357642850395e-15 #
DXID-attrib $-1 -1 $-1 $-1 $234 @10 ASM ENTITY @2 10 #
face $266 -1 $-1 $244 $267 $9 $-1 $268 forward single #
loop $-1 -1 $-1 $269 $270 $234 #
torus-surface $-1 -1 $-1 0 0 60.00000087916849623 0 0 1 31.58599999999999497 0.9999999999999875655 1 0 0 forward_v I I I I #
loop $-1 -1 $-1 $-1 $271 $212 #
coedge $-1 -1 $-1 $256 $256 $257 $272 forward $235 $-1 #
coedge $-1 -1 $-1 $257 $257 $256 $272 reversed $237 $-1 #
edge $-1 -1 $-1 $273 0 $273 6.283185307179586232 $238 $274 forward @7 unknown #
vertex $-1 -1 $-1 $240 $275 #
ellipse-curve $-1 -1 $-1 0 0 59.78073560073795534 0 0 1 25.69800000000000395 0 0 1 I I #
point $-1 -1 $-1 25.46943096637397019 0 59.14442257704652661 #
DXID-attrib $-1 -1 $-1 $-1 $244 @10 ASM ENTITY @2 12 #
loop $-1 -1 $-1 $222 $276 $244 #
torus-surface $-1 -1 $-1 0 0 60.00000087916849623 0 0 1 34.00000000000000711 0.9999999999999920064 1 0 0 forward_v I I I I #
point $-1 -1 $-1 7.490000000000001101 0 44 #
DXID-attrib $-1 -1 $-1 $-1 $252 @10 ASM ENTITY @2 11 #
loop $-1 -1 $-1 $277 $278 $252 #
plane-surface $-1 -1 $-1 34 0 59.00000087916851044 -0 -0 -1 -10 0 0 forward_v I I I I #
loop $-1 -1 $-1 $-1 $279 $234 #
coedge $-1 -1 $-1 $270 $270 $271 $280 forward $253 $-1 #
coedge $-1 -1 $-1 $271 $271 $270 $280 reversed $255 $-1 #
edge $-1 -1 $-1 $281 0 $281 6.283185307179586232 $256 $282 forward @7 unknown #
vertex $-1 -1 $-1 $258 $283 #
ellipse-curve $-1 -1 $-1 0 0 65.00000108778476715 0 0 1 25.69800000000000395 0 0 1 I I #
point $-1 -1 $-1 25.69800000000000395 0 59.78073560073795534 #
coedge $-1 -1 $-1 $276 $276 $284 $285 forward $263 $-1 #
loop $-1 -1 $-1 $-1 $284 $252 #
coedge $-1 -1 $-1 $278 $278 $279 $286 forward $267 $-1 #
coedge $-1 -1 $-1 $279 $279 $278 $286 reversed $269 $-1 #
edge $-1 -1 $-1 $287 0 $287 6.283185307179586232 $270 $288 forward @7 tangent #
vertex $-1 -1 $-1 $272 $289 #
ellipse-curve $-1 -1 $-1 0 0 65.00000108778476715 0 0 1 30.58600000000000207 0 0 1 I I #
point $-1 -1 $-1 25.69800000000000395 0 65.00000108778476715 #
coedge $-1 -1 $-1 $284 $284 $276 $285 reversed $277 $-1 #
edge $-1 -1 $-1 $290 0 $290 6.283185307179586232 $276 $291 forward @7 tangent #
edge $-1 -1 $-1 $292 0 $292 6.283185307179586232 $278 $293 forward @7 tangent #
vertex $-1 -1 $-1 $280 $294 #
ellipse-curve $-1 -1 $-1 0 0 60.00000087916851044 0 0 1 30.58600000000000563 0 0 1 I I #
point $-1 -1 $-1 30.58600000000000207 0 65.00000108778476715 #
vertex $-1 -1 $-1 $285 $295 #
ellipse-curve $-1 -1 $-1 0 0 59.00000087916851044 0 0 1 34 0 0 1 I I #
vertex $-1 -1 $-1 $286 $296 #
ellipse-curve $-1 -1 $-1 0 0 59.00000087916851044 0 0 1 31.58600000000000207 0 0 1 I I #
point $-1 -1 $-1 30.58600000000000563 0 60.00000087916851044 #
point $-1 -1 $-1 34 0 59.00000087916851044 #
point $-1 -1 $-1 31.58600000000000207 0 59.00000087916851044 #
End-of-ACIS-data 