%TF.GenerationSoftware,KiCad,Pcbnew,(5.1.9)-1*%
%TF.CreationDate,2021-11-05T10:50:43-04:00*%
%TF.ProjectId,raindrop,7261696e-6472-46f7-902e-6b696361645f,rev?*%
%TF.SameCoordinates,Original*%
%TF.FileFunction,Soldermask,Bot*%
%TF.FilePolarity,Negative*%
%FSLAX46Y46*%
G04 Gerber Fmt 4.6, Leading zero omitted, Abs format (unit mm)*
G04 Created by KiCad (PCBNEW (5.1.9)-1) date 2021-11-05 10:50:43*
%MOMM*%
%LPD*%
G01*
G04 APERTURE LIST*
%ADD10C,1.524000*%
%ADD11C,2.000000*%
%ADD12R,2.000000X2.000000*%
%ADD13O,1.600000X1.600000*%
%ADD14R,1.600000X1.600000*%
%ADD15R,2.000000X1.500000*%
%ADD16R,2.000000X3.800000*%
%ADD17C,1.324000*%
%ADD18O,2.524000X1.424000*%
%ADD19C,8.000000*%
%ADD20R,3.500000X3.500000*%
G04 APERTURE END LIST*
D10*
%TO.C,J1*%
X153670000Y-81280000D03*
X153670000Y-78740000D03*
X153670000Y-76200000D03*
X153670000Y-73660000D03*
X153670000Y-71120000D03*
X153670000Y-68580000D03*
%TD*%
D11*
%TO.C,J2*%
X129540000Y-99060000D03*
D12*
X129540000Y-91440000D03*
%TD*%
D13*
%TO.C,A1*%
X133350000Y-69850000D03*
X148590000Y-69850000D03*
X133350000Y-105410000D03*
X148590000Y-72390000D03*
X133350000Y-102870000D03*
X148590000Y-74930000D03*
X133350000Y-100330000D03*
X148590000Y-77470000D03*
X133350000Y-97790000D03*
X148590000Y-80010000D03*
X133350000Y-95250000D03*
X148590000Y-82550000D03*
X133350000Y-92710000D03*
X148590000Y-85090000D03*
X133350000Y-90170000D03*
X148590000Y-87630000D03*
X133350000Y-87630000D03*
X148590000Y-90170000D03*
X133350000Y-85090000D03*
X148590000Y-92710000D03*
X133350000Y-82550000D03*
X148590000Y-95250000D03*
X133350000Y-80010000D03*
X148590000Y-97790000D03*
X133350000Y-77470000D03*
X148590000Y-100330000D03*
X133350000Y-74930000D03*
X148590000Y-102870000D03*
X133350000Y-72390000D03*
D14*
X148590000Y-105410000D03*
%TD*%
%TO.C,U2*%
G36*
G01*
X144595000Y-113180000D02*
X144595000Y-112880000D01*
G75*
G02*
X144745000Y-112730000I150000J0D01*
G01*
X146495000Y-112730000D01*
G75*
G02*
X146645000Y-112880000I0J-150000D01*
G01*
X146645000Y-113180000D01*
G75*
G02*
X146495000Y-113330000I-150000J0D01*
G01*
X144745000Y-113330000D01*
G75*
G02*
X144595000Y-113180000I0J150000D01*
G01*
G37*
G36*
G01*
X144595000Y-111910000D02*
X144595000Y-111610000D01*
G75*
G02*
X144745000Y-111460000I150000J0D01*
G01*
X146495000Y-111460000D01*
G75*
G02*
X146645000Y-111610000I0J-150000D01*
G01*
X146645000Y-111910000D01*
G75*
G02*
X146495000Y-112060000I-150000J0D01*
G01*
X144745000Y-112060000D01*
G75*
G02*
X144595000Y-111910000I0J150000D01*
G01*
G37*
G36*
G01*
X144595000Y-110640000D02*
X144595000Y-110340000D01*
G75*
G02*
X144745000Y-110190000I150000J0D01*
G01*
X146495000Y-110190000D01*
G75*
G02*
X146645000Y-110340000I0J-150000D01*
G01*
X146645000Y-110640000D01*
G75*
G02*
X146495000Y-110790000I-150000J0D01*
G01*
X144745000Y-110790000D01*
G75*
G02*
X144595000Y-110640000I0J150000D01*
G01*
G37*
G36*
G01*
X144595000Y-109370000D02*
X144595000Y-109070000D01*
G75*
G02*
X144745000Y-108920000I150000J0D01*
G01*
X146495000Y-108920000D01*
G75*
G02*
X146645000Y-109070000I0J-150000D01*
G01*
X146645000Y-109370000D01*
G75*
G02*
X146495000Y-109520000I-150000J0D01*
G01*
X144745000Y-109520000D01*
G75*
G02*
X144595000Y-109370000I0J150000D01*
G01*
G37*
G36*
G01*
X144595000Y-108100000D02*
X144595000Y-107800000D01*
G75*
G02*
X144745000Y-107650000I150000J0D01*
G01*
X146495000Y-107650000D01*
G75*
G02*
X146645000Y-107800000I0J-150000D01*
G01*
X146645000Y-108100000D01*
G75*
G02*
X146495000Y-108250000I-150000J0D01*
G01*
X144745000Y-108250000D01*
G75*
G02*
X144595000Y-108100000I0J150000D01*
G01*
G37*
G36*
G01*
X144595000Y-106830000D02*
X144595000Y-106530000D01*
G75*
G02*
X144745000Y-106380000I150000J0D01*
G01*
X146495000Y-106380000D01*
G75*
G02*
X146645000Y-106530000I0J-150000D01*
G01*
X146645000Y-106830000D01*
G75*
G02*
X146495000Y-106980000I-150000J0D01*
G01*
X144745000Y-106980000D01*
G75*
G02*
X144595000Y-106830000I0J150000D01*
G01*
G37*
G36*
G01*
X144595000Y-105560000D02*
X144595000Y-105260000D01*
G75*
G02*
X144745000Y-105110000I150000J0D01*
G01*
X146495000Y-105110000D01*
G75*
G02*
X146645000Y-105260000I0J-150000D01*
G01*
X146645000Y-105560000D01*
G75*
G02*
X146495000Y-105710000I-150000J0D01*
G01*
X144745000Y-105710000D01*
G75*
G02*
X144595000Y-105560000I0J150000D01*
G01*
G37*
G36*
G01*
X144595000Y-104290000D02*
X144595000Y-103990000D01*
G75*
G02*
X144745000Y-103840000I150000J0D01*
G01*
X146495000Y-103840000D01*
G75*
G02*
X146645000Y-103990000I0J-150000D01*
G01*
X146645000Y-104290000D01*
G75*
G02*
X146495000Y-104440000I-150000J0D01*
G01*
X144745000Y-104440000D01*
G75*
G02*
X144595000Y-104290000I0J150000D01*
G01*
G37*
G36*
G01*
X135295000Y-104290000D02*
X135295000Y-103990000D01*
G75*
G02*
X135445000Y-103840000I150000J0D01*
G01*
X137195000Y-103840000D01*
G75*
G02*
X137345000Y-103990000I0J-150000D01*
G01*
X137345000Y-104290000D01*
G75*
G02*
X137195000Y-104440000I-150000J0D01*
G01*
X135445000Y-104440000D01*
G75*
G02*
X135295000Y-104290000I0J150000D01*
G01*
G37*
G36*
G01*
X135295000Y-105560000D02*
X135295000Y-105260000D01*
G75*
G02*
X135445000Y-105110000I150000J0D01*
G01*
X137195000Y-105110000D01*
G75*
G02*
X137345000Y-105260000I0J-150000D01*
G01*
X137345000Y-105560000D01*
G75*
G02*
X137195000Y-105710000I-150000J0D01*
G01*
X135445000Y-105710000D01*
G75*
G02*
X135295000Y-105560000I0J150000D01*
G01*
G37*
G36*
G01*
X135295000Y-106830000D02*
X135295000Y-106530000D01*
G75*
G02*
X135445000Y-106380000I150000J0D01*
G01*
X137195000Y-106380000D01*
G75*
G02*
X137345000Y-106530000I0J-150000D01*
G01*
X137345000Y-106830000D01*
G75*
G02*
X137195000Y-106980000I-150000J0D01*
G01*
X135445000Y-106980000D01*
G75*
G02*
X135295000Y-106830000I0J150000D01*
G01*
G37*
G36*
G01*
X135295000Y-108100000D02*
X135295000Y-107800000D01*
G75*
G02*
X135445000Y-107650000I150000J0D01*
G01*
X137195000Y-107650000D01*
G75*
G02*
X137345000Y-107800000I0J-150000D01*
G01*
X137345000Y-108100000D01*
G75*
G02*
X137195000Y-108250000I-150000J0D01*
G01*
X135445000Y-108250000D01*
G75*
G02*
X135295000Y-108100000I0J150000D01*
G01*
G37*
G36*
G01*
X135295000Y-109370000D02*
X135295000Y-109070000D01*
G75*
G02*
X135445000Y-108920000I150000J0D01*
G01*
X137195000Y-108920000D01*
G75*
G02*
X137345000Y-109070000I0J-150000D01*
G01*
X137345000Y-109370000D01*
G75*
G02*
X137195000Y-109520000I-150000J0D01*
G01*
X135445000Y-109520000D01*
G75*
G02*
X135295000Y-109370000I0J150000D01*
G01*
G37*
G36*
G01*
X135295000Y-110640000D02*
X135295000Y-110340000D01*
G75*
G02*
X135445000Y-110190000I150000J0D01*
G01*
X137195000Y-110190000D01*
G75*
G02*
X137345000Y-110340000I0J-150000D01*
G01*
X137345000Y-110640000D01*
G75*
G02*
X137195000Y-110790000I-150000J0D01*
G01*
X135445000Y-110790000D01*
G75*
G02*
X135295000Y-110640000I0J150000D01*
G01*
G37*
G36*
G01*
X135295000Y-111910000D02*
X135295000Y-111610000D01*
G75*
G02*
X135445000Y-111460000I150000J0D01*
G01*
X137195000Y-111460000D01*
G75*
G02*
X137345000Y-111610000I0J-150000D01*
G01*
X137345000Y-111910000D01*
G75*
G02*
X137195000Y-112060000I-150000J0D01*
G01*
X135445000Y-112060000D01*
G75*
G02*
X135295000Y-111910000I0J150000D01*
G01*
G37*
G36*
G01*
X135295000Y-113180000D02*
X135295000Y-112880000D01*
G75*
G02*
X135445000Y-112730000I150000J0D01*
G01*
X137195000Y-112730000D01*
G75*
G02*
X137345000Y-112880000I0J-150000D01*
G01*
X137345000Y-113180000D01*
G75*
G02*
X137195000Y-113330000I-150000J0D01*
G01*
X135445000Y-113330000D01*
G75*
G02*
X135295000Y-113180000I0J150000D01*
G01*
G37*
%TD*%
D15*
%TO.C,U1*%
X135230000Y-117690000D03*
X135230000Y-122290000D03*
X135230000Y-119990000D03*
D16*
X128930000Y-119990000D03*
%TD*%
%TO.C,R3*%
G36*
G01*
X137722500Y-92084999D02*
X137722500Y-93335001D01*
G75*
G02*
X137472501Y-93585000I-249999J0D01*
G01*
X136847499Y-93585000D01*
G75*
G02*
X136597500Y-93335001I0J249999D01*
G01*
X136597500Y-92084999D01*
G75*
G02*
X136847499Y-91835000I249999J0D01*
G01*
X137472501Y-91835000D01*
G75*
G02*
X137722500Y-92084999I0J-249999D01*
G01*
G37*
G36*
G01*
X140647500Y-92084999D02*
X140647500Y-93335001D01*
G75*
G02*
X140397501Y-93585000I-249999J0D01*
G01*
X139772499Y-93585000D01*
G75*
G02*
X139522500Y-93335001I0J249999D01*
G01*
X139522500Y-92084999D01*
G75*
G02*
X139772499Y-91835000I249999J0D01*
G01*
X140397501Y-91835000D01*
G75*
G02*
X140647500Y-92084999I0J-249999D01*
G01*
G37*
%TD*%
%TO.C,R2*%
G36*
G01*
X139137500Y-97145001D02*
X139137500Y-95894999D01*
G75*
G02*
X139387499Y-95645000I249999J0D01*
G01*
X140012501Y-95645000D01*
G75*
G02*
X140262500Y-95894999I0J-249999D01*
G01*
X140262500Y-97145001D01*
G75*
G02*
X140012501Y-97395000I-249999J0D01*
G01*
X139387499Y-97395000D01*
G75*
G02*
X139137500Y-97145001I0J249999D01*
G01*
G37*
G36*
G01*
X136212500Y-97145001D02*
X136212500Y-95894999D01*
G75*
G02*
X136462499Y-95645000I249999J0D01*
G01*
X137087501Y-95645000D01*
G75*
G02*
X137337500Y-95894999I0J-249999D01*
G01*
X137337500Y-97145001D01*
G75*
G02*
X137087501Y-97395000I-249999J0D01*
G01*
X136462499Y-97395000D01*
G75*
G02*
X136212500Y-97145001I0J249999D01*
G01*
G37*
%TD*%
%TO.C,R1*%
G36*
G01*
X139137500Y-89525001D02*
X139137500Y-88274999D01*
G75*
G02*
X139387499Y-88025000I249999J0D01*
G01*
X140012501Y-88025000D01*
G75*
G02*
X140262500Y-88274999I0J-249999D01*
G01*
X140262500Y-89525001D01*
G75*
G02*
X140012501Y-89775000I-249999J0D01*
G01*
X139387499Y-89775000D01*
G75*
G02*
X139137500Y-89525001I0J249999D01*
G01*
G37*
G36*
G01*
X136212500Y-89525001D02*
X136212500Y-88274999D01*
G75*
G02*
X136462499Y-88025000I249999J0D01*
G01*
X137087501Y-88025000D01*
G75*
G02*
X137337500Y-88274999I0J-249999D01*
G01*
X137337500Y-89525001D01*
G75*
G02*
X137087501Y-89775000I-249999J0D01*
G01*
X136462499Y-89775000D01*
G75*
G02*
X136212500Y-89525001I0J249999D01*
G01*
G37*
%TD*%
D17*
%TO.C,J4*%
X154940000Y-94361000D03*
X154940000Y-92329000D03*
X154940000Y-90297000D03*
D18*
X154940000Y-96520000D03*
X154940000Y-88138000D03*
%TD*%
D11*
%TO.C,J3*%
X129540000Y-104140000D03*
D12*
X129540000Y-111760000D03*
%TD*%
%TO.C,C4*%
G36*
G01*
X140600000Y-122570001D02*
X140600000Y-121269999D01*
G75*
G02*
X140849999Y-121020000I249999J0D01*
G01*
X141500001Y-121020000D01*
G75*
G02*
X141750000Y-121269999I0J-249999D01*
G01*
X141750000Y-122570001D01*
G75*
G02*
X141500001Y-122820000I-249999J0D01*
G01*
X140849999Y-122820000D01*
G75*
G02*
X140600000Y-122570001I0J249999D01*
G01*
G37*
G36*
G01*
X137650000Y-122570001D02*
X137650000Y-121269999D01*
G75*
G02*
X137899999Y-121020000I249999J0D01*
G01*
X138550001Y-121020000D01*
G75*
G02*
X138800000Y-121269999I0J-249999D01*
G01*
X138800000Y-122570001D01*
G75*
G02*
X138550001Y-122820000I-249999J0D01*
G01*
X137899999Y-122820000D01*
G75*
G02*
X137650000Y-122570001I0J249999D01*
G01*
G37*
%TD*%
%TO.C,C3*%
G36*
G01*
X154289999Y-103565000D02*
X155590001Y-103565000D01*
G75*
G02*
X155840000Y-103814999I0J-249999D01*
G01*
X155840000Y-104465001D01*
G75*
G02*
X155590001Y-104715000I-249999J0D01*
G01*
X154289999Y-104715000D01*
G75*
G02*
X154040000Y-104465001I0J249999D01*
G01*
X154040000Y-103814999D01*
G75*
G02*
X154289999Y-103565000I249999J0D01*
G01*
G37*
G36*
G01*
X154289999Y-100615000D02*
X155590001Y-100615000D01*
G75*
G02*
X155840000Y-100864999I0J-249999D01*
G01*
X155840000Y-101515001D01*
G75*
G02*
X155590001Y-101765000I-249999J0D01*
G01*
X154289999Y-101765000D01*
G75*
G02*
X154040000Y-101515001I0J249999D01*
G01*
X154040000Y-100864999D01*
G75*
G02*
X154289999Y-100615000I249999J0D01*
G01*
G37*
%TD*%
%TO.C,C2*%
G36*
G01*
X139005000Y-116189999D02*
X139005000Y-117490001D01*
G75*
G02*
X138755001Y-117740000I-249999J0D01*
G01*
X138104999Y-117740000D01*
G75*
G02*
X137855000Y-117490001I0J249999D01*
G01*
X137855000Y-116189999D01*
G75*
G02*
X138104999Y-115940000I249999J0D01*
G01*
X138755001Y-115940000D01*
G75*
G02*
X139005000Y-116189999I0J-249999D01*
G01*
G37*
G36*
G01*
X141955000Y-116189999D02*
X141955000Y-117490001D01*
G75*
G02*
X141705001Y-117740000I-249999J0D01*
G01*
X141054999Y-117740000D01*
G75*
G02*
X140805000Y-117490001I0J249999D01*
G01*
X140805000Y-116189999D01*
G75*
G02*
X141054999Y-115940000I249999J0D01*
G01*
X141705001Y-115940000D01*
G75*
G02*
X141955000Y-116189999I0J-249999D01*
G01*
G37*
%TD*%
D19*
%TO.C,BT1*%
X151130000Y-119380000D03*
D20*
X151130000Y-127635000D03*
X151130000Y-111125000D03*
%TD*%
M02*
