%TF.GenerationSoftware,KiCad,Pcbnew,(5.1.9)-1*%
%TF.CreationDate,2021-11-05T10:50:43-04:00*%
%TF.ProjectId,raindrop,7261696e-6472-46f7-902e-6b696361645f,rev?*%
%TF.SameCoordinates,Original*%
%TF.FileFunction,Copper,L2,Bot*%
%TF.FilePolarity,Positive*%
%FSLAX46Y46*%
G04 Gerber Fmt 4.6, Leading zero omitted, Abs format (unit mm)*
G04 Created by KiCad (PCBNEW (5.1.9)-1) date 2021-11-05 10:50:43*
%MOMM*%
%LPD*%
G01*
G04 APERTURE LIST*
%TA.AperFunction,ComponentPad*%
%ADD10C,1.524000*%
%TD*%
%TA.AperFunction,ComponentPad*%
%ADD11C,2.000000*%
%TD*%
%TA.AperFunction,ComponentPad*%
%ADD12R,2.000000X2.000000*%
%TD*%
%TA.AperFunction,ComponentPad*%
%ADD13O,1.600000X1.600000*%
%TD*%
%TA.AperFunction,ComponentPad*%
%ADD14R,1.600000X1.600000*%
%TD*%
%TA.AperFunction,SMDPad,CuDef*%
%ADD15R,2.000000X1.500000*%
%TD*%
%TA.AperFunction,SMDPad,CuDef*%
%ADD16R,2.000000X3.800000*%
%TD*%
%TA.AperFunction,ComponentPad*%
%ADD17C,1.324000*%
%TD*%
%TA.AperFunction,ComponentPad*%
%ADD18O,2.524000X1.424000*%
%TD*%
%TA.AperFunction,SMDPad,CuDef*%
%ADD19C,8.000000*%
%TD*%
%TA.AperFunction,SMDPad,CuDef*%
%ADD20R,3.500000X3.500000*%
%TD*%
%TA.AperFunction,ViaPad*%
%ADD21C,0.800000*%
%TD*%
%TA.AperFunction,Conductor*%
%ADD22C,0.250000*%
%TD*%
%TA.AperFunction,Conductor*%
%ADD23C,0.254000*%
%TD*%
%TA.AperFunction,Conductor*%
%ADD24C,0.100000*%
%TD*%
G04 APERTURE END LIST*
D10*
%TO.P,J1,1*%
%TO.N,Net-(A1-Pad17)*%
X153670000Y-81280000D03*
%TO.P,J1,2*%
%TO.N,Net-(A1-Pad13)*%
X153670000Y-78740000D03*
%TO.P,J1,3*%
%TO.N,Net-(A1-Pad14)*%
X153670000Y-76200000D03*
%TO.P,J1,4*%
%TO.N,Net-(A1-Pad16)*%
X153670000Y-73660000D03*
%TO.P,J1,5*%
%TO.N,Net-(A1-Pad15)*%
X153670000Y-71120000D03*
%TO.P,J1,6*%
%TO.N,Earth*%
X153670000Y-68580000D03*
%TD*%
D11*
%TO.P,J2,1*%
%TO.N,Net-(A1-Pad27)*%
X129540000Y-99060000D03*
D12*
%TO.P,J2,2*%
%TO.N,Net-(A1-Pad19)*%
X129540000Y-91440000D03*
%TD*%
D13*
%TO.P,A1,16*%
%TO.N,Net-(A1-Pad16)*%
X133350000Y-69850000D03*
%TO.P,A1,15*%
%TO.N,Net-(A1-Pad15)*%
X148590000Y-69850000D03*
%TO.P,A1,30*%
%TO.N,Net-(A1-Pad30)*%
X133350000Y-105410000D03*
%TO.P,A1,14*%
%TO.N,Net-(A1-Pad14)*%
X148590000Y-72390000D03*
%TO.P,A1,29*%
%TO.N,GND*%
X133350000Y-102870000D03*
%TO.P,A1,13*%
%TO.N,Net-(A1-Pad13)*%
X148590000Y-74930000D03*
%TO.P,A1,28*%
%TO.N,Net-(A1-Pad28)*%
X133350000Y-100330000D03*
%TO.P,A1,12*%
%TO.N,Net-(A1-Pad12)*%
X148590000Y-77470000D03*
%TO.P,A1,27*%
%TO.N,Net-(A1-Pad27)*%
X133350000Y-97790000D03*
%TO.P,A1,11*%
%TO.N,Net-(A1-Pad11)*%
X148590000Y-80010000D03*
%TO.P,A1,26*%
%TO.N,Net-(A1-Pad26)*%
X133350000Y-95250000D03*
%TO.P,A1,10*%
%TO.N,Net-(A1-Pad10)*%
X148590000Y-82550000D03*
%TO.P,A1,25*%
%TO.N,Net-(A1-Pad25)*%
X133350000Y-92710000D03*
%TO.P,A1,9*%
%TO.N,Net-(A1-Pad9)*%
X148590000Y-85090000D03*
%TO.P,A1,24*%
%TO.N,Net-(A1-Pad24)*%
X133350000Y-90170000D03*
%TO.P,A1,8*%
%TO.N,Net-(A1-Pad8)*%
X148590000Y-87630000D03*
%TO.P,A1,23*%
%TO.N,Net-(A1-Pad23)*%
X133350000Y-87630000D03*
%TO.P,A1,7*%
%TO.N,Net-(A1-Pad7)*%
X148590000Y-90170000D03*
%TO.P,A1,22*%
%TO.N,Net-(A1-Pad22)*%
X133350000Y-85090000D03*
%TO.P,A1,6*%
%TO.N,Net-(A1-Pad6)*%
X148590000Y-92710000D03*
%TO.P,A1,21*%
%TO.N,Net-(A1-Pad21)*%
X133350000Y-82550000D03*
%TO.P,A1,5*%
%TO.N,Net-(A1-Pad5)*%
X148590000Y-95250000D03*
%TO.P,A1,20*%
%TO.N,Net-(A1-Pad20)*%
X133350000Y-80010000D03*
%TO.P,A1,4*%
%TO.N,GND*%
X148590000Y-97790000D03*
%TO.P,A1,19*%
%TO.N,Net-(A1-Pad19)*%
X133350000Y-77470000D03*
%TO.P,A1,3*%
%TO.N,Net-(A1-Pad3)*%
X148590000Y-100330000D03*
%TO.P,A1,18*%
%TO.N,Net-(A1-Pad18)*%
X133350000Y-74930000D03*
%TO.P,A1,2*%
%TO.N,Net-(A1-Pad2)*%
X148590000Y-102870000D03*
%TO.P,A1,17*%
%TO.N,Net-(A1-Pad17)*%
X133350000Y-72390000D03*
D14*
%TO.P,A1,1*%
%TO.N,Net-(A1-Pad1)*%
X148590000Y-105410000D03*
%TD*%
%TO.P,U2,16*%
%TO.N,Net-(A1-Pad24)*%
%TA.AperFunction,SMDPad,CuDef*%
G36*
G01*
X144595000Y-113180000D02*
X144595000Y-112880000D01*
G75*
G02*
X144745000Y-112730000I150000J0D01*
G01*
X146495000Y-112730000D01*
G75*
G02*
X146645000Y-112880000I0J-150000D01*
G01*
X146645000Y-113180000D01*
G75*
G02*
X146495000Y-113330000I-150000J0D01*
G01*
X144745000Y-113330000D01*
G75*
G02*
X144595000Y-113180000I0J150000D01*
G01*
G37*
%TD.AperFunction*%
%TO.P,U2,15*%
%TO.N,Net-(A1-Pad23)*%
%TA.AperFunction,SMDPad,CuDef*%
G36*
G01*
X144595000Y-111910000D02*
X144595000Y-111610000D01*
G75*
G02*
X144745000Y-111460000I150000J0D01*
G01*
X146495000Y-111460000D01*
G75*
G02*
X146645000Y-111610000I0J-150000D01*
G01*
X146645000Y-111910000D01*
G75*
G02*
X146495000Y-112060000I-150000J0D01*
G01*
X144745000Y-112060000D01*
G75*
G02*
X144595000Y-111910000I0J150000D01*
G01*
G37*
%TD.AperFunction*%
%TO.P,U2,14*%
%TO.N,Net-(BT1-Pad1)*%
%TA.AperFunction,SMDPad,CuDef*%
G36*
G01*
X144595000Y-110640000D02*
X144595000Y-110340000D01*
G75*
G02*
X144745000Y-110190000I150000J0D01*
G01*
X146495000Y-110190000D01*
G75*
G02*
X146645000Y-110340000I0J-150000D01*
G01*
X146645000Y-110640000D01*
G75*
G02*
X146495000Y-110790000I-150000J0D01*
G01*
X144745000Y-110790000D01*
G75*
G02*
X144595000Y-110640000I0J150000D01*
G01*
G37*
%TD.AperFunction*%
%TO.P,U2,13*%
%TO.N,Earth*%
%TA.AperFunction,SMDPad,CuDef*%
G36*
G01*
X144595000Y-109370000D02*
X144595000Y-109070000D01*
G75*
G02*
X144745000Y-108920000I150000J0D01*
G01*
X146495000Y-108920000D01*
G75*
G02*
X146645000Y-109070000I0J-150000D01*
G01*
X146645000Y-109370000D01*
G75*
G02*
X146495000Y-109520000I-150000J0D01*
G01*
X144745000Y-109520000D01*
G75*
G02*
X144595000Y-109370000I0J150000D01*
G01*
G37*
%TD.AperFunction*%
%TO.P,U2,12*%
%TA.AperFunction,SMDPad,CuDef*%
G36*
G01*
X144595000Y-108100000D02*
X144595000Y-107800000D01*
G75*
G02*
X144745000Y-107650000I150000J0D01*
G01*
X146495000Y-107650000D01*
G75*
G02*
X146645000Y-107800000I0J-150000D01*
G01*
X146645000Y-108100000D01*
G75*
G02*
X146495000Y-108250000I-150000J0D01*
G01*
X144745000Y-108250000D01*
G75*
G02*
X144595000Y-108100000I0J150000D01*
G01*
G37*
%TD.AperFunction*%
%TO.P,U2,11*%
%TA.AperFunction,SMDPad,CuDef*%
G36*
G01*
X144595000Y-106830000D02*
X144595000Y-106530000D01*
G75*
G02*
X144745000Y-106380000I150000J0D01*
G01*
X146495000Y-106380000D01*
G75*
G02*
X146645000Y-106530000I0J-150000D01*
G01*
X146645000Y-106830000D01*
G75*
G02*
X146495000Y-106980000I-150000J0D01*
G01*
X144745000Y-106980000D01*
G75*
G02*
X144595000Y-106830000I0J150000D01*
G01*
G37*
%TD.AperFunction*%
%TO.P,U2,10*%
%TA.AperFunction,SMDPad,CuDef*%
G36*
G01*
X144595000Y-105560000D02*
X144595000Y-105260000D01*
G75*
G02*
X144745000Y-105110000I150000J0D01*
G01*
X146495000Y-105110000D01*
G75*
G02*
X146645000Y-105260000I0J-150000D01*
G01*
X146645000Y-105560000D01*
G75*
G02*
X146495000Y-105710000I-150000J0D01*
G01*
X144745000Y-105710000D01*
G75*
G02*
X144595000Y-105560000I0J150000D01*
G01*
G37*
%TD.AperFunction*%
%TO.P,U2,9*%
%TA.AperFunction,SMDPad,CuDef*%
G36*
G01*
X144595000Y-104290000D02*
X144595000Y-103990000D01*
G75*
G02*
X144745000Y-103840000I150000J0D01*
G01*
X146495000Y-103840000D01*
G75*
G02*
X146645000Y-103990000I0J-150000D01*
G01*
X146645000Y-104290000D01*
G75*
G02*
X146495000Y-104440000I-150000J0D01*
G01*
X144745000Y-104440000D01*
G75*
G02*
X144595000Y-104290000I0J150000D01*
G01*
G37*
%TD.AperFunction*%
%TO.P,U2,8*%
%TA.AperFunction,SMDPad,CuDef*%
G36*
G01*
X135295000Y-104290000D02*
X135295000Y-103990000D01*
G75*
G02*
X135445000Y-103840000I150000J0D01*
G01*
X137195000Y-103840000D01*
G75*
G02*
X137345000Y-103990000I0J-150000D01*
G01*
X137345000Y-104290000D01*
G75*
G02*
X137195000Y-104440000I-150000J0D01*
G01*
X135445000Y-104440000D01*
G75*
G02*
X135295000Y-104290000I0J150000D01*
G01*
G37*
%TD.AperFunction*%
%TO.P,U2,7*%
%TA.AperFunction,SMDPad,CuDef*%
G36*
G01*
X135295000Y-105560000D02*
X135295000Y-105260000D01*
G75*
G02*
X135445000Y-105110000I150000J0D01*
G01*
X137195000Y-105110000D01*
G75*
G02*
X137345000Y-105260000I0J-150000D01*
G01*
X137345000Y-105560000D01*
G75*
G02*
X137195000Y-105710000I-150000J0D01*
G01*
X135445000Y-105710000D01*
G75*
G02*
X135295000Y-105560000I0J150000D01*
G01*
G37*
%TD.AperFunction*%
%TO.P,U2,6*%
%TA.AperFunction,SMDPad,CuDef*%
G36*
G01*
X135295000Y-106830000D02*
X135295000Y-106530000D01*
G75*
G02*
X135445000Y-106380000I150000J0D01*
G01*
X137195000Y-106380000D01*
G75*
G02*
X137345000Y-106530000I0J-150000D01*
G01*
X137345000Y-106830000D01*
G75*
G02*
X137195000Y-106980000I-150000J0D01*
G01*
X135445000Y-106980000D01*
G75*
G02*
X135295000Y-106830000I0J150000D01*
G01*
G37*
%TD.AperFunction*%
%TO.P,U2,5*%
%TA.AperFunction,SMDPad,CuDef*%
G36*
G01*
X135295000Y-108100000D02*
X135295000Y-107800000D01*
G75*
G02*
X135445000Y-107650000I150000J0D01*
G01*
X137195000Y-107650000D01*
G75*
G02*
X137345000Y-107800000I0J-150000D01*
G01*
X137345000Y-108100000D01*
G75*
G02*
X137195000Y-108250000I-150000J0D01*
G01*
X135445000Y-108250000D01*
G75*
G02*
X135295000Y-108100000I0J150000D01*
G01*
G37*
%TD.AperFunction*%
%TO.P,U2,4*%
%TO.N,Net-(U2-Pad4)*%
%TA.AperFunction,SMDPad,CuDef*%
G36*
G01*
X135295000Y-109370000D02*
X135295000Y-109070000D01*
G75*
G02*
X135445000Y-108920000I150000J0D01*
G01*
X137195000Y-108920000D01*
G75*
G02*
X137345000Y-109070000I0J-150000D01*
G01*
X137345000Y-109370000D01*
G75*
G02*
X137195000Y-109520000I-150000J0D01*
G01*
X135445000Y-109520000D01*
G75*
G02*
X135295000Y-109370000I0J150000D01*
G01*
G37*
%TD.AperFunction*%
%TO.P,U2,3*%
%TO.N,Net-(U2-Pad3)*%
%TA.AperFunction,SMDPad,CuDef*%
G36*
G01*
X135295000Y-110640000D02*
X135295000Y-110340000D01*
G75*
G02*
X135445000Y-110190000I150000J0D01*
G01*
X137195000Y-110190000D01*
G75*
G02*
X137345000Y-110340000I0J-150000D01*
G01*
X137345000Y-110640000D01*
G75*
G02*
X137195000Y-110790000I-150000J0D01*
G01*
X135445000Y-110790000D01*
G75*
G02*
X135295000Y-110640000I0J150000D01*
G01*
G37*
%TD.AperFunction*%
%TO.P,U2,2*%
%TO.N,Net-(A1-Pad17)*%
%TA.AperFunction,SMDPad,CuDef*%
G36*
G01*
X135295000Y-111910000D02*
X135295000Y-111610000D01*
G75*
G02*
X135445000Y-111460000I150000J0D01*
G01*
X137195000Y-111460000D01*
G75*
G02*
X137345000Y-111610000I0J-150000D01*
G01*
X137345000Y-111910000D01*
G75*
G02*
X137195000Y-112060000I-150000J0D01*
G01*
X135445000Y-112060000D01*
G75*
G02*
X135295000Y-111910000I0J150000D01*
G01*
G37*
%TD.AperFunction*%
%TO.P,U2,1*%
%TO.N,Net-(U2-Pad1)*%
%TA.AperFunction,SMDPad,CuDef*%
G36*
G01*
X135295000Y-113180000D02*
X135295000Y-112880000D01*
G75*
G02*
X135445000Y-112730000I150000J0D01*
G01*
X137195000Y-112730000D01*
G75*
G02*
X137345000Y-112880000I0J-150000D01*
G01*
X137345000Y-113180000D01*
G75*
G02*
X137195000Y-113330000I-150000J0D01*
G01*
X135445000Y-113330000D01*
G75*
G02*
X135295000Y-113180000I0J150000D01*
G01*
G37*
%TD.AperFunction*%
%TD*%
D15*
%TO.P,U1,1*%
%TO.N,Net-(C1-Pad1)*%
X135230000Y-117690000D03*
%TO.P,U1,3*%
%TO.N,Net-(A1-Pad30)*%
X135230000Y-122290000D03*
%TO.P,U1,2*%
%TO.N,Earth*%
X135230000Y-119990000D03*
D16*
X128930000Y-119990000D03*
%TD*%
%TO.P,R3,2*%
%TO.N,Net-(A1-Pad23)*%
%TA.AperFunction,SMDPad,CuDef*%
G36*
G01*
X137722500Y-92084999D02*
X137722500Y-93335001D01*
G75*
G02*
X137472501Y-93585000I-249999J0D01*
G01*
X136847499Y-93585000D01*
G75*
G02*
X136597500Y-93335001I0J249999D01*
G01*
X136597500Y-92084999D01*
G75*
G02*
X136847499Y-91835000I249999J0D01*
G01*
X137472501Y-91835000D01*
G75*
G02*
X137722500Y-92084999I0J-249999D01*
G01*
G37*
%TD.AperFunction*%
%TO.P,R3,1*%
%TO.N,Net-(A1-Pad17)*%
%TA.AperFunction,SMDPad,CuDef*%
G36*
G01*
X140647500Y-92084999D02*
X140647500Y-93335001D01*
G75*
G02*
X140397501Y-93585000I-249999J0D01*
G01*
X139772499Y-93585000D01*
G75*
G02*
X139522500Y-93335001I0J249999D01*
G01*
X139522500Y-92084999D01*
G75*
G02*
X139772499Y-91835000I249999J0D01*
G01*
X140397501Y-91835000D01*
G75*
G02*
X140647500Y-92084999I0J-249999D01*
G01*
G37*
%TD.AperFunction*%
%TD*%
%TO.P,R2,2*%
%TO.N,Net-(A1-Pad17)*%
%TA.AperFunction,SMDPad,CuDef*%
G36*
G01*
X139137500Y-97145001D02*
X139137500Y-95894999D01*
G75*
G02*
X139387499Y-95645000I249999J0D01*
G01*
X140012501Y-95645000D01*
G75*
G02*
X140262500Y-95894999I0J-249999D01*
G01*
X140262500Y-97145001D01*
G75*
G02*
X140012501Y-97395000I-249999J0D01*
G01*
X139387499Y-97395000D01*
G75*
G02*
X139137500Y-97145001I0J249999D01*
G01*
G37*
%TD.AperFunction*%
%TO.P,R2,1*%
%TO.N,Net-(A1-Pad24)*%
%TA.AperFunction,SMDPad,CuDef*%
G36*
G01*
X136212500Y-97145001D02*
X136212500Y-95894999D01*
G75*
G02*
X136462499Y-95645000I249999J0D01*
G01*
X137087501Y-95645000D01*
G75*
G02*
X137337500Y-95894999I0J-249999D01*
G01*
X137337500Y-97145001D01*
G75*
G02*
X137087501Y-97395000I-249999J0D01*
G01*
X136462499Y-97395000D01*
G75*
G02*
X136212500Y-97145001I0J249999D01*
G01*
G37*
%TD.AperFunction*%
%TD*%
%TO.P,R1,2*%
%TO.N,Earth*%
%TA.AperFunction,SMDPad,CuDef*%
G36*
G01*
X139137500Y-89525001D02*
X139137500Y-88274999D01*
G75*
G02*
X139387499Y-88025000I249999J0D01*
G01*
X140012501Y-88025000D01*
G75*
G02*
X140262500Y-88274999I0J-249999D01*
G01*
X140262500Y-89525001D01*
G75*
G02*
X140012501Y-89775000I-249999J0D01*
G01*
X139387499Y-89775000D01*
G75*
G02*
X139137500Y-89525001I0J249999D01*
G01*
G37*
%TD.AperFunction*%
%TO.P,R1,1*%
%TO.N,Net-(A1-Pad19)*%
%TA.AperFunction,SMDPad,CuDef*%
G36*
G01*
X136212500Y-89525001D02*
X136212500Y-88274999D01*
G75*
G02*
X136462499Y-88025000I249999J0D01*
G01*
X137087501Y-88025000D01*
G75*
G02*
X137337500Y-88274999I0J-249999D01*
G01*
X137337500Y-89525001D01*
G75*
G02*
X137087501Y-89775000I-249999J0D01*
G01*
X136462499Y-89775000D01*
G75*
G02*
X136212500Y-89525001I0J249999D01*
G01*
G37*
%TD.AperFunction*%
%TD*%
D17*
%TO.P,J4,1*%
%TO.N,Net-(J3-Pad1)*%
X154940000Y-94361000D03*
%TO.P,J4,2*%
%TO.N,Net-(C1-Pad1)*%
X154940000Y-92329000D03*
%TO.P,J4,3*%
%TO.N,N/C*%
X154940000Y-90297000D03*
D18*
%TO.P,J4,4*%
X154940000Y-96520000D03*
%TO.P,J4,5*%
X154940000Y-88138000D03*
%TD*%
D11*
%TO.P,J3,1*%
%TO.N,Net-(J3-Pad1)*%
X129540000Y-104140000D03*
D12*
%TO.P,J3,2*%
%TO.N,Earth*%
X129540000Y-111760000D03*
%TD*%
%TO.P,C4,2*%
%TO.N,Net-(BT1-Pad1)*%
%TA.AperFunction,SMDPad,CuDef*%
G36*
G01*
X140600000Y-122570001D02*
X140600000Y-121269999D01*
G75*
G02*
X140849999Y-121020000I249999J0D01*
G01*
X141500001Y-121020000D01*
G75*
G02*
X141750000Y-121269999I0J-249999D01*
G01*
X141750000Y-122570001D01*
G75*
G02*
X141500001Y-122820000I-249999J0D01*
G01*
X140849999Y-122820000D01*
G75*
G02*
X140600000Y-122570001I0J249999D01*
G01*
G37*
%TD.AperFunction*%
%TO.P,C4,1*%
%TO.N,Earth*%
%TA.AperFunction,SMDPad,CuDef*%
G36*
G01*
X137650000Y-122570001D02*
X137650000Y-121269999D01*
G75*
G02*
X137899999Y-121020000I249999J0D01*
G01*
X138550001Y-121020000D01*
G75*
G02*
X138800000Y-121269999I0J-249999D01*
G01*
X138800000Y-122570001D01*
G75*
G02*
X138550001Y-122820000I-249999J0D01*
G01*
X137899999Y-122820000D01*
G75*
G02*
X137650000Y-122570001I0J249999D01*
G01*
G37*
%TD.AperFunction*%
%TD*%
%TO.P,C3,2*%
%TO.N,Earth*%
%TA.AperFunction,SMDPad,CuDef*%
G36*
G01*
X154289999Y-103565000D02*
X155590001Y-103565000D01*
G75*
G02*
X155840000Y-103814999I0J-249999D01*
G01*
X155840000Y-104465001D01*
G75*
G02*
X155590001Y-104715000I-249999J0D01*
G01*
X154289999Y-104715000D01*
G75*
G02*
X154040000Y-104465001I0J249999D01*
G01*
X154040000Y-103814999D01*
G75*
G02*
X154289999Y-103565000I249999J0D01*
G01*
G37*
%TD.AperFunction*%
%TO.P,C3,1*%
%TO.N,Net-(A1-Pad17)*%
%TA.AperFunction,SMDPad,CuDef*%
G36*
G01*
X154289999Y-100615000D02*
X155590001Y-100615000D01*
G75*
G02*
X155840000Y-100864999I0J-249999D01*
G01*
X155840000Y-101515001D01*
G75*
G02*
X155590001Y-101765000I-249999J0D01*
G01*
X154289999Y-101765000D01*
G75*
G02*
X154040000Y-101515001I0J249999D01*
G01*
X154040000Y-100864999D01*
G75*
G02*
X154289999Y-100615000I249999J0D01*
G01*
G37*
%TD.AperFunction*%
%TD*%
%TO.P,C2,2*%
%TO.N,Earth*%
%TA.AperFunction,SMDPad,CuDef*%
G36*
G01*
X139005000Y-116189999D02*
X139005000Y-117490001D01*
G75*
G02*
X138755001Y-117740000I-249999J0D01*
G01*
X138104999Y-117740000D01*
G75*
G02*
X137855000Y-117490001I0J249999D01*
G01*
X137855000Y-116189999D01*
G75*
G02*
X138104999Y-115940000I249999J0D01*
G01*
X138755001Y-115940000D01*
G75*
G02*
X139005000Y-116189999I0J-249999D01*
G01*
G37*
%TD.AperFunction*%
%TO.P,C2,1*%
%TO.N,Net-(A1-Pad30)*%
%TA.AperFunction,SMDPad,CuDef*%
G36*
G01*
X141955000Y-116189999D02*
X141955000Y-117490001D01*
G75*
G02*
X141705001Y-117740000I-249999J0D01*
G01*
X141054999Y-117740000D01*
G75*
G02*
X140805000Y-117490001I0J249999D01*
G01*
X140805000Y-116189999D01*
G75*
G02*
X141054999Y-115940000I249999J0D01*
G01*
X141705001Y-115940000D01*
G75*
G02*
X141955000Y-116189999I0J-249999D01*
G01*
G37*
%TD.AperFunction*%
%TD*%
D19*
%TO.P,BT1,2*%
%TO.N,Earth*%
X151130000Y-119380000D03*
D20*
%TO.P,BT1,1*%
%TO.N,Net-(BT1-Pad1)*%
X151130000Y-127635000D03*
X151130000Y-111125000D03*
%TD*%
D21*
%TO.N,Earth*%
X129540000Y-127000000D03*
X154940000Y-127000000D03*
X128270000Y-66040000D03*
X140970000Y-74930000D03*
X140970000Y-83820000D03*
%TO.N,Net-(C1-Pad1)*%
X133304998Y-118110000D03*
%TO.N,Net-(A1-Pad17)*%
X137160000Y-111760000D03*
X137160000Y-111760000D03*
X140970000Y-99060000D03*
X140970000Y-99060000D03*
%TO.N,Net-(A1-Pad24)*%
X140970000Y-104140000D03*
X140970000Y-104140000D03*
X140970000Y-100330000D03*
X140970000Y-100330000D03*
X137160000Y-96520000D03*
%TO.N,Net-(A1-Pad23)*%
X135890000Y-86360000D03*
X138430000Y-87630000D03*
X142240000Y-101600000D03*
X143510000Y-110490000D03*
%TD*%
D22*
%TO.N,Net-(BT1-Pad1)*%
X150495000Y-110490000D02*
X151130000Y-111125000D01*
X145620000Y-110490000D02*
X150495000Y-110490000D01*
X145415000Y-121920000D02*
X151130000Y-127635000D01*
X141175000Y-121920000D02*
X145415000Y-121920000D01*
X146970010Y-117138988D02*
X145415000Y-118693998D01*
X146970010Y-110815010D02*
X146970010Y-117138988D01*
X146645000Y-110490000D02*
X146970010Y-110815010D01*
X145415000Y-118693998D02*
X145415000Y-121920000D01*
X145620000Y-110490000D02*
X146645000Y-110490000D01*
%TO.N,Net-(C1-Pad1)*%
X134810000Y-118110000D02*
X135230000Y-117690000D01*
X133304998Y-118110000D02*
X134810000Y-118110000D01*
%TO.N,Net-(A1-Pad30)*%
X135248242Y-109845010D02*
X133350000Y-107946768D01*
X137371778Y-109845010D02*
X135248242Y-109845010D01*
X133350000Y-107946768D02*
X133350000Y-105410000D01*
X141380000Y-113853232D02*
X137371778Y-109845010D01*
X141380000Y-116840000D02*
X141380000Y-113853232D01*
X135930000Y-122290000D02*
X141380000Y-116840000D01*
X135230000Y-122290000D02*
X135930000Y-122290000D01*
%TO.N,Net-(A1-Pad17)*%
X146290001Y-86504999D02*
X140085000Y-92710000D01*
X149522631Y-86504999D02*
X146290001Y-86504999D01*
X153670000Y-82357630D02*
X149522631Y-86504999D01*
X153670000Y-81280000D02*
X153670000Y-81280000D01*
X149522631Y-86504999D02*
X151130000Y-88112368D01*
X151130000Y-97380000D02*
X154940000Y-101190000D01*
X151130000Y-88112368D02*
X151130000Y-97380000D01*
X133350000Y-72390000D02*
X133350000Y-72390000D01*
X146050000Y-86264998D02*
X146290001Y-86504999D01*
X146050000Y-85090000D02*
X146050000Y-86264998D01*
X153670000Y-81280000D02*
X153670000Y-82357630D01*
X133350000Y-72390000D02*
X146050000Y-85090000D01*
X140970000Y-97790000D02*
X139700000Y-96520000D01*
X139700000Y-93095000D02*
X140085000Y-92710000D01*
X139700000Y-96520000D02*
X139700000Y-93095000D01*
X140970000Y-99060000D02*
X140970000Y-97790000D01*
%TO.N,Net-(A1-Pad19)*%
X136775000Y-81769998D02*
X133350000Y-78344998D01*
X133350000Y-78344998D02*
X133350000Y-77470000D01*
X136775000Y-88900000D02*
X136775000Y-81769998D01*
X133350000Y-77470000D02*
X133350000Y-77470000D01*
X136285002Y-88900000D02*
X136775000Y-88900000D01*
X133745002Y-91440000D02*
X136285002Y-88900000D01*
X129540000Y-91440000D02*
X133745002Y-91440000D01*
%TO.N,Net-(A1-Pad27)*%
X132080000Y-99060000D02*
X133350000Y-97790000D01*
X129540000Y-99060000D02*
X132080000Y-99060000D01*
%TO.N,Net-(A1-Pad24)*%
X144595000Y-113030000D02*
X140970000Y-109405000D01*
X145620000Y-113030000D02*
X144595000Y-113030000D01*
X140970000Y-109405000D02*
X140970000Y-104140000D01*
X140970000Y-104140000D02*
X140970000Y-104140000D01*
X140970000Y-104140000D02*
X140970000Y-104140000D01*
X137160000Y-96520000D02*
X137160000Y-96520000D01*
X140970000Y-100330000D02*
X137160000Y-96520000D01*
X137160000Y-96520000D02*
X136775000Y-96520000D01*
%TO.N,Net-(A1-Pad23)*%
X133350000Y-87630000D02*
X134620000Y-87630000D01*
X134620000Y-87630000D02*
X135890000Y-86360000D01*
X135890000Y-86360000D02*
X135890000Y-86360000D01*
X137160000Y-90265690D02*
X137160000Y-92710000D01*
X138430000Y-88995690D02*
X137160000Y-90265690D01*
X138430000Y-87630000D02*
X138430000Y-88995690D01*
X135887490Y-93982510D02*
X135887490Y-99057490D01*
X137160000Y-92710000D02*
X135887490Y-93982510D01*
X135887490Y-99057490D02*
X137157490Y-99057490D01*
X137157490Y-99057490D02*
X137157490Y-99057490D01*
X138427490Y-99057490D02*
X140970000Y-101600000D01*
X137157490Y-99057490D02*
X138427490Y-99057490D01*
X140970000Y-101600000D02*
X142240000Y-101600000D01*
X142240000Y-101600000D02*
X142240000Y-101600000D01*
X144780000Y-111760000D02*
X145620000Y-111760000D01*
X143510000Y-110490000D02*
X144780000Y-111760000D01*
%TO.N,GND*%
X143510000Y-102870000D02*
X148590000Y-97790000D01*
X133350000Y-102870000D02*
X143510000Y-102870000D01*
%TD*%
D23*
%TO.N,Earth*%
X156795001Y-87799739D02*
X156740487Y-87620031D01*
X156615408Y-87386026D01*
X156447081Y-87180919D01*
X156241974Y-87012592D01*
X156007969Y-86887513D01*
X155754058Y-86810490D01*
X155556169Y-86791000D01*
X154323831Y-86791000D01*
X154125942Y-86810490D01*
X153872031Y-86887513D01*
X153638026Y-87012592D01*
X153432919Y-87180919D01*
X153264592Y-87386026D01*
X153139513Y-87620031D01*
X153062490Y-87873942D01*
X153036483Y-88138000D01*
X153062490Y-88402058D01*
X153139513Y-88655969D01*
X153264592Y-88889974D01*
X153432919Y-89095081D01*
X153638026Y-89263408D01*
X153872031Y-89388487D01*
X153981170Y-89421594D01*
X153932554Y-89470210D01*
X153790613Y-89682640D01*
X153692843Y-89918679D01*
X153643000Y-90169257D01*
X153643000Y-90424743D01*
X153692843Y-90675321D01*
X153790613Y-90911360D01*
X153932554Y-91123790D01*
X154113210Y-91304446D01*
X154126012Y-91313000D01*
X154113210Y-91321554D01*
X153932554Y-91502210D01*
X153790613Y-91714640D01*
X153692843Y-91950679D01*
X153643000Y-92201257D01*
X153643000Y-92456743D01*
X153692843Y-92707321D01*
X153790613Y-92943360D01*
X153932554Y-93155790D01*
X154113210Y-93336446D01*
X154126012Y-93345000D01*
X154113210Y-93353554D01*
X153932554Y-93534210D01*
X153790613Y-93746640D01*
X153692843Y-93982679D01*
X153643000Y-94233257D01*
X153643000Y-94488743D01*
X153692843Y-94739321D01*
X153790613Y-94975360D01*
X153932554Y-95187790D01*
X153981170Y-95236406D01*
X153872031Y-95269513D01*
X153638026Y-95394592D01*
X153432919Y-95562919D01*
X153264592Y-95768026D01*
X153139513Y-96002031D01*
X153062490Y-96255942D01*
X153036483Y-96520000D01*
X153062490Y-96784058D01*
X153139513Y-97037969D01*
X153264592Y-97271974D01*
X153432919Y-97477081D01*
X153638026Y-97645408D01*
X153872031Y-97770487D01*
X154125942Y-97847510D01*
X154323831Y-97867000D01*
X155556169Y-97867000D01*
X155754058Y-97847510D01*
X156007969Y-97770487D01*
X156241974Y-97645408D01*
X156447081Y-97477081D01*
X156615408Y-97271974D01*
X156740487Y-97037969D01*
X156795001Y-96858262D01*
X156795000Y-130125000D01*
X127685000Y-130125000D01*
X127685000Y-122479064D01*
X127685820Y-122479502D01*
X127805518Y-122515812D01*
X127930000Y-122528072D01*
X128644250Y-122525000D01*
X128803000Y-122366250D01*
X128803000Y-120117000D01*
X129057000Y-120117000D01*
X129057000Y-122366250D01*
X129215750Y-122525000D01*
X129930000Y-122528072D01*
X130054482Y-122515812D01*
X130174180Y-122479502D01*
X130284494Y-122420537D01*
X130381185Y-122341185D01*
X130460537Y-122244494D01*
X130519502Y-122134180D01*
X130555812Y-122014482D01*
X130568072Y-121890000D01*
X130565000Y-120275750D01*
X130406250Y-120117000D01*
X129057000Y-120117000D01*
X128803000Y-120117000D01*
X128783000Y-120117000D01*
X128783000Y-119863000D01*
X128803000Y-119863000D01*
X128803000Y-117613750D01*
X129057000Y-117613750D01*
X129057000Y-119863000D01*
X130406250Y-119863000D01*
X130565000Y-119704250D01*
X130568072Y-118090000D01*
X130560002Y-118008061D01*
X132269998Y-118008061D01*
X132269998Y-118211939D01*
X132309772Y-118411898D01*
X132387793Y-118600256D01*
X132501061Y-118769774D01*
X132645224Y-118913937D01*
X132814742Y-119027205D01*
X133003100Y-119105226D01*
X133203059Y-119145000D01*
X133406937Y-119145000D01*
X133606896Y-119105226D01*
X133607370Y-119105030D01*
X133604188Y-119115518D01*
X133591928Y-119240000D01*
X133595000Y-119704250D01*
X133753750Y-119863000D01*
X135103000Y-119863000D01*
X135103000Y-119843000D01*
X135357000Y-119843000D01*
X135357000Y-119863000D01*
X136706250Y-119863000D01*
X136865000Y-119704250D01*
X136868072Y-119240000D01*
X136855812Y-119115518D01*
X136819502Y-118995820D01*
X136760537Y-118885506D01*
X136723191Y-118840000D01*
X136760537Y-118794494D01*
X136819502Y-118684180D01*
X136855812Y-118564482D01*
X136868072Y-118440000D01*
X136868072Y-117740000D01*
X137216928Y-117740000D01*
X137229188Y-117864482D01*
X137265498Y-117984180D01*
X137324463Y-118094494D01*
X137403815Y-118191185D01*
X137500506Y-118270537D01*
X137610820Y-118329502D01*
X137730518Y-118365812D01*
X137855000Y-118378072D01*
X138144250Y-118375000D01*
X138303000Y-118216250D01*
X138303000Y-116967000D01*
X137378750Y-116967000D01*
X137220000Y-117125750D01*
X137216928Y-117740000D01*
X136868072Y-117740000D01*
X136868072Y-116940000D01*
X136855812Y-116815518D01*
X136819502Y-116695820D01*
X136760537Y-116585506D01*
X136681185Y-116488815D01*
X136584494Y-116409463D01*
X136474180Y-116350498D01*
X136354482Y-116314188D01*
X136230000Y-116301928D01*
X134230000Y-116301928D01*
X134105518Y-116314188D01*
X133985820Y-116350498D01*
X133875506Y-116409463D01*
X133778815Y-116488815D01*
X133699463Y-116585506D01*
X133640498Y-116695820D01*
X133604188Y-116815518D01*
X133591928Y-116940000D01*
X133591928Y-117111797D01*
X133406937Y-117075000D01*
X133203059Y-117075000D01*
X133003100Y-117114774D01*
X132814742Y-117192795D01*
X132645224Y-117306063D01*
X132501061Y-117450226D01*
X132387793Y-117619744D01*
X132309772Y-117808102D01*
X132269998Y-118008061D01*
X130560002Y-118008061D01*
X130555812Y-117965518D01*
X130519502Y-117845820D01*
X130460537Y-117735506D01*
X130381185Y-117638815D01*
X130284494Y-117559463D01*
X130174180Y-117500498D01*
X130054482Y-117464188D01*
X129930000Y-117451928D01*
X129215750Y-117455000D01*
X129057000Y-117613750D01*
X128803000Y-117613750D01*
X128644250Y-117455000D01*
X127930000Y-117451928D01*
X127805518Y-117464188D01*
X127685820Y-117500498D01*
X127685000Y-117500936D01*
X127685000Y-115940000D01*
X137216928Y-115940000D01*
X137220000Y-116554250D01*
X137378750Y-116713000D01*
X138303000Y-116713000D01*
X138303000Y-115463750D01*
X138557000Y-115463750D01*
X138557000Y-116713000D01*
X139481250Y-116713000D01*
X139640000Y-116554250D01*
X139643072Y-115940000D01*
X139630812Y-115815518D01*
X139594502Y-115695820D01*
X139535537Y-115585506D01*
X139456185Y-115488815D01*
X139359494Y-115409463D01*
X139249180Y-115350498D01*
X139129482Y-115314188D01*
X139005000Y-115301928D01*
X138715750Y-115305000D01*
X138557000Y-115463750D01*
X138303000Y-115463750D01*
X138144250Y-115305000D01*
X137855000Y-115301928D01*
X137730518Y-115314188D01*
X137610820Y-115350498D01*
X137500506Y-115409463D01*
X137403815Y-115488815D01*
X137324463Y-115585506D01*
X137265498Y-115695820D01*
X137229188Y-115815518D01*
X137216928Y-115940000D01*
X127685000Y-115940000D01*
X127685000Y-112760000D01*
X127901928Y-112760000D01*
X127914188Y-112884482D01*
X127950498Y-113004180D01*
X128009463Y-113114494D01*
X128088815Y-113211185D01*
X128185506Y-113290537D01*
X128295820Y-113349502D01*
X128415518Y-113385812D01*
X128540000Y-113398072D01*
X129254250Y-113395000D01*
X129413000Y-113236250D01*
X129413000Y-111887000D01*
X129667000Y-111887000D01*
X129667000Y-113236250D01*
X129825750Y-113395000D01*
X130540000Y-113398072D01*
X130664482Y-113385812D01*
X130784180Y-113349502D01*
X130894494Y-113290537D01*
X130991185Y-113211185D01*
X131070537Y-113114494D01*
X131129502Y-113004180D01*
X131165812Y-112884482D01*
X131178072Y-112760000D01*
X131175000Y-112045750D01*
X131016250Y-111887000D01*
X129667000Y-111887000D01*
X129413000Y-111887000D01*
X128063750Y-111887000D01*
X127905000Y-112045750D01*
X127901928Y-112760000D01*
X127685000Y-112760000D01*
X127685000Y-110760000D01*
X127901928Y-110760000D01*
X127905000Y-111474250D01*
X128063750Y-111633000D01*
X129413000Y-111633000D01*
X129413000Y-110283750D01*
X129667000Y-110283750D01*
X129667000Y-111633000D01*
X131016250Y-111633000D01*
X131175000Y-111474250D01*
X131178072Y-110760000D01*
X131165812Y-110635518D01*
X131129502Y-110515820D01*
X131070537Y-110405506D01*
X130991185Y-110308815D01*
X130894494Y-110229463D01*
X130784180Y-110170498D01*
X130664482Y-110134188D01*
X130540000Y-110121928D01*
X129825750Y-110125000D01*
X129667000Y-110283750D01*
X129413000Y-110283750D01*
X129254250Y-110125000D01*
X128540000Y-110121928D01*
X128415518Y-110134188D01*
X128295820Y-110170498D01*
X128185506Y-110229463D01*
X128088815Y-110308815D01*
X128009463Y-110405506D01*
X127950498Y-110515820D01*
X127914188Y-110635518D01*
X127901928Y-110760000D01*
X127685000Y-110760000D01*
X127685000Y-103978967D01*
X127905000Y-103978967D01*
X127905000Y-104301033D01*
X127967832Y-104616912D01*
X128091082Y-104914463D01*
X128270013Y-105182252D01*
X128497748Y-105409987D01*
X128765537Y-105588918D01*
X129063088Y-105712168D01*
X129378967Y-105775000D01*
X129701033Y-105775000D01*
X130016912Y-105712168D01*
X130314463Y-105588918D01*
X130582252Y-105409987D01*
X130809987Y-105182252D01*
X130988918Y-104914463D01*
X131112168Y-104616912D01*
X131175000Y-104301033D01*
X131175000Y-103978967D01*
X131112168Y-103663088D01*
X130988918Y-103365537D01*
X130809987Y-103097748D01*
X130582252Y-102870013D01*
X130314463Y-102691082D01*
X130016912Y-102567832D01*
X129701033Y-102505000D01*
X129378967Y-102505000D01*
X129063088Y-102567832D01*
X128765537Y-102691082D01*
X128497748Y-102870013D01*
X128270013Y-103097748D01*
X128091082Y-103365537D01*
X127967832Y-103663088D01*
X127905000Y-103978967D01*
X127685000Y-103978967D01*
X127685000Y-90440000D01*
X127901928Y-90440000D01*
X127901928Y-92440000D01*
X127914188Y-92564482D01*
X127950498Y-92684180D01*
X128009463Y-92794494D01*
X128088815Y-92891185D01*
X128185506Y-92970537D01*
X128295820Y-93029502D01*
X128415518Y-93065812D01*
X128540000Y-93078072D01*
X130540000Y-93078072D01*
X130664482Y-93065812D01*
X130784180Y-93029502D01*
X130894494Y-92970537D01*
X130991185Y-92891185D01*
X131070537Y-92794494D01*
X131129502Y-92684180D01*
X131165812Y-92564482D01*
X131178072Y-92440000D01*
X131178072Y-92200000D01*
X132008017Y-92200000D01*
X131970147Y-92291426D01*
X131915000Y-92568665D01*
X131915000Y-92851335D01*
X131970147Y-93128574D01*
X132078320Y-93389727D01*
X132235363Y-93624759D01*
X132435241Y-93824637D01*
X132667759Y-93980000D01*
X132435241Y-94135363D01*
X132235363Y-94335241D01*
X132078320Y-94570273D01*
X131970147Y-94831426D01*
X131915000Y-95108665D01*
X131915000Y-95391335D01*
X131970147Y-95668574D01*
X132078320Y-95929727D01*
X132235363Y-96164759D01*
X132435241Y-96364637D01*
X132667759Y-96520000D01*
X132435241Y-96675363D01*
X132235363Y-96875241D01*
X132078320Y-97110273D01*
X131970147Y-97371426D01*
X131915000Y-97648665D01*
X131915000Y-97931335D01*
X131951312Y-98113886D01*
X131765199Y-98300000D01*
X130994909Y-98300000D01*
X130988918Y-98285537D01*
X130809987Y-98017748D01*
X130582252Y-97790013D01*
X130314463Y-97611082D01*
X130016912Y-97487832D01*
X129701033Y-97425000D01*
X129378967Y-97425000D01*
X129063088Y-97487832D01*
X128765537Y-97611082D01*
X128497748Y-97790013D01*
X128270013Y-98017748D01*
X128091082Y-98285537D01*
X127967832Y-98583088D01*
X127905000Y-98898967D01*
X127905000Y-99221033D01*
X127967832Y-99536912D01*
X128091082Y-99834463D01*
X128270013Y-100102252D01*
X128497748Y-100329987D01*
X128765537Y-100508918D01*
X129063088Y-100632168D01*
X129378967Y-100695000D01*
X129701033Y-100695000D01*
X130016912Y-100632168D01*
X130314463Y-100508918D01*
X130582252Y-100329987D01*
X130809987Y-100102252D01*
X130988918Y-99834463D01*
X130994909Y-99820000D01*
X132008017Y-99820000D01*
X131970147Y-99911426D01*
X131915000Y-100188665D01*
X131915000Y-100471335D01*
X131970147Y-100748574D01*
X132078320Y-101009727D01*
X132235363Y-101244759D01*
X132435241Y-101444637D01*
X132667759Y-101600000D01*
X132435241Y-101755363D01*
X132235363Y-101955241D01*
X132078320Y-102190273D01*
X131970147Y-102451426D01*
X131915000Y-102728665D01*
X131915000Y-103011335D01*
X131970147Y-103288574D01*
X132078320Y-103549727D01*
X132235363Y-103784759D01*
X132435241Y-103984637D01*
X132667759Y-104140000D01*
X132435241Y-104295363D01*
X132235363Y-104495241D01*
X132078320Y-104730273D01*
X131970147Y-104991426D01*
X131915000Y-105268665D01*
X131915000Y-105551335D01*
X131970147Y-105828574D01*
X132078320Y-106089727D01*
X132235363Y-106324759D01*
X132435241Y-106524637D01*
X132590001Y-106628044D01*
X132590000Y-107909445D01*
X132586324Y-107946768D01*
X132590000Y-107984090D01*
X132590000Y-107984100D01*
X132600997Y-108095753D01*
X132643464Y-108235750D01*
X132644454Y-108239014D01*
X132715026Y-108371044D01*
X132754871Y-108419594D01*
X132809999Y-108486769D01*
X132839003Y-108510572D01*
X134657959Y-110329529D01*
X134656928Y-110340000D01*
X134656928Y-110640000D01*
X134672071Y-110793745D01*
X134716916Y-110941582D01*
X134789742Y-111077829D01*
X134828454Y-111125000D01*
X134789742Y-111172171D01*
X134716916Y-111308418D01*
X134672071Y-111456255D01*
X134656928Y-111610000D01*
X134656928Y-111910000D01*
X134672071Y-112063745D01*
X134716916Y-112211582D01*
X134789742Y-112347829D01*
X134828454Y-112395000D01*
X134789742Y-112442171D01*
X134716916Y-112578418D01*
X134672071Y-112726255D01*
X134656928Y-112880000D01*
X134656928Y-113180000D01*
X134672071Y-113333745D01*
X134716916Y-113481582D01*
X134789742Y-113617829D01*
X134887749Y-113737251D01*
X135007171Y-113835258D01*
X135143418Y-113908084D01*
X135291255Y-113952929D01*
X135445000Y-113968072D01*
X137195000Y-113968072D01*
X137348745Y-113952929D01*
X137496582Y-113908084D01*
X137632829Y-113835258D01*
X137752251Y-113737251D01*
X137850258Y-113617829D01*
X137923084Y-113481582D01*
X137967929Y-113333745D01*
X137983072Y-113180000D01*
X137983072Y-112880000D01*
X137967929Y-112726255D01*
X137923084Y-112578418D01*
X137882054Y-112501657D01*
X137963937Y-112419774D01*
X138077205Y-112250256D01*
X138155226Y-112061898D01*
X138195000Y-111861939D01*
X138195000Y-111743033D01*
X140620001Y-114168035D01*
X140620000Y-115420386D01*
X140561613Y-115451595D01*
X140427038Y-115562038D01*
X140316595Y-115696613D01*
X140234528Y-115850149D01*
X140183992Y-116016745D01*
X140166928Y-116189999D01*
X140166928Y-116978270D01*
X139641888Y-117503310D01*
X139640000Y-117125750D01*
X139481250Y-116967000D01*
X138557000Y-116967000D01*
X138557000Y-118216250D01*
X138715750Y-118375000D01*
X138769626Y-118375572D01*
X136865029Y-120280169D01*
X136865000Y-120275750D01*
X136706250Y-120117000D01*
X135357000Y-120117000D01*
X135357000Y-120137000D01*
X135103000Y-120137000D01*
X135103000Y-120117000D01*
X133753750Y-120117000D01*
X133595000Y-120275750D01*
X133591928Y-120740000D01*
X133604188Y-120864482D01*
X133640498Y-120984180D01*
X133699463Y-121094494D01*
X133736809Y-121140000D01*
X133699463Y-121185506D01*
X133640498Y-121295820D01*
X133604188Y-121415518D01*
X133591928Y-121540000D01*
X133591928Y-123040000D01*
X133604188Y-123164482D01*
X133640498Y-123284180D01*
X133699463Y-123394494D01*
X133778815Y-123491185D01*
X133875506Y-123570537D01*
X133985820Y-123629502D01*
X134105518Y-123665812D01*
X134230000Y-123678072D01*
X136230000Y-123678072D01*
X136354482Y-123665812D01*
X136474180Y-123629502D01*
X136584494Y-123570537D01*
X136681185Y-123491185D01*
X136760537Y-123394494D01*
X136819502Y-123284180D01*
X136855812Y-123164482D01*
X136868072Y-123040000D01*
X136868072Y-122426729D01*
X137014628Y-122280173D01*
X137011928Y-122820000D01*
X137024188Y-122944482D01*
X137060498Y-123064180D01*
X137119463Y-123174494D01*
X137198815Y-123271185D01*
X137295506Y-123350537D01*
X137405820Y-123409502D01*
X137525518Y-123445812D01*
X137650000Y-123458072D01*
X137939250Y-123455000D01*
X138098000Y-123296250D01*
X138098000Y-122047000D01*
X138352000Y-122047000D01*
X138352000Y-123296250D01*
X138510750Y-123455000D01*
X138800000Y-123458072D01*
X138924482Y-123445812D01*
X139044180Y-123409502D01*
X139154494Y-123350537D01*
X139251185Y-123271185D01*
X139330537Y-123174494D01*
X139389502Y-123064180D01*
X139425812Y-122944482D01*
X139438072Y-122820000D01*
X139435000Y-122205750D01*
X139276250Y-122047000D01*
X138352000Y-122047000D01*
X138098000Y-122047000D01*
X138078000Y-122047000D01*
X138078000Y-121793000D01*
X138098000Y-121793000D01*
X138098000Y-121773000D01*
X138352000Y-121773000D01*
X138352000Y-121793000D01*
X139276250Y-121793000D01*
X139435000Y-121634250D01*
X139438072Y-121020000D01*
X139425812Y-120895518D01*
X139389502Y-120775820D01*
X139330537Y-120665506D01*
X139251185Y-120568815D01*
X139154494Y-120489463D01*
X139044180Y-120430498D01*
X138924482Y-120394188D01*
X138902753Y-120392048D01*
X140929127Y-118365675D01*
X141054999Y-118378072D01*
X141705001Y-118378072D01*
X141878255Y-118361008D01*
X142044851Y-118310472D01*
X142198387Y-118228405D01*
X142332962Y-118117962D01*
X142443405Y-117983387D01*
X142525472Y-117829851D01*
X142576008Y-117663255D01*
X142593072Y-117490001D01*
X142593072Y-116189999D01*
X142576008Y-116016745D01*
X142525472Y-115850149D01*
X142443405Y-115696613D01*
X142332962Y-115562038D01*
X142198387Y-115451595D01*
X142140000Y-115420386D01*
X142140000Y-113890555D01*
X142143676Y-113853232D01*
X142140000Y-113815909D01*
X142140000Y-113815899D01*
X142129003Y-113704246D01*
X142085546Y-113560985D01*
X142059936Y-113513072D01*
X142014974Y-113428955D01*
X141943799Y-113342229D01*
X141920001Y-113313231D01*
X141891003Y-113289433D01*
X137982041Y-109380472D01*
X137983072Y-109370000D01*
X137983072Y-109070000D01*
X137967929Y-108916255D01*
X137923084Y-108768418D01*
X137851270Y-108634064D01*
X137875537Y-108604494D01*
X137934502Y-108494180D01*
X137970812Y-108374482D01*
X137983072Y-108250000D01*
X137980000Y-108235750D01*
X137821250Y-108077000D01*
X136447000Y-108077000D01*
X136447000Y-108097000D01*
X136193000Y-108097000D01*
X136193000Y-108077000D01*
X134818750Y-108077000D01*
X134686892Y-108208858D01*
X134110000Y-107631967D01*
X134110000Y-106980000D01*
X134656928Y-106980000D01*
X134669188Y-107104482D01*
X134705498Y-107224180D01*
X134754043Y-107315000D01*
X134705498Y-107405820D01*
X134669188Y-107525518D01*
X134656928Y-107650000D01*
X134660000Y-107664250D01*
X134818750Y-107823000D01*
X136193000Y-107823000D01*
X136193000Y-106807000D01*
X136447000Y-106807000D01*
X136447000Y-107823000D01*
X137821250Y-107823000D01*
X137980000Y-107664250D01*
X137983072Y-107650000D01*
X137970812Y-107525518D01*
X137934502Y-107405820D01*
X137885957Y-107315000D01*
X137934502Y-107224180D01*
X137970812Y-107104482D01*
X137983072Y-106980000D01*
X137980000Y-106965750D01*
X137821250Y-106807000D01*
X136447000Y-106807000D01*
X136193000Y-106807000D01*
X134818750Y-106807000D01*
X134660000Y-106965750D01*
X134656928Y-106980000D01*
X134110000Y-106980000D01*
X134110000Y-106628043D01*
X134264759Y-106524637D01*
X134464637Y-106324759D01*
X134621680Y-106089727D01*
X134693799Y-105915615D01*
X134705498Y-105954180D01*
X134754043Y-106045000D01*
X134705498Y-106135820D01*
X134669188Y-106255518D01*
X134656928Y-106380000D01*
X134660000Y-106394250D01*
X134818750Y-106553000D01*
X136193000Y-106553000D01*
X136193000Y-105537000D01*
X136447000Y-105537000D01*
X136447000Y-106553000D01*
X137821250Y-106553000D01*
X137980000Y-106394250D01*
X137983072Y-106380000D01*
X137970812Y-106255518D01*
X137934502Y-106135820D01*
X137885957Y-106045000D01*
X137934502Y-105954180D01*
X137970812Y-105834482D01*
X137983072Y-105710000D01*
X137980000Y-105695750D01*
X137821250Y-105537000D01*
X136447000Y-105537000D01*
X136193000Y-105537000D01*
X136173000Y-105537000D01*
X136173000Y-105283000D01*
X136193000Y-105283000D01*
X136193000Y-104267000D01*
X136447000Y-104267000D01*
X136447000Y-105283000D01*
X137821250Y-105283000D01*
X137980000Y-105124250D01*
X137983072Y-105110000D01*
X137970812Y-104985518D01*
X137934502Y-104865820D01*
X137885957Y-104775000D01*
X137934502Y-104684180D01*
X137970812Y-104564482D01*
X137983072Y-104440000D01*
X137980000Y-104425750D01*
X137821250Y-104267000D01*
X136447000Y-104267000D01*
X136193000Y-104267000D01*
X134818750Y-104267000D01*
X134660000Y-104425750D01*
X134656928Y-104440000D01*
X134669188Y-104564482D01*
X134705498Y-104684180D01*
X134754043Y-104775000D01*
X134705498Y-104865820D01*
X134693799Y-104904385D01*
X134621680Y-104730273D01*
X134464637Y-104495241D01*
X134264759Y-104295363D01*
X134032241Y-104140000D01*
X134264759Y-103984637D01*
X134464637Y-103784759D01*
X134568043Y-103630000D01*
X134695130Y-103630000D01*
X134669188Y-103715518D01*
X134656928Y-103840000D01*
X134660000Y-103854250D01*
X134818750Y-104013000D01*
X136193000Y-104013000D01*
X136193000Y-103993000D01*
X136447000Y-103993000D01*
X136447000Y-104013000D01*
X137821250Y-104013000D01*
X137980000Y-103854250D01*
X137983072Y-103840000D01*
X137970812Y-103715518D01*
X137944870Y-103630000D01*
X140065987Y-103630000D01*
X140052795Y-103649744D01*
X139974774Y-103838102D01*
X139935000Y-104038061D01*
X139935000Y-104241939D01*
X139974774Y-104441898D01*
X140052795Y-104630256D01*
X140166063Y-104799774D01*
X140210001Y-104843712D01*
X140210000Y-109367677D01*
X140206324Y-109405000D01*
X140210000Y-109442322D01*
X140210000Y-109442332D01*
X140220997Y-109553985D01*
X140256669Y-109671582D01*
X140264454Y-109697246D01*
X140335026Y-109829276D01*
X140335806Y-109830226D01*
X140429999Y-109945001D01*
X140459003Y-109968804D01*
X144031201Y-113541003D01*
X144054999Y-113570001D01*
X144071350Y-113583420D01*
X144089742Y-113617829D01*
X144187749Y-113737251D01*
X144307171Y-113835258D01*
X144443418Y-113908084D01*
X144591255Y-113952929D01*
X144745000Y-113968072D01*
X146210010Y-113968072D01*
X146210011Y-116824185D01*
X144904003Y-118130194D01*
X144874999Y-118153997D01*
X144827448Y-118211939D01*
X144780026Y-118269722D01*
X144723753Y-118375000D01*
X144709454Y-118401752D01*
X144665997Y-118545013D01*
X144655000Y-118656666D01*
X144655000Y-118656676D01*
X144651324Y-118693998D01*
X144655000Y-118731321D01*
X144655001Y-121160000D01*
X142377238Y-121160000D01*
X142371008Y-121096745D01*
X142320472Y-120930149D01*
X142238405Y-120776613D01*
X142127962Y-120642038D01*
X141993387Y-120531595D01*
X141839851Y-120449528D01*
X141673255Y-120398992D01*
X141500001Y-120381928D01*
X140849999Y-120381928D01*
X140676745Y-120398992D01*
X140510149Y-120449528D01*
X140356613Y-120531595D01*
X140222038Y-120642038D01*
X140111595Y-120776613D01*
X140029528Y-120930149D01*
X139978992Y-121096745D01*
X139961928Y-121269999D01*
X139961928Y-122570001D01*
X139978992Y-122743255D01*
X140029528Y-122909851D01*
X140111595Y-123063387D01*
X140222038Y-123197962D01*
X140356613Y-123308405D01*
X140510149Y-123390472D01*
X140676745Y-123441008D01*
X140849999Y-123458072D01*
X141500001Y-123458072D01*
X141673255Y-123441008D01*
X141839851Y-123390472D01*
X141993387Y-123308405D01*
X142127962Y-123197962D01*
X142238405Y-123063387D01*
X142320472Y-122909851D01*
X142371008Y-122743255D01*
X142377238Y-122680000D01*
X145100199Y-122680000D01*
X148741928Y-126321730D01*
X148741928Y-129385000D01*
X148754188Y-129509482D01*
X148790498Y-129629180D01*
X148849463Y-129739494D01*
X148928815Y-129836185D01*
X149025506Y-129915537D01*
X149135820Y-129974502D01*
X149255518Y-130010812D01*
X149380000Y-130023072D01*
X152880000Y-130023072D01*
X153004482Y-130010812D01*
X153124180Y-129974502D01*
X153234494Y-129915537D01*
X153331185Y-129836185D01*
X153410537Y-129739494D01*
X153469502Y-129629180D01*
X153505812Y-129509482D01*
X153518072Y-129385000D01*
X153518072Y-125885000D01*
X153505812Y-125760518D01*
X153469502Y-125640820D01*
X153410537Y-125530506D01*
X153331185Y-125433815D01*
X153234494Y-125354463D01*
X153124180Y-125295498D01*
X153004482Y-125259188D01*
X152880000Y-125246928D01*
X149816730Y-125246928D01*
X147219382Y-122649580D01*
X148040025Y-122649580D01*
X148496197Y-123221185D01*
X149296183Y-123661207D01*
X150166641Y-123936704D01*
X151074121Y-124037091D01*
X151983748Y-123958508D01*
X152860566Y-123703975D01*
X153670879Y-123283275D01*
X153763803Y-123221185D01*
X154219975Y-122649580D01*
X151130000Y-119559605D01*
X148040025Y-122649580D01*
X147219382Y-122649580D01*
X146175000Y-121605199D01*
X146175000Y-119008799D01*
X146549183Y-118634616D01*
X146472909Y-119324121D01*
X146551492Y-120233748D01*
X146806025Y-121110566D01*
X147226725Y-121920879D01*
X147288815Y-122013803D01*
X147860420Y-122469975D01*
X150950395Y-119380000D01*
X151309605Y-119380000D01*
X154399580Y-122469975D01*
X154971185Y-122013803D01*
X155411207Y-121213817D01*
X155686704Y-120343359D01*
X155787091Y-119435879D01*
X155708508Y-118526252D01*
X155453975Y-117649434D01*
X155033275Y-116839121D01*
X154971185Y-116746197D01*
X154399580Y-116290025D01*
X151309605Y-119380000D01*
X150950395Y-119380000D01*
X147860420Y-116290025D01*
X147730010Y-116394099D01*
X147730010Y-116110420D01*
X148040025Y-116110420D01*
X151130000Y-119200395D01*
X154219975Y-116110420D01*
X153763803Y-115538815D01*
X152963817Y-115098793D01*
X152093359Y-114823296D01*
X151185879Y-114722909D01*
X150276252Y-114801492D01*
X149399434Y-115056025D01*
X148589121Y-115476725D01*
X148496197Y-115538815D01*
X148040025Y-116110420D01*
X147730010Y-116110420D01*
X147730010Y-111250000D01*
X148741928Y-111250000D01*
X148741928Y-112875000D01*
X148754188Y-112999482D01*
X148790498Y-113119180D01*
X148849463Y-113229494D01*
X148928815Y-113326185D01*
X149025506Y-113405537D01*
X149135820Y-113464502D01*
X149255518Y-113500812D01*
X149380000Y-113513072D01*
X152880000Y-113513072D01*
X153004482Y-113500812D01*
X153124180Y-113464502D01*
X153234494Y-113405537D01*
X153331185Y-113326185D01*
X153410537Y-113229494D01*
X153469502Y-113119180D01*
X153505812Y-112999482D01*
X153518072Y-112875000D01*
X153518072Y-109375000D01*
X153505812Y-109250518D01*
X153469502Y-109130820D01*
X153410537Y-109020506D01*
X153331185Y-108923815D01*
X153234494Y-108844463D01*
X153124180Y-108785498D01*
X153004482Y-108749188D01*
X152880000Y-108736928D01*
X149380000Y-108736928D01*
X149255518Y-108749188D01*
X149135820Y-108785498D01*
X149025506Y-108844463D01*
X148928815Y-108923815D01*
X148849463Y-109020506D01*
X148790498Y-109130820D01*
X148754188Y-109250518D01*
X148741928Y-109375000D01*
X148741928Y-109730000D01*
X147244870Y-109730000D01*
X147270812Y-109644482D01*
X147283072Y-109520000D01*
X147280000Y-109505750D01*
X147121250Y-109347000D01*
X145747000Y-109347000D01*
X145747000Y-109367000D01*
X145493000Y-109367000D01*
X145493000Y-109347000D01*
X144118750Y-109347000D01*
X143960000Y-109505750D01*
X143956928Y-109520000D01*
X143960506Y-109556330D01*
X143811898Y-109494774D01*
X143611939Y-109455000D01*
X143408061Y-109455000D01*
X143208102Y-109494774D01*
X143019744Y-109572795D01*
X142850226Y-109686063D01*
X142706063Y-109830226D01*
X142611521Y-109971719D01*
X141730000Y-109090199D01*
X141730000Y-108250000D01*
X143956928Y-108250000D01*
X143969188Y-108374482D01*
X144005498Y-108494180D01*
X144054043Y-108585000D01*
X144005498Y-108675820D01*
X143969188Y-108795518D01*
X143956928Y-108920000D01*
X143960000Y-108934250D01*
X144118750Y-109093000D01*
X145493000Y-109093000D01*
X145493000Y-108077000D01*
X145747000Y-108077000D01*
X145747000Y-109093000D01*
X147121250Y-109093000D01*
X147280000Y-108934250D01*
X147283072Y-108920000D01*
X147270812Y-108795518D01*
X147234502Y-108675820D01*
X147185957Y-108585000D01*
X147234502Y-108494180D01*
X147270812Y-108374482D01*
X147283072Y-108250000D01*
X147280000Y-108235750D01*
X147121250Y-108077000D01*
X145747000Y-108077000D01*
X145493000Y-108077000D01*
X144118750Y-108077000D01*
X143960000Y-108235750D01*
X143956928Y-108250000D01*
X141730000Y-108250000D01*
X141730000Y-106980000D01*
X143956928Y-106980000D01*
X143969188Y-107104482D01*
X144005498Y-107224180D01*
X144054043Y-107315000D01*
X144005498Y-107405820D01*
X143969188Y-107525518D01*
X143956928Y-107650000D01*
X143960000Y-107664250D01*
X144118750Y-107823000D01*
X145493000Y-107823000D01*
X145493000Y-106807000D01*
X145747000Y-106807000D01*
X145747000Y-107823000D01*
X147121250Y-107823000D01*
X147280000Y-107664250D01*
X147283072Y-107650000D01*
X147270812Y-107525518D01*
X147234502Y-107405820D01*
X147185957Y-107315000D01*
X147234502Y-107224180D01*
X147270812Y-107104482D01*
X147283072Y-106980000D01*
X147280000Y-106965750D01*
X147121250Y-106807000D01*
X145747000Y-106807000D01*
X145493000Y-106807000D01*
X144118750Y-106807000D01*
X143960000Y-106965750D01*
X143956928Y-106980000D01*
X141730000Y-106980000D01*
X141730000Y-105710000D01*
X143956928Y-105710000D01*
X143969188Y-105834482D01*
X144005498Y-105954180D01*
X144054043Y-106045000D01*
X144005498Y-106135820D01*
X143969188Y-106255518D01*
X143956928Y-106380000D01*
X143960000Y-106394250D01*
X144118750Y-106553000D01*
X145493000Y-106553000D01*
X145493000Y-105537000D01*
X144118750Y-105537000D01*
X143960000Y-105695750D01*
X143956928Y-105710000D01*
X141730000Y-105710000D01*
X141730000Y-104843711D01*
X141773937Y-104799774D01*
X141887205Y-104630256D01*
X141965226Y-104441898D01*
X141965603Y-104440000D01*
X143956928Y-104440000D01*
X143969188Y-104564482D01*
X144005498Y-104684180D01*
X144054043Y-104775000D01*
X144005498Y-104865820D01*
X143969188Y-104985518D01*
X143956928Y-105110000D01*
X143960000Y-105124250D01*
X144118750Y-105283000D01*
X145493000Y-105283000D01*
X145493000Y-104267000D01*
X144118750Y-104267000D01*
X143960000Y-104425750D01*
X143956928Y-104440000D01*
X141965603Y-104440000D01*
X142005000Y-104241939D01*
X142005000Y-104038061D01*
X141965604Y-103840000D01*
X143956928Y-103840000D01*
X143960000Y-103854250D01*
X144118750Y-104013000D01*
X145493000Y-104013000D01*
X145493000Y-103363750D01*
X145747000Y-103363750D01*
X145747000Y-104013000D01*
X147121250Y-104013000D01*
X147280000Y-103854250D01*
X147283072Y-103840000D01*
X147270812Y-103715518D01*
X147234502Y-103595820D01*
X147175537Y-103485506D01*
X147096185Y-103388815D01*
X146999494Y-103309463D01*
X146889180Y-103250498D01*
X146769482Y-103214188D01*
X146645000Y-103201928D01*
X145905750Y-103205000D01*
X145747000Y-103363750D01*
X145493000Y-103363750D01*
X145334250Y-103205000D01*
X144595000Y-103201928D01*
X144470518Y-103214188D01*
X144350820Y-103250498D01*
X144240506Y-103309463D01*
X144143815Y-103388815D01*
X144064463Y-103485506D01*
X144005498Y-103595820D01*
X143969188Y-103715518D01*
X143956928Y-103840000D01*
X141965604Y-103840000D01*
X141965226Y-103838102D01*
X141887205Y-103649744D01*
X141874013Y-103630000D01*
X143472678Y-103630000D01*
X143510000Y-103633676D01*
X143547322Y-103630000D01*
X143547333Y-103630000D01*
X143658986Y-103619003D01*
X143802247Y-103575546D01*
X143934276Y-103504974D01*
X144050001Y-103410001D01*
X144073804Y-103380997D01*
X147155000Y-100299802D01*
X147155000Y-100471335D01*
X147210147Y-100748574D01*
X147318320Y-101009727D01*
X147475363Y-101244759D01*
X147675241Y-101444637D01*
X147907759Y-101600000D01*
X147675241Y-101755363D01*
X147475363Y-101955241D01*
X147318320Y-102190273D01*
X147210147Y-102451426D01*
X147155000Y-102728665D01*
X147155000Y-103011335D01*
X147210147Y-103288574D01*
X147318320Y-103549727D01*
X147475363Y-103784759D01*
X147673961Y-103983357D01*
X147665518Y-103984188D01*
X147545820Y-104020498D01*
X147435506Y-104079463D01*
X147338815Y-104158815D01*
X147259463Y-104255506D01*
X147207316Y-104353066D01*
X147121250Y-104267000D01*
X145747000Y-104267000D01*
X145747000Y-105283000D01*
X145767000Y-105283000D01*
X145767000Y-105537000D01*
X145747000Y-105537000D01*
X145747000Y-106553000D01*
X147121250Y-106553000D01*
X147207316Y-106466934D01*
X147259463Y-106564494D01*
X147338815Y-106661185D01*
X147435506Y-106740537D01*
X147545820Y-106799502D01*
X147665518Y-106835812D01*
X147790000Y-106848072D01*
X149390000Y-106848072D01*
X149514482Y-106835812D01*
X149634180Y-106799502D01*
X149744494Y-106740537D01*
X149841185Y-106661185D01*
X149920537Y-106564494D01*
X149979502Y-106454180D01*
X150015812Y-106334482D01*
X150028072Y-106210000D01*
X150028072Y-104715000D01*
X153401928Y-104715000D01*
X153414188Y-104839482D01*
X153450498Y-104959180D01*
X153509463Y-105069494D01*
X153588815Y-105166185D01*
X153685506Y-105245537D01*
X153795820Y-105304502D01*
X153915518Y-105340812D01*
X154040000Y-105353072D01*
X154654250Y-105350000D01*
X154813000Y-105191250D01*
X154813000Y-104267000D01*
X155067000Y-104267000D01*
X155067000Y-105191250D01*
X155225750Y-105350000D01*
X155840000Y-105353072D01*
X155964482Y-105340812D01*
X156084180Y-105304502D01*
X156194494Y-105245537D01*
X156291185Y-105166185D01*
X156370537Y-105069494D01*
X156429502Y-104959180D01*
X156465812Y-104839482D01*
X156478072Y-104715000D01*
X156475000Y-104425750D01*
X156316250Y-104267000D01*
X155067000Y-104267000D01*
X154813000Y-104267000D01*
X153563750Y-104267000D01*
X153405000Y-104425750D01*
X153401928Y-104715000D01*
X150028072Y-104715000D01*
X150028072Y-104610000D01*
X150015812Y-104485518D01*
X149979502Y-104365820D01*
X149920537Y-104255506D01*
X149841185Y-104158815D01*
X149744494Y-104079463D01*
X149634180Y-104020498D01*
X149514482Y-103984188D01*
X149506039Y-103983357D01*
X149704637Y-103784759D01*
X149851474Y-103565000D01*
X153401928Y-103565000D01*
X153405000Y-103854250D01*
X153563750Y-104013000D01*
X154813000Y-104013000D01*
X154813000Y-103088750D01*
X155067000Y-103088750D01*
X155067000Y-104013000D01*
X156316250Y-104013000D01*
X156475000Y-103854250D01*
X156478072Y-103565000D01*
X156465812Y-103440518D01*
X156429502Y-103320820D01*
X156370537Y-103210506D01*
X156291185Y-103113815D01*
X156194494Y-103034463D01*
X156084180Y-102975498D01*
X155964482Y-102939188D01*
X155840000Y-102926928D01*
X155225750Y-102930000D01*
X155067000Y-103088750D01*
X154813000Y-103088750D01*
X154654250Y-102930000D01*
X154040000Y-102926928D01*
X153915518Y-102939188D01*
X153795820Y-102975498D01*
X153685506Y-103034463D01*
X153588815Y-103113815D01*
X153509463Y-103210506D01*
X153450498Y-103320820D01*
X153414188Y-103440518D01*
X153401928Y-103565000D01*
X149851474Y-103565000D01*
X149861680Y-103549727D01*
X149969853Y-103288574D01*
X150025000Y-103011335D01*
X150025000Y-102728665D01*
X149969853Y-102451426D01*
X149861680Y-102190273D01*
X149704637Y-101955241D01*
X149504759Y-101755363D01*
X149272241Y-101600000D01*
X149504759Y-101444637D01*
X149704637Y-101244759D01*
X149861680Y-101009727D01*
X149969853Y-100748574D01*
X150025000Y-100471335D01*
X150025000Y-100188665D01*
X149969853Y-99911426D01*
X149861680Y-99650273D01*
X149704637Y-99415241D01*
X149504759Y-99215363D01*
X149272241Y-99060000D01*
X149504759Y-98904637D01*
X149704637Y-98704759D01*
X149861680Y-98469727D01*
X149969853Y-98208574D01*
X150025000Y-97931335D01*
X150025000Y-97648665D01*
X149969853Y-97371426D01*
X149861680Y-97110273D01*
X149704637Y-96875241D01*
X149504759Y-96675363D01*
X149272241Y-96520000D01*
X149504759Y-96364637D01*
X149704637Y-96164759D01*
X149861680Y-95929727D01*
X149969853Y-95668574D01*
X150025000Y-95391335D01*
X150025000Y-95108665D01*
X149969853Y-94831426D01*
X149861680Y-94570273D01*
X149704637Y-94335241D01*
X149504759Y-94135363D01*
X149272241Y-93980000D01*
X149504759Y-93824637D01*
X149704637Y-93624759D01*
X149861680Y-93389727D01*
X149969853Y-93128574D01*
X150025000Y-92851335D01*
X150025000Y-92568665D01*
X149969853Y-92291426D01*
X149861680Y-92030273D01*
X149704637Y-91795241D01*
X149504759Y-91595363D01*
X149272241Y-91440000D01*
X149504759Y-91284637D01*
X149704637Y-91084759D01*
X149861680Y-90849727D01*
X149969853Y-90588574D01*
X150025000Y-90311335D01*
X150025000Y-90028665D01*
X149969853Y-89751426D01*
X149861680Y-89490273D01*
X149704637Y-89255241D01*
X149504759Y-89055363D01*
X149272241Y-88900000D01*
X149504759Y-88744637D01*
X149704637Y-88544759D01*
X149861680Y-88309727D01*
X149969853Y-88048574D01*
X149973429Y-88030598D01*
X150370000Y-88427170D01*
X150370001Y-97342668D01*
X150366324Y-97380000D01*
X150380998Y-97528985D01*
X150424454Y-97672246D01*
X150495026Y-97804276D01*
X150530508Y-97847510D01*
X150590000Y-97920001D01*
X150618998Y-97943799D01*
X153414325Y-100739127D01*
X153401928Y-100864999D01*
X153401928Y-101515001D01*
X153418992Y-101688255D01*
X153469528Y-101854851D01*
X153551595Y-102008387D01*
X153662038Y-102142962D01*
X153796613Y-102253405D01*
X153950149Y-102335472D01*
X154116745Y-102386008D01*
X154289999Y-102403072D01*
X155590001Y-102403072D01*
X155763255Y-102386008D01*
X155929851Y-102335472D01*
X156083387Y-102253405D01*
X156217962Y-102142962D01*
X156328405Y-102008387D01*
X156410472Y-101854851D01*
X156461008Y-101688255D01*
X156478072Y-101515001D01*
X156478072Y-100864999D01*
X156461008Y-100691745D01*
X156410472Y-100525149D01*
X156328405Y-100371613D01*
X156217962Y-100237038D01*
X156083387Y-100126595D01*
X155929851Y-100044528D01*
X155763255Y-99993992D01*
X155590001Y-99976928D01*
X154801730Y-99976928D01*
X151890000Y-97065199D01*
X151890000Y-88149690D01*
X151893676Y-88112367D01*
X151890000Y-88075044D01*
X151890000Y-88075035D01*
X151879003Y-87963382D01*
X151835546Y-87820121D01*
X151764975Y-87688093D01*
X151764974Y-87688091D01*
X151693799Y-87601365D01*
X151670001Y-87572367D01*
X151641004Y-87548570D01*
X150597432Y-86504999D01*
X154181008Y-82921425D01*
X154210001Y-82897631D01*
X154233795Y-82868638D01*
X154233799Y-82868634D01*
X154304973Y-82781907D01*
X154304974Y-82781906D01*
X154375546Y-82649877D01*
X154419003Y-82506616D01*
X154423951Y-82456383D01*
X154560535Y-82365120D01*
X154755120Y-82170535D01*
X154908005Y-81941727D01*
X155013314Y-81687490D01*
X155067000Y-81417592D01*
X155067000Y-81142408D01*
X155013314Y-80872510D01*
X154908005Y-80618273D01*
X154755120Y-80389465D01*
X154560535Y-80194880D01*
X154331727Y-80041995D01*
X154254485Y-80010000D01*
X154331727Y-79978005D01*
X154560535Y-79825120D01*
X154755120Y-79630535D01*
X154908005Y-79401727D01*
X155013314Y-79147490D01*
X155067000Y-78877592D01*
X155067000Y-78602408D01*
X155013314Y-78332510D01*
X154908005Y-78078273D01*
X154755120Y-77849465D01*
X154560535Y-77654880D01*
X154331727Y-77501995D01*
X154254485Y-77470000D01*
X154331727Y-77438005D01*
X154560535Y-77285120D01*
X154755120Y-77090535D01*
X154908005Y-76861727D01*
X155013314Y-76607490D01*
X155067000Y-76337592D01*
X155067000Y-76062408D01*
X155013314Y-75792510D01*
X154908005Y-75538273D01*
X154755120Y-75309465D01*
X154560535Y-75114880D01*
X154331727Y-74961995D01*
X154254485Y-74930000D01*
X154331727Y-74898005D01*
X154560535Y-74745120D01*
X154755120Y-74550535D01*
X154908005Y-74321727D01*
X155013314Y-74067490D01*
X155067000Y-73797592D01*
X155067000Y-73522408D01*
X155013314Y-73252510D01*
X154908005Y-72998273D01*
X154755120Y-72769465D01*
X154560535Y-72574880D01*
X154331727Y-72421995D01*
X154254485Y-72390000D01*
X154331727Y-72358005D01*
X154560535Y-72205120D01*
X154755120Y-72010535D01*
X154908005Y-71781727D01*
X155013314Y-71527490D01*
X155067000Y-71257592D01*
X155067000Y-70982408D01*
X155013314Y-70712510D01*
X154908005Y-70458273D01*
X154755120Y-70229465D01*
X154560535Y-70034880D01*
X154331727Y-69881995D01*
X154260057Y-69852308D01*
X154273023Y-69847636D01*
X154388980Y-69785656D01*
X154455960Y-69545565D01*
X153670000Y-68759605D01*
X152884040Y-69545565D01*
X152951020Y-69785656D01*
X153086760Y-69849485D01*
X153008273Y-69881995D01*
X152779465Y-70034880D01*
X152584880Y-70229465D01*
X152431995Y-70458273D01*
X152326686Y-70712510D01*
X152273000Y-70982408D01*
X152273000Y-71257592D01*
X152326686Y-71527490D01*
X152431995Y-71781727D01*
X152584880Y-72010535D01*
X152779465Y-72205120D01*
X153008273Y-72358005D01*
X153085515Y-72390000D01*
X153008273Y-72421995D01*
X152779465Y-72574880D01*
X152584880Y-72769465D01*
X152431995Y-72998273D01*
X152326686Y-73252510D01*
X152273000Y-73522408D01*
X152273000Y-73797592D01*
X152326686Y-74067490D01*
X152431995Y-74321727D01*
X152584880Y-74550535D01*
X152779465Y-74745120D01*
X153008273Y-74898005D01*
X153085515Y-74930000D01*
X153008273Y-74961995D01*
X152779465Y-75114880D01*
X152584880Y-75309465D01*
X152431995Y-75538273D01*
X152326686Y-75792510D01*
X152273000Y-76062408D01*
X152273000Y-76337592D01*
X152326686Y-76607490D01*
X152431995Y-76861727D01*
X152584880Y-77090535D01*
X152779465Y-77285120D01*
X153008273Y-77438005D01*
X153085515Y-77470000D01*
X153008273Y-77501995D01*
X152779465Y-77654880D01*
X152584880Y-77849465D01*
X152431995Y-78078273D01*
X152326686Y-78332510D01*
X152273000Y-78602408D01*
X152273000Y-78877592D01*
X152326686Y-79147490D01*
X152431995Y-79401727D01*
X152584880Y-79630535D01*
X152779465Y-79825120D01*
X153008273Y-79978005D01*
X153085515Y-80010000D01*
X153008273Y-80041995D01*
X152779465Y-80194880D01*
X152584880Y-80389465D01*
X152431995Y-80618273D01*
X152326686Y-80872510D01*
X152273000Y-81142408D01*
X152273000Y-81417592D01*
X152326686Y-81687490D01*
X152431995Y-81941727D01*
X152584880Y-82170535D01*
X152683586Y-82269241D01*
X150021543Y-84931286D01*
X149969853Y-84671426D01*
X149861680Y-84410273D01*
X149704637Y-84175241D01*
X149504759Y-83975363D01*
X149272241Y-83820000D01*
X149504759Y-83664637D01*
X149704637Y-83464759D01*
X149861680Y-83229727D01*
X149969853Y-82968574D01*
X150025000Y-82691335D01*
X150025000Y-82408665D01*
X149969853Y-82131426D01*
X149861680Y-81870273D01*
X149704637Y-81635241D01*
X149504759Y-81435363D01*
X149272241Y-81280000D01*
X149504759Y-81124637D01*
X149704637Y-80924759D01*
X149861680Y-80689727D01*
X149969853Y-80428574D01*
X150025000Y-80151335D01*
X150025000Y-79868665D01*
X149969853Y-79591426D01*
X149861680Y-79330273D01*
X149704637Y-79095241D01*
X149504759Y-78895363D01*
X149272241Y-78740000D01*
X149504759Y-78584637D01*
X149704637Y-78384759D01*
X149861680Y-78149727D01*
X149969853Y-77888574D01*
X150025000Y-77611335D01*
X150025000Y-77328665D01*
X149969853Y-77051426D01*
X149861680Y-76790273D01*
X149704637Y-76555241D01*
X149504759Y-76355363D01*
X149272241Y-76200000D01*
X149504759Y-76044637D01*
X149704637Y-75844759D01*
X149861680Y-75609727D01*
X149969853Y-75348574D01*
X150025000Y-75071335D01*
X150025000Y-74788665D01*
X149969853Y-74511426D01*
X149861680Y-74250273D01*
X149704637Y-74015241D01*
X149504759Y-73815363D01*
X149272241Y-73660000D01*
X149504759Y-73504637D01*
X149704637Y-73304759D01*
X149861680Y-73069727D01*
X149969853Y-72808574D01*
X150025000Y-72531335D01*
X150025000Y-72248665D01*
X149969853Y-71971426D01*
X149861680Y-71710273D01*
X149704637Y-71475241D01*
X149504759Y-71275363D01*
X149272241Y-71120000D01*
X149504759Y-70964637D01*
X149704637Y-70764759D01*
X149861680Y-70529727D01*
X149969853Y-70268574D01*
X150025000Y-69991335D01*
X150025000Y-69708665D01*
X149969853Y-69431426D01*
X149861680Y-69170273D01*
X149704637Y-68935241D01*
X149504759Y-68735363D01*
X149380023Y-68652017D01*
X152268090Y-68652017D01*
X152309078Y-68924133D01*
X152402364Y-69183023D01*
X152464344Y-69298980D01*
X152704435Y-69365960D01*
X153490395Y-68580000D01*
X153849605Y-68580000D01*
X154635565Y-69365960D01*
X154875656Y-69298980D01*
X154992756Y-69049952D01*
X155059023Y-68782865D01*
X155071910Y-68507983D01*
X155030922Y-68235867D01*
X154937636Y-67976977D01*
X154875656Y-67861020D01*
X154635565Y-67794040D01*
X153849605Y-68580000D01*
X153490395Y-68580000D01*
X152704435Y-67794040D01*
X152464344Y-67861020D01*
X152347244Y-68110048D01*
X152280977Y-68377135D01*
X152268090Y-68652017D01*
X149380023Y-68652017D01*
X149269727Y-68578320D01*
X149008574Y-68470147D01*
X148731335Y-68415000D01*
X148448665Y-68415000D01*
X148171426Y-68470147D01*
X147910273Y-68578320D01*
X147675241Y-68735363D01*
X147475363Y-68935241D01*
X147318320Y-69170273D01*
X147210147Y-69431426D01*
X147155000Y-69708665D01*
X147155000Y-69991335D01*
X147210147Y-70268574D01*
X147318320Y-70529727D01*
X147475363Y-70764759D01*
X147675241Y-70964637D01*
X147907759Y-71120000D01*
X147675241Y-71275363D01*
X147475363Y-71475241D01*
X147318320Y-71710273D01*
X147210147Y-71971426D01*
X147155000Y-72248665D01*
X147155000Y-72531335D01*
X147210147Y-72808574D01*
X147318320Y-73069727D01*
X147475363Y-73304759D01*
X147675241Y-73504637D01*
X147907759Y-73660000D01*
X147675241Y-73815363D01*
X147475363Y-74015241D01*
X147318320Y-74250273D01*
X147210147Y-74511426D01*
X147155000Y-74788665D01*
X147155000Y-75071335D01*
X147210147Y-75348574D01*
X147318320Y-75609727D01*
X147475363Y-75844759D01*
X147675241Y-76044637D01*
X147907759Y-76200000D01*
X147675241Y-76355363D01*
X147475363Y-76555241D01*
X147318320Y-76790273D01*
X147210147Y-77051426D01*
X147155000Y-77328665D01*
X147155000Y-77611335D01*
X147210147Y-77888574D01*
X147318320Y-78149727D01*
X147475363Y-78384759D01*
X147675241Y-78584637D01*
X147907759Y-78740000D01*
X147675241Y-78895363D01*
X147475363Y-79095241D01*
X147318320Y-79330273D01*
X147210147Y-79591426D01*
X147155000Y-79868665D01*
X147155000Y-80151335D01*
X147210147Y-80428574D01*
X147318320Y-80689727D01*
X147475363Y-80924759D01*
X147675241Y-81124637D01*
X147907759Y-81280000D01*
X147675241Y-81435363D01*
X147475363Y-81635241D01*
X147318320Y-81870273D01*
X147210147Y-82131426D01*
X147155000Y-82408665D01*
X147155000Y-82691335D01*
X147210147Y-82968574D01*
X147318320Y-83229727D01*
X147475363Y-83464759D01*
X147675241Y-83664637D01*
X147907759Y-83820000D01*
X147675241Y-83975363D01*
X147475363Y-84175241D01*
X147318320Y-84410273D01*
X147210147Y-84671426D01*
X147155000Y-84948665D01*
X147155000Y-85231335D01*
X147210147Y-85508574D01*
X147308077Y-85744999D01*
X146810000Y-85744999D01*
X146810000Y-85127322D01*
X146813676Y-85089999D01*
X146810000Y-85052676D01*
X146810000Y-85052667D01*
X146799003Y-84941014D01*
X146755546Y-84797753D01*
X146684974Y-84665724D01*
X146590001Y-84549999D01*
X146561004Y-84526202D01*
X134748688Y-72713887D01*
X134785000Y-72531335D01*
X134785000Y-72248665D01*
X134729853Y-71971426D01*
X134621680Y-71710273D01*
X134464637Y-71475241D01*
X134264759Y-71275363D01*
X134032241Y-71120000D01*
X134264759Y-70964637D01*
X134464637Y-70764759D01*
X134621680Y-70529727D01*
X134729853Y-70268574D01*
X134785000Y-69991335D01*
X134785000Y-69708665D01*
X134729853Y-69431426D01*
X134621680Y-69170273D01*
X134464637Y-68935241D01*
X134264759Y-68735363D01*
X134029727Y-68578320D01*
X133768574Y-68470147D01*
X133491335Y-68415000D01*
X133208665Y-68415000D01*
X132931426Y-68470147D01*
X132670273Y-68578320D01*
X132435241Y-68735363D01*
X132235363Y-68935241D01*
X132078320Y-69170273D01*
X131970147Y-69431426D01*
X131915000Y-69708665D01*
X131915000Y-69991335D01*
X131970147Y-70268574D01*
X132078320Y-70529727D01*
X132235363Y-70764759D01*
X132435241Y-70964637D01*
X132667759Y-71120000D01*
X132435241Y-71275363D01*
X132235363Y-71475241D01*
X132078320Y-71710273D01*
X131970147Y-71971426D01*
X131915000Y-72248665D01*
X131915000Y-72531335D01*
X131970147Y-72808574D01*
X132078320Y-73069727D01*
X132235363Y-73304759D01*
X132435241Y-73504637D01*
X132667759Y-73660000D01*
X132435241Y-73815363D01*
X132235363Y-74015241D01*
X132078320Y-74250273D01*
X131970147Y-74511426D01*
X131915000Y-74788665D01*
X131915000Y-75071335D01*
X131970147Y-75348574D01*
X132078320Y-75609727D01*
X132235363Y-75844759D01*
X132435241Y-76044637D01*
X132667759Y-76200000D01*
X132435241Y-76355363D01*
X132235363Y-76555241D01*
X132078320Y-76790273D01*
X131970147Y-77051426D01*
X131915000Y-77328665D01*
X131915000Y-77611335D01*
X131970147Y-77888574D01*
X132078320Y-78149727D01*
X132235363Y-78384759D01*
X132435241Y-78584637D01*
X132667759Y-78740000D01*
X132435241Y-78895363D01*
X132235363Y-79095241D01*
X132078320Y-79330273D01*
X131970147Y-79591426D01*
X131915000Y-79868665D01*
X131915000Y-80151335D01*
X131970147Y-80428574D01*
X132078320Y-80689727D01*
X132235363Y-80924759D01*
X132435241Y-81124637D01*
X132667759Y-81280000D01*
X132435241Y-81435363D01*
X132235363Y-81635241D01*
X132078320Y-81870273D01*
X131970147Y-82131426D01*
X131915000Y-82408665D01*
X131915000Y-82691335D01*
X131970147Y-82968574D01*
X132078320Y-83229727D01*
X132235363Y-83464759D01*
X132435241Y-83664637D01*
X132667759Y-83820000D01*
X132435241Y-83975363D01*
X132235363Y-84175241D01*
X132078320Y-84410273D01*
X131970147Y-84671426D01*
X131915000Y-84948665D01*
X131915000Y-85231335D01*
X131970147Y-85508574D01*
X132078320Y-85769727D01*
X132235363Y-86004759D01*
X132435241Y-86204637D01*
X132667759Y-86360000D01*
X132435241Y-86515363D01*
X132235363Y-86715241D01*
X132078320Y-86950273D01*
X131970147Y-87211426D01*
X131915000Y-87488665D01*
X131915000Y-87771335D01*
X131970147Y-88048574D01*
X132078320Y-88309727D01*
X132235363Y-88544759D01*
X132435241Y-88744637D01*
X132667759Y-88900000D01*
X132435241Y-89055363D01*
X132235363Y-89255241D01*
X132078320Y-89490273D01*
X131970147Y-89751426D01*
X131915000Y-90028665D01*
X131915000Y-90311335D01*
X131970147Y-90588574D01*
X132008017Y-90680000D01*
X131178072Y-90680000D01*
X131178072Y-90440000D01*
X131165812Y-90315518D01*
X131129502Y-90195820D01*
X131070537Y-90085506D01*
X130991185Y-89988815D01*
X130894494Y-89909463D01*
X130784180Y-89850498D01*
X130664482Y-89814188D01*
X130540000Y-89801928D01*
X128540000Y-89801928D01*
X128415518Y-89814188D01*
X128295820Y-89850498D01*
X128185506Y-89909463D01*
X128088815Y-89988815D01*
X128009463Y-90085506D01*
X127950498Y-90195820D01*
X127914188Y-90315518D01*
X127901928Y-90440000D01*
X127685000Y-90440000D01*
X127685000Y-67614435D01*
X152884040Y-67614435D01*
X153670000Y-68400395D01*
X154455960Y-67614435D01*
X154388980Y-67374344D01*
X154139952Y-67257244D01*
X153872865Y-67190977D01*
X153597983Y-67178090D01*
X153325867Y-67219078D01*
X153066977Y-67312364D01*
X152951020Y-67374344D01*
X152884040Y-67614435D01*
X127685000Y-67614435D01*
X127685000Y-64185000D01*
X156795001Y-64185000D01*
X156795001Y-87799739D01*
%TA.AperFunction,Conductor*%
D24*
G36*
X156795001Y-87799739D02*
G01*
X156740487Y-87620031D01*
X156615408Y-87386026D01*
X156447081Y-87180919D01*
X156241974Y-87012592D01*
X156007969Y-86887513D01*
X155754058Y-86810490D01*
X155556169Y-86791000D01*
X154323831Y-86791000D01*
X154125942Y-86810490D01*
X153872031Y-86887513D01*
X153638026Y-87012592D01*
X153432919Y-87180919D01*
X153264592Y-87386026D01*
X153139513Y-87620031D01*
X153062490Y-87873942D01*
X153036483Y-88138000D01*
X153062490Y-88402058D01*
X153139513Y-88655969D01*
X153264592Y-88889974D01*
X153432919Y-89095081D01*
X153638026Y-89263408D01*
X153872031Y-89388487D01*
X153981170Y-89421594D01*
X153932554Y-89470210D01*
X153790613Y-89682640D01*
X153692843Y-89918679D01*
X153643000Y-90169257D01*
X153643000Y-90424743D01*
X153692843Y-90675321D01*
X153790613Y-90911360D01*
X153932554Y-91123790D01*
X154113210Y-91304446D01*
X154126012Y-91313000D01*
X154113210Y-91321554D01*
X153932554Y-91502210D01*
X153790613Y-91714640D01*
X153692843Y-91950679D01*
X153643000Y-92201257D01*
X153643000Y-92456743D01*
X153692843Y-92707321D01*
X153790613Y-92943360D01*
X153932554Y-93155790D01*
X154113210Y-93336446D01*
X154126012Y-93345000D01*
X154113210Y-93353554D01*
X153932554Y-93534210D01*
X153790613Y-93746640D01*
X153692843Y-93982679D01*
X153643000Y-94233257D01*
X153643000Y-94488743D01*
X153692843Y-94739321D01*
X153790613Y-94975360D01*
X153932554Y-95187790D01*
X153981170Y-95236406D01*
X153872031Y-95269513D01*
X153638026Y-95394592D01*
X153432919Y-95562919D01*
X153264592Y-95768026D01*
X153139513Y-96002031D01*
X153062490Y-96255942D01*
X153036483Y-96520000D01*
X153062490Y-96784058D01*
X153139513Y-97037969D01*
X153264592Y-97271974D01*
X153432919Y-97477081D01*
X153638026Y-97645408D01*
X153872031Y-97770487D01*
X154125942Y-97847510D01*
X154323831Y-97867000D01*
X155556169Y-97867000D01*
X155754058Y-97847510D01*
X156007969Y-97770487D01*
X156241974Y-97645408D01*
X156447081Y-97477081D01*
X156615408Y-97271974D01*
X156740487Y-97037969D01*
X156795001Y-96858262D01*
X156795000Y-130125000D01*
X127685000Y-130125000D01*
X127685000Y-122479064D01*
X127685820Y-122479502D01*
X127805518Y-122515812D01*
X127930000Y-122528072D01*
X128644250Y-122525000D01*
X128803000Y-122366250D01*
X128803000Y-120117000D01*
X129057000Y-120117000D01*
X129057000Y-122366250D01*
X129215750Y-122525000D01*
X129930000Y-122528072D01*
X130054482Y-122515812D01*
X130174180Y-122479502D01*
X130284494Y-122420537D01*
X130381185Y-122341185D01*
X130460537Y-122244494D01*
X130519502Y-122134180D01*
X130555812Y-122014482D01*
X130568072Y-121890000D01*
X130565000Y-120275750D01*
X130406250Y-120117000D01*
X129057000Y-120117000D01*
X128803000Y-120117000D01*
X128783000Y-120117000D01*
X128783000Y-119863000D01*
X128803000Y-119863000D01*
X128803000Y-117613750D01*
X129057000Y-117613750D01*
X129057000Y-119863000D01*
X130406250Y-119863000D01*
X130565000Y-119704250D01*
X130568072Y-118090000D01*
X130560002Y-118008061D01*
X132269998Y-118008061D01*
X132269998Y-118211939D01*
X132309772Y-118411898D01*
X132387793Y-118600256D01*
X132501061Y-118769774D01*
X132645224Y-118913937D01*
X132814742Y-119027205D01*
X133003100Y-119105226D01*
X133203059Y-119145000D01*
X133406937Y-119145000D01*
X133606896Y-119105226D01*
X133607370Y-119105030D01*
X133604188Y-119115518D01*
X133591928Y-119240000D01*
X133595000Y-119704250D01*
X133753750Y-119863000D01*
X135103000Y-119863000D01*
X135103000Y-119843000D01*
X135357000Y-119843000D01*
X135357000Y-119863000D01*
X136706250Y-119863000D01*
X136865000Y-119704250D01*
X136868072Y-119240000D01*
X136855812Y-119115518D01*
X136819502Y-118995820D01*
X136760537Y-118885506D01*
X136723191Y-118840000D01*
X136760537Y-118794494D01*
X136819502Y-118684180D01*
X136855812Y-118564482D01*
X136868072Y-118440000D01*
X136868072Y-117740000D01*
X137216928Y-117740000D01*
X137229188Y-117864482D01*
X137265498Y-117984180D01*
X137324463Y-118094494D01*
X137403815Y-118191185D01*
X137500506Y-118270537D01*
X137610820Y-118329502D01*
X137730518Y-118365812D01*
X137855000Y-118378072D01*
X138144250Y-118375000D01*
X138303000Y-118216250D01*
X138303000Y-116967000D01*
X137378750Y-116967000D01*
X137220000Y-117125750D01*
X137216928Y-117740000D01*
X136868072Y-117740000D01*
X136868072Y-116940000D01*
X136855812Y-116815518D01*
X136819502Y-116695820D01*
X136760537Y-116585506D01*
X136681185Y-116488815D01*
X136584494Y-116409463D01*
X136474180Y-116350498D01*
X136354482Y-116314188D01*
X136230000Y-116301928D01*
X134230000Y-116301928D01*
X134105518Y-116314188D01*
X133985820Y-116350498D01*
X133875506Y-116409463D01*
X133778815Y-116488815D01*
X133699463Y-116585506D01*
X133640498Y-116695820D01*
X133604188Y-116815518D01*
X133591928Y-116940000D01*
X133591928Y-117111797D01*
X133406937Y-117075000D01*
X133203059Y-117075000D01*
X133003100Y-117114774D01*
X132814742Y-117192795D01*
X132645224Y-117306063D01*
X132501061Y-117450226D01*
X132387793Y-117619744D01*
X132309772Y-117808102D01*
X132269998Y-118008061D01*
X130560002Y-118008061D01*
X130555812Y-117965518D01*
X130519502Y-117845820D01*
X130460537Y-117735506D01*
X130381185Y-117638815D01*
X130284494Y-117559463D01*
X130174180Y-117500498D01*
X130054482Y-117464188D01*
X129930000Y-117451928D01*
X129215750Y-117455000D01*
X129057000Y-117613750D01*
X128803000Y-117613750D01*
X128644250Y-117455000D01*
X127930000Y-117451928D01*
X127805518Y-117464188D01*
X127685820Y-117500498D01*
X127685000Y-117500936D01*
X127685000Y-115940000D01*
X137216928Y-115940000D01*
X137220000Y-116554250D01*
X137378750Y-116713000D01*
X138303000Y-116713000D01*
X138303000Y-115463750D01*
X138557000Y-115463750D01*
X138557000Y-116713000D01*
X139481250Y-116713000D01*
X139640000Y-116554250D01*
X139643072Y-115940000D01*
X139630812Y-115815518D01*
X139594502Y-115695820D01*
X139535537Y-115585506D01*
X139456185Y-115488815D01*
X139359494Y-115409463D01*
X139249180Y-115350498D01*
X139129482Y-115314188D01*
X139005000Y-115301928D01*
X138715750Y-115305000D01*
X138557000Y-115463750D01*
X138303000Y-115463750D01*
X138144250Y-115305000D01*
X137855000Y-115301928D01*
X137730518Y-115314188D01*
X137610820Y-115350498D01*
X137500506Y-115409463D01*
X137403815Y-115488815D01*
X137324463Y-115585506D01*
X137265498Y-115695820D01*
X137229188Y-115815518D01*
X137216928Y-115940000D01*
X127685000Y-115940000D01*
X127685000Y-112760000D01*
X127901928Y-112760000D01*
X127914188Y-112884482D01*
X127950498Y-113004180D01*
X128009463Y-113114494D01*
X128088815Y-113211185D01*
X128185506Y-113290537D01*
X128295820Y-113349502D01*
X128415518Y-113385812D01*
X128540000Y-113398072D01*
X129254250Y-113395000D01*
X129413000Y-113236250D01*
X129413000Y-111887000D01*
X129667000Y-111887000D01*
X129667000Y-113236250D01*
X129825750Y-113395000D01*
X130540000Y-113398072D01*
X130664482Y-113385812D01*
X130784180Y-113349502D01*
X130894494Y-113290537D01*
X130991185Y-113211185D01*
X131070537Y-113114494D01*
X131129502Y-113004180D01*
X131165812Y-112884482D01*
X131178072Y-112760000D01*
X131175000Y-112045750D01*
X131016250Y-111887000D01*
X129667000Y-111887000D01*
X129413000Y-111887000D01*
X128063750Y-111887000D01*
X127905000Y-112045750D01*
X127901928Y-112760000D01*
X127685000Y-112760000D01*
X127685000Y-110760000D01*
X127901928Y-110760000D01*
X127905000Y-111474250D01*
X128063750Y-111633000D01*
X129413000Y-111633000D01*
X129413000Y-110283750D01*
X129667000Y-110283750D01*
X129667000Y-111633000D01*
X131016250Y-111633000D01*
X131175000Y-111474250D01*
X131178072Y-110760000D01*
X131165812Y-110635518D01*
X131129502Y-110515820D01*
X131070537Y-110405506D01*
X130991185Y-110308815D01*
X130894494Y-110229463D01*
X130784180Y-110170498D01*
X130664482Y-110134188D01*
X130540000Y-110121928D01*
X129825750Y-110125000D01*
X129667000Y-110283750D01*
X129413000Y-110283750D01*
X129254250Y-110125000D01*
X128540000Y-110121928D01*
X128415518Y-110134188D01*
X128295820Y-110170498D01*
X128185506Y-110229463D01*
X128088815Y-110308815D01*
X128009463Y-110405506D01*
X127950498Y-110515820D01*
X127914188Y-110635518D01*
X127901928Y-110760000D01*
X127685000Y-110760000D01*
X127685000Y-103978967D01*
X127905000Y-103978967D01*
X127905000Y-104301033D01*
X127967832Y-104616912D01*
X128091082Y-104914463D01*
X128270013Y-105182252D01*
X128497748Y-105409987D01*
X128765537Y-105588918D01*
X129063088Y-105712168D01*
X129378967Y-105775000D01*
X129701033Y-105775000D01*
X130016912Y-105712168D01*
X130314463Y-105588918D01*
X130582252Y-105409987D01*
X130809987Y-105182252D01*
X130988918Y-104914463D01*
X131112168Y-104616912D01*
X131175000Y-104301033D01*
X131175000Y-103978967D01*
X131112168Y-103663088D01*
X130988918Y-103365537D01*
X130809987Y-103097748D01*
X130582252Y-102870013D01*
X130314463Y-102691082D01*
X130016912Y-102567832D01*
X129701033Y-102505000D01*
X129378967Y-102505000D01*
X129063088Y-102567832D01*
X128765537Y-102691082D01*
X128497748Y-102870013D01*
X128270013Y-103097748D01*
X128091082Y-103365537D01*
X127967832Y-103663088D01*
X127905000Y-103978967D01*
X127685000Y-103978967D01*
X127685000Y-90440000D01*
X127901928Y-90440000D01*
X127901928Y-92440000D01*
X127914188Y-92564482D01*
X127950498Y-92684180D01*
X128009463Y-92794494D01*
X128088815Y-92891185D01*
X128185506Y-92970537D01*
X128295820Y-93029502D01*
X128415518Y-93065812D01*
X128540000Y-93078072D01*
X130540000Y-93078072D01*
X130664482Y-93065812D01*
X130784180Y-93029502D01*
X130894494Y-92970537D01*
X130991185Y-92891185D01*
X131070537Y-92794494D01*
X131129502Y-92684180D01*
X131165812Y-92564482D01*
X131178072Y-92440000D01*
X131178072Y-92200000D01*
X132008017Y-92200000D01*
X131970147Y-92291426D01*
X131915000Y-92568665D01*
X131915000Y-92851335D01*
X131970147Y-93128574D01*
X132078320Y-93389727D01*
X132235363Y-93624759D01*
X132435241Y-93824637D01*
X132667759Y-93980000D01*
X132435241Y-94135363D01*
X132235363Y-94335241D01*
X132078320Y-94570273D01*
X131970147Y-94831426D01*
X131915000Y-95108665D01*
X131915000Y-95391335D01*
X131970147Y-95668574D01*
X132078320Y-95929727D01*
X132235363Y-96164759D01*
X132435241Y-96364637D01*
X132667759Y-96520000D01*
X132435241Y-96675363D01*
X132235363Y-96875241D01*
X132078320Y-97110273D01*
X131970147Y-97371426D01*
X131915000Y-97648665D01*
X131915000Y-97931335D01*
X131951312Y-98113886D01*
X131765199Y-98300000D01*
X130994909Y-98300000D01*
X130988918Y-98285537D01*
X130809987Y-98017748D01*
X130582252Y-97790013D01*
X130314463Y-97611082D01*
X130016912Y-97487832D01*
X129701033Y-97425000D01*
X129378967Y-97425000D01*
X129063088Y-97487832D01*
X128765537Y-97611082D01*
X128497748Y-97790013D01*
X128270013Y-98017748D01*
X128091082Y-98285537D01*
X127967832Y-98583088D01*
X127905000Y-98898967D01*
X127905000Y-99221033D01*
X127967832Y-99536912D01*
X128091082Y-99834463D01*
X128270013Y-100102252D01*
X128497748Y-100329987D01*
X128765537Y-100508918D01*
X129063088Y-100632168D01*
X129378967Y-100695000D01*
X129701033Y-100695000D01*
X130016912Y-100632168D01*
X130314463Y-100508918D01*
X130582252Y-100329987D01*
X130809987Y-100102252D01*
X130988918Y-99834463D01*
X130994909Y-99820000D01*
X132008017Y-99820000D01*
X131970147Y-99911426D01*
X131915000Y-100188665D01*
X131915000Y-100471335D01*
X131970147Y-100748574D01*
X132078320Y-101009727D01*
X132235363Y-101244759D01*
X132435241Y-101444637D01*
X132667759Y-101600000D01*
X132435241Y-101755363D01*
X132235363Y-101955241D01*
X132078320Y-102190273D01*
X131970147Y-102451426D01*
X131915000Y-102728665D01*
X131915000Y-103011335D01*
X131970147Y-103288574D01*
X132078320Y-103549727D01*
X132235363Y-103784759D01*
X132435241Y-103984637D01*
X132667759Y-104140000D01*
X132435241Y-104295363D01*
X132235363Y-104495241D01*
X132078320Y-104730273D01*
X131970147Y-104991426D01*
X131915000Y-105268665D01*
X131915000Y-105551335D01*
X131970147Y-105828574D01*
X132078320Y-106089727D01*
X132235363Y-106324759D01*
X132435241Y-106524637D01*
X132590001Y-106628044D01*
X132590000Y-107909445D01*
X132586324Y-107946768D01*
X132590000Y-107984090D01*
X132590000Y-107984100D01*
X132600997Y-108095753D01*
X132643464Y-108235750D01*
X132644454Y-108239014D01*
X132715026Y-108371044D01*
X132754871Y-108419594D01*
X132809999Y-108486769D01*
X132839003Y-108510572D01*
X134657959Y-110329529D01*
X134656928Y-110340000D01*
X134656928Y-110640000D01*
X134672071Y-110793745D01*
X134716916Y-110941582D01*
X134789742Y-111077829D01*
X134828454Y-111125000D01*
X134789742Y-111172171D01*
X134716916Y-111308418D01*
X134672071Y-111456255D01*
X134656928Y-111610000D01*
X134656928Y-111910000D01*
X134672071Y-112063745D01*
X134716916Y-112211582D01*
X134789742Y-112347829D01*
X134828454Y-112395000D01*
X134789742Y-112442171D01*
X134716916Y-112578418D01*
X134672071Y-112726255D01*
X134656928Y-112880000D01*
X134656928Y-113180000D01*
X134672071Y-113333745D01*
X134716916Y-113481582D01*
X134789742Y-113617829D01*
X134887749Y-113737251D01*
X135007171Y-113835258D01*
X135143418Y-113908084D01*
X135291255Y-113952929D01*
X135445000Y-113968072D01*
X137195000Y-113968072D01*
X137348745Y-113952929D01*
X137496582Y-113908084D01*
X137632829Y-113835258D01*
X137752251Y-113737251D01*
X137850258Y-113617829D01*
X137923084Y-113481582D01*
X137967929Y-113333745D01*
X137983072Y-113180000D01*
X137983072Y-112880000D01*
X137967929Y-112726255D01*
X137923084Y-112578418D01*
X137882054Y-112501657D01*
X137963937Y-112419774D01*
X138077205Y-112250256D01*
X138155226Y-112061898D01*
X138195000Y-111861939D01*
X138195000Y-111743033D01*
X140620001Y-114168035D01*
X140620000Y-115420386D01*
X140561613Y-115451595D01*
X140427038Y-115562038D01*
X140316595Y-115696613D01*
X140234528Y-115850149D01*
X140183992Y-116016745D01*
X140166928Y-116189999D01*
X140166928Y-116978270D01*
X139641888Y-117503310D01*
X139640000Y-117125750D01*
X139481250Y-116967000D01*
X138557000Y-116967000D01*
X138557000Y-118216250D01*
X138715750Y-118375000D01*
X138769626Y-118375572D01*
X136865029Y-120280169D01*
X136865000Y-120275750D01*
X136706250Y-120117000D01*
X135357000Y-120117000D01*
X135357000Y-120137000D01*
X135103000Y-120137000D01*
X135103000Y-120117000D01*
X133753750Y-120117000D01*
X133595000Y-120275750D01*
X133591928Y-120740000D01*
X133604188Y-120864482D01*
X133640498Y-120984180D01*
X133699463Y-121094494D01*
X133736809Y-121140000D01*
X133699463Y-121185506D01*
X133640498Y-121295820D01*
X133604188Y-121415518D01*
X133591928Y-121540000D01*
X133591928Y-123040000D01*
X133604188Y-123164482D01*
X133640498Y-123284180D01*
X133699463Y-123394494D01*
X133778815Y-123491185D01*
X133875506Y-123570537D01*
X133985820Y-123629502D01*
X134105518Y-123665812D01*
X134230000Y-123678072D01*
X136230000Y-123678072D01*
X136354482Y-123665812D01*
X136474180Y-123629502D01*
X136584494Y-123570537D01*
X136681185Y-123491185D01*
X136760537Y-123394494D01*
X136819502Y-123284180D01*
X136855812Y-123164482D01*
X136868072Y-123040000D01*
X136868072Y-122426729D01*
X137014628Y-122280173D01*
X137011928Y-122820000D01*
X137024188Y-122944482D01*
X137060498Y-123064180D01*
X137119463Y-123174494D01*
X137198815Y-123271185D01*
X137295506Y-123350537D01*
X137405820Y-123409502D01*
X137525518Y-123445812D01*
X137650000Y-123458072D01*
X137939250Y-123455000D01*
X138098000Y-123296250D01*
X138098000Y-122047000D01*
X138352000Y-122047000D01*
X138352000Y-123296250D01*
X138510750Y-123455000D01*
X138800000Y-123458072D01*
X138924482Y-123445812D01*
X139044180Y-123409502D01*
X139154494Y-123350537D01*
X139251185Y-123271185D01*
X139330537Y-123174494D01*
X139389502Y-123064180D01*
X139425812Y-122944482D01*
X139438072Y-122820000D01*
X139435000Y-122205750D01*
X139276250Y-122047000D01*
X138352000Y-122047000D01*
X138098000Y-122047000D01*
X138078000Y-122047000D01*
X138078000Y-121793000D01*
X138098000Y-121793000D01*
X138098000Y-121773000D01*
X138352000Y-121773000D01*
X138352000Y-121793000D01*
X139276250Y-121793000D01*
X139435000Y-121634250D01*
X139438072Y-121020000D01*
X139425812Y-120895518D01*
X139389502Y-120775820D01*
X139330537Y-120665506D01*
X139251185Y-120568815D01*
X139154494Y-120489463D01*
X139044180Y-120430498D01*
X138924482Y-120394188D01*
X138902753Y-120392048D01*
X140929127Y-118365675D01*
X141054999Y-118378072D01*
X141705001Y-118378072D01*
X141878255Y-118361008D01*
X142044851Y-118310472D01*
X142198387Y-118228405D01*
X142332962Y-118117962D01*
X142443405Y-117983387D01*
X142525472Y-117829851D01*
X142576008Y-117663255D01*
X142593072Y-117490001D01*
X142593072Y-116189999D01*
X142576008Y-116016745D01*
X142525472Y-115850149D01*
X142443405Y-115696613D01*
X142332962Y-115562038D01*
X142198387Y-115451595D01*
X142140000Y-115420386D01*
X142140000Y-113890555D01*
X142143676Y-113853232D01*
X142140000Y-113815909D01*
X142140000Y-113815899D01*
X142129003Y-113704246D01*
X142085546Y-113560985D01*
X142059936Y-113513072D01*
X142014974Y-113428955D01*
X141943799Y-113342229D01*
X141920001Y-113313231D01*
X141891003Y-113289433D01*
X137982041Y-109380472D01*
X137983072Y-109370000D01*
X137983072Y-109070000D01*
X137967929Y-108916255D01*
X137923084Y-108768418D01*
X137851270Y-108634064D01*
X137875537Y-108604494D01*
X137934502Y-108494180D01*
X137970812Y-108374482D01*
X137983072Y-108250000D01*
X137980000Y-108235750D01*
X137821250Y-108077000D01*
X136447000Y-108077000D01*
X136447000Y-108097000D01*
X136193000Y-108097000D01*
X136193000Y-108077000D01*
X134818750Y-108077000D01*
X134686892Y-108208858D01*
X134110000Y-107631967D01*
X134110000Y-106980000D01*
X134656928Y-106980000D01*
X134669188Y-107104482D01*
X134705498Y-107224180D01*
X134754043Y-107315000D01*
X134705498Y-107405820D01*
X134669188Y-107525518D01*
X134656928Y-107650000D01*
X134660000Y-107664250D01*
X134818750Y-107823000D01*
X136193000Y-107823000D01*
X136193000Y-106807000D01*
X136447000Y-106807000D01*
X136447000Y-107823000D01*
X137821250Y-107823000D01*
X137980000Y-107664250D01*
X137983072Y-107650000D01*
X137970812Y-107525518D01*
X137934502Y-107405820D01*
X137885957Y-107315000D01*
X137934502Y-107224180D01*
X137970812Y-107104482D01*
X137983072Y-106980000D01*
X137980000Y-106965750D01*
X137821250Y-106807000D01*
X136447000Y-106807000D01*
X136193000Y-106807000D01*
X134818750Y-106807000D01*
X134660000Y-106965750D01*
X134656928Y-106980000D01*
X134110000Y-106980000D01*
X134110000Y-106628043D01*
X134264759Y-106524637D01*
X134464637Y-106324759D01*
X134621680Y-106089727D01*
X134693799Y-105915615D01*
X134705498Y-105954180D01*
X134754043Y-106045000D01*
X134705498Y-106135820D01*
X134669188Y-106255518D01*
X134656928Y-106380000D01*
X134660000Y-106394250D01*
X134818750Y-106553000D01*
X136193000Y-106553000D01*
X136193000Y-105537000D01*
X136447000Y-105537000D01*
X136447000Y-106553000D01*
X137821250Y-106553000D01*
X137980000Y-106394250D01*
X137983072Y-106380000D01*
X137970812Y-106255518D01*
X137934502Y-106135820D01*
X137885957Y-106045000D01*
X137934502Y-105954180D01*
X137970812Y-105834482D01*
X137983072Y-105710000D01*
X137980000Y-105695750D01*
X137821250Y-105537000D01*
X136447000Y-105537000D01*
X136193000Y-105537000D01*
X136173000Y-105537000D01*
X136173000Y-105283000D01*
X136193000Y-105283000D01*
X136193000Y-104267000D01*
X136447000Y-104267000D01*
X136447000Y-105283000D01*
X137821250Y-105283000D01*
X137980000Y-105124250D01*
X137983072Y-105110000D01*
X137970812Y-104985518D01*
X137934502Y-104865820D01*
X137885957Y-104775000D01*
X137934502Y-104684180D01*
X137970812Y-104564482D01*
X137983072Y-104440000D01*
X137980000Y-104425750D01*
X137821250Y-104267000D01*
X136447000Y-104267000D01*
X136193000Y-104267000D01*
X134818750Y-104267000D01*
X134660000Y-104425750D01*
X134656928Y-104440000D01*
X134669188Y-104564482D01*
X134705498Y-104684180D01*
X134754043Y-104775000D01*
X134705498Y-104865820D01*
X134693799Y-104904385D01*
X134621680Y-104730273D01*
X134464637Y-104495241D01*
X134264759Y-104295363D01*
X134032241Y-104140000D01*
X134264759Y-103984637D01*
X134464637Y-103784759D01*
X134568043Y-103630000D01*
X134695130Y-103630000D01*
X134669188Y-103715518D01*
X134656928Y-103840000D01*
X134660000Y-103854250D01*
X134818750Y-104013000D01*
X136193000Y-104013000D01*
X136193000Y-103993000D01*
X136447000Y-103993000D01*
X136447000Y-104013000D01*
X137821250Y-104013000D01*
X137980000Y-103854250D01*
X137983072Y-103840000D01*
X137970812Y-103715518D01*
X137944870Y-103630000D01*
X140065987Y-103630000D01*
X140052795Y-103649744D01*
X139974774Y-103838102D01*
X139935000Y-104038061D01*
X139935000Y-104241939D01*
X139974774Y-104441898D01*
X140052795Y-104630256D01*
X140166063Y-104799774D01*
X140210001Y-104843712D01*
X140210000Y-109367677D01*
X140206324Y-109405000D01*
X140210000Y-109442322D01*
X140210000Y-109442332D01*
X140220997Y-109553985D01*
X140256669Y-109671582D01*
X140264454Y-109697246D01*
X140335026Y-109829276D01*
X140335806Y-109830226D01*
X140429999Y-109945001D01*
X140459003Y-109968804D01*
X144031201Y-113541003D01*
X144054999Y-113570001D01*
X144071350Y-113583420D01*
X144089742Y-113617829D01*
X144187749Y-113737251D01*
X144307171Y-113835258D01*
X144443418Y-113908084D01*
X144591255Y-113952929D01*
X144745000Y-113968072D01*
X146210010Y-113968072D01*
X146210011Y-116824185D01*
X144904003Y-118130194D01*
X144874999Y-118153997D01*
X144827448Y-118211939D01*
X144780026Y-118269722D01*
X144723753Y-118375000D01*
X144709454Y-118401752D01*
X144665997Y-118545013D01*
X144655000Y-118656666D01*
X144655000Y-118656676D01*
X144651324Y-118693998D01*
X144655000Y-118731321D01*
X144655001Y-121160000D01*
X142377238Y-121160000D01*
X142371008Y-121096745D01*
X142320472Y-120930149D01*
X142238405Y-120776613D01*
X142127962Y-120642038D01*
X141993387Y-120531595D01*
X141839851Y-120449528D01*
X141673255Y-120398992D01*
X141500001Y-120381928D01*
X140849999Y-120381928D01*
X140676745Y-120398992D01*
X140510149Y-120449528D01*
X140356613Y-120531595D01*
X140222038Y-120642038D01*
X140111595Y-120776613D01*
X140029528Y-120930149D01*
X139978992Y-121096745D01*
X139961928Y-121269999D01*
X139961928Y-122570001D01*
X139978992Y-122743255D01*
X140029528Y-122909851D01*
X140111595Y-123063387D01*
X140222038Y-123197962D01*
X140356613Y-123308405D01*
X140510149Y-123390472D01*
X140676745Y-123441008D01*
X140849999Y-123458072D01*
X141500001Y-123458072D01*
X141673255Y-123441008D01*
X141839851Y-123390472D01*
X141993387Y-123308405D01*
X142127962Y-123197962D01*
X142238405Y-123063387D01*
X142320472Y-122909851D01*
X142371008Y-122743255D01*
X142377238Y-122680000D01*
X145100199Y-122680000D01*
X148741928Y-126321730D01*
X148741928Y-129385000D01*
X148754188Y-129509482D01*
X148790498Y-129629180D01*
X148849463Y-129739494D01*
X148928815Y-129836185D01*
X149025506Y-129915537D01*
X149135820Y-129974502D01*
X149255518Y-130010812D01*
X149380000Y-130023072D01*
X152880000Y-130023072D01*
X153004482Y-130010812D01*
X153124180Y-129974502D01*
X153234494Y-129915537D01*
X153331185Y-129836185D01*
X153410537Y-129739494D01*
X153469502Y-129629180D01*
X153505812Y-129509482D01*
X153518072Y-129385000D01*
X153518072Y-125885000D01*
X153505812Y-125760518D01*
X153469502Y-125640820D01*
X153410537Y-125530506D01*
X153331185Y-125433815D01*
X153234494Y-125354463D01*
X153124180Y-125295498D01*
X153004482Y-125259188D01*
X152880000Y-125246928D01*
X149816730Y-125246928D01*
X147219382Y-122649580D01*
X148040025Y-122649580D01*
X148496197Y-123221185D01*
X149296183Y-123661207D01*
X150166641Y-123936704D01*
X151074121Y-124037091D01*
X151983748Y-123958508D01*
X152860566Y-123703975D01*
X153670879Y-123283275D01*
X153763803Y-123221185D01*
X154219975Y-122649580D01*
X151130000Y-119559605D01*
X148040025Y-122649580D01*
X147219382Y-122649580D01*
X146175000Y-121605199D01*
X146175000Y-119008799D01*
X146549183Y-118634616D01*
X146472909Y-119324121D01*
X146551492Y-120233748D01*
X146806025Y-121110566D01*
X147226725Y-121920879D01*
X147288815Y-122013803D01*
X147860420Y-122469975D01*
X150950395Y-119380000D01*
X151309605Y-119380000D01*
X154399580Y-122469975D01*
X154971185Y-122013803D01*
X155411207Y-121213817D01*
X155686704Y-120343359D01*
X155787091Y-119435879D01*
X155708508Y-118526252D01*
X155453975Y-117649434D01*
X155033275Y-116839121D01*
X154971185Y-116746197D01*
X154399580Y-116290025D01*
X151309605Y-119380000D01*
X150950395Y-119380000D01*
X147860420Y-116290025D01*
X147730010Y-116394099D01*
X147730010Y-116110420D01*
X148040025Y-116110420D01*
X151130000Y-119200395D01*
X154219975Y-116110420D01*
X153763803Y-115538815D01*
X152963817Y-115098793D01*
X152093359Y-114823296D01*
X151185879Y-114722909D01*
X150276252Y-114801492D01*
X149399434Y-115056025D01*
X148589121Y-115476725D01*
X148496197Y-115538815D01*
X148040025Y-116110420D01*
X147730010Y-116110420D01*
X147730010Y-111250000D01*
X148741928Y-111250000D01*
X148741928Y-112875000D01*
X148754188Y-112999482D01*
X148790498Y-113119180D01*
X148849463Y-113229494D01*
X148928815Y-113326185D01*
X149025506Y-113405537D01*
X149135820Y-113464502D01*
X149255518Y-113500812D01*
X149380000Y-113513072D01*
X152880000Y-113513072D01*
X153004482Y-113500812D01*
X153124180Y-113464502D01*
X153234494Y-113405537D01*
X153331185Y-113326185D01*
X153410537Y-113229494D01*
X153469502Y-113119180D01*
X153505812Y-112999482D01*
X153518072Y-112875000D01*
X153518072Y-109375000D01*
X153505812Y-109250518D01*
X153469502Y-109130820D01*
X153410537Y-109020506D01*
X153331185Y-108923815D01*
X153234494Y-108844463D01*
X153124180Y-108785498D01*
X153004482Y-108749188D01*
X152880000Y-108736928D01*
X149380000Y-108736928D01*
X149255518Y-108749188D01*
X149135820Y-108785498D01*
X149025506Y-108844463D01*
X148928815Y-108923815D01*
X148849463Y-109020506D01*
X148790498Y-109130820D01*
X148754188Y-109250518D01*
X148741928Y-109375000D01*
X148741928Y-109730000D01*
X147244870Y-109730000D01*
X147270812Y-109644482D01*
X147283072Y-109520000D01*
X147280000Y-109505750D01*
X147121250Y-109347000D01*
X145747000Y-109347000D01*
X145747000Y-109367000D01*
X145493000Y-109367000D01*
X145493000Y-109347000D01*
X144118750Y-109347000D01*
X143960000Y-109505750D01*
X143956928Y-109520000D01*
X143960506Y-109556330D01*
X143811898Y-109494774D01*
X143611939Y-109455000D01*
X143408061Y-109455000D01*
X143208102Y-109494774D01*
X143019744Y-109572795D01*
X142850226Y-109686063D01*
X142706063Y-109830226D01*
X142611521Y-109971719D01*
X141730000Y-109090199D01*
X141730000Y-108250000D01*
X143956928Y-108250000D01*
X143969188Y-108374482D01*
X144005498Y-108494180D01*
X144054043Y-108585000D01*
X144005498Y-108675820D01*
X143969188Y-108795518D01*
X143956928Y-108920000D01*
X143960000Y-108934250D01*
X144118750Y-109093000D01*
X145493000Y-109093000D01*
X145493000Y-108077000D01*
X145747000Y-108077000D01*
X145747000Y-109093000D01*
X147121250Y-109093000D01*
X147280000Y-108934250D01*
X147283072Y-108920000D01*
X147270812Y-108795518D01*
X147234502Y-108675820D01*
X147185957Y-108585000D01*
X147234502Y-108494180D01*
X147270812Y-108374482D01*
X147283072Y-108250000D01*
X147280000Y-108235750D01*
X147121250Y-108077000D01*
X145747000Y-108077000D01*
X145493000Y-108077000D01*
X144118750Y-108077000D01*
X143960000Y-108235750D01*
X143956928Y-108250000D01*
X141730000Y-108250000D01*
X141730000Y-106980000D01*
X143956928Y-106980000D01*
X143969188Y-107104482D01*
X144005498Y-107224180D01*
X144054043Y-107315000D01*
X144005498Y-107405820D01*
X143969188Y-107525518D01*
X143956928Y-107650000D01*
X143960000Y-107664250D01*
X144118750Y-107823000D01*
X145493000Y-107823000D01*
X145493000Y-106807000D01*
X145747000Y-106807000D01*
X145747000Y-107823000D01*
X147121250Y-107823000D01*
X147280000Y-107664250D01*
X147283072Y-107650000D01*
X147270812Y-107525518D01*
X147234502Y-107405820D01*
X147185957Y-107315000D01*
X147234502Y-107224180D01*
X147270812Y-107104482D01*
X147283072Y-106980000D01*
X147280000Y-106965750D01*
X147121250Y-106807000D01*
X145747000Y-106807000D01*
X145493000Y-106807000D01*
X144118750Y-106807000D01*
X143960000Y-106965750D01*
X143956928Y-106980000D01*
X141730000Y-106980000D01*
X141730000Y-105710000D01*
X143956928Y-105710000D01*
X143969188Y-105834482D01*
X144005498Y-105954180D01*
X144054043Y-106045000D01*
X144005498Y-106135820D01*
X143969188Y-106255518D01*
X143956928Y-106380000D01*
X143960000Y-106394250D01*
X144118750Y-106553000D01*
X145493000Y-106553000D01*
X145493000Y-105537000D01*
X144118750Y-105537000D01*
X143960000Y-105695750D01*
X143956928Y-105710000D01*
X141730000Y-105710000D01*
X141730000Y-104843711D01*
X141773937Y-104799774D01*
X141887205Y-104630256D01*
X141965226Y-104441898D01*
X141965603Y-104440000D01*
X143956928Y-104440000D01*
X143969188Y-104564482D01*
X144005498Y-104684180D01*
X144054043Y-104775000D01*
X144005498Y-104865820D01*
X143969188Y-104985518D01*
X143956928Y-105110000D01*
X143960000Y-105124250D01*
X144118750Y-105283000D01*
X145493000Y-105283000D01*
X145493000Y-104267000D01*
X144118750Y-104267000D01*
X143960000Y-104425750D01*
X143956928Y-104440000D01*
X141965603Y-104440000D01*
X142005000Y-104241939D01*
X142005000Y-104038061D01*
X141965604Y-103840000D01*
X143956928Y-103840000D01*
X143960000Y-103854250D01*
X144118750Y-104013000D01*
X145493000Y-104013000D01*
X145493000Y-103363750D01*
X145747000Y-103363750D01*
X145747000Y-104013000D01*
X147121250Y-104013000D01*
X147280000Y-103854250D01*
X147283072Y-103840000D01*
X147270812Y-103715518D01*
X147234502Y-103595820D01*
X147175537Y-103485506D01*
X147096185Y-103388815D01*
X146999494Y-103309463D01*
X146889180Y-103250498D01*
X146769482Y-103214188D01*
X146645000Y-103201928D01*
X145905750Y-103205000D01*
X145747000Y-103363750D01*
X145493000Y-103363750D01*
X145334250Y-103205000D01*
X144595000Y-103201928D01*
X144470518Y-103214188D01*
X144350820Y-103250498D01*
X144240506Y-103309463D01*
X144143815Y-103388815D01*
X144064463Y-103485506D01*
X144005498Y-103595820D01*
X143969188Y-103715518D01*
X143956928Y-103840000D01*
X141965604Y-103840000D01*
X141965226Y-103838102D01*
X141887205Y-103649744D01*
X141874013Y-103630000D01*
X143472678Y-103630000D01*
X143510000Y-103633676D01*
X143547322Y-103630000D01*
X143547333Y-103630000D01*
X143658986Y-103619003D01*
X143802247Y-103575546D01*
X143934276Y-103504974D01*
X144050001Y-103410001D01*
X144073804Y-103380997D01*
X147155000Y-100299802D01*
X147155000Y-100471335D01*
X147210147Y-100748574D01*
X147318320Y-101009727D01*
X147475363Y-101244759D01*
X147675241Y-101444637D01*
X147907759Y-101600000D01*
X147675241Y-101755363D01*
X147475363Y-101955241D01*
X147318320Y-102190273D01*
X147210147Y-102451426D01*
X147155000Y-102728665D01*
X147155000Y-103011335D01*
X147210147Y-103288574D01*
X147318320Y-103549727D01*
X147475363Y-103784759D01*
X147673961Y-103983357D01*
X147665518Y-103984188D01*
X147545820Y-104020498D01*
X147435506Y-104079463D01*
X147338815Y-104158815D01*
X147259463Y-104255506D01*
X147207316Y-104353066D01*
X147121250Y-104267000D01*
X145747000Y-104267000D01*
X145747000Y-105283000D01*
X145767000Y-105283000D01*
X145767000Y-105537000D01*
X145747000Y-105537000D01*
X145747000Y-106553000D01*
X147121250Y-106553000D01*
X147207316Y-106466934D01*
X147259463Y-106564494D01*
X147338815Y-106661185D01*
X147435506Y-106740537D01*
X147545820Y-106799502D01*
X147665518Y-106835812D01*
X147790000Y-106848072D01*
X149390000Y-106848072D01*
X149514482Y-106835812D01*
X149634180Y-106799502D01*
X149744494Y-106740537D01*
X149841185Y-106661185D01*
X149920537Y-106564494D01*
X149979502Y-106454180D01*
X150015812Y-106334482D01*
X150028072Y-106210000D01*
X150028072Y-104715000D01*
X153401928Y-104715000D01*
X153414188Y-104839482D01*
X153450498Y-104959180D01*
X153509463Y-105069494D01*
X153588815Y-105166185D01*
X153685506Y-105245537D01*
X153795820Y-105304502D01*
X153915518Y-105340812D01*
X154040000Y-105353072D01*
X154654250Y-105350000D01*
X154813000Y-105191250D01*
X154813000Y-104267000D01*
X155067000Y-104267000D01*
X155067000Y-105191250D01*
X155225750Y-105350000D01*
X155840000Y-105353072D01*
X155964482Y-105340812D01*
X156084180Y-105304502D01*
X156194494Y-105245537D01*
X156291185Y-105166185D01*
X156370537Y-105069494D01*
X156429502Y-104959180D01*
X156465812Y-104839482D01*
X156478072Y-104715000D01*
X156475000Y-104425750D01*
X156316250Y-104267000D01*
X155067000Y-104267000D01*
X154813000Y-104267000D01*
X153563750Y-104267000D01*
X153405000Y-104425750D01*
X153401928Y-104715000D01*
X150028072Y-104715000D01*
X150028072Y-104610000D01*
X150015812Y-104485518D01*
X149979502Y-104365820D01*
X149920537Y-104255506D01*
X149841185Y-104158815D01*
X149744494Y-104079463D01*
X149634180Y-104020498D01*
X149514482Y-103984188D01*
X149506039Y-103983357D01*
X149704637Y-103784759D01*
X149851474Y-103565000D01*
X153401928Y-103565000D01*
X153405000Y-103854250D01*
X153563750Y-104013000D01*
X154813000Y-104013000D01*
X154813000Y-103088750D01*
X155067000Y-103088750D01*
X155067000Y-104013000D01*
X156316250Y-104013000D01*
X156475000Y-103854250D01*
X156478072Y-103565000D01*
X156465812Y-103440518D01*
X156429502Y-103320820D01*
X156370537Y-103210506D01*
X156291185Y-103113815D01*
X156194494Y-103034463D01*
X156084180Y-102975498D01*
X155964482Y-102939188D01*
X155840000Y-102926928D01*
X155225750Y-102930000D01*
X155067000Y-103088750D01*
X154813000Y-103088750D01*
X154654250Y-102930000D01*
X154040000Y-102926928D01*
X153915518Y-102939188D01*
X153795820Y-102975498D01*
X153685506Y-103034463D01*
X153588815Y-103113815D01*
X153509463Y-103210506D01*
X153450498Y-103320820D01*
X153414188Y-103440518D01*
X153401928Y-103565000D01*
X149851474Y-103565000D01*
X149861680Y-103549727D01*
X149969853Y-103288574D01*
X150025000Y-103011335D01*
X150025000Y-102728665D01*
X149969853Y-102451426D01*
X149861680Y-102190273D01*
X149704637Y-101955241D01*
X149504759Y-101755363D01*
X149272241Y-101600000D01*
X149504759Y-101444637D01*
X149704637Y-101244759D01*
X149861680Y-101009727D01*
X149969853Y-100748574D01*
X150025000Y-100471335D01*
X150025000Y-100188665D01*
X149969853Y-99911426D01*
X149861680Y-99650273D01*
X149704637Y-99415241D01*
X149504759Y-99215363D01*
X149272241Y-99060000D01*
X149504759Y-98904637D01*
X149704637Y-98704759D01*
X149861680Y-98469727D01*
X149969853Y-98208574D01*
X150025000Y-97931335D01*
X150025000Y-97648665D01*
X149969853Y-97371426D01*
X149861680Y-97110273D01*
X149704637Y-96875241D01*
X149504759Y-96675363D01*
X149272241Y-96520000D01*
X149504759Y-96364637D01*
X149704637Y-96164759D01*
X149861680Y-95929727D01*
X149969853Y-95668574D01*
X150025000Y-95391335D01*
X150025000Y-95108665D01*
X149969853Y-94831426D01*
X149861680Y-94570273D01*
X149704637Y-94335241D01*
X149504759Y-94135363D01*
X149272241Y-93980000D01*
X149504759Y-93824637D01*
X149704637Y-93624759D01*
X149861680Y-93389727D01*
X149969853Y-93128574D01*
X150025000Y-92851335D01*
X150025000Y-92568665D01*
X149969853Y-92291426D01*
X149861680Y-92030273D01*
X149704637Y-91795241D01*
X149504759Y-91595363D01*
X149272241Y-91440000D01*
X149504759Y-91284637D01*
X149704637Y-91084759D01*
X149861680Y-90849727D01*
X149969853Y-90588574D01*
X150025000Y-90311335D01*
X150025000Y-90028665D01*
X149969853Y-89751426D01*
X149861680Y-89490273D01*
X149704637Y-89255241D01*
X149504759Y-89055363D01*
X149272241Y-88900000D01*
X149504759Y-88744637D01*
X149704637Y-88544759D01*
X149861680Y-88309727D01*
X149969853Y-88048574D01*
X149973429Y-88030598D01*
X150370000Y-88427170D01*
X150370001Y-97342668D01*
X150366324Y-97380000D01*
X150380998Y-97528985D01*
X150424454Y-97672246D01*
X150495026Y-97804276D01*
X150530508Y-97847510D01*
X150590000Y-97920001D01*
X150618998Y-97943799D01*
X153414325Y-100739127D01*
X153401928Y-100864999D01*
X153401928Y-101515001D01*
X153418992Y-101688255D01*
X153469528Y-101854851D01*
X153551595Y-102008387D01*
X153662038Y-102142962D01*
X153796613Y-102253405D01*
X153950149Y-102335472D01*
X154116745Y-102386008D01*
X154289999Y-102403072D01*
X155590001Y-102403072D01*
X155763255Y-102386008D01*
X155929851Y-102335472D01*
X156083387Y-102253405D01*
X156217962Y-102142962D01*
X156328405Y-102008387D01*
X156410472Y-101854851D01*
X156461008Y-101688255D01*
X156478072Y-101515001D01*
X156478072Y-100864999D01*
X156461008Y-100691745D01*
X156410472Y-100525149D01*
X156328405Y-100371613D01*
X156217962Y-100237038D01*
X156083387Y-100126595D01*
X155929851Y-100044528D01*
X155763255Y-99993992D01*
X155590001Y-99976928D01*
X154801730Y-99976928D01*
X151890000Y-97065199D01*
X151890000Y-88149690D01*
X151893676Y-88112367D01*
X151890000Y-88075044D01*
X151890000Y-88075035D01*
X151879003Y-87963382D01*
X151835546Y-87820121D01*
X151764975Y-87688093D01*
X151764974Y-87688091D01*
X151693799Y-87601365D01*
X151670001Y-87572367D01*
X151641004Y-87548570D01*
X150597432Y-86504999D01*
X154181008Y-82921425D01*
X154210001Y-82897631D01*
X154233795Y-82868638D01*
X154233799Y-82868634D01*
X154304973Y-82781907D01*
X154304974Y-82781906D01*
X154375546Y-82649877D01*
X154419003Y-82506616D01*
X154423951Y-82456383D01*
X154560535Y-82365120D01*
X154755120Y-82170535D01*
X154908005Y-81941727D01*
X155013314Y-81687490D01*
X155067000Y-81417592D01*
X155067000Y-81142408D01*
X155013314Y-80872510D01*
X154908005Y-80618273D01*
X154755120Y-80389465D01*
X154560535Y-80194880D01*
X154331727Y-80041995D01*
X154254485Y-80010000D01*
X154331727Y-79978005D01*
X154560535Y-79825120D01*
X154755120Y-79630535D01*
X154908005Y-79401727D01*
X155013314Y-79147490D01*
X155067000Y-78877592D01*
X155067000Y-78602408D01*
X155013314Y-78332510D01*
X154908005Y-78078273D01*
X154755120Y-77849465D01*
X154560535Y-77654880D01*
X154331727Y-77501995D01*
X154254485Y-77470000D01*
X154331727Y-77438005D01*
X154560535Y-77285120D01*
X154755120Y-77090535D01*
X154908005Y-76861727D01*
X155013314Y-76607490D01*
X155067000Y-76337592D01*
X155067000Y-76062408D01*
X155013314Y-75792510D01*
X154908005Y-75538273D01*
X154755120Y-75309465D01*
X154560535Y-75114880D01*
X154331727Y-74961995D01*
X154254485Y-74930000D01*
X154331727Y-74898005D01*
X154560535Y-74745120D01*
X154755120Y-74550535D01*
X154908005Y-74321727D01*
X155013314Y-74067490D01*
X155067000Y-73797592D01*
X155067000Y-73522408D01*
X155013314Y-73252510D01*
X154908005Y-72998273D01*
X154755120Y-72769465D01*
X154560535Y-72574880D01*
X154331727Y-72421995D01*
X154254485Y-72390000D01*
X154331727Y-72358005D01*
X154560535Y-72205120D01*
X154755120Y-72010535D01*
X154908005Y-71781727D01*
X155013314Y-71527490D01*
X155067000Y-71257592D01*
X155067000Y-70982408D01*
X155013314Y-70712510D01*
X154908005Y-70458273D01*
X154755120Y-70229465D01*
X154560535Y-70034880D01*
X154331727Y-69881995D01*
X154260057Y-69852308D01*
X154273023Y-69847636D01*
X154388980Y-69785656D01*
X154455960Y-69545565D01*
X153670000Y-68759605D01*
X152884040Y-69545565D01*
X152951020Y-69785656D01*
X153086760Y-69849485D01*
X153008273Y-69881995D01*
X152779465Y-70034880D01*
X152584880Y-70229465D01*
X152431995Y-70458273D01*
X152326686Y-70712510D01*
X152273000Y-70982408D01*
X152273000Y-71257592D01*
X152326686Y-71527490D01*
X152431995Y-71781727D01*
X152584880Y-72010535D01*
X152779465Y-72205120D01*
X153008273Y-72358005D01*
X153085515Y-72390000D01*
X153008273Y-72421995D01*
X152779465Y-72574880D01*
X152584880Y-72769465D01*
X152431995Y-72998273D01*
X152326686Y-73252510D01*
X152273000Y-73522408D01*
X152273000Y-73797592D01*
X152326686Y-74067490D01*
X152431995Y-74321727D01*
X152584880Y-74550535D01*
X152779465Y-74745120D01*
X153008273Y-74898005D01*
X153085515Y-74930000D01*
X153008273Y-74961995D01*
X152779465Y-75114880D01*
X152584880Y-75309465D01*
X152431995Y-75538273D01*
X152326686Y-75792510D01*
X152273000Y-76062408D01*
X152273000Y-76337592D01*
X152326686Y-76607490D01*
X152431995Y-76861727D01*
X152584880Y-77090535D01*
X152779465Y-77285120D01*
X153008273Y-77438005D01*
X153085515Y-77470000D01*
X153008273Y-77501995D01*
X152779465Y-77654880D01*
X152584880Y-77849465D01*
X152431995Y-78078273D01*
X152326686Y-78332510D01*
X152273000Y-78602408D01*
X152273000Y-78877592D01*
X152326686Y-79147490D01*
X152431995Y-79401727D01*
X152584880Y-79630535D01*
X152779465Y-79825120D01*
X153008273Y-79978005D01*
X153085515Y-80010000D01*
X153008273Y-80041995D01*
X152779465Y-80194880D01*
X152584880Y-80389465D01*
X152431995Y-80618273D01*
X152326686Y-80872510D01*
X152273000Y-81142408D01*
X152273000Y-81417592D01*
X152326686Y-81687490D01*
X152431995Y-81941727D01*
X152584880Y-82170535D01*
X152683586Y-82269241D01*
X150021543Y-84931286D01*
X149969853Y-84671426D01*
X149861680Y-84410273D01*
X149704637Y-84175241D01*
X149504759Y-83975363D01*
X149272241Y-83820000D01*
X149504759Y-83664637D01*
X149704637Y-83464759D01*
X149861680Y-83229727D01*
X149969853Y-82968574D01*
X150025000Y-82691335D01*
X150025000Y-82408665D01*
X149969853Y-82131426D01*
X149861680Y-81870273D01*
X149704637Y-81635241D01*
X149504759Y-81435363D01*
X149272241Y-81280000D01*
X149504759Y-81124637D01*
X149704637Y-80924759D01*
X149861680Y-80689727D01*
X149969853Y-80428574D01*
X150025000Y-80151335D01*
X150025000Y-79868665D01*
X149969853Y-79591426D01*
X149861680Y-79330273D01*
X149704637Y-79095241D01*
X149504759Y-78895363D01*
X149272241Y-78740000D01*
X149504759Y-78584637D01*
X149704637Y-78384759D01*
X149861680Y-78149727D01*
X149969853Y-77888574D01*
X150025000Y-77611335D01*
X150025000Y-77328665D01*
X149969853Y-77051426D01*
X149861680Y-76790273D01*
X149704637Y-76555241D01*
X149504759Y-76355363D01*
X149272241Y-76200000D01*
X149504759Y-76044637D01*
X149704637Y-75844759D01*
X149861680Y-75609727D01*
X149969853Y-75348574D01*
X150025000Y-75071335D01*
X150025000Y-74788665D01*
X149969853Y-74511426D01*
X149861680Y-74250273D01*
X149704637Y-74015241D01*
X149504759Y-73815363D01*
X149272241Y-73660000D01*
X149504759Y-73504637D01*
X149704637Y-73304759D01*
X149861680Y-73069727D01*
X149969853Y-72808574D01*
X150025000Y-72531335D01*
X150025000Y-72248665D01*
X149969853Y-71971426D01*
X149861680Y-71710273D01*
X149704637Y-71475241D01*
X149504759Y-71275363D01*
X149272241Y-71120000D01*
X149504759Y-70964637D01*
X149704637Y-70764759D01*
X149861680Y-70529727D01*
X149969853Y-70268574D01*
X150025000Y-69991335D01*
X150025000Y-69708665D01*
X149969853Y-69431426D01*
X149861680Y-69170273D01*
X149704637Y-68935241D01*
X149504759Y-68735363D01*
X149380023Y-68652017D01*
X152268090Y-68652017D01*
X152309078Y-68924133D01*
X152402364Y-69183023D01*
X152464344Y-69298980D01*
X152704435Y-69365960D01*
X153490395Y-68580000D01*
X153849605Y-68580000D01*
X154635565Y-69365960D01*
X154875656Y-69298980D01*
X154992756Y-69049952D01*
X155059023Y-68782865D01*
X155071910Y-68507983D01*
X155030922Y-68235867D01*
X154937636Y-67976977D01*
X154875656Y-67861020D01*
X154635565Y-67794040D01*
X153849605Y-68580000D01*
X153490395Y-68580000D01*
X152704435Y-67794040D01*
X152464344Y-67861020D01*
X152347244Y-68110048D01*
X152280977Y-68377135D01*
X152268090Y-68652017D01*
X149380023Y-68652017D01*
X149269727Y-68578320D01*
X149008574Y-68470147D01*
X148731335Y-68415000D01*
X148448665Y-68415000D01*
X148171426Y-68470147D01*
X147910273Y-68578320D01*
X147675241Y-68735363D01*
X147475363Y-68935241D01*
X147318320Y-69170273D01*
X147210147Y-69431426D01*
X147155000Y-69708665D01*
X147155000Y-69991335D01*
X147210147Y-70268574D01*
X147318320Y-70529727D01*
X147475363Y-70764759D01*
X147675241Y-70964637D01*
X147907759Y-71120000D01*
X147675241Y-71275363D01*
X147475363Y-71475241D01*
X147318320Y-71710273D01*
X147210147Y-71971426D01*
X147155000Y-72248665D01*
X147155000Y-72531335D01*
X147210147Y-72808574D01*
X147318320Y-73069727D01*
X147475363Y-73304759D01*
X147675241Y-73504637D01*
X147907759Y-73660000D01*
X147675241Y-73815363D01*
X147475363Y-74015241D01*
X147318320Y-74250273D01*
X147210147Y-74511426D01*
X147155000Y-74788665D01*
X147155000Y-75071335D01*
X147210147Y-75348574D01*
X147318320Y-75609727D01*
X147475363Y-75844759D01*
X147675241Y-76044637D01*
X147907759Y-76200000D01*
X147675241Y-76355363D01*
X147475363Y-76555241D01*
X147318320Y-76790273D01*
X147210147Y-77051426D01*
X147155000Y-77328665D01*
X147155000Y-77611335D01*
X147210147Y-77888574D01*
X147318320Y-78149727D01*
X147475363Y-78384759D01*
X147675241Y-78584637D01*
X147907759Y-78740000D01*
X147675241Y-78895363D01*
X147475363Y-79095241D01*
X147318320Y-79330273D01*
X147210147Y-79591426D01*
X147155000Y-79868665D01*
X147155000Y-80151335D01*
X147210147Y-80428574D01*
X147318320Y-80689727D01*
X147475363Y-80924759D01*
X147675241Y-81124637D01*
X147907759Y-81280000D01*
X147675241Y-81435363D01*
X147475363Y-81635241D01*
X147318320Y-81870273D01*
X147210147Y-82131426D01*
X147155000Y-82408665D01*
X147155000Y-82691335D01*
X147210147Y-82968574D01*
X147318320Y-83229727D01*
X147475363Y-83464759D01*
X147675241Y-83664637D01*
X147907759Y-83820000D01*
X147675241Y-83975363D01*
X147475363Y-84175241D01*
X147318320Y-84410273D01*
X147210147Y-84671426D01*
X147155000Y-84948665D01*
X147155000Y-85231335D01*
X147210147Y-85508574D01*
X147308077Y-85744999D01*
X146810000Y-85744999D01*
X146810000Y-85127322D01*
X146813676Y-85089999D01*
X146810000Y-85052676D01*
X146810000Y-85052667D01*
X146799003Y-84941014D01*
X146755546Y-84797753D01*
X146684974Y-84665724D01*
X146590001Y-84549999D01*
X146561004Y-84526202D01*
X134748688Y-72713887D01*
X134785000Y-72531335D01*
X134785000Y-72248665D01*
X134729853Y-71971426D01*
X134621680Y-71710273D01*
X134464637Y-71475241D01*
X134264759Y-71275363D01*
X134032241Y-71120000D01*
X134264759Y-70964637D01*
X134464637Y-70764759D01*
X134621680Y-70529727D01*
X134729853Y-70268574D01*
X134785000Y-69991335D01*
X134785000Y-69708665D01*
X134729853Y-69431426D01*
X134621680Y-69170273D01*
X134464637Y-68935241D01*
X134264759Y-68735363D01*
X134029727Y-68578320D01*
X133768574Y-68470147D01*
X133491335Y-68415000D01*
X133208665Y-68415000D01*
X132931426Y-68470147D01*
X132670273Y-68578320D01*
X132435241Y-68735363D01*
X132235363Y-68935241D01*
X132078320Y-69170273D01*
X131970147Y-69431426D01*
X131915000Y-69708665D01*
X131915000Y-69991335D01*
X131970147Y-70268574D01*
X132078320Y-70529727D01*
X132235363Y-70764759D01*
X132435241Y-70964637D01*
X132667759Y-71120000D01*
X132435241Y-71275363D01*
X132235363Y-71475241D01*
X132078320Y-71710273D01*
X131970147Y-71971426D01*
X131915000Y-72248665D01*
X131915000Y-72531335D01*
X131970147Y-72808574D01*
X132078320Y-73069727D01*
X132235363Y-73304759D01*
X132435241Y-73504637D01*
X132667759Y-73660000D01*
X132435241Y-73815363D01*
X132235363Y-74015241D01*
X132078320Y-74250273D01*
X131970147Y-74511426D01*
X131915000Y-74788665D01*
X131915000Y-75071335D01*
X131970147Y-75348574D01*
X132078320Y-75609727D01*
X132235363Y-75844759D01*
X132435241Y-76044637D01*
X132667759Y-76200000D01*
X132435241Y-76355363D01*
X132235363Y-76555241D01*
X132078320Y-76790273D01*
X131970147Y-77051426D01*
X131915000Y-77328665D01*
X131915000Y-77611335D01*
X131970147Y-77888574D01*
X132078320Y-78149727D01*
X132235363Y-78384759D01*
X132435241Y-78584637D01*
X132667759Y-78740000D01*
X132435241Y-78895363D01*
X132235363Y-79095241D01*
X132078320Y-79330273D01*
X131970147Y-79591426D01*
X131915000Y-79868665D01*
X131915000Y-80151335D01*
X131970147Y-80428574D01*
X132078320Y-80689727D01*
X132235363Y-80924759D01*
X132435241Y-81124637D01*
X132667759Y-81280000D01*
X132435241Y-81435363D01*
X132235363Y-81635241D01*
X132078320Y-81870273D01*
X131970147Y-82131426D01*
X131915000Y-82408665D01*
X131915000Y-82691335D01*
X131970147Y-82968574D01*
X132078320Y-83229727D01*
X132235363Y-83464759D01*
X132435241Y-83664637D01*
X132667759Y-83820000D01*
X132435241Y-83975363D01*
X132235363Y-84175241D01*
X132078320Y-84410273D01*
X131970147Y-84671426D01*
X131915000Y-84948665D01*
X131915000Y-85231335D01*
X131970147Y-85508574D01*
X132078320Y-85769727D01*
X132235363Y-86004759D01*
X132435241Y-86204637D01*
X132667759Y-86360000D01*
X132435241Y-86515363D01*
X132235363Y-86715241D01*
X132078320Y-86950273D01*
X131970147Y-87211426D01*
X131915000Y-87488665D01*
X131915000Y-87771335D01*
X131970147Y-88048574D01*
X132078320Y-88309727D01*
X132235363Y-88544759D01*
X132435241Y-88744637D01*
X132667759Y-88900000D01*
X132435241Y-89055363D01*
X132235363Y-89255241D01*
X132078320Y-89490273D01*
X131970147Y-89751426D01*
X131915000Y-90028665D01*
X131915000Y-90311335D01*
X131970147Y-90588574D01*
X132008017Y-90680000D01*
X131178072Y-90680000D01*
X131178072Y-90440000D01*
X131165812Y-90315518D01*
X131129502Y-90195820D01*
X131070537Y-90085506D01*
X130991185Y-89988815D01*
X130894494Y-89909463D01*
X130784180Y-89850498D01*
X130664482Y-89814188D01*
X130540000Y-89801928D01*
X128540000Y-89801928D01*
X128415518Y-89814188D01*
X128295820Y-89850498D01*
X128185506Y-89909463D01*
X128088815Y-89988815D01*
X128009463Y-90085506D01*
X127950498Y-90195820D01*
X127914188Y-90315518D01*
X127901928Y-90440000D01*
X127685000Y-90440000D01*
X127685000Y-67614435D01*
X152884040Y-67614435D01*
X153670000Y-68400395D01*
X154455960Y-67614435D01*
X154388980Y-67374344D01*
X154139952Y-67257244D01*
X153872865Y-67190977D01*
X153597983Y-67178090D01*
X153325867Y-67219078D01*
X153066977Y-67312364D01*
X152951020Y-67374344D01*
X152884040Y-67614435D01*
X127685000Y-67614435D01*
X127685000Y-64185000D01*
X156795001Y-64185000D01*
X156795001Y-87799739D01*
G37*
%TD.AperFunction*%
D23*
X145290000Y-85404802D02*
X145290001Y-86227666D01*
X145286324Y-86264998D01*
X145290001Y-86302331D01*
X145295847Y-86361680D01*
X145300998Y-86413983D01*
X145302212Y-86417986D01*
X140511994Y-91208205D01*
X140397501Y-91196928D01*
X139772499Y-91196928D01*
X139599245Y-91213992D01*
X139432649Y-91264528D01*
X139279113Y-91346595D01*
X139144538Y-91457038D01*
X139034095Y-91591613D01*
X138952028Y-91745149D01*
X138901492Y-91911745D01*
X138884428Y-92084999D01*
X138884428Y-93335001D01*
X138901492Y-93508255D01*
X138940001Y-93635202D01*
X138940000Y-95132068D01*
X138894113Y-95156595D01*
X138759538Y-95267038D01*
X138649095Y-95401613D01*
X138567028Y-95555149D01*
X138516492Y-95721745D01*
X138499428Y-95894999D01*
X138499428Y-96784627D01*
X138195000Y-96480199D01*
X138195000Y-96418061D01*
X138155226Y-96218102D01*
X138077205Y-96029744D01*
X137973567Y-95874638D01*
X137958508Y-95721745D01*
X137907972Y-95555149D01*
X137825905Y-95401613D01*
X137715462Y-95267038D01*
X137580887Y-95156595D01*
X137427351Y-95074528D01*
X137260755Y-95023992D01*
X137087501Y-95006928D01*
X136647490Y-95006928D01*
X136647490Y-94297311D01*
X136733006Y-94211795D01*
X136847499Y-94223072D01*
X137472501Y-94223072D01*
X137645755Y-94206008D01*
X137812351Y-94155472D01*
X137965887Y-94073405D01*
X138100462Y-93962962D01*
X138210905Y-93828387D01*
X138292972Y-93674851D01*
X138343508Y-93508255D01*
X138360572Y-93335001D01*
X138360572Y-92084999D01*
X138343508Y-91911745D01*
X138292972Y-91745149D01*
X138210905Y-91591613D01*
X138100462Y-91457038D01*
X137965887Y-91346595D01*
X137920000Y-91322068D01*
X137920000Y-90580491D01*
X138532477Y-89968015D01*
X138547998Y-90019180D01*
X138606963Y-90129494D01*
X138686315Y-90226185D01*
X138783006Y-90305537D01*
X138893320Y-90364502D01*
X139013018Y-90400812D01*
X139137500Y-90413072D01*
X139414250Y-90410000D01*
X139573000Y-90251250D01*
X139573000Y-89027000D01*
X139827000Y-89027000D01*
X139827000Y-90251250D01*
X139985750Y-90410000D01*
X140262500Y-90413072D01*
X140386982Y-90400812D01*
X140506680Y-90364502D01*
X140616994Y-90305537D01*
X140713685Y-90226185D01*
X140793037Y-90129494D01*
X140852002Y-90019180D01*
X140888312Y-89899482D01*
X140900572Y-89775000D01*
X140897500Y-89185750D01*
X140738750Y-89027000D01*
X139827000Y-89027000D01*
X139573000Y-89027000D01*
X139553000Y-89027000D01*
X139553000Y-88773000D01*
X139573000Y-88773000D01*
X139573000Y-87548750D01*
X139827000Y-87548750D01*
X139827000Y-88773000D01*
X140738750Y-88773000D01*
X140897500Y-88614250D01*
X140900572Y-88025000D01*
X140888312Y-87900518D01*
X140852002Y-87780820D01*
X140793037Y-87670506D01*
X140713685Y-87573815D01*
X140616994Y-87494463D01*
X140506680Y-87435498D01*
X140386982Y-87399188D01*
X140262500Y-87386928D01*
X139985750Y-87390000D01*
X139827000Y-87548750D01*
X139573000Y-87548750D01*
X139443321Y-87419071D01*
X139425226Y-87328102D01*
X139347205Y-87139744D01*
X139233937Y-86970226D01*
X139089774Y-86826063D01*
X138920256Y-86712795D01*
X138731898Y-86634774D01*
X138531939Y-86595000D01*
X138328061Y-86595000D01*
X138128102Y-86634774D01*
X137939744Y-86712795D01*
X137770226Y-86826063D01*
X137626063Y-86970226D01*
X137535000Y-87106512D01*
X137535000Y-81807320D01*
X137538676Y-81769997D01*
X137535000Y-81732674D01*
X137535000Y-81732665D01*
X137524003Y-81621012D01*
X137480546Y-81477751D01*
X137409974Y-81345722D01*
X137396811Y-81329683D01*
X137338799Y-81258994D01*
X137338795Y-81258990D01*
X137315001Y-81229997D01*
X137286008Y-81206203D01*
X134464600Y-78384796D01*
X134464637Y-78384759D01*
X134621680Y-78149727D01*
X134729853Y-77888574D01*
X134785000Y-77611335D01*
X134785000Y-77328665D01*
X134729853Y-77051426D01*
X134621680Y-76790273D01*
X134464637Y-76555241D01*
X134264759Y-76355363D01*
X134032241Y-76200000D01*
X134264759Y-76044637D01*
X134464637Y-75844759D01*
X134621680Y-75609727D01*
X134729853Y-75348574D01*
X134785000Y-75071335D01*
X134785000Y-74899801D01*
X145290000Y-85404802D01*
%TA.AperFunction,Conductor*%
D24*
G36*
X145290000Y-85404802D02*
G01*
X145290001Y-86227666D01*
X145286324Y-86264998D01*
X145290001Y-86302331D01*
X145295847Y-86361680D01*
X145300998Y-86413983D01*
X145302212Y-86417986D01*
X140511994Y-91208205D01*
X140397501Y-91196928D01*
X139772499Y-91196928D01*
X139599245Y-91213992D01*
X139432649Y-91264528D01*
X139279113Y-91346595D01*
X139144538Y-91457038D01*
X139034095Y-91591613D01*
X138952028Y-91745149D01*
X138901492Y-91911745D01*
X138884428Y-92084999D01*
X138884428Y-93335001D01*
X138901492Y-93508255D01*
X138940001Y-93635202D01*
X138940000Y-95132068D01*
X138894113Y-95156595D01*
X138759538Y-95267038D01*
X138649095Y-95401613D01*
X138567028Y-95555149D01*
X138516492Y-95721745D01*
X138499428Y-95894999D01*
X138499428Y-96784627D01*
X138195000Y-96480199D01*
X138195000Y-96418061D01*
X138155226Y-96218102D01*
X138077205Y-96029744D01*
X137973567Y-95874638D01*
X137958508Y-95721745D01*
X137907972Y-95555149D01*
X137825905Y-95401613D01*
X137715462Y-95267038D01*
X137580887Y-95156595D01*
X137427351Y-95074528D01*
X137260755Y-95023992D01*
X137087501Y-95006928D01*
X136647490Y-95006928D01*
X136647490Y-94297311D01*
X136733006Y-94211795D01*
X136847499Y-94223072D01*
X137472501Y-94223072D01*
X137645755Y-94206008D01*
X137812351Y-94155472D01*
X137965887Y-94073405D01*
X138100462Y-93962962D01*
X138210905Y-93828387D01*
X138292972Y-93674851D01*
X138343508Y-93508255D01*
X138360572Y-93335001D01*
X138360572Y-92084999D01*
X138343508Y-91911745D01*
X138292972Y-91745149D01*
X138210905Y-91591613D01*
X138100462Y-91457038D01*
X137965887Y-91346595D01*
X137920000Y-91322068D01*
X137920000Y-90580491D01*
X138532477Y-89968015D01*
X138547998Y-90019180D01*
X138606963Y-90129494D01*
X138686315Y-90226185D01*
X138783006Y-90305537D01*
X138893320Y-90364502D01*
X139013018Y-90400812D01*
X139137500Y-90413072D01*
X139414250Y-90410000D01*
X139573000Y-90251250D01*
X139573000Y-89027000D01*
X139827000Y-89027000D01*
X139827000Y-90251250D01*
X139985750Y-90410000D01*
X140262500Y-90413072D01*
X140386982Y-90400812D01*
X140506680Y-90364502D01*
X140616994Y-90305537D01*
X140713685Y-90226185D01*
X140793037Y-90129494D01*
X140852002Y-90019180D01*
X140888312Y-89899482D01*
X140900572Y-89775000D01*
X140897500Y-89185750D01*
X140738750Y-89027000D01*
X139827000Y-89027000D01*
X139573000Y-89027000D01*
X139553000Y-89027000D01*
X139553000Y-88773000D01*
X139573000Y-88773000D01*
X139573000Y-87548750D01*
X139827000Y-87548750D01*
X139827000Y-88773000D01*
X140738750Y-88773000D01*
X140897500Y-88614250D01*
X140900572Y-88025000D01*
X140888312Y-87900518D01*
X140852002Y-87780820D01*
X140793037Y-87670506D01*
X140713685Y-87573815D01*
X140616994Y-87494463D01*
X140506680Y-87435498D01*
X140386982Y-87399188D01*
X140262500Y-87386928D01*
X139985750Y-87390000D01*
X139827000Y-87548750D01*
X139573000Y-87548750D01*
X139443321Y-87419071D01*
X139425226Y-87328102D01*
X139347205Y-87139744D01*
X139233937Y-86970226D01*
X139089774Y-86826063D01*
X138920256Y-86712795D01*
X138731898Y-86634774D01*
X138531939Y-86595000D01*
X138328061Y-86595000D01*
X138128102Y-86634774D01*
X137939744Y-86712795D01*
X137770226Y-86826063D01*
X137626063Y-86970226D01*
X137535000Y-87106512D01*
X137535000Y-81807320D01*
X137538676Y-81769997D01*
X137535000Y-81732674D01*
X137535000Y-81732665D01*
X137524003Y-81621012D01*
X137480546Y-81477751D01*
X137409974Y-81345722D01*
X137396811Y-81329683D01*
X137338799Y-81258994D01*
X137338795Y-81258990D01*
X137315001Y-81229997D01*
X137286008Y-81206203D01*
X134464600Y-78384796D01*
X134464637Y-78384759D01*
X134621680Y-78149727D01*
X134729853Y-77888574D01*
X134785000Y-77611335D01*
X134785000Y-77328665D01*
X134729853Y-77051426D01*
X134621680Y-76790273D01*
X134464637Y-76555241D01*
X134264759Y-76355363D01*
X134032241Y-76200000D01*
X134264759Y-76044637D01*
X134464637Y-75844759D01*
X134621680Y-75609727D01*
X134729853Y-75348574D01*
X134785000Y-75071335D01*
X134785000Y-74899801D01*
X145290000Y-85404802D01*
G37*
%TD.AperFunction*%
%TD*%
M02*
