M48
; DRILL file {KiCad (5.1.9)-1} date 11/05/21 10:50:48
; FORMAT={-:-/ absolute / inch / decimal}
; #@! TF.CreationDate,2021-11-05T10:50:48-04:00
; #@! TF.GenerationSoftware,Kicad,Pcbnew,(5.1.9)-1
; #@! TF.FileFunction,Plated,1,2,PTH
FMAT,2
INCH
T1C0.0157
T2C0.0360
T3C0.0394
%
G90
G05
T1
X5.05Y-2.6
X5.1Y-5.0
X5.2482Y-4.65
X5.35Y-3.4
X5.4Y-3.8
X5.4Y-4.4
X5.4Y-4.4
X5.45Y-3.45
X5.55Y-2.95
X5.55Y-3.3
X5.55Y-3.9
X5.55Y-3.9
X5.55Y-3.95
X5.55Y-3.95
X5.55Y-4.1
X5.55Y-4.1
X5.6Y-4.0
X5.65Y-4.35
X6.1Y-5.0
T2
X6.1Y-3.555
X6.1Y-3.635
X6.1Y-3.715
T3
X5.1Y-3.6
X5.1Y-3.9
X5.1Y-4.1
X5.1Y-4.4
X5.25Y-2.75
X5.25Y-2.85
X5.25Y-2.95
X5.25Y-3.05
X5.25Y-3.15
X5.25Y-3.25
X5.25Y-3.35
X5.25Y-3.45
X5.25Y-3.55
X5.25Y-3.65
X5.25Y-3.75
X5.25Y-3.85
X5.25Y-3.95
X5.25Y-4.05
X5.25Y-4.15
X5.85Y-2.75
X5.85Y-2.85
X5.85Y-2.95
X5.85Y-3.05
X5.85Y-3.15
X5.85Y-3.25
X5.85Y-3.35
X5.85Y-3.45
X5.85Y-3.55
X5.85Y-3.65
X5.85Y-3.75
X5.85Y-3.85
X5.85Y-3.95
X5.85Y-4.05
X5.85Y-4.15
X6.05Y-2.7
X6.05Y-2.8
X6.05Y-2.9
X6.05Y-3.0
X6.05Y-3.1
X6.05Y-3.2
T2
G00X6.1167Y-3.47
M15
G01X6.0833Y-3.47
M16
G05
G00X6.1167Y-3.8
M15
G01X6.0833Y-3.8
M16
G05
T0
M30
