%TF.GenerationSoftware,KiCad,Pcbnew,(5.1.9)-1*%
%TF.CreationDate,2021-11-05T10:50:43-04:00*%
%TF.ProjectId,raindrop,7261696e-6472-46f7-902e-6b696361645f,rev?*%
%TF.SameCoordinates,Original*%
%TF.FileFunction,Soldermask,Top*%
%TF.FilePolarity,Negative*%
%FSLAX46Y46*%
G04 Gerber Fmt 4.6, Leading zero omitted, Abs format (unit mm)*
G04 Created by KiCad (PCBNEW (5.1.9)-1) date 2021-11-05 10:50:43*
%MOMM*%
%LPD*%
G01*
G04 APERTURE LIST*
%ADD10C,1.524000*%
%ADD11C,2.000000*%
%ADD12R,2.000000X2.000000*%
%ADD13O,1.600000X1.600000*%
%ADD14R,1.600000X1.600000*%
%ADD15C,1.324000*%
%ADD16O,2.524000X1.424000*%
G04 APERTURE END LIST*
D10*
%TO.C,J1*%
X153670000Y-81280000D03*
X153670000Y-78740000D03*
X153670000Y-76200000D03*
X153670000Y-73660000D03*
X153670000Y-71120000D03*
X153670000Y-68580000D03*
%TD*%
D11*
%TO.C,J2*%
X129540000Y-99060000D03*
D12*
X129540000Y-91440000D03*
%TD*%
%TO.C,C1*%
G36*
G01*
X130190001Y-84395000D02*
X128889999Y-84395000D01*
G75*
G02*
X128640000Y-84145001I0J249999D01*
G01*
X128640000Y-83494999D01*
G75*
G02*
X128889999Y-83245000I249999J0D01*
G01*
X130190001Y-83245000D01*
G75*
G02*
X130440000Y-83494999I0J-249999D01*
G01*
X130440000Y-84145001D01*
G75*
G02*
X130190001Y-84395000I-249999J0D01*
G01*
G37*
G36*
G01*
X130190001Y-87345000D02*
X128889999Y-87345000D01*
G75*
G02*
X128640000Y-87095001I0J249999D01*
G01*
X128640000Y-86444999D01*
G75*
G02*
X128889999Y-86195000I249999J0D01*
G01*
X130190001Y-86195000D01*
G75*
G02*
X130440000Y-86444999I0J-249999D01*
G01*
X130440000Y-87095001D01*
G75*
G02*
X130190001Y-87345000I-249999J0D01*
G01*
G37*
%TD*%
D13*
%TO.C,A1*%
X133350000Y-69850000D03*
X148590000Y-69850000D03*
X133350000Y-105410000D03*
X148590000Y-72390000D03*
X133350000Y-102870000D03*
X148590000Y-74930000D03*
X133350000Y-100330000D03*
X148590000Y-77470000D03*
X133350000Y-97790000D03*
X148590000Y-80010000D03*
X133350000Y-95250000D03*
X148590000Y-82550000D03*
X133350000Y-92710000D03*
X148590000Y-85090000D03*
X133350000Y-90170000D03*
X148590000Y-87630000D03*
X133350000Y-87630000D03*
X148590000Y-90170000D03*
X133350000Y-85090000D03*
X148590000Y-92710000D03*
X133350000Y-82550000D03*
X148590000Y-95250000D03*
X133350000Y-80010000D03*
X148590000Y-97790000D03*
X133350000Y-77470000D03*
X148590000Y-100330000D03*
X133350000Y-74930000D03*
X148590000Y-102870000D03*
X133350000Y-72390000D03*
D14*
X148590000Y-105410000D03*
%TD*%
D15*
%TO.C,J4*%
X154940000Y-94361000D03*
X154940000Y-92329000D03*
X154940000Y-90297000D03*
D16*
X154940000Y-96520000D03*
X154940000Y-88138000D03*
%TD*%
D11*
%TO.C,J3*%
X129540000Y-104140000D03*
D12*
X129540000Y-111760000D03*
%TD*%
M02*
